<svg width="111" height="109" viewBox="0 0 111 109" fill="none" xmlns="http://www.w3.org/2000/svg">
<g filter="url(#filter0_ddii_1_4)">
<mask id="path-1-outside-1_1_4" maskUnits="userSpaceOnUse" x="2" y="-1.00002" width="106" height="103" fill="black">
<rect fill="white" x="2" y="-1.00002" width="106" height="103"/>
<path d="M47.152 95.88L44.592 101H5.68V97.032L17.712 87.56V9.99198L4.4 5.51198L6.96 0.391983H45.872V4.35998L33.712 13.832V91.272L47.152 95.88ZM103.856 101H80.688L41.008 50.568L80.304 16.264L65.456 5.51198L68.016 0.391983H102.448V4.35998L56.368 44.552L91.568 88.584L106.416 95.88L103.856 101Z"/>
</mask>
<path d="M47.152 95.88L44.592 101H5.68V97.032L17.712 87.56V9.99198L4.4 5.51198L6.96 0.391983H45.872V4.35998L33.712 13.832V91.272L47.152 95.88ZM103.856 101H80.688L41.008 50.568L80.304 16.264L65.456 5.51198L68.016 0.391983H102.448V4.35998L56.368 44.552L91.568 88.584L106.416 95.88L103.856 101Z" fill="#0D4843"/>
<path d="M47.152 95.88L48.0464 96.3272L48.5576 95.3048L47.4763 94.934L47.152 95.88ZM44.592 101V102H45.21L45.4864 101.447L44.592 101ZM5.68 101H4.68V102H5.68V101ZM5.68 97.032L5.06144 96.2462L4.68 96.5465V97.032H5.68ZM17.712 87.56L18.3306 88.3457L18.712 88.0454V87.56H17.712ZM17.712 9.99198H18.712V9.27341L18.031 9.04421L17.712 9.99198ZM4.4 5.51198L3.50557 5.06476L2.99143 6.09305L4.08104 6.45975L4.4 5.51198ZM6.96 0.391983V-0.608017H6.34197L6.06557 -0.0552309L6.96 0.391983ZM45.872 0.391983H46.872V-0.608017H45.872V0.391983ZM45.872 4.35998L46.4865 5.14888L46.872 4.84861V4.35998H45.872ZM33.712 13.832L33.0975 13.0431L32.712 13.3433V13.832H33.712ZM33.712 91.272H32.712V91.9863L33.3877 92.2179L33.712 91.272ZM103.856 101V102H104.474L104.75 101.447L103.856 101ZM80.688 101L79.9021 101.618L80.2024 102H80.688V101ZM41.008 50.568L40.3504 49.8146L39.6345 50.4395L40.2221 51.1863L41.008 50.568ZM80.304 16.264L80.9616 17.0173L81.9082 16.191L80.8905 15.454L80.304 16.264ZM65.456 5.51198L64.5616 5.06476L64.1819 5.82404L64.8695 6.32192L65.456 5.51198ZM68.016 0.391983V-0.608017H67.398L67.1216 -0.0552316L68.016 0.391983ZM102.448 0.391983H103.448V-0.608017H102.448V0.391983ZM102.448 4.35998L103.105 5.11359L103.448 4.8147V4.35998H102.448ZM56.368 44.552L55.7107 43.7984L54.9887 44.4281L55.5869 45.1764L56.368 44.552ZM91.568 88.584L90.7869 89.2084L90.9264 89.3829L91.127 89.4815L91.568 88.584ZM106.416 95.88L107.31 96.3272L107.761 95.4266L106.857 94.9825L106.416 95.88ZM46.2576 95.4328L43.6976 100.553L45.4864 101.447L48.0464 96.3272L46.2576 95.4328ZM44.592 100H5.68V102H44.592V100ZM6.68 101V97.032H4.68V101H6.68ZM6.29856 97.8177L18.3306 88.3457L17.0934 86.7742L5.06144 96.2462L6.29856 97.8177ZM18.712 87.56V9.99198H16.712V87.56H18.712ZM18.031 9.04421L4.71896 4.56421L4.08104 6.45975L17.393 10.9397L18.031 9.04421ZM5.29443 5.95919L7.85443 0.839197L6.06557 -0.0552309L3.50557 5.06476L5.29443 5.95919ZM6.96 1.39198H45.872V-0.608017H6.96V1.39198ZM44.872 0.391983V4.35998H46.872V0.391983H44.872ZM45.2575 3.57107L33.0975 13.0431L34.3265 14.6209L46.4865 5.14888L45.2575 3.57107ZM32.712 13.832V91.272H34.712V13.832H32.712ZM33.3877 92.2179L46.8277 96.8259L47.4763 94.934L34.0363 90.326L33.3877 92.2179ZM103.856 100H80.688V102H103.856V100ZM81.4739 100.382L41.7939 49.9496L40.2221 51.1863L79.9021 101.618L81.4739 100.382ZM41.6656 51.3213L80.9616 17.0173L79.6464 15.5106L40.3504 49.8146L41.6656 51.3213ZM80.8905 15.454L66.0425 4.70204L64.8695 6.32192L79.7175 17.0739L80.8905 15.454ZM66.3504 5.95919L68.9104 0.839198L67.1216 -0.0552316L64.5616 5.06476L66.3504 5.95919ZM68.016 1.39198H102.448V-0.608017H68.016V1.39198ZM101.448 0.391983V4.35998H103.448V0.391983H101.448ZM101.791 3.60636L55.7107 43.7984L57.0253 45.3056L103.105 5.11359L101.791 3.60636ZM55.5869 45.1764L90.7869 89.2084L92.3491 87.9596L57.1491 43.9276L55.5869 45.1764ZM91.127 89.4815L105.975 96.7775L106.857 94.9825L92.009 87.6865L91.127 89.4815ZM105.522 95.4328L102.962 100.553L104.75 101.447L107.31 96.3272L105.522 95.4328Z" fill="black" mask="url(#path-1-outside-1_1_4)"/>
</g>
<defs>
<filter id="filter0_ddii_1_4" x="0.399994" y="0.391983" width="110.016" height="108.608" filterUnits="userSpaceOnUse" color-interpolation-filters="sRGB">
<feFlood flood-opacity="0" result="BackgroundImageFix"/>
<feColorMatrix in="SourceAlpha" type="matrix" values="0 0 0 0 0 0 0 0 0 0 0 0 0 0 0 0 0 0 127 0" result="hardAlpha"/>
<feOffset dy="4"/>
<feGaussianBlur stdDeviation="2"/>
<feComposite in2="hardAlpha" operator="out"/>
<feColorMatrix type="matrix" values="0 0 0 0 0 0 0 0 0 0 0 0 0 0 0 0 0 0 0.25 0"/>
<feBlend mode="normal" in2="BackgroundImageFix" result="effect1_dropShadow_1_4"/>
<feColorMatrix in="SourceAlpha" type="matrix" values="0 0 0 0 0 0 0 0 0 0 0 0 0 0 0 0 0 0 127 0" result="hardAlpha"/>
<feOffset dy="4"/>
<feGaussianBlur stdDeviation="2"/>
<feComposite in2="hardAlpha" operator="out"/>
<feColorMatrix type="matrix" values="0 0 0 0 0 0 0 0 0 0 0 0 0 0 0 0 0 0 0.25 0"/>
<feBlend mode="normal" in2="effect1_dropShadow_1_4" result="effect2_dropShadow_1_4"/>
<feBlend mode="normal" in="SourceGraphic" in2="effect2_dropShadow_1_4" result="shape"/>
<feColorMatrix in="SourceAlpha" type="matrix" values="0 0 0 0 0 0 0 0 0 0 0 0 0 0 0 0 0 0 127 0" result="hardAlpha"/>
<feOffset dy="4"/>
<feGaussianBlur stdDeviation="2"/>
<feComposite in2="hardAlpha" operator="arithmetic" k2="-1" k3="1"/>
<feColorMatrix type="matrix" values="0 0 0 0 0 0 0 0 0 0 0 0 0 0 0 0 0 0 0.25 0"/>
<feBlend mode="normal" in2="shape" result="effect3_innerShadow_1_4"/>
<feColorMatrix in="SourceAlpha" type="matrix" values="0 0 0 0 0 0 0 0 0 0 0 0 0 0 0 0 0 0 127 0" result="hardAlpha"/>
<feOffset dy="4"/>
<feGaussianBlur stdDeviation="2"/>
<feComposite in2="hardAlpha" operator="arithmetic" k2="-1" k3="1"/>
<feColorMatrix type="matrix" values="0 0 0 0 0 0 0 0 0 0 0 0 0 0 0 0 0 0 0.25 0"/>
<feBlend mode="normal" in2="effect3_innerShadow_1_4" result="effect4_innerShadow_1_4"/>
</filter>
</defs>
</svg>
