<svg width="342" height="58" viewBox="0 0 342 58" fill="none" xmlns="http://www.w3.org/2000/svg">
<path d="M50.2969 46.3281C50.4219 46.5469 50.4844 46.7344 50.4844 46.8906C50.4844 47.0781 50.4062 47.25 50.25 47.4062C50.125 47.5625 49.9375 47.7344 49.6875 47.9219C49.4688 48.0781 49.2188 48.25 48.9375 48.4375C48.6875 48.625 48.4375 48.8594 48.1875 49.1406C48.0312 49.2969 47.9688 49.4688 48 49.6562C48.0312 49.8438 47.9844 50.0312 47.8594 50.2188C47.6406 50.5 47.3594 50.8125 47.0156 51.1562C46.6719 51.5 46.2969 51.8594 45.8906 52.2344C45.4844 52.6094 45.0625 52.9844 44.625 53.3594C44.2188 53.7344 43.8594 54.0781 43.5469 54.3906C43.2344 54.6719 42.9688 54.9062 42.75 55.0938C42.5625 55.3125 42.4844 55.4375 42.5156 55.4688C42.4531 55.4688 42.375 55.4531 42.2812 55.4219C42.1875 55.4219 42.1094 55.4219 42.0469 55.4219C41.9219 55.4219 41.7656 55.4844 41.5781 55.6094C41.3906 55.7656 41.1719 55.8438 40.9219 55.8438C40.5156 55.8438 40.0625 55.7344 39.5625 55.5156C39.0625 55.3281 38.5469 55.0625 38.0156 54.7188C37.8594 54.625 37.7031 54.4688 37.5469 54.25C37.3906 54.0312 37.2031 53.8438 36.9844 53.6875C36.7344 53.5312 36.4688 53.4062 36.1875 53.3125C35.9375 53.2188 35.7344 53.125 35.5781 53.0312C35.1719 52.6562 34.7656 52.2031 34.3594 51.6719C33.9844 51.1406 33.5781 50.6562 33.1406 50.2188C32.2656 49.375 31.4062 48.5312 30.5625 47.6875C29.7188 46.8125 28.8281 45.9062 27.8906 44.9688C27.4219 44.5312 26.9219 44.125 26.3906 43.75C25.8906 43.375 25.4531 42.9688 25.0781 42.5312C24.9531 42.375 24.8906 42.2031 24.8906 42.0156C24.8906 41.7969 24.8438 41.6094 24.75 41.4531C24.2812 40.8281 23.7188 40.2188 23.0625 39.625C22.4375 39 21.9531 38.4375 21.6094 37.9375C21.4219 37.6875 21.2812 37.4062 21.1875 37.0938C21.125 36.75 21.0312 36.4531 20.9062 36.2031C20.7188 35.9531 20.4688 35.7344 20.1562 35.5469C19.875 35.3281 19.6562 35.0781 19.5 34.7969C19.3438 34.5469 19.2188 34.2656 19.125 33.9531C19.0625 33.6094 18.9531 33.3125 18.7969 33.0625C18.6406 32.8125 18.4062 32.6562 18.0938 32.5938C17.8125 32.5 17.5781 32.3125 17.3906 32.0312C17.2656 31.8438 17.1875 31.6719 17.1562 31.5156C17.125 31.3594 17.0938 31.2188 17.0625 31.0938C17.0312 30.9375 16.9844 30.7969 16.9219 30.6719C16.8906 30.5469 16.8125 30.4062 16.6875 30.25C16.25 30.875 15.9844 31.5 15.8906 32.125C15.7969 32.75 15.75 33.4062 15.75 34.0938V35.1719C15.75 35.7656 15.7031 36.3281 15.6094 36.8594C15.5156 37.3594 15.4062 37.8594 15.2812 38.3594C15.1562 38.8594 15.0312 39.3594 14.9062 39.8594C14.7812 40.3594 14.6719 40.8906 14.5781 41.4531C14.4219 42.4531 14.3594 43.5 14.3906 44.5938C14.4531 45.6562 14.4062 46.7188 14.25 47.7812C14.1562 47.875 14.0625 48.0781 13.9688 48.3906C13.875 48.7031 13.7812 49.0781 13.6875 49.5156C13.625 49.9219 13.5781 50.375 13.5469 50.875C13.5156 51.375 13.5 51.875 13.5 52.375C13.5 52.5312 13.5 52.7031 13.5 52.8906C13.5 53.0469 13.5156 53.2031 13.5469 53.3594C13.5781 53.2656 13.7031 53.2188 13.9219 53.2188C14.2344 53.2188 14.625 53.2812 15.0938 53.4062C15.5625 53.5 15.9844 53.5469 16.3594 53.5469C16.7031 53.5469 16.9219 53.4844 17.0156 53.3594C17.1406 53.2344 17.4062 53.1719 17.8125 53.1719C18.1562 53.1719 18.4688 53.2344 18.75 53.3594C19.0312 53.4844 19.1719 53.7188 19.1719 54.0625C19.1719 54.5 19.0781 54.7812 18.8906 54.9062C18.7031 55.0312 18.5312 55.0938 18.375 55.0938C18.2812 55.0938 18.1562 55.0781 18 55.0469C17.875 55.0469 17.7344 55.0469 17.5781 55.0469C17.2344 55.0469 17.0156 55.125 16.9219 55.2812C16.8281 55.4375 16.6562 55.5156 16.4062 55.5156C16.25 55.5156 16.0625 55.5 15.8438 55.4688C15.6562 55.4375 15.4375 55.4219 15.1875 55.4219C15.0938 55.4219 14.8438 55.4531 14.4375 55.5156C14.0312 55.6094 13.5469 55.7031 12.9844 55.7969C12.4219 55.9219 11.8125 56.0469 11.1562 56.1719C10.5312 56.2969 9.92188 56.4062 9.32812 56.5C9.26562 56.5312 9.1875 56.5469 9.09375 56.5469C9 56.5469 8.89062 56.5312 8.76562 56.5C8.67188 56.5 8.57812 56.5 8.48438 56.5H8.29688C8.20312 56.5312 7.92188 56.5938 7.45312 56.6875C6.98438 56.8125 6.4375 56.9219 5.8125 57.0156C5.21875 57.1406 4.59375 57.25 3.9375 57.3438C3.28125 57.4375 2.70312 57.4844 2.20312 57.4844C1.54688 57.4844 1.125 57.3906 0.9375 57.2031C0.75 57.0156 0.65625 56.8125 0.65625 56.5938C0.65625 56.4062 0.734375 56.1719 0.890625 55.8906C1.04688 55.6406 1.26562 55.4062 1.54688 55.1875C1.82812 54.9688 2.15625 54.7812 2.53125 54.625C2.9375 54.4688 3.375 54.3906 3.84375 54.3906C4 54.3906 4.1875 54.4062 4.40625 54.4375C4.65625 54.4688 4.875 54.4844 5.0625 54.4844C5.3125 54.4844 5.5625 54.1094 5.8125 53.3594C6.0625 52.6094 6.29688 51.625 6.51562 50.4062C6.76562 49.1875 7.01562 47.8125 7.26562 46.2812C7.51562 44.7188 7.75 43.125 7.96875 41.5C8.21875 39.875 8.45312 38.2969 8.67188 36.7656C8.89062 35.2344 9.10938 33.875 9.32812 32.6875V32.5469C9.32812 32.4531 9.3125 32.3594 9.28125 32.2656C9.28125 32.1406 9.28125 32.0312 9.28125 31.9375C9.28125 31.4375 9.42188 30.8906 9.70312 30.2969C9.98438 29.6719 10.2188 28.9531 10.4062 28.1406C10.5 27.4531 10.5469 26.7656 10.5469 26.0781C10.5781 25.3594 10.6406 24.6562 10.7344 23.9688C11.0469 21.5625 11.3906 18.9375 11.7656 16.0938C12.1719 13.2188 12.5312 9.89062 12.8438 6.10938C12.625 5.98438 12.4062 5.92188 12.1875 5.92188C11.75 5.92188 11.2969 6.07812 10.8281 6.39062C10.3906 6.70312 9.95312 6.85938 9.51562 6.85938C9.26562 6.85938 9 6.75 8.71875 6.53125C8.4375 6.3125 8.29688 5.90625 8.29688 5.3125C8.29688 4.9375 8.35938 4.5625 8.48438 4.1875C8.60938 3.78125 8.78125 3.48438 9 3.29688C9.09375 3.20312 9.53125 3.14062 10.3125 3.10938C11.0938 3.07812 12 3.04688 13.0312 3.01562C14.0625 2.98438 15.1094 2.9375 16.1719 2.875C17.2344 2.8125 18.1094 2.71875 18.7969 2.59375C19.4219 2.46875 20.0781 2.34375 20.7656 2.21875C21.4844 2.0625 22.3438 1.95312 23.3438 1.89062C23.4375 1.89062 23.6094 1.84375 23.8594 1.75C24.1094 1.625 24.2656 1.5625 24.3281 1.5625C24.5781 1.5625 24.7812 1.625 24.9375 1.75C25.0938 1.875 25.2188 2.03125 25.3125 2.21875C25.4062 2.375 25.4688 2.53125 25.5 2.6875C25.5625 2.84375 25.5938 2.95312 25.5938 3.01562C25.5938 3.20312 25.5312 3.32812 25.4062 3.39062C25.2812 3.42188 25.1406 3.4375 24.9844 3.4375H24.5156C24.3594 3.4375 24.1719 3.45312 23.9531 3.48438C23.7656 3.51562 23.6719 3.60938 23.6719 3.76562V3.90625C23.6719 3.9375 23.6875 3.96875 23.7188 4C23.5625 4.0625 23.2812 4.09375 22.875 4.09375H21.7031C21.4531 4.09375 21.2188 4.10938 21 4.14062C20.8125 4.17188 20.6562 4.23438 20.5312 4.32812C20.3125 4.54688 20.0938 5.04688 19.875 5.82812C19.6875 6.60938 19.5 7.5 19.3125 8.5C19.1562 9.46875 19.0312 10.4375 18.9375 11.4062C18.8438 12.375 18.7969 13.1406 18.7969 13.7031V14.3125C18.7969 14.4688 18.7656 14.7031 18.7031 15.0156C18.6406 15.2969 18.5625 15.5938 18.4688 15.9062C18.2188 16.6875 18.0156 17.6406 17.8594 18.7656C17.7344 19.8906 17.6094 21.0625 17.4844 22.2812C17.3594 23.5 17.2031 24.6875 17.0156 25.8438C16.8594 27 16.6406 28 16.3594 28.8438C16.3906 28.9375 16.4531 28.9844 16.5469 28.9844C16.6719 28.9844 16.8438 28.9062 17.0625 28.75C17.3125 28.5625 17.5625 28.3438 17.8125 28.0938C18.0625 27.8438 18.2969 27.6094 18.5156 27.3906C18.7656 27.1406 18.9688 26.9375 19.125 26.7812C19.625 26.3125 20.0938 25.8438 20.5312 25.375C21 24.875 21.4688 24.4062 21.9375 23.9688C22.4688 23.5 23 23.0938 23.5312 22.75C24.0938 22.4062 24.6094 22 25.0781 21.5312C25.8906 20.6875 26.6875 19.6719 27.4688 18.4844C28.2812 17.2969 29.125 16.2031 30 15.2031C30.4375 14.7031 30.9062 14.25 31.4062 13.8438C31.9062 13.4062 32.3594 12.9219 32.7656 12.3906C32.9219 12.2344 32.9844 12.0625 32.9531 11.875C32.9531 11.6562 33.0156 11.4844 33.1406 11.3594C33.4219 11.0156 33.75 10.6406 34.125 10.2344C34.5312 9.82812 34.9219 9.40625 35.2969 8.96875C35.7031 8.5 36.0625 8.01562 36.375 7.51562C36.6875 6.98438 36.8906 6.40625 36.9844 5.78125C36.8281 5.59375 36.6406 5.5 36.4219 5.5C36.0469 5.5 35.625 5.67188 35.1562 6.01562C34.7188 6.35938 34.2344 6.53125 33.7031 6.53125C33.4531 6.53125 33.1719 6.40625 32.8594 6.15625C32.5469 5.90625 32.3906 5.54688 32.3906 5.07812C32.3906 4.60938 32.5625 4.26562 32.9062 4.04688C33.2812 3.79688 33.7656 3.625 34.3594 3.53125C34.9531 3.40625 35.625 3.3125 36.375 3.25C37.125 3.1875 37.9062 3.09375 38.7188 2.96875C39.25 2.875 39.7031 2.73438 40.0781 2.54688C40.4844 2.32812 41 2.21875 41.625 2.21875C42 2.21875 42.375 2.23438 42.75 2.26562C43.1562 2.26562 43.5469 2.26562 43.9219 2.26562C44.6094 2.26562 45.3438 2.21875 46.125 2.125C46.9062 2 47.6094 1.9375 48.2344 1.9375C48.7969 1.9375 49.2656 2.03125 49.6406 2.21875C50.0156 2.40625 50.2344 2.76562 50.2969 3.29688C49.7656 3.54688 49.2188 3.71875 48.6562 3.8125C48.125 3.875 47.6094 3.96875 47.1094 4.09375C46.6094 4.1875 46.1562 4.35938 45.75 4.60938C45.3438 4.82812 45 5.21875 44.7188 5.78125C44.1562 6.5 43.5312 7.3125 42.8438 8.21875C42.1875 9.125 41.4062 9.9375 40.5 10.6562C40.2812 10.8125 40.0312 10.9375 39.75 11.0312C39.5 11.0938 39.2812 11.2031 39.0938 11.3594C38.9062 11.5156 38.7812 11.7344 38.7188 12.0156C38.6562 12.2969 38.5469 12.5312 38.3906 12.7188C37.9531 13.25 37.4062 13.8438 36.75 14.5C36.125 15.125 35.4375 15.7812 34.6875 16.4688C33.9688 17.1562 33.2188 17.8594 32.4375 18.5781C31.6875 19.2969 30.9844 20.0312 30.3281 20.7812C30.0469 21.0938 29.8125 21.4062 29.625 21.7188C29.4375 22.0312 29.2188 22.3125 28.9688 22.5625C28.8125 22.6875 28.625 22.75 28.4062 22.75C28.2188 22.7188 28.0469 22.7656 27.8906 22.8906C27.7969 22.9531 27.7344 23.0781 27.7031 23.2656C27.6719 23.4219 27.6094 23.5312 27.5156 23.5938C27.3906 23.6875 27.2188 23.75 27 23.7812C26.8125 23.7812 26.6406 23.8438 26.4844 23.9688C26.4844 23.9688 26.3125 24.125 25.9688 24.4375C25.6562 24.75 25.2969 25.0938 24.8906 25.4688C24.5156 25.8125 24.1562 26.1406 23.8125 26.4531C23.5 26.7344 23.3438 26.8594 23.3438 26.8281C23.3438 26.8906 23.375 27.0312 23.4375 27.25C23.5312 27.4688 23.6406 27.7188 23.7656 28C23.9219 28.25 24.0781 28.5312 24.2344 28.8438C24.4219 29.125 24.5938 29.3594 24.75 29.5469C24.8438 29.7031 25 29.875 25.2188 30.0625C25.4688 30.2188 25.7031 30.3906 25.9219 30.5781C26.1719 30.7344 26.3906 30.8906 26.5781 31.0469C26.7656 31.1719 26.8594 31.2656 26.8594 31.3281C26.8594 31.3906 26.8438 31.4844 26.8125 31.6094C26.8125 31.7031 26.8125 31.7812 26.8125 31.8438C26.8125 31.875 26.9219 32.0312 27.1406 32.3125C27.3594 32.5938 27.5938 32.9062 27.8438 33.25C28.125 33.5938 28.375 33.9219 28.5938 34.2344C28.8438 34.5156 28.9688 34.7031 28.9688 34.7969C28.9688 34.9531 29.0469 35.1094 29.2031 35.2656C29.3906 35.4219 29.5938 35.5938 29.8125 35.7812C30.0312 35.9375 30.2188 36.1094 30.375 36.2969C30.5625 36.4844 30.6562 36.6875 30.6562 36.9062C30.6562 37.1875 30.7969 37.4688 31.0781 37.75C31.3906 38.0312 31.7344 38.2969 32.1094 38.5469C32.4844 38.7969 32.8438 39.0312 33.1875 39.25C33.5312 39.4375 33.75 39.5938 33.8438 39.7188C33.9688 39.875 34.0469 40.0312 34.0781 40.1875C34.1094 40.3438 34.125 40.5 34.125 40.6562V41.1719C34.125 41.3281 34.1562 41.4375 34.2188 41.5C34.3125 41.5312 34.4219 41.5625 34.5469 41.5938C34.6719 41.625 34.7969 41.6562 34.9219 41.6875C35.0469 41.6875 35.1562 41.7188 35.25 41.7812C35.7812 42.2812 36.3906 42.9375 37.0781 43.75C37.7969 44.5312 38.5469 45.3125 39.3281 46.0938C40.1406 46.8438 40.9844 47.5 41.8594 48.0625C42.7656 48.625 43.6875 48.9062 44.625 48.9062C44.75 48.9062 44.9688 48.875 45.2812 48.8125C45.5938 48.7188 45.9062 48.6094 46.2188 48.4844C46.5625 48.3281 46.8594 48.1719 47.1094 48.0156C47.3594 47.8281 47.4844 47.625 47.4844 47.4062C47.4844 46.9688 47.5781 46.6406 47.7656 46.4219C47.9844 46.1719 48.5312 46.0469 49.4062 46.0469C49.875 46.0469 50.1719 46.1406 50.2969 46.3281ZM123.487 52.6562C123.769 53.0312 123.909 53.3125 123.909 53.5C123.909 53.7812 123.737 53.9688 123.394 54.0625C123.05 54.125 122.612 54.1719 122.081 54.2031C121.55 54.2031 120.972 54.2031 120.347 54.2031C119.722 54.2031 119.128 54.2656 118.566 54.3906C117.847 54.5469 117.206 54.75 116.644 55C116.081 55.25 115.55 55.5 115.05 55.75C114.55 56.0312 114.081 56.2656 113.644 56.4531C113.206 56.6406 112.784 56.7344 112.378 56.7344C112.003 56.7344 111.644 56.6406 111.3 56.4531C110.956 56.2656 110.628 56.1719 110.316 56.1719C109.847 56.1719 109.347 56.2188 108.816 56.3125C108.316 56.4062 107.831 56.5156 107.362 56.6406C106.925 56.7656 106.519 56.875 106.144 56.9688C105.769 57.0938 105.487 57.1719 105.3 57.2031C104.862 57.2031 104.503 57.1094 104.222 56.9219C103.972 56.7344 103.847 56.4688 103.847 56.125C103.847 55.375 104.128 54.8438 104.691 54.5312C105.284 54.2188 106.097 54.0625 107.128 54.0625C107.284 54.0625 107.472 54.0781 107.691 54.1094C107.909 54.1406 108.128 54.1562 108.347 54.1562C108.878 54.1562 109.316 53.9062 109.659 53.4062C110.003 52.875 110.269 52.2031 110.456 51.3906C110.675 50.5469 110.816 49.5938 110.878 48.5312C110.972 47.4375 111.034 46.3438 111.066 45.25C111.097 44.1562 111.112 43.0938 111.112 42.0625C111.144 41.0312 111.175 40.125 111.206 39.3438C111.362 36.5 111.487 33.5625 111.581 30.5312C111.675 27.5 111.722 24.6562 111.722 22C111.722 19.7812 111.675 17.875 111.581 16.2812C111.144 16.4375 110.753 16.6562 110.409 16.9375C110.066 17.2188 109.753 17.5312 109.472 17.875C109.191 18.2188 108.925 18.5938 108.675 19C108.456 19.375 108.253 19.7344 108.066 20.0781C108.034 20.1094 108.019 20.1562 108.019 20.2188C108.019 20.2812 108.019 20.3594 108.019 20.4531C108.05 20.5469 108.066 20.625 108.066 20.6875C108.066 20.7188 108.003 20.8438 107.878 21.0625C107.753 21.2812 107.597 21.5312 107.409 21.8125C107.222 22.0625 107.019 22.3281 106.8 22.6094C106.612 22.8906 106.456 23.0938 106.331 23.2188C105.925 23.6562 105.378 24.4062 104.691 25.4688C104.034 26.5 103.284 27.7344 102.441 29.1719C101.628 30.6094 100.769 32.1875 99.8625 33.9062C98.9875 35.625 98.1125 37.375 97.2375 39.1562C96.3937 40.9375 95.5969 42.6875 94.8469 44.4062C94.1281 46.125 93.5187 47.7031 93.0187 49.1406C92.7687 49.7969 92.5812 50.4531 92.4562 51.1094C92.3312 51.7656 92.1594 52.375 91.9406 52.9375C91.7531 53.4688 91.4875 53.9062 91.1437 54.25C90.8312 54.5625 90.3625 54.7188 89.7375 54.7188C89.4875 54.7188 89.2844 54.6719 89.1281 54.5781C88.9719 54.4531 88.8625 54.3906 88.8 54.3906C88.425 54.4219 88.0969 54.5 87.8156 54.625C87.5656 54.75 87.3312 54.8125 87.1125 54.8125C86.8312 54.7188 86.5812 54.5938 86.3625 54.4375C86.175 54.3125 86.0031 54.1562 85.8469 53.9688C85.7219 53.75 85.6594 53.5156 85.6594 53.2656C85.6594 53.2031 85.6594 53.1406 85.6594 53.0781C85.6906 52.9844 85.7062 52.9062 85.7062 52.8438C85.7062 52.8125 85.6906 52.7812 85.6594 52.75C85.6594 52.7188 85.6594 52.6875 85.6594 52.6562C85.3469 52 85.0344 51.3281 84.7219 50.6406C84.4406 49.9219 84.175 49.0781 83.925 48.1094V47.5469C83.925 47.2656 83.8156 46.7969 83.5969 46.1406C83.4094 45.4531 83.05 44.5938 82.5187 43.5625C82.3625 43.0312 82.2687 42.4844 82.2375 41.9219C82.2062 41.3594 82.0656 40.8594 81.8156 40.4219C81.7531 40.3281 81.675 40.2656 81.5812 40.2344C81.4875 40.2031 81.4406 40.0625 81.4406 39.8125C81.4406 39.75 81.4406 39.6719 81.4406 39.5781C81.4719 39.4844 81.4875 39.4062 81.4875 39.3438C81.3625 38.875 81.1594 38.2812 80.8781 37.5625C80.5969 36.8125 80.3156 36.0938 80.0344 35.4062C79.7531 34.6875 79.5031 34.0781 79.2844 33.5781C79.0969 33.0781 79.0031 32.8125 79.0031 32.7812C79.0031 32.625 79.0187 32.4844 79.05 32.3594C79.0812 32.2031 79.0969 32.0625 79.0969 31.9375C79.0969 31.75 78.9719 31.5312 78.7219 31.2812C78.5031 31.0312 78.3625 30.7969 78.3 30.5781C78.0812 30.0469 77.9094 29.4688 77.7844 28.8438C77.6906 28.2188 77.5187 27.5312 77.2687 26.7812C77.175 26.4688 77.0344 26.0781 76.8469 25.6094C76.6906 25.1094 76.5187 24.5781 76.3312 24.0156C76.1437 23.4531 75.9406 22.8594 75.7219 22.2344C75.5344 21.6094 75.3469 21.0156 75.1594 20.4531C75.0969 20.2969 75.05 20.0938 75.0187 19.8438C74.9875 19.5625 74.925 19.2969 74.8312 19.0469C74.8 18.9844 74.7219 18.8594 74.5969 18.6719C74.4719 18.4531 74.3469 18.2344 74.2219 18.0156C74.0969 17.7656 73.9875 17.5469 73.8937 17.3594C73.8 17.1719 73.7531 17.0469 73.7531 16.9844V16.9375C73.4406 17 73.1906 17.375 73.0031 18.0625C72.8469 18.75 72.7062 19.5312 72.5812 20.4062C72.4875 21.2812 72.3937 22.1406 72.3 22.9844C72.2375 23.7969 72.1437 24.3594 72.0187 24.6719C71.8625 25.0781 71.7844 25.6094 71.7844 26.2656C71.8156 26.8906 71.7844 27.625 71.6906 28.4688C71.6281 29.0312 71.4875 29.5469 71.2687 30.0156C71.05 30.4844 70.9406 30.9844 70.9406 31.5156C70.9406 31.7656 70.9406 32.0156 70.9406 32.2656C70.9719 32.4844 70.9875 32.7188 70.9875 32.9688C70.9875 33.6875 70.8781 34.375 70.6594 35.0312C70.4719 35.6875 70.3312 36.5469 70.2375 37.6094C70.2375 37.6719 70.2375 37.75 70.2375 37.8438C70.2687 37.9375 70.2844 38.0156 70.2844 38.0781C70.2844 38.2344 70.2375 38.375 70.1437 38.5C70.05 38.5938 69.9719 38.6406 69.9094 38.6406C69.7531 39.6094 69.6281 40.5469 69.5344 41.4531C69.4719 42.3594 69.3625 43.2812 69.2062 44.2188C69.05 45 68.8625 45.7656 68.6437 46.5156C68.4562 47.2344 68.3 48 68.175 48.8125C68.05 49.625 67.9719 50.4375 67.9406 51.25C67.9406 52.0625 67.8937 52.875 67.8 53.6875C68.5812 53.6562 69.3781 53.5312 70.1906 53.3125C71.0344 53.0625 71.8469 52.9375 72.6281 52.9375C73.5031 52.9375 74.2375 53.1875 74.8312 53.6875C74.7375 54.0625 74.6437 54.3438 74.55 54.5312C74.4562 54.6875 74.3312 54.8125 74.175 54.9062C74.0187 54.9688 73.8156 55 73.5656 55C73.3469 55.0312 73.0656 55.0625 72.7219 55.0938C72.4719 55.125 72.3156 55.1875 72.2531 55.2812C72.2219 55.375 72.1437 55.4375 72.0187 55.4688C71.4875 55.5938 70.9406 55.6719 70.3781 55.7031C69.8469 55.7656 69.3156 55.8125 68.7844 55.8438C68.2531 55.9062 67.7219 55.9844 67.1906 56.0781C66.6906 56.1719 66.2062 56.3125 65.7375 56.5C65.55 56.5938 65.2687 56.6719 64.8937 56.7344C64.55 56.7969 64.1594 56.8438 63.7219 56.875C63.2844 56.9375 62.8312 56.9844 62.3625 57.0156C61.925 57.0781 61.5344 57.1406 61.1906 57.2031C60.7531 57.2656 60.2062 57.3906 59.55 57.5781C58.8937 57.7656 58.2844 57.8594 57.7219 57.8594C57.2844 57.8594 56.925 57.7656 56.6437 57.5781C56.3937 57.3906 56.2687 57.0312 56.2687 56.5C56.2687 56 56.4406 55.6562 56.7844 55.4688C57.1281 55.3125 57.5344 55.2031 58.0031 55.1406C58.5031 55.1094 59.0031 55.0781 59.5031 55.0469C60.0344 55.0469 60.4719 54.9375 60.8156 54.7188C61.1906 54.5 61.5031 54.2344 61.7531 53.9219C62.0344 53.6094 62.2531 53.2969 62.4094 52.9844C62.5656 52.6719 62.6906 52.4062 62.7844 52.1875C62.8781 51.9375 62.925 51.7812 62.925 51.7188C62.925 51.5625 62.9094 51.4219 62.8781 51.2969C62.8781 51.1719 62.8781 51.0312 62.8781 50.875C62.8781 50.7188 62.8937 50.6094 62.925 50.5469C63.2687 49.5469 63.6281 48.5938 64.0031 47.6875C64.4094 46.75 64.7375 45.7188 64.9875 44.5938C65.0187 44.5625 65.0344 44.5 65.0344 44.4062C65.0344 44.3125 65.0187 44.2188 64.9875 44.125C64.9875 44.0312 64.9875 43.9531 64.9875 43.8906C65.0812 43.6094 65.1906 43.2656 65.3156 42.8594C65.4719 42.4219 65.6281 41.9688 65.7844 41.5C65.9719 41.0312 66.1437 40.5469 66.3 40.0469C66.4875 39.5469 66.6437 39.0781 66.7687 38.6406V38.4531C66.7687 38.3281 66.7531 38.2188 66.7219 38.125C66.7219 38.0312 66.7219 37.9375 66.7219 37.8438C66.7219 37.7188 66.8312 37.5312 67.05 37.2812C67.2687 37 67.4094 36.6406 67.4719 36.2031C67.6281 35.4531 67.6906 34.7344 67.6594 34.0469C67.6594 33.3594 67.7062 32.6875 67.8 32.0312C67.925 31.2188 68.0812 30.4375 68.2687 29.6875C68.4562 28.9375 68.6437 28.2031 68.8312 27.4844C69.0187 26.7656 69.175 26.0625 69.3 25.375C69.4562 24.6562 69.55 23.9375 69.5812 23.2188C69.6125 22.6562 69.6906 22.0781 69.8156 21.4844C69.9406 20.8906 70.0812 20.2969 70.2375 19.7031C70.425 19.0781 70.5812 18.4531 70.7062 17.8281C70.8625 17.2031 70.9562 16.5625 70.9875 15.9062C71.0187 15.2812 71.1281 14.6875 71.3156 14.125C71.5031 13.5312 71.6281 12.9531 71.6906 12.3906C71.7844 11.6719 71.8312 10.9219 71.8312 10.1406C71.8625 9.32812 71.925 8.5625 72.0187 7.84375C72.0812 7.5 72.2062 7.09375 72.3937 6.625C72.6125 6.125 72.7219 5.71875 72.7219 5.40625C72.7219 5.28125 72.6437 5.125 72.4875 4.9375C72.3625 4.75 72.3 4.53125 72.3 4.28125C72.3 4.21875 72.425 4.07812 72.675 3.85938C72.925 3.60938 73.2531 3.32812 73.6594 3.01562C74.0656 2.67188 74.5187 2.3125 75.0187 1.9375C75.5187 1.5625 76.0344 1.20312 76.5656 0.859375C76.5969 0.828125 76.6906 0.8125 76.8469 0.8125C77.0344 0.8125 77.2375 0.8125 77.4562 0.8125C77.7375 0.8125 77.9562 0.828125 78.1125 0.859375C78.2687 0.859375 78.3625 0.921875 78.3937 1.04688C78.4562 1.14062 78.4875 1.29688 78.4875 1.51562C78.4875 1.73438 78.4875 2.03125 78.4875 2.40625C78.4875 2.75 78.4719 3.10938 78.4406 3.48438C78.4406 3.82812 78.4406 4.1875 78.4406 4.5625C78.4406 5 78.4562 5.35938 78.4875 5.64062C78.5187 5.89062 78.55 6.14062 78.5812 6.39062C78.6437 6.60938 78.7062 6.82812 78.7687 7.04688C78.8625 7.26562 78.9562 7.53125 79.05 7.84375C79.1437 8.15625 79.2219 8.53125 79.2844 8.96875C79.3469 9.375 79.4875 9.8125 79.7062 10.2812C79.7687 10.4062 79.8937 10.6094 80.0812 10.8906C80.2687 11.1406 80.3781 11.2969 80.4094 11.3594C80.6281 12.0469 80.7375 12.75 80.7375 13.4688C80.7375 14.1562 80.8625 14.8438 81.1125 15.5312C81.175 15.6562 81.3 15.7969 81.4875 15.9531C81.7062 16.1094 81.8156 16.2344 81.8156 16.3281C81.8156 16.3906 81.8 16.4688 81.7687 16.5625C81.7687 16.6562 81.7687 16.7344 81.7687 16.7969C81.7687 16.8906 81.7844 16.9375 81.8156 16.9375C82.0344 17.125 82.2219 17.4375 82.3781 17.875C82.5344 18.3125 82.675 18.8125 82.8 19.375C82.925 19.9062 83.0344 20.4688 83.1281 21.0625C83.2531 21.625 83.3937 22.125 83.55 22.5625C83.6437 22.8438 83.7531 23.125 83.8781 23.4062C84.0344 23.6562 84.175 23.9531 84.3 24.2969C84.3625 24.5469 84.4094 24.8438 84.4406 25.1875C84.4719 25.5 84.5344 25.7812 84.6281 26.0312C84.8469 26.6562 85.175 27.3906 85.6125 28.2344C86.0812 29.0781 86.4562 29.9844 86.7375 30.9531V31.5156C86.7375 31.7344 86.8469 32.0625 87.0656 32.5C87.3156 32.9062 87.55 33.3125 87.7687 33.7188C87.9875 34.375 88.1594 35.125 88.2844 35.9688C88.4094 36.7812 88.5812 37.5625 88.8 38.3125C88.8625 38.4062 88.9875 38.5312 89.175 38.6875C89.3937 38.8125 89.5187 38.9062 89.55 38.9688C89.5812 39.1562 89.5969 39.4062 89.5969 39.7188C89.6281 40.0312 89.6594 40.3438 89.6906 40.6562C89.7531 40.9688 89.8469 41.2344 89.9719 41.4531C90.1281 41.6719 90.3625 41.7812 90.675 41.7812C90.9562 41.7812 91.2531 41.5938 91.5656 41.2188C91.9094 40.8125 92.2375 40.3281 92.55 39.7656C92.8937 39.2031 93.2219 38.625 93.5344 38.0312C93.8781 37.4375 94.175 36.9375 94.425 36.5312C94.4562 36.4688 94.6125 36.25 94.8937 35.875C95.175 35.4688 95.4875 35 95.8312 34.4688C95.8937 34.3125 95.9406 34.1406 95.9719 33.9531C96.0031 33.7344 96.0656 33.5469 96.1594 33.3906C96.2219 33.3281 96.3312 33.2812 96.4875 33.25C96.675 33.1875 96.8 33.125 96.8625 33.0625C96.9875 32.9062 97.0344 32.7344 97.0031 32.5469C97.0031 32.3281 97.0812 32.1562 97.2375 32.0312C97.3 31.9375 97.4094 31.875 97.5656 31.8438C97.7531 31.8125 97.8781 31.75 97.9406 31.6562C98.0656 31.5 98.1125 31.3281 98.0812 31.1406C98.05 30.9219 98.1125 30.7344 98.2687 30.5781C98.3312 30.5156 98.4562 30.4688 98.6437 30.4375C98.8312 30.375 98.9406 30.3125 98.9719 30.25C99.2219 29.8125 99.3937 29.3125 99.4875 28.75C99.5812 28.1562 99.7687 27.6094 100.05 27.1094C100.081 27.0469 100.191 27 100.378 26.9688C100.566 26.9062 100.675 26.8438 100.706 26.7812C100.862 26.4688 100.956 26.2344 100.987 26.0781C101.019 25.9219 101.159 25.6719 101.409 25.3281C101.628 25.0156 101.878 24.7344 102.159 24.4844C102.441 24.2031 102.659 23.9062 102.816 23.5938C102.972 23.375 103.034 23.1562 103.003 22.9375C102.972 22.6875 103.034 22.4375 103.191 22.1875C103.316 21.9375 103.534 21.6562 103.847 21.3438C104.159 21 104.394 20.5781 104.55 20.0781C104.675 19.5781 105.019 19.0312 105.581 18.4375C106.144 17.8125 106.612 17.2031 106.987 16.6094C107.362 16.0156 107.675 15.5156 107.925 15.1094C108.175 14.6719 108.394 14.2812 108.581 13.9375C108.8 13.5938 109.019 13.25 109.237 12.9062C109.487 12.5312 109.8 12.125 110.175 11.6875C110.362 11.4375 110.612 11.1719 110.925 10.8906C111.237 10.5781 111.566 10.1406 111.909 9.57812C111.972 9.45312 112.019 9.28125 112.05 9.0625C112.081 8.84375 112.144 8.67188 112.237 8.54688C112.425 8.32812 112.675 8.15625 112.987 8.03125C113.3 7.90625 113.534 7.71875 113.691 7.46875C114.066 6.90625 114.362 6.3125 114.581 5.6875C114.8 5.03125 115.066 4.4375 115.378 3.90625C115.691 3.34375 116.081 2.89062 116.55 2.54688C117.019 2.20312 117.706 2.03125 118.612 2.03125C119.362 2.03125 119.878 2.25 120.159 2.6875C120.441 3.09375 120.581 3.60938 120.581 4.23438C120.581 4.76562 120.519 5.34375 120.394 5.96875C120.269 6.59375 120.128 7.21875 119.972 7.84375C119.816 8.5 119.691 9.25 119.597 10.0938C119.534 10.9375 119.472 11.8438 119.409 12.8125C119.378 13.75 119.347 14.7188 119.316 15.7188C119.316 16.7188 119.3 17.7188 119.269 18.7188C119.206 20.4688 119.003 22.2031 118.659 23.9219C118.347 25.6406 118.191 27.3438 118.191 29.0312C118.191 29.4375 118.191 29.8438 118.191 30.25C118.222 30.6562 118.237 31.0625 118.237 31.4688C118.237 32.0938 118.175 32.625 118.05 33.0625C117.925 33.4688 117.862 33.9375 117.862 34.4688C117.862 34.9062 117.925 35.3906 118.05 35.9219C118.175 36.4531 118.237 36.9062 118.237 37.2812C118.112 37.6562 117.987 38.1562 117.862 38.7812C117.737 39.375 117.612 40.0312 117.487 40.75C117.394 41.4688 117.316 42.2344 117.253 43.0469C117.191 43.8281 117.159 44.6094 117.159 45.3906C117.159 45.7031 117.206 46.0625 117.3 46.4688C117.425 46.8438 117.487 47.1562 117.487 47.4062C117.487 47.9062 117.425 48.3906 117.3 48.8594C117.175 49.2969 117.112 49.7344 117.112 50.1719C117.112 50.5469 117.175 50.8906 117.3 51.2031C117.425 51.5156 117.566 51.7969 117.722 52.0469C117.909 52.2656 118.097 52.4375 118.284 52.5625C118.472 52.6875 118.628 52.75 118.753 52.75C119.034 52.75 119.362 52.7188 119.737 52.6562C120.112 52.5625 120.487 52.4688 120.862 52.375C121.237 52.25 121.566 52.1562 121.847 52.0938C122.128 52 122.316 51.9531 122.409 51.9531C122.597 51.9844 122.784 52.0781 122.972 52.2344C123.191 52.3594 123.362 52.5 123.487 52.6562ZM158.803 18.5312V18.6719C158.803 18.9219 158.631 19.3594 158.288 19.9844C157.975 20.5781 157.6 21.1875 157.163 21.8125C156.725 22.4062 156.272 22.9375 155.803 23.4062C155.366 23.875 155.006 24.1094 154.725 24.1094C154.256 24.1094 153.881 23.9844 153.6 23.7344C153.319 23.4531 153.084 23.125 152.897 22.75C152.709 22.375 152.506 22 152.288 21.625C152.1 21.2188 151.834 20.875 151.491 20.5938C151.428 20.5625 151.272 20.4688 151.022 20.3125C150.803 20.1562 150.553 20 150.272 19.8438C150.022 19.6875 149.772 19.5469 149.522 19.4219C149.272 19.2969 149.1 19.2344 149.006 19.2344C148.444 19.2344 147.975 19.3438 147.6 19.5625C147.256 19.7812 146.959 20.0781 146.709 20.4531C146.491 20.7969 146.288 21.2031 146.1 21.6719C145.913 22.1094 145.709 22.5625 145.491 23.0312C145.334 23.375 145.069 23.7969 144.694 24.2969C144.319 24.7656 144.116 25.2344 144.084 25.7031C144.084 25.7656 144.084 25.8438 144.084 25.9375C144.116 26.0312 144.131 26.1094 144.131 26.1719C144.131 26.2031 144.022 26.3438 143.803 26.5938C143.616 26.8438 143.491 27.0625 143.428 27.25C143.272 27.625 143.147 28.0938 143.053 28.6562C142.991 29.2188 142.913 29.8125 142.819 30.4375C142.756 31.0625 142.678 31.6875 142.584 32.3125C142.522 32.9062 142.444 33.4375 142.35 33.9062C142.319 34.0312 142.241 34.2969 142.116 34.7031C141.991 35.0781 141.866 35.5156 141.741 36.0156C141.616 36.5156 141.491 37.0469 141.366 37.6094C141.272 38.1719 141.225 38.6875 141.225 39.1562C141.225 39.625 141.241 40.0781 141.272 40.5156C141.303 40.9219 141.319 41.2969 141.319 41.6406C141.319 42.2656 141.256 42.9531 141.131 43.7031C141.038 44.4219 140.991 45.1719 140.991 45.9531C140.991 46.4219 141.038 46.9062 141.131 47.4062C141.256 47.875 141.319 48.3438 141.319 48.8125C141.319 48.9688 141.303 49.125 141.272 49.2812C141.241 49.4062 141.225 49.5469 141.225 49.7031C141.225 49.7969 141.256 49.9062 141.319 50.0312C141.319 50.0938 141.397 50.2031 141.553 50.3594C141.709 50.4844 141.897 50.625 142.116 50.7812C142.334 50.9375 142.569 51.0781 142.819 51.2031C143.069 51.3281 143.303 51.3906 143.522 51.3906C143.834 51.3906 144.241 51.2344 144.741 50.9219C145.241 50.5781 145.756 50.1875 146.288 49.75C146.819 49.2812 147.319 48.8125 147.788 48.3438C148.288 47.875 148.694 47.5 149.006 47.2188C149.413 46.8438 149.803 46.4844 150.178 46.1406C150.584 45.7656 151.022 45.3125 151.491 44.7812C151.522 44.7188 151.631 44.6562 151.819 44.5938C152.006 44.5312 152.116 44.4688 152.147 44.4062C152.334 44.0312 152.459 43.7969 152.522 43.7031C152.616 43.6094 152.834 43.375 153.178 43C153.366 42.8125 153.569 42.5469 153.788 42.2031C154.038 41.8594 154.303 41.5156 154.584 41.1719C154.897 40.7969 155.209 40.4844 155.522 40.2344C155.866 39.9844 156.209 39.8594 156.553 39.8594C156.678 39.8594 156.85 39.9062 157.069 40C157.319 40.0938 157.444 40.3125 157.444 40.6562C157.444 41 157.35 41.2969 157.163 41.5469C156.975 41.7969 156.741 42.0312 156.459 42.25C156.209 42.4375 155.944 42.625 155.663 42.8125C155.381 43 155.147 43.1875 154.959 43.375C154.709 43.625 154.522 43.9219 154.397 44.2656C154.272 44.5781 154.116 44.8594 153.928 45.1094C153.366 45.8281 152.678 46.5312 151.866 47.2188C151.053 47.9062 150.334 48.5938 149.709 49.2812C149.116 49.9062 148.569 50.5469 148.069 51.2031C147.6 51.8281 146.991 52.375 146.241 52.8438C146.116 52.9062 145.928 52.9531 145.678 52.9844C145.459 53.0156 145.288 53.0781 145.163 53.1719C144.881 53.3906 144.631 53.7031 144.413 54.1094C144.225 54.4844 144.006 54.75 143.756 54.9062C143.506 55.0938 143.069 55.2656 142.444 55.4219C141.85 55.6094 141.366 55.7969 140.991 55.9844C140.897 56.0156 140.819 56.125 140.756 56.3125C140.725 56.5 140.678 56.6094 140.616 56.6406C140.553 56.6719 140.413 56.7031 140.194 56.7344C139.975 56.7969 139.725 56.8438 139.444 56.875C139.194 56.9062 138.944 56.9375 138.694 56.9688C138.444 57 138.272 57.0156 138.178 57.0156C138.084 57.0156 137.913 56.9531 137.663 56.8281C137.444 56.7344 137.209 56.625 136.959 56.5C136.741 56.375 136.538 56.25 136.35 56.125C136.163 56.0312 136.069 55.9844 136.069 55.9844C135.819 55.7031 135.678 55.3906 135.647 55.0469C135.647 54.7031 135.553 54.3125 135.366 53.875C134.928 52.9375 134.569 52.0781 134.288 51.2969C134.038 50.5156 133.913 49.5938 133.913 48.5312C133.913 48.3438 133.913 48.0938 133.913 47.7812C133.944 47.4688 133.975 47.1406 134.006 46.7969C134.069 46.4531 134.147 46.125 134.241 45.8125C134.366 45.5 134.506 45.2656 134.663 45.1094C134.663 44.8281 134.6 44.5469 134.475 44.2656C134.35 43.9531 134.288 43.6562 134.288 43.375C134.319 43.0938 134.381 42.7969 134.475 42.4844C134.569 42.1719 134.631 41.875 134.663 41.5938C134.694 41.0625 134.741 40.4844 134.803 39.8594C134.866 39.2031 134.944 38.5469 135.038 37.8906C135.131 37.2344 135.256 36.5938 135.413 35.9688C135.6 35.3438 135.819 34.7812 136.069 34.2812C136.131 34.125 136.163 33.8906 136.163 33.5781V33.1094C136.163 32.6719 136.272 32.1875 136.491 31.6562C136.741 31.125 137.022 30.5938 137.334 30.0625C137.678 29.5312 138.022 29.0312 138.366 28.5625C138.709 28.0625 138.991 27.625 139.209 27.25C139.272 27.125 139.319 26.9688 139.35 26.7812C139.381 26.5625 139.444 26.375 139.538 26.2188C139.6 26.125 139.709 26.0625 139.866 26.0312C140.053 26 140.178 25.9375 140.241 25.8438C140.772 25.1875 141.319 24.5312 141.881 23.875C142.444 23.1875 142.959 22.4531 143.428 21.6719C143.553 21.4531 143.663 21.2031 143.756 20.9219C143.85 20.6094 143.959 20.3125 144.084 20.0312C144.209 19.75 144.366 19.5 144.553 19.2812C144.772 19.0625 145.084 18.9219 145.491 18.8594C145.522 18.8594 145.616 18.7812 145.772 18.625C145.959 18.4375 146.163 18.2344 146.381 18.0156C146.631 17.7656 146.866 17.5312 147.084 17.3125C147.303 17.0625 147.475 16.875 147.6 16.75C147.975 16.4062 148.366 16.0156 148.772 15.5781C149.209 15.1406 149.663 14.7188 150.131 14.3125C150.6 13.9062 151.053 13.5781 151.491 13.3281C151.959 13.0469 152.397 12.9062 152.803 12.9062C153.584 12.9062 154.209 13.1562 154.678 13.6562C155.178 14.1562 155.741 14.7188 156.366 15.3438C156.491 15.5 156.694 15.7031 156.975 15.9531C157.256 16.2031 157.522 16.4844 157.772 16.7969C158.053 17.1094 158.288 17.4219 158.475 17.7344C158.694 18.0469 158.803 18.3125 158.803 18.5312ZM201.712 43C201.619 43.75 201.306 44.3906 200.775 44.9219C200.244 45.4219 199.744 45.9688 199.275 46.5625C198.712 47.1875 198.244 47.7188 197.869 48.1562C197.525 48.5625 197.212 48.9688 196.931 49.375C196.65 49.7812 196.384 50.2188 196.134 50.6875C195.916 51.1562 195.666 51.75 195.384 52.4688C195.322 52.5938 195.244 52.6875 195.15 52.75C195.087 52.8125 195.056 52.9531 195.056 53.1719C194.994 53.8594 194.587 54.375 193.837 54.7188C193.119 55.0625 192.228 55.2969 191.166 55.4219C190.134 55.5781 189.025 55.6562 187.837 55.6562C186.681 55.6562 185.65 55.6562 184.744 55.6562C184.119 55.6562 183.462 55.6406 182.775 55.6094C182.119 55.6094 181.478 55.6094 180.853 55.6094C180.228 55.6094 179.666 55.6719 179.166 55.7969C178.697 55.9219 178.275 55.9844 177.9 55.9844C177.087 55.9844 176.337 55.9219 175.65 55.7969C174.962 55.6719 174.306 55.6094 173.681 55.6094C173.025 55.6406 172.431 55.7188 171.9 55.8438C171.4 55.9688 170.9 56.0938 170.4 56.2188C169.9 56.375 169.4 56.5 168.9 56.5938C168.431 56.7188 167.916 56.7812 167.353 56.7812C167.134 56.7812 166.947 56.75 166.791 56.6875C166.634 56.625 166.556 56.4219 166.556 56.0781C166.556 55.7031 166.744 55.4531 167.119 55.3281C167.525 55.2031 167.962 55.0938 168.431 55C168.931 54.9062 169.369 54.7812 169.744 54.625C170.15 54.4688 170.353 54.1875 170.353 53.7812V53.3125C170.353 53.1562 170.353 52.9844 170.353 52.7969C170.384 52.6094 170.447 52.3906 170.541 52.1406C170.572 52.0469 170.697 51.9375 170.916 51.8125C171.134 51.6562 171.244 51.4844 171.244 51.2969C171.244 51.2344 171.228 51.1562 171.197 51.0625C171.197 50.9688 171.197 50.8906 171.197 50.8281C171.197 50.7969 171.212 50.7656 171.244 50.7344C171.556 50.4531 171.759 49.9062 171.853 49.0938C171.978 48.25 172.056 47.3125 172.087 46.2812C172.119 45.25 172.134 44.2031 172.134 43.1406C172.134 42.0469 172.181 41.0781 172.275 40.2344C172.369 39.5469 172.541 38.8594 172.791 38.1719C173.041 37.4844 173.228 36.7812 173.353 36.0625C173.353 35.9375 173.369 35.6406 173.4 35.1719C173.462 34.7031 173.509 34.2031 173.541 33.6719C173.572 33.1406 173.603 32.625 173.634 32.125C173.666 31.5938 173.681 31.2188 173.681 31C173.681 30.8125 173.603 30.6875 173.447 30.625C173.322 30.5312 173.181 30.4844 173.025 30.4844C172.681 30.4844 172.291 30.6094 171.853 30.8594C171.447 31.1094 171.025 31.3906 170.587 31.7031C170.15 32.0156 169.712 32.2969 169.275 32.5469C168.837 32.7969 168.447 32.9219 168.103 32.9219C167.853 32.9219 167.712 32.8438 167.681 32.6875C167.65 32.5312 167.634 32.375 167.634 32.2188C167.634 31.8438 167.775 31.5156 168.056 31.2344C168.337 30.9219 168.681 30.625 169.087 30.3438C169.494 30.0625 169.916 29.7969 170.353 29.5469C170.822 29.2656 171.228 28.9844 171.572 28.7031C171.728 28.5469 171.806 28.3906 171.806 28.2344C171.806 28.0781 171.884 28 172.041 28C172.103 28 172.181 28.0156 172.275 28.0469C172.369 28.0469 172.447 28.0469 172.509 28.0469C172.666 28.0469 172.759 27.9375 172.791 27.7188C172.822 27.4688 172.9 27.3125 173.025 27.25C173.306 27.1562 173.541 27.0781 173.728 27.0156C173.916 26.9219 174.072 26.75 174.197 26.5C174.322 26.2188 174.416 25.7969 174.478 25.2344C174.541 24.6719 174.572 23.8438 174.572 22.75C174.572 21.6875 174.697 20.8594 174.947 20.2656C175.228 19.6406 175.4 19.0625 175.462 18.5312C175.525 18.0312 175.572 17.4844 175.603 16.8906C175.634 16.2969 175.65 15.7031 175.65 15.1094C175.681 14.4844 175.697 13.9062 175.697 13.375C175.728 12.8125 175.759 12.3125 175.791 11.875C175.853 11.2188 175.947 10.5781 176.072 9.95312C176.197 9.32812 176.259 8.79688 176.259 8.35938C176.259 7.73438 176.056 7.32812 175.65 7.14062C175.244 6.95312 174.837 6.85938 174.431 6.85938C174.087 6.85938 173.712 6.89062 173.306 6.95312C172.931 6.98438 172.572 7 172.228 7C171.884 7 171.556 6.95312 171.244 6.85938C170.962 6.76562 170.728 6.5625 170.541 6.25C170.697 5.75 170.994 5.39062 171.431 5.17188C171.9 4.95312 172.431 4.8125 173.025 4.75C173.65 4.65625 174.291 4.625 174.947 4.65625C175.634 4.65625 176.259 4.625 176.822 4.5625C177.947 4.46875 179.103 4.40625 180.291 4.375C181.478 4.34375 182.666 4.28125 183.853 4.1875C184.572 4.125 185.275 4 185.962 3.8125C186.681 3.59375 187.431 3.48438 188.212 3.48438C188.525 3.48438 188.822 3.5 189.103 3.53125C189.416 3.53125 189.744 3.53125 190.087 3.53125C191.056 3.53125 191.931 3.40625 192.712 3.15625C193.525 2.90625 194.447 2.78125 195.478 2.78125C195.697 2.78125 195.837 2.79688 195.9 2.82812C195.994 2.85938 196.056 2.90625 196.087 2.96875C196.119 3 196.15 3.03125 196.181 3.0625C196.212 3.09375 196.275 3.10938 196.369 3.10938C196.431 3.10938 196.462 3.09375 196.462 3.0625C196.494 3.03125 196.525 3 196.556 2.96875C196.587 2.90625 196.634 2.85938 196.697 2.82812C196.791 2.79688 196.962 2.78125 197.212 2.78125C197.462 2.78125 197.697 2.79688 197.916 2.82812C198.166 2.82812 198.416 2.82812 198.666 2.82812C198.947 2.82812 199.197 2.78125 199.416 2.6875C199.634 2.59375 199.837 2.5 200.025 2.40625C200.244 2.3125 200.462 2.21875 200.681 2.125C200.931 2.03125 201.228 1.98438 201.572 1.98438C202.197 1.98438 202.634 2.14062 202.884 2.45312C203.166 2.76562 203.306 3.15625 203.306 3.625C203.306 4.09375 203.212 4.625 203.025 5.21875C202.837 5.78125 202.619 6.35938 202.369 6.95312C202.119 7.51562 201.853 8.0625 201.572 8.59375C201.322 9.09375 201.119 9.5 200.962 9.8125C200.837 10.0625 200.728 10.3594 200.634 10.7031C200.572 11.0156 200.462 11.2812 200.306 11.5C200.15 11.6875 199.962 11.875 199.744 12.0625C199.525 12.2188 199.369 12.3906 199.275 12.5781C199.181 12.6719 199.103 12.8594 199.041 13.1406C199.009 13.3906 198.962 13.6562 198.9 13.9375C198.837 14.1875 198.744 14.4219 198.619 14.6406C198.494 14.8281 198.322 14.9219 198.103 14.9219C197.822 14.9219 197.603 14.8281 197.447 14.6406C197.291 14.4219 197.212 14.1719 197.212 13.8906C197.212 13.2656 197.322 12.5781 197.541 11.8281C197.759 11.0469 197.869 10.2031 197.869 9.29688C197.869 8.76562 197.791 8.25 197.634 7.75C197.509 7.21875 197.212 6.95312 196.744 6.95312C196.369 6.95312 195.884 7.01562 195.291 7.14062C194.697 7.26562 194.275 7.32812 194.025 7.32812C193.431 7.32812 192.603 7.28125 191.541 7.1875C190.509 7.09375 189.447 7.04688 188.353 7.04688C187.353 7.04688 186.509 7.125 185.822 7.28125C185.134 7.40625 184.556 7.73438 184.087 8.26562C183.65 8.76562 183.291 9.53125 183.009 10.5625C182.759 11.5625 182.572 12.9375 182.447 14.6875V15.25C182.478 15.6875 182.369 16.375 182.119 17.3125C181.869 18.2188 181.744 19.2188 181.744 20.3125V21.0156C181.744 21.3281 181.681 21.5938 181.556 21.8125C181.462 22 181.416 22.0781 181.416 22.0469C181.416 22.2031 181.462 22.4375 181.556 22.75C181.681 23.0312 181.744 23.375 181.744 23.7812C181.744 23.8438 181.666 24 181.509 24.25C181.384 24.4688 181.322 24.6875 181.322 24.9062C181.322 25.0625 181.572 25.2031 182.072 25.3281C182.603 25.4531 183.228 25.5625 183.947 25.6562C184.666 25.7188 185.4 25.7812 186.15 25.8438C186.9 25.875 187.525 25.8906 188.025 25.8906C188.462 25.8906 188.916 25.8281 189.384 25.7031C189.884 25.5781 190.462 25.5156 191.119 25.5156C191.431 25.5156 191.728 25.5312 192.009 25.5625C192.322 25.5938 192.603 25.6094 192.853 25.6094C193.041 25.6094 193.181 25.5938 193.275 25.5625C194.15 25.3438 194.806 25.0469 195.244 24.6719C195.712 24.2969 196.134 23.9219 196.509 23.5469C196.884 23.1719 197.306 22.8438 197.775 22.5625C198.275 22.25 198.994 22.0625 199.931 22C200.056 22.1562 200.119 22.3438 200.119 22.5625C200.119 22.9062 199.962 23.2344 199.65 23.5469C199.369 23.8594 199.119 24.1719 198.9 24.4844C198.837 24.5469 198.775 24.7188 198.712 25C198.681 25.2812 198.619 25.4688 198.525 25.5625C198.369 25.7188 198.15 25.7812 197.869 25.75C197.587 25.6875 197.353 25.7344 197.166 25.8906C197.009 25.9531 196.884 26.0625 196.791 26.2188C196.728 26.3438 196.619 26.4688 196.462 26.5938C195.494 27.1562 194.744 27.6875 194.212 28.1875C193.681 28.6875 193.212 29.125 192.806 29.5C192.4 29.8438 191.978 30.125 191.541 30.3438C191.103 30.5312 190.509 30.625 189.759 30.625C188.353 30.625 186.947 30.5 185.541 30.25C184.166 30 182.884 29.875 181.697 29.875C180.916 29.875 180.416 30.1406 180.197 30.6719C179.978 31.1719 179.869 31.7812 179.869 32.5C179.869 32.75 179.884 32.9844 179.916 33.2031C179.947 33.3906 179.962 33.5625 179.962 33.7188C179.962 33.875 179.931 34.0938 179.869 34.375C179.806 34.625 179.728 34.9062 179.634 35.2188C179.572 35.5 179.509 35.7812 179.447 36.0625C179.384 36.3125 179.337 36.5312 179.306 36.7188C179.244 37.25 179.181 37.7656 179.119 38.2656C179.056 38.7656 178.978 39.3438 178.884 40C178.822 40.625 178.728 41.3438 178.603 42.1562C178.509 42.9688 178.4 43.9531 178.275 45.1094C178.181 46.0156 178.072 46.7656 177.947 47.3594C177.822 47.9531 177.666 48.5156 177.478 49.0469C177.291 49.5469 177.056 50.0625 176.775 50.5938C176.525 51.0938 176.197 51.7188 175.791 52.4688C175.884 52.4688 175.962 52.4844 176.025 52.5156C176.119 52.5156 176.197 52.5156 176.259 52.5156C176.666 52.5156 177.072 52.4531 177.478 52.3281C177.916 52.2031 178.525 52.0312 179.306 51.8125C179.494 51.6875 179.681 51.5625 179.869 51.4375C180.025 51.3438 180.181 51.2656 180.337 51.2031C180.494 51.1094 180.65 51.0625 180.806 51.0625C180.9 51.0625 181.041 51.0781 181.228 51.1094C181.416 51.1406 181.587 51.1562 181.744 51.1562C181.931 51.1562 182.056 51.125 182.119 51.0625C182.212 50.9688 182.353 50.9219 182.541 50.9219C182.916 50.9219 183.65 50.9844 184.744 51.1094C185.837 51.2031 187.134 51.25 188.634 51.25C189.228 51.25 189.791 51.2344 190.322 51.2031C190.884 51.1406 191.416 50.9844 191.916 50.7344C191.978 50.6719 192.072 50.5625 192.197 50.4062C192.353 50.25 192.509 50.0781 192.666 49.8906C192.822 49.7031 192.978 49.5312 193.134 49.375C193.322 49.2188 193.494 49.0938 193.65 49C193.837 48.875 194.072 48.8281 194.353 48.8594C194.634 48.8594 194.869 48.7812 195.056 48.625C195.306 48.4375 195.525 48.1875 195.712 47.875C195.9 47.5312 196.15 47.2031 196.462 46.8906L198.9 44.4531C199.025 44.3281 199.15 44.1875 199.275 44.0312C199.4 43.8438 199.541 43.6719 199.697 43.5156C199.884 43.3594 200.103 43.2344 200.353 43.1406C200.603 43.0469 200.916 43 201.291 43H201.712ZM257.934 24.1094C257.778 24.1094 257.622 24.3594 257.466 24.8594C257.341 25.3281 257.184 25.9219 256.997 26.6406C256.841 27.3594 256.653 28.1562 256.434 29.0312C256.247 29.875 256.044 30.6875 255.825 31.4688C255.575 32.3438 255.278 33.125 254.934 33.8125C254.591 34.5 254.2 35.3438 253.762 36.3438C253.137 37.375 252.669 38.2031 252.356 38.8281C252.044 39.4531 251.794 39.9844 251.606 40.4219C251.45 40.8594 251.309 41.2656 251.184 41.6406C251.059 42.0156 250.856 42.4688 250.575 43C250.45 43.25 250.278 43.4844 250.059 43.7031C249.872 43.8906 249.7 44.125 249.544 44.4062C249.387 44.6875 249.262 45 249.169 45.3438C249.075 45.6562 248.966 45.9219 248.841 46.1406C248.559 46.5781 248.262 46.9219 247.95 47.1719C247.669 47.3906 247.372 47.75 247.059 48.25C247.028 48.3125 246.95 48.4219 246.825 48.5781C246.7 48.7344 246.575 48.9062 246.45 49.0938C246.325 49.25 246.216 49.4062 246.122 49.5625C246.028 49.7188 245.981 49.8125 245.981 49.8438C245.981 49.9375 245.997 50.0469 246.028 50.1719C246.059 50.2656 246.075 50.375 246.075 50.5C246.075 50.6562 246.012 50.7656 245.887 50.8281C245.762 50.8906 245.622 50.9531 245.466 51.0156C245.341 51.0781 245.216 51.1562 245.091 51.25C244.997 51.3438 244.95 51.5 244.95 51.7188C244.95 51.875 244.887 52.0156 244.762 52.1406C244.669 52.2344 244.559 52.3281 244.434 52.4219C244.309 52.5156 244.184 52.625 244.059 52.75C243.966 52.8438 243.919 52.9688 243.919 53.125C243.919 53.0938 243.809 53.3281 243.591 53.8281C243.403 54.2969 243.153 54.8125 242.841 55.375C242.528 55.9688 242.184 56.5 241.809 56.9688C241.434 57.4688 241.075 57.7188 240.731 57.7188C240.387 57.7188 240.059 57.5938 239.747 57.3438C239.466 57.125 239.216 56.8438 238.997 56.5C238.778 56.1875 238.606 55.8438 238.481 55.4688C238.356 55.125 238.294 54.8125 238.294 54.5312C238.294 54.375 238.309 54.2031 238.341 54.0156C238.372 53.8281 238.387 53.6562 238.387 53.5C238.387 53.2812 238.325 53.0781 238.2 52.8906C238.075 52.7031 237.934 52.5312 237.778 52.375C237.653 52.1875 237.528 52 237.403 51.8125C237.278 51.5938 237.216 51.3594 237.216 51.1094C237.216 50.9531 237.231 50.8125 237.262 50.6875C237.294 50.5625 237.309 50.4219 237.309 50.2656C237.309 50.0156 237.2 49.8438 236.981 49.75C236.762 49.6562 236.622 49.5 236.559 49.2812C236.434 48.8438 236.372 48.3438 236.372 47.7812C236.372 47.2188 236.325 46.6719 236.231 46.1406C236.137 45.6406 236.012 45.1562 235.856 44.6875C235.7 44.2188 235.591 43.7656 235.528 43.3281C235.372 42.2656 235.294 41.2031 235.294 40.1406C235.294 39.0781 235.262 38.0469 235.2 37.0469C235.169 36.9219 235.091 36.8281 234.966 36.7656C234.872 36.7031 234.825 36.5938 234.825 36.4375C234.825 36.3125 234.887 36.1875 235.012 36.0625C235.137 35.9062 235.2 35.7031 235.2 35.4531V35.2656C235.137 35.1719 235.044 34.8438 234.919 34.2812C234.794 33.6875 234.731 33.125 234.731 32.5938C234.731 32.4375 234.731 32.2969 234.731 32.1719C234.731 32.0469 234.762 31.9219 234.825 31.7969C234.45 31.9844 234.184 32.2344 234.028 32.5469C233.872 32.8281 233.669 33.1562 233.419 33.5312C233.231 33.8125 233.044 34.0625 232.856 34.2812C232.7 34.4688 232.544 34.6875 232.387 34.9375C232.231 35.1875 232.059 35.5 231.872 35.875C231.716 36.25 231.528 36.75 231.309 37.375C231.184 37.7188 231.122 38.0938 231.122 38.5C231.153 38.875 231.106 39.2031 230.981 39.4844C230.919 39.5781 230.794 39.6875 230.606 39.8125C230.45 39.9062 230.341 40.0312 230.278 40.1875C230.184 40.3438 230.122 40.5156 230.091 40.7031C230.091 40.8594 230.044 41.0312 229.95 41.2188C229.481 42.0312 229.075 42.8125 228.731 43.5625C228.387 44.3125 227.981 45.0469 227.512 45.7656C227.325 46.0469 227.153 46.4688 226.997 47.0312C226.872 47.5938 226.684 48.1094 226.434 48.5781C226.309 48.8594 226.184 49.0938 226.059 49.2812C225.966 49.4375 225.841 49.625 225.684 49.8438C225.559 50.0625 225.419 50.3438 225.262 50.6875C225.106 51.0312 224.919 51.5 224.7 52.0938C224.512 52.4688 224.356 52.7812 224.231 53.0312C224.137 53.2812 224.012 53.5 223.856 53.6875C223.731 53.875 223.575 54.0625 223.387 54.25C223.2 54.4375 222.934 54.6562 222.591 54.9062C222.434 55 222.278 55.125 222.122 55.2812C221.966 55.4688 221.762 55.5781 221.512 55.6094C221.231 55.6094 221.012 55.7031 220.856 55.8906C220.731 56.1094 220.606 56.3281 220.481 56.5469C220.387 56.7969 220.247 57.0156 220.059 57.2031C219.903 57.3906 219.669 57.4844 219.356 57.4844C219.356 57.4844 219.262 57.4688 219.075 57.4375C218.887 57.4062 218.684 57.3281 218.466 57.2031C218.278 57.0781 218.091 56.8906 217.903 56.6406C217.747 56.3906 217.669 56.0469 217.669 55.6094C217.669 55.5156 217.7 55.4375 217.762 55.375C217.856 55.3125 217.95 55.2188 218.044 55.0938C218.169 55 218.262 54.875 218.325 54.7188C218.419 54.5312 218.466 54.2656 218.466 53.9219C218.466 53.5156 218.45 53.0625 218.419 52.5625C218.387 52.0625 218.372 51.5469 218.372 51.0156C218.372 50.3281 218.419 49.6562 218.512 49C218.637 48.3438 218.7 47.5 218.7 46.4688C218.7 46.125 218.762 45.7656 218.887 45.3906C219.012 44.9844 219.075 44.6562 219.075 44.4062C219.075 44.125 219.012 43.8438 218.887 43.5625C218.762 43.2812 218.7 42.9688 218.7 42.625C218.7 42.3125 218.762 42.0938 218.887 41.9688C219.012 41.8125 219.075 41.5625 219.075 41.2188C219.075 40.9688 219.012 40.6875 218.887 40.375C218.794 40.0625 218.731 39.7656 218.7 39.4844C218.7 39.1719 218.762 38.8594 218.887 38.5469C219.012 38.2344 219.075 37.9688 219.075 37.75C219.075 37.3125 219.012 36.875 218.887 36.4375C218.794 35.9688 218.731 35.4688 218.7 34.9375C218.669 34.3438 218.637 33.6562 218.606 32.875C218.606 32.0938 218.591 31.3125 218.559 30.5312C218.559 29.75 218.512 29.0156 218.419 28.3281C218.356 27.6094 218.231 27.0156 218.044 26.5469C217.731 25.7344 217.528 25.2188 217.434 25C217.341 24.75 217.309 24.625 217.341 24.625V23.875C217.341 23.75 217.278 23.6875 217.153 23.6875C217.059 23.6562 216.981 23.6406 216.919 23.6406C216.606 23.6406 216.309 23.7656 216.028 24.0156C215.778 24.2656 215.528 24.5781 215.278 24.9531C215.028 25.2969 214.778 25.6875 214.528 26.125C214.309 26.5312 214.075 26.9062 213.825 27.25C213.7 27.4062 213.559 27.5156 213.403 27.5781C213.278 27.6406 213.153 27.7188 213.028 27.8125C212.903 27.875 212.794 27.9688 212.7 28.0938C212.637 28.2188 212.606 28.4219 212.606 28.7031C212.606 28.7969 212.606 28.8906 212.606 28.9844C212.637 29.0781 212.653 29.1562 212.653 29.2188C212.653 29.3438 212.575 29.5625 212.419 29.875C212.262 30.1562 211.809 30.2969 211.059 30.2969C210.341 30.2969 209.981 29.7812 209.981 28.75C209.981 28.5312 210.059 28.3281 210.216 28.1406C210.372 27.9531 210.559 27.7656 210.778 27.5781C210.997 27.3594 211.231 27.1406 211.481 26.9219C211.731 26.7031 211.934 26.4688 212.091 26.2188C212.434 25.6875 212.794 25.0625 213.169 24.3438C213.575 23.625 214.028 22.9531 214.528 22.3281C214.591 22.2656 214.716 22.2188 214.903 22.1875C215.091 22.125 215.2 22.0625 215.231 22C215.356 21.75 215.45 21.5312 215.512 21.3438C215.575 21.125 215.716 20.875 215.934 20.5938C216.091 20.375 216.341 20.0312 216.684 19.5625C217.059 19.0938 217.466 18.625 217.903 18.1562C218.372 17.6875 218.841 17.2812 219.309 16.9375C219.809 16.5625 220.262 16.375 220.669 16.375C221.169 16.375 221.544 16.5 221.794 16.75C222.075 17 222.294 17.3281 222.45 17.7344C222.637 18.1406 222.778 18.5938 222.872 19.0938C222.966 19.5938 223.106 20.0938 223.294 20.5938C223.45 21 223.591 21.3125 223.716 21.5312C223.872 21.7188 223.95 21.9844 223.95 22.3281C223.95 22.7344 223.887 23.2031 223.762 23.7344C223.669 24.2656 223.622 24.6094 223.622 24.7656C223.653 25.4531 223.778 26.0938 223.997 26.6875C224.247 27.25 224.372 27.9375 224.372 28.75C224.372 29.1875 224.356 29.625 224.325 30.0625C224.294 30.5 224.278 30.9531 224.278 31.4219C224.278 32.8281 224.403 34.3125 224.653 35.875C224.934 37.4375 225.075 39.1094 225.075 40.8906C225.075 41.1719 225.075 41.4531 225.075 41.7344C225.075 42.0156 225.059 42.3125 225.028 42.625C225.466 42 225.872 41.4062 226.247 40.8438C226.653 40.2812 227.028 39.7344 227.372 39.2031C227.747 38.6719 228.106 38.125 228.45 37.5625C228.825 36.9688 229.2 36.3281 229.575 35.6406C229.794 35.2344 230.028 34.875 230.278 34.5625C230.559 34.25 230.794 33.9062 230.981 33.5312C231.137 33.1875 231.231 32.8125 231.262 32.4062C231.325 31.9688 231.466 31.5312 231.684 31.0938C231.778 30.9375 231.903 30.7812 232.059 30.625C232.216 30.4375 232.372 30.2656 232.528 30.1094C232.684 29.9531 232.809 29.7969 232.903 29.6406C233.028 29.4844 233.091 29.3281 233.091 29.1719C233.091 29.0781 233.075 28.9844 233.044 28.8906C233.044 28.7656 233.044 28.6562 233.044 28.5625C233.044 28.4688 233.122 28.1875 233.278 27.7188C233.434 27.25 233.622 26.6875 233.841 26.0312C234.059 25.3438 234.294 24.625 234.544 23.875C234.794 23.0938 235.012 22.3438 235.2 21.625C235.356 21.0312 235.466 20.5781 235.528 20.2656C235.622 19.9531 235.731 19.6875 235.856 19.4688C236.012 19.2188 236.247 18.9844 236.559 18.7656C236.872 18.5469 237.356 18.2188 238.012 17.7812C238.387 17.4688 238.747 17.1875 239.091 16.9375C239.403 16.7188 239.731 16.5312 240.075 16.375C240.419 16.1875 240.731 16.0938 241.012 16.0938C241.231 16.0938 241.434 16.1406 241.622 16.2344C241.809 16.3281 241.903 16.5625 241.903 16.9375C241.903 17.3125 241.856 17.7812 241.762 18.3438C241.7 18.9062 241.606 19.5 241.481 20.125C241.387 20.7188 241.294 21.2812 241.2 21.8125C241.137 22.3125 241.106 22.7031 241.106 22.9844C241.106 23.1094 241.122 23.2656 241.153 23.4531C241.216 23.6406 241.325 23.7344 241.481 23.7344C241.481 24.1094 241.45 24.625 241.387 25.2812C241.356 25.9062 241.309 26.5938 241.247 27.3438C241.216 28.0938 241.169 28.8594 241.106 29.6406C241.075 30.3906 241.059 31.0938 241.059 31.75C241.059 32.5625 241.122 33.3281 241.247 34.0469C241.403 34.7344 241.481 35.375 241.481 35.9688C241.481 36.5 241.419 36.9219 241.294 37.2344C241.2 37.5469 241.153 37.8594 241.153 38.1719C241.153 38.6406 241.262 39.0781 241.481 39.4844C241.731 39.8906 241.856 40.375 241.856 40.9375C241.856 41.0938 241.841 41.2344 241.809 41.3594C241.809 41.4844 241.809 41.625 241.809 41.7812C241.809 42.0312 241.856 42.2188 241.95 42.3438C242.075 42.4688 242.153 42.5625 242.184 42.625C242.309 43.25 242.387 43.8438 242.419 44.4062C242.481 44.9375 242.544 45.4062 242.606 45.8125C242.7 46.1875 242.841 46.4844 243.028 46.7031C243.216 46.9219 243.528 47.0312 243.966 47.0312C244.247 47.0312 244.747 46.5938 245.466 45.7188C246.216 44.8125 246.997 43.6875 247.809 42.3438C248.653 40.9688 249.434 39.4688 250.153 37.8438C250.872 36.1875 251.372 34.625 251.653 33.1562C251.809 32.2812 251.856 31.3594 251.794 30.3906C251.731 29.3906 251.794 28.3438 251.981 27.25C252.012 26.9688 252.059 26.7031 252.122 26.4531C252.216 26.1719 252.262 25.875 252.262 25.5625C252.262 25.25 252.2 25 252.075 24.8125C251.981 24.625 251.872 24.4688 251.747 24.3438C251.622 24.1875 251.497 24.0469 251.372 23.9219C251.278 23.7656 251.231 23.5938 251.231 23.4062C251.231 23.25 251.247 23.0781 251.278 22.8906C251.309 22.7031 251.325 22.5312 251.325 22.375C251.325 22.1875 251.278 22.0625 251.184 22C251.122 21.9062 251.044 21.8438 250.95 21.8125C250.856 21.75 250.762 21.6875 250.669 21.625C250.606 21.5625 250.575 21.4531 250.575 21.2969C250.606 21.0156 250.684 20.7812 250.809 20.5938C250.966 20.4062 251.137 20.2344 251.325 20.0781C251.544 19.9219 251.762 19.75 251.981 19.5625C252.231 19.375 252.466 19.1406 252.684 18.8594C252.747 18.7656 252.794 18.5938 252.825 18.3438C252.856 18.0625 252.919 17.875 253.012 17.7812C253.481 17.3438 254.059 16.9375 254.747 16.5625C255.434 16.1562 256.059 15.9531 256.622 15.9531C257.247 15.9531 257.653 16.2031 257.841 16.7031C258.028 17.1719 258.122 17.7812 258.122 18.5312C258.122 19.125 258.091 19.75 258.028 20.4062C257.966 21.0625 257.934 21.7031 257.934 22.3281C257.903 22.5469 257.825 22.6406 257.7 22.6094C257.606 22.5781 257.559 22.6094 257.559 22.7031C257.559 22.8281 257.622 23.0156 257.747 23.2656C257.872 23.4844 257.934 23.7188 257.934 23.9688V24.1094ZM297.469 42.6719C297.688 42.8906 297.797 43.1406 297.797 43.4219C297.797 43.8906 297.656 44.3125 297.375 44.6875C297.094 45.0312 296.734 45.375 296.297 45.7188C295.891 46.0312 295.438 46.3594 294.938 46.7031C294.469 47.0469 294.031 47.4531 293.625 47.9219C293.094 48.5469 292.469 49.2656 291.75 50.0781C291.062 50.8594 290.516 51.6562 290.109 52.4688C290.047 52.625 289.844 52.9219 289.5 53.3594C289.188 53.7969 288.797 54.2656 288.328 54.7656C287.891 55.2656 287.391 55.7031 286.828 56.0781C286.297 56.4531 285.781 56.6406 285.281 56.6406C284.938 56.6406 284.594 56.5781 284.25 56.4531C283.938 56.3594 283.641 56.2188 283.359 56.0312C283.078 55.875 282.844 55.6875 282.656 55.4688C282.5 55.2812 282.422 55.0938 282.422 54.9062C282.422 54.625 282.531 54.3438 282.75 54.0625C283 53.7812 283.125 53.3438 283.125 52.75C283.125 52.5938 283.094 52.4844 283.031 52.4219C283 52.3594 282.953 52.2812 282.891 52.1875C282.859 52.0938 282.828 51.9688 282.797 51.8125C282.766 51.6562 282.75 51.4062 282.75 51.0625C282.75 50.7188 282.797 50.3594 282.891 49.9844C283.016 49.5781 283.141 49.1719 283.266 48.7656C283.422 48.3281 283.547 47.9062 283.641 47.5C283.766 47.0625 283.828 46.6406 283.828 46.2344C283.828 46.1406 283.812 46.0469 283.781 45.9531C283.781 45.8281 283.781 45.7188 283.781 45.625C283.781 45.4375 283.828 45.1562 283.922 44.7812C284.016 44.4062 284.125 44 284.25 43.5625C284.375 43.125 284.484 42.6562 284.578 42.1562C284.672 41.625 284.719 41.125 284.719 40.6562C284.719 40.0625 284.656 39.5625 284.531 39.1562C284.188 39.2812 283.891 39.4688 283.641 39.7188C283.391 39.9375 283.156 40.2031 282.938 40.5156C282.75 40.7969 282.547 41.1094 282.328 41.4531C282.141 41.7656 281.938 42.0625 281.719 42.3438C281.594 42.5 281.375 42.7031 281.062 42.9531C280.75 43.2031 280.422 43.4688 280.078 43.75C279.766 44.0312 279.484 44.3125 279.234 44.5938C278.984 44.8438 278.859 45.0469 278.859 45.2031C278.859 45.2656 278.875 45.3438 278.906 45.4375C278.938 45.5312 278.953 45.6094 278.953 45.6719C278.953 45.7656 278.875 45.9062 278.719 46.0938C278.562 46.2812 278.391 46.4844 278.203 46.7031C278.047 46.8906 277.891 47.0781 277.734 47.2656C277.578 47.4219 277.5 47.5312 277.5 47.5938C277.469 47.9375 277.203 48.2656 276.703 48.5781C276.203 48.8594 275.766 49.2188 275.391 49.6562C275.109 49.9688 274.875 50.2969 274.688 50.6406C274.5 50.9844 274.328 51.2969 274.172 51.5781C274.016 51.8594 273.859 52.0938 273.703 52.2812C273.547 52.4375 273.359 52.5156 273.141 52.5156C273.078 52.5156 272.969 52.5 272.812 52.4688C272.688 52.4375 272.578 52.4219 272.484 52.4219C272.266 52.4219 272.125 52.5625 272.062 52.8438C272.031 53.125 271.984 53.3438 271.922 53.5C271.672 53.9062 271.375 54.2188 271.031 54.4375C270.719 54.625 270.312 54.9062 269.812 55.2812C269.594 55.4375 269.438 55.6094 269.344 55.7969C269.281 56.0156 269.188 56.2031 269.062 56.3594C268.938 56.5156 268.734 56.6406 268.453 56.7344C268.203 56.8594 267.797 56.9219 267.234 56.9219C266.922 56.9219 266.625 56.8906 266.344 56.8281C266.062 56.7656 265.922 56.6719 265.922 56.5469C265.922 56.4844 265.938 56.4062 265.969 56.3125C266 56.2188 266.016 56.1406 266.016 56.0781C266.016 56.0469 265.953 55.9844 265.828 55.8906C265.703 55.7969 265.547 55.6562 265.359 55.4688C265.203 55.3125 265.062 55.0938 264.938 54.8125C264.812 54.5 264.75 54.125 264.75 53.6875C264.75 53.1875 264.797 52.6719 264.891 52.1406C265.016 51.5781 265.141 51.0312 265.266 50.5C265.422 49.9688 265.562 49.4688 265.688 49C265.812 48.5 265.906 48.0312 265.969 47.5938C266.094 46.5625 266.156 45.5156 266.156 44.4531C266.156 43.3906 266.328 42.4375 266.672 41.5938C266.828 41.2812 267 40.8594 267.188 40.3281C267.375 39.7969 267.547 39.1719 267.703 38.4531C267.734 38.2656 267.781 38 267.844 37.6562C267.906 37.2812 267.984 36.875 268.078 36.4375C268.172 36 268.266 35.5625 268.359 35.125C268.484 34.6562 268.625 34.25 268.781 33.9062C268.844 33.8125 268.953 33.7031 269.109 33.5781C269.297 33.4219 269.422 33.2969 269.484 33.2031C269.547 33.0156 269.578 32.8125 269.578 32.5938C269.609 32.3438 269.688 32.0938 269.812 31.8438C269.875 31.7188 270 31.5938 270.188 31.4688C270.375 31.3125 270.484 31.1875 270.516 31.0938C270.672 30.8125 270.781 30.4688 270.844 30.0625C270.906 29.6562 271.031 29.3125 271.219 29.0312C271.344 28.8438 271.562 28.6875 271.875 28.5625C272.188 28.4062 272.438 28.2031 272.625 27.9531C272.781 27.7344 272.891 27.5 272.953 27.25C273.047 27 273.156 26.7812 273.281 26.5938C273.625 26.2188 273.906 25.8906 274.125 25.6094C274.375 25.2969 274.594 25.0156 274.781 24.7656C275 24.5156 275.203 24.2812 275.391 24.0625C275.578 23.8438 275.812 23.625 276.094 23.4062C276.281 23.2812 276.5 23.0469 276.75 22.7031C277.031 22.3594 277.281 22.125 277.5 22C277.75 21.9062 277.969 21.8281 278.156 21.7656C278.375 21.7031 278.625 21.5625 278.906 21.3438C278.969 21.2812 279.031 21.1562 279.094 20.9688C279.156 20.75 279.219 20.625 279.281 20.5938C279.5 20.5 279.703 20.4219 279.891 20.3594C280.109 20.2969 280.359 20.1406 280.641 19.8906C280.984 19.5781 281.25 19.2656 281.438 18.9531C281.625 18.6406 281.844 18.375 282.094 18.1562C282.344 17.9688 282.625 17.8438 282.938 17.7812C283.25 17.7188 283.531 17.6094 283.781 17.4531C284.25 17.2031 284.719 16.875 285.188 16.4688C285.688 16.0312 286.203 15.6094 286.734 15.2031C287.266 14.7656 287.812 14.4062 288.375 14.125C288.969 13.8125 289.578 13.6562 290.203 13.6562C290.609 13.6562 291.016 13.625 291.422 13.5625C291.859 13.4688 292.266 13.4219 292.641 13.4219C292.984 13.4219 293.297 13.4844 293.578 13.6094C293.859 13.7344 294 14 294 14.4062C294 15.5938 293.859 16.9219 293.578 18.3906C293.297 19.8594 292.984 21.4375 292.641 23.125C292.328 24.8125 292.031 26.5938 291.75 28.4688C291.5 30.3438 291.375 32.2812 291.375 34.2812C291.375 34.3438 291.391 34.4375 291.422 34.5625C291.484 34.6875 291.516 34.875 291.516 35.125C291.516 35.3125 291.469 35.5469 291.375 35.8281C291.312 36.0781 291.234 36.3438 291.141 36.625C291.047 36.875 290.953 37.125 290.859 37.375C290.797 37.625 290.766 37.8438 290.766 38.0312C290.766 38.3438 290.766 38.6562 290.766 38.9688C290.797 39.2812 290.812 39.5625 290.812 39.8125C290.812 40.3438 290.75 40.9375 290.625 41.5938C290.5 42.25 290.344 42.9375 290.156 43.6562C290 44.3438 289.859 45.0312 289.734 45.7188C289.609 46.4062 289.547 47.0469 289.547 47.6406C289.547 47.9531 289.562 48.25 289.594 48.5312C289.625 48.7812 289.688 49.0312 289.781 49.2812C290.188 49.0938 290.516 48.8594 290.766 48.5781C291.047 48.2969 291.297 47.9844 291.516 47.6406C291.766 47.2656 292.016 46.875 292.266 46.4688C292.516 46.0312 292.844 45.5781 293.25 45.1094C293.406 44.9219 293.625 44.6719 293.906 44.3594C294.188 44.0469 294.484 43.75 294.797 43.4688C295.109 43.1875 295.438 42.9375 295.781 42.7188C296.125 42.5 296.453 42.3906 296.766 42.3906C296.984 42.3906 297.219 42.4844 297.469 42.6719ZM286.594 18.5312C286.5 18.5312 286.406 18.5312 286.312 18.5312C286.219 18.5 286.141 18.4844 286.078 18.4844C285.609 18.4844 285.25 18.625 285 18.9062C284.781 19.1562 284.594 19.2812 284.438 19.2812C284.375 19.2812 284.297 19.2812 284.203 19.2812C284.109 19.25 284.016 19.2344 283.922 19.2344C283.766 19.2344 283.688 19.3281 283.688 19.5156C283.688 19.6719 283.609 19.7969 283.453 19.8906C283.328 20.0469 283.156 20.125 282.938 20.125C282.719 20.0938 282.547 20.1406 282.422 20.2656C282.266 20.4219 282.109 20.6719 281.953 21.0156C281.828 21.3281 281.625 21.6562 281.344 22C281.094 22.2812 280.781 22.5312 280.406 22.75C280.062 22.9688 279.797 23.1875 279.609 23.4062C279.547 23.5312 279.484 23.7188 279.422 23.9688C279.391 24.1875 279.344 24.3594 279.281 24.4844C279.031 24.9219 278.719 25.4531 278.344 26.0781C278 26.6719 277.625 27.2969 277.219 27.9531C276.812 28.6094 276.406 29.25 276 29.875C275.625 30.4688 275.312 31 275.062 31.4688C274.812 31.9062 274.641 32.4219 274.547 33.0156C274.453 33.6094 274.375 34.2344 274.312 34.8906C274.281 35.5156 274.25 36.125 274.219 36.7188C274.188 37.2812 274.125 37.75 274.031 38.125C273.438 40.1875 272.875 42.2656 272.344 44.3594C271.844 46.4219 271.594 48.4219 271.594 50.3594C272.25 50.2656 272.75 50.0156 273.094 49.6094C273.469 49.1719 273.766 48.6875 273.984 48.1562C274.203 47.625 274.406 47.1094 274.594 46.6094C274.781 46.1094 275.047 45.7344 275.391 45.4844C275.641 45.3281 275.891 45.1094 276.141 44.8281C276.422 44.5469 276.656 44.2812 276.844 44.0312C276.938 43.9062 276.984 43.75 276.984 43.5625C276.984 43.3438 277.047 43.1562 277.172 43C277.359 42.7812 277.578 42.5469 277.828 42.2969C278.109 42.0469 278.391 41.7969 278.672 41.5469C278.953 41.2969 279.203 41.0625 279.422 40.8438C279.672 40.5938 279.859 40.3906 279.984 40.2344C280.109 40.0781 280.172 39.8438 280.172 39.5312C280.203 39.1875 280.25 38.9375 280.312 38.7812C280.625 38.1875 280.969 37.6562 281.344 37.1875C281.719 36.6875 282.078 36.1719 282.422 35.6406C282.984 34.7656 283.453 33.9062 283.828 33.0625C284.234 32.2188 284.578 31.3594 284.859 30.4844C285.141 29.6094 285.391 28.7188 285.609 27.8125C285.828 26.875 286.047 25.875 286.266 24.8125C286.391 24.1875 286.531 23.5156 286.688 22.7969C286.875 22.0781 286.969 21.3438 286.969 20.5938C286.969 19.8125 286.844 19.125 286.594 18.5312ZM341.456 44.3594C341.456 44.8594 341.316 45.3125 341.034 45.7188C340.753 46.0938 340.394 46.4688 339.956 46.8438C339.519 47.2188 339.034 47.5938 338.503 47.9688C337.972 48.3438 337.456 48.7656 336.956 49.2344C336.8 49.3594 336.675 49.5469 336.581 49.7969C336.487 50.0156 336.362 50.1719 336.206 50.2656C336.05 50.4219 335.878 50.4844 335.691 50.4531C335.503 50.4219 335.331 50.4844 335.175 50.6406C334.956 50.8594 334.737 51.1719 334.519 51.5781C334.331 51.9531 334.081 52.3438 333.769 52.75C333.675 52.9062 333.425 53.2188 333.019 53.6875C332.644 54.1562 332.191 54.6406 331.659 55.1406C331.159 55.6406 330.628 56.0938 330.066 56.5C329.534 56.9062 329.05 57.1094 328.612 57.1094C328.362 57.1094 328.175 57.0469 328.05 56.9219C327.925 56.7969 327.862 56.6562 327.862 56.5C327.862 56.3125 327.909 56.0938 328.003 55.8438C328.097 55.5938 328.144 55.2656 328.144 54.8594C328.144 54.1719 328.034 53.5938 327.816 53.125C327.597 52.6562 327.487 52.2969 327.487 52.0469C327.519 51.3906 327.691 50.6719 328.003 49.8906C328.347 49.1094 328.519 48.3125 328.519 47.5C328.519 47.0625 328.456 46.6562 328.331 46.2812C328.206 45.875 328.144 45.4531 328.144 45.0156C328.144 44.5781 328.253 44.125 328.472 43.6562C328.691 43.1562 328.831 42.6875 328.894 42.25C328.956 41.75 329.003 41.25 329.034 40.75C329.066 40.25 329.081 39.75 329.081 39.25V37.9375C329.081 37.25 329.128 36.625 329.222 36.0625C329.316 35.5 329.409 34.9688 329.503 34.4688C329.628 33.9688 329.753 33.4688 329.878 32.9688C330.034 32.4688 330.159 31.9375 330.253 31.375C330.378 30.625 330.456 29.875 330.487 29.125C330.519 28.375 330.534 27.625 330.534 26.875C330.566 26.125 330.597 25.4062 330.628 24.7188C330.691 24 330.8 23.3125 330.956 22.6562C330.862 22.625 330.722 22.6094 330.534 22.6094C330.128 22.6094 329.784 22.7344 329.503 22.9844C329.222 23.2031 328.972 23.4688 328.753 23.7812C328.566 24.0625 328.394 24.375 328.237 24.7188C328.112 25.0312 327.972 25.2812 327.816 25.4688C327.691 25.625 327.519 25.7344 327.3 25.7969C327.081 25.8594 326.909 25.9688 326.784 26.125C326.628 26.3125 326.503 26.5469 326.409 26.8281C326.316 27.1094 326.206 27.3438 326.081 27.5312C326.019 27.6562 325.878 27.7344 325.659 27.7656C325.472 27.7656 325.378 27.8438 325.378 28C325.378 28.0625 325.378 28.1406 325.378 28.2344C325.409 28.3281 325.425 28.4062 325.425 28.4688C325.425 28.5938 325.331 28.75 325.144 28.9375C324.956 29.0938 324.737 29.2656 324.487 29.4531C324.269 29.6406 324.066 29.8281 323.878 30.0156C323.691 30.2031 323.597 30.3594 323.597 30.4844C323.597 30.5469 323.597 30.625 323.597 30.7188C323.628 30.8125 323.644 30.8906 323.644 30.9531C323.644 31.0156 323.534 31.2031 323.316 31.5156C323.097 31.8281 322.831 32.1719 322.519 32.5469C322.206 32.9219 321.894 33.2969 321.581 33.6719C321.269 34.0469 321.019 34.3281 320.831 34.5156C320.269 35.0781 319.862 35.6094 319.612 36.1094C319.362 36.6094 319.175 37.0938 319.05 37.5625C318.956 38 318.862 38.4375 318.769 38.875C318.706 39.3125 318.581 39.7344 318.394 40.1406C318.331 40.2031 318.206 40.2656 318.019 40.3281C317.831 40.3594 317.706 40.4062 317.644 40.4688C317.487 40.8125 317.347 41.1875 317.222 41.5938C317.097 42 316.894 42.4375 316.612 42.9062C316.55 43 316.425 43.125 316.237 43.2812C316.05 43.4375 315.956 43.5625 315.956 43.6562C315.8 44 315.675 44.4062 315.581 44.875C315.487 45.3438 315.409 45.8281 315.347 46.3281C315.284 46.8281 315.237 47.3281 315.206 47.8281C315.175 48.2969 315.159 48.7031 315.159 49.0469C315.159 49.3906 315.237 49.6562 315.394 49.8438C315.55 50.0312 315.628 50.3125 315.628 50.6875C315.628 50.9062 315.55 51.0781 315.394 51.2031C315.269 51.3281 315.097 51.4531 314.878 51.5781C314.691 51.6719 314.456 51.7812 314.175 51.9062C313.925 52.0312 313.691 52.1875 313.472 52.375C312.753 53 312.144 53.5625 311.644 54.0625C311.144 54.5312 310.691 54.9688 310.284 55.375C309.878 55.8125 309.519 56.2031 309.206 56.5469C308.894 56.9219 308.566 57.2812 308.222 57.625C308.003 57.5938 307.894 57.4844 307.894 57.2969C307.894 56.9531 308.066 56.6094 308.409 56.2656C308.753 55.9219 308.925 55.6094 308.925 55.3281C308.925 55.1094 308.862 54.9375 308.737 54.8125C308.644 54.6562 308.597 54.4375 308.597 54.1562C308.597 54.0625 308.612 53.875 308.644 53.5938C308.706 53.2812 308.769 52.9375 308.831 52.5625C308.894 52.1562 308.956 51.75 309.019 51.3438C309.112 50.9375 309.191 50.5781 309.253 50.2656C309.378 49.7344 309.534 49.2031 309.722 48.6719C309.941 48.1094 310.144 47.5469 310.331 46.9844C310.55 46.3906 310.722 45.7969 310.847 45.2031C311.003 44.6094 311.081 44 311.081 43.375C311.081 43.0938 311.066 42.8594 311.034 42.6719C311.003 42.4531 310.987 42.25 310.987 42.0625C310.987 41.7812 311.019 41.3906 311.081 40.8906C311.144 40.3594 311.206 39.7812 311.269 39.1562C311.362 38.5312 311.441 37.9062 311.503 37.2812C311.597 36.6562 311.675 36.0938 311.737 35.5938C311.831 34.5 311.878 33.3906 311.878 32.2656C311.878 31.1406 311.941 30.0312 312.066 28.9375C312.191 27.9375 312.362 26.9375 312.581 25.9375C312.831 24.9375 312.956 23.9375 312.956 22.9375C312.956 22.3125 312.894 21.75 312.769 21.25C312.394 21.3125 312.019 21.5469 311.644 21.9531C311.269 22.3594 310.909 22.7969 310.566 23.2656C310.253 23.7344 309.972 24.1562 309.722 24.5312C309.472 24.9062 309.284 25.0938 309.159 25.0938C309.097 25.0938 309.019 25.0938 308.925 25.0938C308.831 25.0625 308.753 25.0469 308.691 25.0469C308.534 25.0469 308.409 25.2188 308.316 25.5625C308.222 25.9062 308.097 26.2812 307.941 26.6875C307.784 27.0625 307.566 27.4219 307.284 27.7656C307.034 28.1094 306.675 28.2812 306.206 28.2812C306.081 28.2812 305.847 28.2344 305.503 28.1406C305.159 28.0469 304.987 27.8281 304.987 27.4844C304.987 27.2656 305.05 27.0625 305.175 26.875C305.331 26.6875 305.503 26.5156 305.691 26.3594C305.909 26.2031 306.112 26.0625 306.3 25.9375C306.519 25.7812 306.691 25.625 306.816 25.4688C306.909 25.3125 306.956 25.1406 306.956 24.9531C306.987 24.7344 307.05 24.5469 307.144 24.3906C307.894 23.4531 308.784 22.5312 309.816 21.625C310.878 20.7188 311.862 19.7656 312.769 18.7656C312.894 18.6406 312.941 18.4688 312.909 18.25C312.909 18.0312 312.987 17.8594 313.144 17.7344C313.269 17.6094 313.441 17.5625 313.659 17.5938C313.878 17.5938 314.05 17.5312 314.175 17.4062C314.269 17.3125 314.347 17.1406 314.409 16.8906C314.503 16.6406 314.628 16.3906 314.784 16.1406C314.972 15.8594 315.191 15.625 315.441 15.4375C315.722 15.25 316.097 15.1562 316.566 15.1562C316.816 15.1562 317.081 15.2031 317.362 15.2969C317.675 15.3594 317.956 15.4688 318.206 15.625C318.487 15.75 318.706 15.9062 318.862 16.0938C319.05 16.25 319.144 16.4219 319.144 16.6094C319.144 16.9219 319.066 17.3281 318.909 17.8281C318.784 18.3281 318.722 18.875 318.722 19.4688C318.722 19.8438 318.784 20.2031 318.909 20.5469C319.034 20.8594 319.097 21.0938 319.097 21.25C319.034 21.6562 318.894 22.0625 318.675 22.4688C318.456 22.8438 318.347 23.3438 318.347 23.9688C318.347 24.25 318.347 24.5625 318.347 24.9062C318.378 25.25 318.394 25.5938 318.394 25.9375C318.394 26.5 318.316 27.1406 318.159 27.8594C318.003 28.5469 317.831 29.2188 317.644 29.875C317.487 30.5312 317.331 31.1406 317.175 31.7031C317.019 32.2344 316.941 32.6406 316.941 32.9219C316.941 33.1719 317.05 33.2969 317.269 33.2969C317.581 33.2969 317.987 33.0781 318.487 32.6406C318.987 32.2031 319.409 31.7812 319.753 31.375C319.878 31.25 319.941 31.0781 319.941 30.8594C319.972 30.6406 320.034 30.4688 320.128 30.3438C320.191 30.25 320.331 30.125 320.55 29.9688C320.8 29.7812 321.05 29.5938 321.3 29.4062C321.55 29.2188 321.769 29.0469 321.956 28.8906C322.144 28.7031 322.237 28.5625 322.237 28.4688C322.237 28.4062 322.222 28.3281 322.191 28.2344C322.191 28.1406 322.191 28.0625 322.191 28C322.191 27.8438 322.3 27.625 322.519 27.3438C322.737 27.0625 322.987 26.7656 323.269 26.4531C323.55 26.1094 323.816 25.7812 324.066 25.4688C324.347 25.1562 324.55 24.9062 324.675 24.7188C324.8 24.5312 324.847 24.3125 324.816 24.0625C324.816 23.7812 324.878 23.5469 325.003 23.3594C325.378 22.8594 325.878 22.2969 326.503 21.6719C327.159 21.0469 327.706 20.5625 328.144 20.2188C328.394 20.0312 328.644 19.9062 328.894 19.8438C329.144 19.7812 329.378 19.6562 329.597 19.4688C330.066 19.0312 330.503 18.5469 330.909 18.0156C331.316 17.4844 331.722 17 332.128 16.5625C332.534 16.0938 332.941 15.7031 333.347 15.3906C333.784 15.0781 334.269 14.9219 334.8 14.9219C334.956 14.9219 335.191 15 335.503 15.1562C335.816 15.3125 336.128 15.5312 336.441 15.8125C336.753 16.0938 337.019 16.4219 337.237 16.7969C337.487 17.1406 337.612 17.5156 337.612 17.9219C337.612 18.1719 337.566 18.5 337.472 18.9062C337.378 19.2812 337.316 19.7188 337.284 20.2188C337.191 21.3438 337.081 22.3906 336.956 23.3594C336.862 24.3281 336.737 25.375 336.581 26.5C336.456 27.3438 336.378 28.1562 336.347 28.9375C336.347 29.6875 336.3 30.2812 336.206 30.7188C336.05 31.3438 335.8 31.9531 335.456 32.5469C335.144 33.1406 334.987 33.8438 334.987 34.6562C334.987 34.8438 335.003 35.0469 335.034 35.2656C335.066 35.4844 335.112 35.7188 335.175 35.9688C335.206 36.0625 335.253 36.1406 335.316 36.2031C335.409 36.2344 335.487 36.2969 335.55 36.3906C335.644 36.4531 335.722 36.5625 335.784 36.7188C335.847 36.875 335.878 37.1094 335.878 37.4219C335.878 38.2344 335.706 39.0469 335.362 39.8594C335.019 40.6406 334.847 41.4844 334.847 42.3906C334.847 42.7344 334.894 43.0938 334.987 43.4688C335.112 43.8125 335.175 44.1562 335.175 44.5C335.175 45.125 335.034 45.75 334.753 46.375C334.503 46.9688 334.378 47.625 334.378 48.3438C334.378 48.5 334.394 48.6406 334.425 48.7656C334.456 48.8906 334.55 48.9531 334.706 48.9531C335.394 48.9531 335.956 48.7031 336.394 48.2031C336.862 47.7031 337.3 47.1562 337.706 46.5625C338.112 45.9688 338.534 45.4219 338.972 44.9219C339.441 44.4219 340.003 44.1719 340.659 44.1719C340.941 44.1719 341.206 44.2344 341.456 44.3594Z" fill="white"/>
</svg>
