<svg width="438" height="69" viewBox="0 0 438 69" fill="none" xmlns="http://www.w3.org/2000/svg">
<path d="M2.15625 1.0625C4.28125 1.375 6.15625 1.59375 7.78125 1.71875C9.46875 1.84375 10.875 1.96875 12 2.09375C13.3125 2.21875 14.4375 2.28125 15.375 2.28125H19.0312C21.4688 2.28125 25.5 2.1875 31.125 2C29.75 2.4375 28.5938 3.0625 27.6562 3.875C26.7812 4.6875 26.0625 5.53125 25.5 6.40625C24.8125 7.40625 24.3125 8.4375 24 9.5C23.625 10.8125 23.2812 12.5625 22.9688 14.75C22.6562 16.6875 22.3438 19.2188 22.0312 22.3438C21.7812 25.4688 21.5312 29.375 21.2812 34.0625C23.9688 31 26.3125 28.2812 28.3125 25.9062C30.375 23.5312 32.1562 21.4375 33.6562 19.625C35.1562 17.8125 36.4062 16.25 37.4062 14.9375C38.4688 13.625 39.3438 12.5 40.0312 11.5625C41.6562 9.4375 42.5938 8 42.8438 7.25C42.9062 6.8125 42.875 6.28125 42.75 5.65625C42.625 5.15625 42.4375 4.5625 42.1875 3.875C41.9375 3.125 41.5625 2.3125 41.0625 1.4375C43.5625 1.5625 45.6875 1.65625 47.4375 1.71875C49.25 1.78125 50.75 1.84375 51.9375 1.90625C53.3125 1.96875 54.4375 2 55.3125 2H59.25C60.6875 2 62.5625 2 64.875 2C67.1875 1.9375 70.0938 1.875 73.5938 1.8125C71.2812 2.375 69.0938 3.125 67.0312 4.0625C64.9688 5 63.125 5.90625 61.5 6.78125C59.625 7.84375 57.875 8.9375 56.25 10.0625C54.625 11.3125 52.8125 12.7812 50.8125 14.4688C49.125 15.9062 47.1562 17.6875 44.9062 19.8125C42.6562 21.875 40.2188 24.2812 37.5938 27.0312C40.4062 32.5312 42.8438 37.0625 44.9062 40.625C47.0312 44.125 48.8125 46.9375 50.25 49.0625C51.875 51.5625 53.25 53.4688 54.375 54.7812C55.5 55.9688 56.8125 57.1875 58.3125 58.4375C59.5625 59.5 61.125 60.6875 63 62C64.875 63.25 67.0312 64.4688 69.4688 65.6562L42.75 66.9688C43.125 66.4688 43.3438 65.875 43.4062 65.1875C43.5312 64.4375 43.5938 63.75 43.5938 63.125C43.5938 62.4375 43.5312 61.6875 43.4062 60.875C43.1562 59.875 42.5 58.25 41.4375 56C40.5625 54.0625 39.2188 51.3438 37.4062 47.8438C35.5938 44.2812 33.0938 39.5938 29.9062 33.7812L21.9375 42.125C21.625 44.125 21.4688 45.9375 21.4688 47.5625C21.4688 49.1875 21.5312 50.5312 21.6562 51.5938C21.8438 52.9062 22.0938 54.0312 22.4062 54.9688C22.7812 55.9062 23.3125 56.9688 24 58.1562C24.5625 59.2188 25.3125 60.4688 26.25 61.9062C27.1875 63.3438 28.375 64.9375 29.8125 66.6875C28.375 66.3125 26.9375 66.0625 25.5 65.9375C24.0625 65.75 22.75 65.625 21.5625 65.5625C20.1875 65.5 18.875 65.5312 17.625 65.6562C16.3125 65.7812 14.7812 65.9688 13.0312 66.2188C11.5312 66.4688 9.6875 66.7812 7.5 67.1562C5.3125 67.5312 2.8125 68 0 68.5625C1.375 67.75 2.46875 66.875 3.28125 65.9375C4.09375 65 4.75 64.0938 5.25 63.2188C5.8125 62.2188 6.1875 61.25 6.375 60.3125C6.5 59.5 6.59375 57.75 6.65625 55.0625C6.78125 52.375 6.84375 49.25 6.84375 45.6875C6.90625 42.0625 6.90625 38.25 6.84375 34.25C6.78125 30.25 6.71875 26.5 6.65625 23C6.59375 19.5 6.5 16.5312 6.375 14.0938C6.3125 11.5938 6.25 10.0625 6.1875 9.5C6 8.625 5.75 7.6875 5.4375 6.6875C5.125 5.8125 4.6875 4.90625 4.125 3.96875C3.625 2.96875 2.96875 2 2.15625 1.0625ZM65.925 0.78125C67.925 0.84375 69.675 0.875 71.175 0.875C72.675 0.8125 73.8938 0.78125 74.8313 0.78125H77.55C78.2375 0.71875 79.0813 0.6875 80.0813 0.6875C80.9563 0.6875 82.0188 0.6875 83.2688 0.6875C84.5188 0.6875 85.9563 0.71875 87.5813 0.78125C88.0813 2.53125 88.6438 4.25 89.2688 5.9375C89.9563 7.5625 90.55 9.03125 91.05 10.3438C91.675 11.9062 92.3 13.375 92.925 14.75C93.55 16.125 94.3 17.7812 95.175 19.7188C95.925 21.3438 96.8313 23.3438 97.8938 25.7188C98.9563 28.0312 100.206 30.6875 101.644 33.6875C102.331 31.75 102.956 29.9688 103.519 28.3438C104.144 26.7188 104.675 25.3125 105.113 24.125C105.613 22.75 106.019 21.5 106.331 20.375C106.644 19.25 106.988 17.875 107.363 16.25C107.675 14.875 108.019 13.2188 108.394 11.2812C108.831 9.34375 109.269 7.09375 109.706 4.53125C111.519 4.53125 113.144 4.53125 114.581 4.53125C116.019 4.53125 117.269 4.5 118.331 4.4375C119.519 4.4375 120.581 4.40625 121.519 4.34375C122.519 4.34375 123.863 4.28125 125.55 4.15625C126.988 4.03125 128.894 3.9375 131.269 3.875C133.706 3.75 136.706 3.59375 140.269 3.40625C138.956 4.34375 137.894 5.28125 137.081 6.21875C136.331 7.09375 135.738 7.875 135.3 8.5625C134.8 9.375 134.488 10.1562 134.363 10.9062C134.238 11.5312 134.113 12.9688 133.988 15.2188C133.925 17.4688 133.831 20.1562 133.706 23.2812C133.644 26.3438 133.581 29.625 133.519 33.125C133.519 36.625 133.55 39.9375 133.613 43.0625C133.675 46.1875 133.769 48.9062 133.894 51.2188C134.081 53.4688 134.331 54.9062 134.644 55.5312C135.081 56.2812 135.675 57.1562 136.425 58.1562C137.113 59.0312 137.988 60.0312 139.05 61.1562C140.175 62.2812 141.644 63.5312 143.456 64.9062C140.581 65.0312 138.175 65.125 136.238 65.1875C134.363 65.25 132.8 65.3125 131.55 65.375C130.113 65.4375 128.956 65.4688 128.081 65.4688C127.144 65.4688 125.863 65.5 124.238 65.5625C122.8 65.625 120.894 65.7188 118.519 65.8438C116.144 65.9062 113.081 66.0312 109.331 66.2188C110.206 65.2188 111.019 64.2188 111.769 63.2188C112.519 62.2188 113.144 61.3125 113.644 60.5C114.269 59.5625 114.8 58.6562 115.238 57.7812C115.675 56.5938 116.019 54.4375 116.269 51.3125C116.519 48.625 116.706 44.7812 116.831 39.7812C116.956 34.7188 116.956 27.9375 116.831 19.4375C115.644 21.375 114.581 23.3125 113.644 25.25C112.769 27.125 111.988 28.8438 111.3 30.4062C110.55 32.2188 109.863 33.9688 109.238 35.6562C108.613 37.4062 107.956 39.3438 107.269 41.4688C106.644 43.2812 105.894 45.4375 105.019 47.9375C104.206 50.4375 103.269 53.1875 102.206 56.1875L98.6438 56.375C98.1438 53.875 97.6438 51.625 97.1438 49.625C96.6438 47.5625 96.1438 45.8125 95.6438 44.375C95.0813 42.6875 94.5188 41.1875 93.9563 39.875C93.3313 38.5625 92.6438 37.0938 91.8938 35.4688C91.2063 34.0938 90.3625 32.4688 89.3625 30.5938C88.425 28.7188 87.3313 26.625 86.0813 24.3125C85.4563 30.6875 85.0813 35.875 84.9563 39.875C84.8313 43.8125 84.8313 46.875 84.9563 49.0625C85.0813 51.6875 85.2688 53.5938 85.5188 54.7812C85.8938 55.8438 86.4875 57.0312 87.3 58.3438C87.9875 59.4688 88.925 60.8125 90.1125 62.375C91.3625 63.875 92.9563 65.5625 94.8938 67.4375C93.5188 67.4375 92.0813 67.4375 90.5813 67.4375C89.0813 67.4375 87.7063 67.4688 86.4563 67.5312C84.9563 67.5938 83.4875 67.625 82.05 67.625C80.55 67.6875 78.8 67.7812 76.8 67.9062C75.05 68.0312 72.9563 68.1562 70.5188 68.2812C68.0813 68.4062 65.2688 68.625 62.0813 68.9375C63.4563 68.0625 64.5813 67.2188 65.4563 66.4062C66.3313 65.5312 67.0188 64.75 67.5188 64.0625C68.1438 63.25 68.6125 62.4375 68.925 61.625C69.1125 61.125 69.2688 60.0312 69.3938 58.3438C69.5813 56.6562 69.7375 54.5938 69.8625 52.1562C70.05 49.7188 70.175 47 70.2375 44C70.3625 41 70.4563 37.9688 70.5188 34.9062C70.6438 31.7812 70.7375 28.75 70.8 25.8125C70.8625 22.8125 70.8938 20.125 70.8938 17.75C70.9563 15.3125 70.9875 13.2812 70.9875 11.6562C70.9875 10.0312 70.9875 9 70.9875 8.5625C70.8 7.625 70.5188 6.6875 70.1438 5.75C69.8313 4.9375 69.3313 4.09375 68.6438 3.21875C67.9563 2.34375 67.05 1.53125 65.925 0.78125ZM198.788 34.7188C198.038 34.5938 197.1 34.5 195.975 34.4375C194.913 34.375 193.881 34.3438 192.881 34.3438C191.756 34.3438 190.569 34.375 189.319 34.4375C188.006 34.5 186.694 34.5625 185.381 34.625C184.256 34.6875 182.975 34.7812 181.538 34.9062C180.163 34.9688 178.819 35.0625 177.506 35.1875C178.006 34.9375 178.444 34.5938 178.819 34.1562C179.256 33.7188 179.631 33.2812 179.944 32.8438C180.256 32.3438 180.538 31.8125 180.788 31.25C181.1 30.3125 181.069 29.1875 180.694 27.875C180.319 26.5 179.631 25.25 178.631 24.125C177.694 23 176.475 22.125 174.975 21.5C173.538 20.8125 171.944 20.6562 170.194 21.0312C168.319 21.4688 166.631 22.125 165.131 23C163.694 23.875 162.475 25.0938 161.475 26.6562C160.538 28.1562 159.85 30.0312 159.413 32.2812C159.038 34.4688 158.944 37.0938 159.131 40.1562C159.381 43.9688 160.006 47 161.006 49.25C162.006 51.5 163.225 53.1875 164.663 54.3125C166.1 55.4375 167.663 56.125 169.35 56.375C171.1 56.5625 172.819 56.5625 174.506 56.375C175.694 56.125 176.788 55.5938 177.788 54.7812C178.6 54.0938 179.35 53.0938 180.038 51.7812C180.725 50.4688 181.038 48.6562 180.975 46.3438L192.413 45.875C191.1 49.5625 189.506 52.5 187.631 54.6875C185.756 56.8125 183.944 58.4688 182.194 59.6562C180.131 61.0312 178.069 61.9688 176.006 62.4688C173.444 62.9062 171.163 63.0938 169.163 63.0312C167.163 62.9062 165.35 62.5938 163.725 62.0938C162.1 61.5938 160.6 60.9688 159.225 60.2188C157.85 59.4688 156.538 58.6562 155.288 57.7812C154.475 57.2188 153.569 56.2812 152.569 54.9688C151.569 53.6562 150.631 52.0938 149.756 50.2812C148.881 48.4062 148.163 46.3438 147.6 44.0938C147.038 41.8438 146.819 39.5312 146.944 37.1562C147.069 34.7188 147.631 32.2812 148.631 29.8438C149.631 27.4062 151.225 25.0625 153.413 22.8125C156.725 19.4375 160.256 17.25 164.006 16.25C167.819 15.1875 171.413 14.9062 174.788 15.4062C178.163 15.8438 181.163 16.8125 183.788 18.3125C186.413 19.8125 188.256 21.4375 189.319 23.1875C190.381 24.9375 191.163 26.2812 191.663 27.2188C192.225 28.0938 192.631 28.7812 192.881 29.2812C193.194 29.7188 193.444 30.0625 193.631 30.3125C193.881 30.5 194.225 30.7812 194.663 31.1562C194.975 31.4688 195.35 31.8125 195.788 32.1875C196.163 32.5 196.6 32.875 197.1 33.3125C197.6 33.75 198.163 34.2188 198.788 34.7188ZM196.931 3.96875C201.306 4.09375 204.931 4.1875 207.806 4.25C210.744 4.25 213.119 4.25 214.931 4.25H219.9H247.837C247.962 5.5 248.056 6.71875 248.119 7.90625C248.244 9.03125 248.306 10.0312 248.306 10.9062C248.306 11.9688 248.275 12.9375 248.212 13.8125C248.15 14.6875 248.056 15.625 247.931 16.625C247.806 17.5 247.681 18.4375 247.556 19.4375C247.431 20.4375 247.212 21.4688 246.9 22.5312C246.025 19.1562 244.837 16.5938 243.337 14.8438C241.9 13.0938 240.431 11.8125 238.931 11C237.181 10.0625 235.337 9.5625 233.4 9.5C230.837 9.625 228.837 9.84375 227.4 10.1562C225.962 10.4688 224.837 10.9062 224.025 11.4688C223.212 12.0312 222.587 12.6875 222.15 13.4375C221.775 14.125 221.369 14.9062 220.931 15.7812C220.556 16.5312 220.212 17.6875 219.9 19.25C219.587 20.5625 219.275 22.3438 218.962 24.5938C218.712 26.8438 218.431 29.75 218.119 33.3125C219.806 32.8125 221.15 32.3438 222.15 31.9062C223.212 31.4688 224.056 31.0938 224.681 30.7812C225.369 30.4062 225.869 30.0625 226.181 29.75C226.431 29.375 226.806 28.6875 227.306 27.6875C227.681 26.8125 228.181 25.625 228.806 24.125C229.494 22.625 230.306 20.5625 231.244 17.9375C231.369 20.8125 231.431 23.2188 231.431 25.1562C231.431 27.0312 231.462 28.5625 231.525 29.75C231.525 31.125 231.556 32.2188 231.619 33.0312V36.5938C231.619 37.9062 231.619 39.6875 231.619 41.9375C231.681 44.125 231.775 46.9062 231.9 50.2812C231.15 47.9688 230.462 46.1562 229.837 44.8438C229.275 43.4688 228.775 42.4375 228.337 41.75C227.837 40.9375 227.4 40.375 227.025 40.0625C226.587 39.9375 225.994 39.8125 225.244 39.6875C224.556 39.625 223.681 39.5938 222.619 39.5938C221.619 39.5938 220.337 39.75 218.775 40.0625C218.587 43.5 218.556 46.2812 218.681 48.4062C218.869 50.4688 219.119 52.0625 219.431 53.1875C219.744 54.5 220.119 55.4375 220.556 56C221.119 56.5625 222.244 57.0312 223.931 57.4062C225.619 57.7188 227.525 57.8438 229.65 57.7812C231.837 57.6562 234.056 57.2812 236.306 56.6562C238.556 56.0312 240.556 55 242.306 53.5625C243.619 52.375 245.025 50.875 246.525 49.0625C247.775 47.5 249.15 45.5312 250.65 43.1562C252.212 40.7812 253.744 37.9062 255.244 34.5312C254.994 37.3438 254.806 39.6875 254.681 41.5625C254.619 43.375 254.525 44.8438 254.4 45.9688C254.275 47.2812 254.181 48.2812 254.119 48.9688C254.119 49.7188 254.025 50.7812 253.837 52.1562C253.712 53.3438 253.494 54.9688 253.181 57.0312C252.931 59.0312 252.587 61.5938 252.15 64.7188C249.212 64.7812 246.431 64.8438 243.806 64.9062C241.181 64.9062 238.869 64.9375 236.869 65C234.494 65.0625 232.306 65.125 230.306 65.1875C228.244 65.1875 225.962 65.2812 223.462 65.4688C221.275 65.5938 218.681 65.7812 215.681 66.0312C212.744 66.2812 209.494 66.625 205.931 67.0625C206.244 62.8125 206.462 58.8125 206.587 55.0625C206.775 51.25 206.9 47.9062 206.962 45.0312C207.025 41.6562 207.025 38.5312 206.962 35.6562C207.275 28.4688 207.15 22.6562 206.587 18.2188C206.025 13.7812 205.369 10.9375 204.619 9.6875C204.244 9.25 203.712 8.71875 203.025 8.09375C202.462 7.59375 201.681 7 200.681 6.3125C199.681 5.625 198.431 4.84375 196.931 3.96875ZM258.638 24.7812C260.513 24.9062 262.169 25 263.606 25.0625C265.106 25.125 266.356 25.1875 267.356 25.25C268.481 25.3125 269.481 25.3438 270.356 25.3438C271.231 25.3438 272.231 25.3125 273.356 25.25C274.356 25.1875 275.575 25.0938 277.013 24.9688C278.513 24.7812 280.231 24.5312 282.169 24.2188C280.669 25.1562 279.45 26.0312 278.513 26.8438C277.638 27.5938 276.95 28.2812 276.45 28.9062C275.888 29.5938 275.513 30.2188 275.325 30.7812C275.2 31.2812 275.075 32.2812 274.95 33.7812C274.888 35.2188 274.825 36.9062 274.763 38.8438C274.763 40.7188 274.794 42.7188 274.856 44.8438C274.919 46.9688 275.013 48.9062 275.138 50.6562C275.263 52.3438 275.45 53.7812 275.7 54.9688C275.95 56.0938 276.263 56.625 276.638 56.5625C277.138 56.125 277.95 54.6562 279.075 52.1562C279.513 51.0938 280.044 49.75 280.669 48.125C281.294 46.4375 282.013 44.4062 282.825 42.0312C283.638 39.5938 284.544 36.75 285.544 33.5C286.606 30.25 287.794 26.4688 289.106 22.1562H297.263C297.513 26.4062 297.794 30.125 298.106 33.3125C298.419 36.5 298.731 39.2812 299.044 41.6562C299.356 43.9688 299.638 45.9375 299.888 47.5625C300.2 49.125 300.513 50.4062 300.825 51.4062C301.513 53.7812 302.2 55.0625 302.888 55.25C303.45 55.125 304.044 54.4062 304.669 53.0938C305.356 51.7812 305.981 50.1562 306.544 48.2188C307.169 46.2812 307.731 44.1875 308.231 41.9375C308.731 39.625 309.169 37.4688 309.544 35.4688C309.919 33.4688 310.169 31.7188 310.294 30.2188C310.419 28.7188 310.419 27.7812 310.294 27.4062C310.106 27.0312 309.731 26.5 309.169 25.8125C308.669 25.25 307.981 24.5625 307.106 23.75C306.294 22.9375 305.169 21.9688 303.731 20.8438C305.481 21.1562 307.138 21.375 308.7 21.5C310.325 21.5625 311.763 21.625 313.013 21.6875C314.45 21.75 315.763 21.75 316.95 21.6875C318.2 21.6875 319.731 21.6562 321.544 21.5938C323.106 21.5312 325.044 21.5 327.356 21.5C329.731 21.5 332.513 21.4375 335.7 21.3125C332.888 22.1875 330.638 23.0312 328.95 23.8438C327.325 24.5938 326.075 25.3125 325.2 26C324.138 26.75 323.388 27.4688 322.95 28.1562C322.513 29.0938 321.825 31.0625 320.888 34.0625C320.513 35.3125 320.044 36.875 319.481 38.75C318.919 40.5625 318.263 42.7188 317.513 45.2188C316.763 47.7188 315.919 50.625 314.981 53.9375C314.044 57.1875 312.981 60.9062 311.794 65.0938C311.106 64.9688 310.388 64.9062 309.638 64.9062C308.95 64.8438 308.294 64.8125 307.669 64.8125H305.513C304.763 64.875 303.95 64.9375 303.075 65C302.325 65.0625 301.45 65.1562 300.45 65.2812C299.45 65.4062 298.356 65.5625 297.169 65.75L291.544 42.9688L282.356 65.75L271.856 65.4688C270.544 58.4062 269.481 52.7812 268.669 48.5938C267.919 44.3438 267.294 41.0938 266.794 38.8438C266.231 36.2188 265.856 34.375 265.669 33.3125C265.356 32.1875 264.888 31.0938 264.263 30.0312C263.763 29.1562 263.044 28.25 262.106 27.3125C261.169 26.3125 260.013 25.4688 258.638 24.7812ZM337.875 30.0312C338.188 29.6562 338.375 28.9688 338.438 27.9688C338.562 26.9062 338.812 25.7188 339.188 24.4062C339.625 23.0938 340.344 21.7188 341.344 20.2812C342.344 18.8438 343.969 17.5 346.219 16.25C348.406 15 350.531 14.25 352.594 14C354.656 13.75 356.625 13.8438 358.5 14.2812C360.375 14.7188 362.125 15.4062 363.75 16.3438C365.438 17.2812 366.969 18.3125 368.344 19.4375C369.281 20.1875 370.031 21.2812 370.594 22.7188C371.156 24.0938 371.594 25.6562 371.906 27.4062C372.219 29.1562 372.438 31 372.562 32.9375C372.75 34.8125 372.875 36.6562 372.938 38.4688C373 40.2188 373.031 41.8438 373.031 43.3438C373.094 44.7812 373.219 45.9688 373.406 46.9062C373.656 48.2812 374.094 49.4688 374.719 50.4688C375.344 51.4062 376.031 52.2188 376.781 52.9062C377.531 53.5312 378.281 54.0312 379.031 54.4062C379.781 54.7812 380.438 55.0625 381 55.25C381.375 55.4375 381.719 55.5625 382.031 55.625C382.656 55.875 383.094 55.875 383.344 55.625C382.969 56.5 382.625 57.25 382.312 57.875C382 58.5 381.75 59.0312 381.562 59.4688C381.312 59.9688 381.094 60.375 380.906 60.6875C380.719 61.0625 380.5 61.4062 380.25 61.7188C380.062 62.0312 379.812 62.375 379.5 62.75C379.188 63.125 378.875 63.5312 378.562 63.9688C377.75 63.6562 376.969 63.2812 376.219 62.8438C375.531 62.4062 374.906 62 374.344 61.625C373.656 61.1875 373.031 60.75 372.469 60.3125C371.906 59.875 371.375 59.375 370.875 58.8125C370.438 58.3125 369.969 57.7812 369.469 57.2188C369.031 56.6562 368.656 56.0312 368.344 55.3438C367.969 56.1562 367.062 57.3125 365.625 58.8125C364.25 60.3125 362.438 61.6875 360.188 62.9375C357.938 64.125 355.312 64.9688 352.312 65.4688C349.375 65.9688 346.125 65.625 342.562 64.4375C341 63.9375 339.531 63.2188 338.156 62.2812C336.781 61.2812 335.594 60.0938 334.594 58.7188C333.656 57.3438 332.969 55.7812 332.531 54.0312C332.156 52.2188 332.188 50.2188 332.625 48.0312C333.062 45.8438 333.844 44 334.969 42.5C336.094 41 337.438 39.7812 339 38.8438C340.562 37.9062 342.312 37.1875 344.25 36.6875C346.188 36.1875 348.188 35.8438 350.25 35.6562C351.875 35.5938 353.5 35.6875 355.125 35.9375C356.5 36.1875 357.938 36.6562 359.438 37.3438C360.938 37.9688 362.219 38.9375 363.281 40.25C363.219 36.9375 363.094 34.3125 362.906 32.375C362.781 30.375 362.656 28.8438 362.531 27.7812C362.281 26.5312 362.062 25.6562 361.875 25.1562C361.562 24.7188 361.219 24.2188 360.844 23.6562C360.531 23.0938 360.125 22.5938 359.625 22.1562C359.125 21.6562 358.5 21.25 357.75 20.9375C357 20.625 356.125 20.5 355.125 20.5625C354.062 20.625 353.219 20.9062 352.594 21.4062C351.969 21.9062 351.469 22.5 351.094 23.1875C350.781 23.8125 350.594 24.5 350.531 25.25C350.469 26 350.5 26.6562 350.625 27.2188C350.75 27.5938 350.938 28 351.188 28.4375C351.438 28.8125 351.781 29.2188 352.219 29.6562C352.656 30.0938 353.25 30.4688 354 30.7812C352.562 30.9688 351.281 31.125 350.156 31.25C349.031 31.3125 348.062 31.4062 347.25 31.5312C346.312 31.6562 345.5 31.75 344.812 31.8125C344.125 31.875 343.312 32 342.375 32.1875C341.562 32.3125 340.562 32.4688 339.375 32.6562C338.188 32.8438 336.812 33.0938 335.25 33.4062C335.625 32.9688 335.969 32.5625 336.281 32.1875C336.594 31.75 336.875 31.375 337.125 31.0625C337.375 30.6875 337.625 30.3438 337.875 30.0312ZM351.938 41.1875C350.812 41.25 349.688 41.5312 348.562 42.0312C347.438 42.4688 346.438 43.125 345.562 44C344.688 44.8125 343.938 45.7812 343.312 46.9062C342.75 47.9688 342.469 49.1562 342.469 50.4688C342.469 51.7812 342.781 52.9375 343.406 53.9375C344.094 54.875 344.969 55.6562 346.031 56.2812C347.156 56.9062 348.344 57.2812 349.594 57.4062C350.906 57.5312 352.188 57.4062 353.438 57.0312C354.625 56.5938 355.75 55.9062 356.812 54.9688C357.875 53.9688 358.781 52.9062 359.531 51.7812C360.281 50.5938 360.812 49.4375 361.125 48.3125C361.438 47.125 361.469 46.1562 361.219 45.4062C360.719 43.7812 359.594 42.6562 357.844 42.0312C356.094 41.3438 354.125 41.0625 351.938 41.1875ZM390.112 57.6875C390.55 55.625 390.862 53.8125 391.05 52.25C391.3 50.625 391.487 49.2812 391.612 48.2188C391.737 46.9688 391.8 45.9062 391.8 45.0312C391.737 43.9688 391.675 42.7188 391.612 41.2812C391.612 39.7812 391.55 38.3125 391.425 36.875C391.362 35.375 391.269 34.0625 391.144 32.9375C391.019 31.75 390.862 30.9062 390.675 30.4062C390.425 29.9062 390.081 29.375 389.644 28.8125C388.769 27.75 387.487 26.7188 385.8 25.7188C387.237 25.4062 388.456 25.1562 389.456 24.9688C390.519 24.7188 391.394 24.5 392.081 24.3125C392.831 24.0625 393.487 23.8438 394.05 23.6562C394.55 23.4688 395.144 23.2812 395.831 23.0938C396.394 22.9688 397.081 22.8125 397.894 22.625C398.706 22.4375 399.644 22.2188 400.706 21.9688L400.425 30.5C402.425 28.125 404.456 26.3438 406.519 25.1562C408.581 23.9688 410.519 23.125 412.331 22.625C414.394 22 416.425 21.6875 418.425 21.6875C420.925 21.8125 423.237 22.2188 425.362 22.9062C427.55 23.5938 429.425 24.4062 430.987 25.3438C432.612 26.2188 433.925 27.1562 434.925 28.1562C435.925 29.1562 436.519 30.0312 436.706 30.7812C437.456 33.2188 437.644 35.4688 437.269 37.5312C436.894 39.5312 436.394 41.5 435.769 43.4375C435.206 45.3125 434.706 47.1875 434.269 49.0625C433.894 50.9375 434.05 52.9688 434.737 55.1562C434.987 55.7188 435.237 56.2812 435.487 56.8438C435.737 57.3438 436.05 57.8438 436.425 58.3438C436.8 58.8438 437.237 59.25 437.737 59.5625C437.05 59.5 436.362 59.4688 435.675 59.4688C434.987 59.4062 434.362 59.3438 433.8 59.2812C433.112 59.2188 432.487 59.1562 431.925 59.0938C431.3 59.0312 430.456 59 429.394 59C427.581 59 424.769 59.0938 420.956 59.2812C421.519 57.9688 421.956 56.875 422.269 56C422.644 55.0625 422.956 54.3125 423.206 53.75C423.456 53.0625 423.644 52.5312 423.769 52.1562C424.519 50.3438 424.956 48.2812 425.081 45.9688C425.269 43.6562 425.112 41.3125 424.612 38.9375C424.425 38.125 424.112 37.1562 423.675 36.0312C423.237 34.9062 422.644 33.8125 421.894 32.75C421.206 31.6875 420.362 30.7812 419.362 30.0312C418.425 29.2812 417.331 28.8438 416.081 28.7188C414.831 28.5938 413.425 28.9062 411.862 29.6562C410.362 30.4062 408.737 31.7812 406.987 33.7812C405.675 35.4688 404.644 37.5312 403.894 39.9688C403.206 42.0312 402.737 44.625 402.487 47.75C402.237 50.8125 402.612 54.4062 403.612 58.5312C402.737 58.4062 401.925 58.3438 401.175 58.3438C400.425 58.2812 399.8 58.2188 399.3 58.1562C398.675 58.0938 398.112 58.0312 397.612 57.9688C397.05 57.9688 396.425 57.9375 395.737 57.875C395.112 57.875 394.331 57.875 393.394 57.875C392.456 57.8125 391.362 57.75 390.112 57.6875Z" fill="white"/>
</svg>
