<svg width="461" height="69" viewBox="0 0 461 69" fill="none" xmlns="http://www.w3.org/2000/svg">
<path d="M12.072 7.672V34.264V61.048H10.536V34.264V7.672H12.072ZM44.52 8.152L24.744 29.272C23.272 30.808 21.896 31.992 20.616 32.824C19.4 33.592 18.056 34.136 16.584 34.456C15.176 34.712 13.416 34.904 11.304 35.032C10.856 35.032 10.6 34.808 10.536 34.36C10.536 33.848 10.792 33.56 11.304 33.496C14.504 33.368 17 33.592 18.792 34.168C20.584 34.744 22.376 36.056 24.168 38.104L44.52 60.568L43.368 61.528L23.016 39.064C21.416 37.208 19.816 36.056 18.216 35.608C16.616 35.096 14.312 34.904 11.304 35.032C10.856 35.032 10.6 34.808 10.536 34.36C10.536 33.848 10.792 33.56 11.304 33.496C13.288 33.368 14.92 33.176 16.2 32.92C17.544 32.664 18.76 32.184 19.848 31.48C21 30.776 22.248 29.72 23.592 28.312L43.368 7.192L44.52 8.152ZM18.696 27.448L11.88 34.744C11.752 34.872 11.688 34.712 11.688 34.264C11.688 33.816 11.752 33.656 11.88 33.784L18.696 41.464L17.544 42.424L10.728 34.744C10.6 34.616 10.536 34.456 10.536 34.264C10.536 34.072 10.6 33.912 10.728 33.784L17.544 26.488L18.696 27.448ZM20.328 67.672L10.92 61.72C10.792 61.592 10.92 61.528 11.304 61.528C11.688 61.528 11.816 61.592 11.688 61.72L2.184 67.672L1.416 66.328L10.92 60.376C11.048 60.312 11.176 60.28 11.304 60.28C11.496 60.28 11.624 60.312 11.688 60.376L21.096 66.328L20.328 67.672ZM2.184 1.048L11.688 7C11.816 7.064 11.688 7.096 11.304 7.096C10.92 7.096 10.792 7.064 10.92 7L20.328 1.048L21.096 2.392L11.688 8.344C11.624 8.408 11.496 8.44 11.304 8.44C11.176 8.44 11.048 8.408 10.92 8.344L1.416 2.392L2.184 1.048ZM60.168 67.768L43.656 61.816C43.528 61.688 43.656 61.592 44.04 61.528C44.488 61.464 44.648 61.496 44.52 61.624L38.664 67.576L37.512 66.424L43.368 60.472C43.496 60.344 43.624 60.28 43.752 60.28C43.944 60.216 44.104 60.216 44.232 60.28L60.744 66.232L60.168 67.768ZM39.816 1.23999L44.52 7.192C44.648 7.32 44.488 7.352 44.04 7.288C43.656 7.16 43.528 7.064 43.656 7L59.4 1.048L59.976 2.392L44.232 8.344C44.104 8.408 43.944 8.44 43.752 8.44C43.624 8.376 43.496 8.28 43.368 8.152L38.664 2.2L39.816 1.23999ZM11.304 33.496C13.16 33.432 14.984 33.368 16.776 33.304C18.632 33.176 20.424 33.08 22.152 33.016C23.944 32.952 25.704 32.888 27.432 32.824V34.36C25.576 34.424 23.72 34.488 21.864 34.552C20.072 34.616 18.28 34.712 16.488 34.84C14.76 34.904 13.032 34.968 11.304 35.032V33.496ZM1.8 67.768C1.544 67.768 1.32 67.64 1.128 67.384C1 67.128 1 66.872 1.128 66.616C1.64 65.656 2.056 64.536 2.376 63.256C2.696 61.912 2.92 60.056 3.048 57.688C3.24 55.32 3.368 52.216 3.432 48.376C3.56 44.472 3.624 39.512 3.624 33.496C3.624 27.8 3.56 23.128 3.432 19.48C3.368 15.832 3.24 12.888 3.048 10.648C2.92 8.408 2.696 6.648 2.376 5.368C2.056 4.088 1.64 2.99999 1.128 2.10399C1 1.78399 1 1.528 1.128 1.336C1.32 1.08 1.544 0.951998 1.8 0.951998H20.712C21.032 0.951998 21.256 1.08 21.384 1.336C21.512 1.528 21.512 1.78399 21.384 2.10399C20.808 3.192 20.328 4.568 19.944 6.232C19.624 7.896 19.368 10.328 19.176 13.528C19.048 16.728 18.952 21.208 18.888 26.968L17.544 26.488C21.704 22.072 25.096 18.424 27.72 15.544C30.344 12.664 32.392 10.36 33.864 8.632C35.4 6.84 36.488 5.432 37.128 4.408C37.768 3.32 38.216 2.36 38.472 1.528C38.536 1.33599 38.632 1.20799 38.76 1.144C38.888 1.016 39.048 0.951998 39.24 0.951998H59.688C60.072 0.951998 60.328 1.144 60.456 1.528C60.584 1.848 60.488 2.136 60.168 2.392C58.824 3.288 57.384 4.376 55.848 5.65599C54.376 6.936 52.52 8.696 50.28 10.936C48.04 13.112 45.128 16.056 41.544 19.768C38.024 23.48 33.512 28.248 28.008 34.072V33.112C33.32 39.192 37.8 44.184 41.448 48.088C45.096 51.992 48.104 55.128 50.472 57.496C52.904 59.864 54.92 61.72 56.52 63.064C58.184 64.344 59.656 65.464 60.936 66.424C61.256 66.616 61.352 66.872 61.224 67.192C61.096 67.576 60.84 67.768 60.456 67.768H38.088C37.96 67.768 37.8 67.704 37.608 67.576C37.48 67.512 37.384 67.384 37.32 67.192C37.064 66.36 36.584 65.4 35.88 64.312C35.24 63.224 34.184 61.784 32.712 59.992C31.304 58.2 29.352 55.896 26.856 53.08C24.424 50.2 21.32 46.648 17.544 42.424L18.888 41.944C18.952 47.576 19.08 51.992 19.272 55.192C19.464 58.392 19.72 60.824 20.04 62.488C20.424 64.152 20.872 65.56 21.384 66.712C21.512 66.968 21.512 67.192 21.384 67.384C21.256 67.64 21.032 67.768 20.712 67.768H1.8ZM1.8 66.232H20.712L20.04 67.288C19.528 66.136 19.08 64.728 18.696 63.064C18.312 61.4 17.992 58.936 17.736 55.672C17.544 52.344 17.416 47.768 17.352 41.944C17.352 41.624 17.512 41.4 17.832 41.272C18.152 41.08 18.44 41.144 18.696 41.464C22.6 45.816 25.8 49.432 28.296 52.312C30.792 55.192 32.744 57.56 34.152 59.416C35.624 61.208 36.712 62.68 37.416 63.832C38.12 64.92 38.6 65.912 38.856 66.808L38.088 66.232H60.456L59.976 67.576C58.696 66.616 57.224 65.496 55.56 64.216C53.96 62.872 51.944 61.016 49.512 58.648C47.08 56.28 44.04 53.144 40.392 49.24C36.744 45.272 32.232 40.216 26.856 34.072C26.536 33.752 26.536 33.432 26.856 33.112C32.424 27.224 37 22.424 40.584 18.712C44.168 14.936 47.08 11.928 49.32 9.688C51.56 7.448 53.416 5.688 54.888 4.408C56.424 3.128 57.864 2.008 59.208 1.048L59.688 2.488H39.24L40.008 1.912C39.752 2.808 39.272 3.8 38.568 4.888C37.928 5.976 36.872 7.41599 35.4 9.20799C33.928 10.936 31.848 13.272 29.16 16.216C26.536 19.16 23.048 22.904 18.696 27.448C18.44 27.704 18.152 27.768 17.832 27.64C17.512 27.512 17.352 27.288 17.352 26.968C17.416 22.552 17.512 18.872 17.64 15.928C17.768 12.984 17.928 10.616 18.12 8.824C18.312 6.968 18.568 5.46399 18.888 4.31199C19.208 3.16 19.592 2.168 20.04 1.336L20.712 2.488H1.8L2.472 1.336C2.984 2.296 3.4 3.448 3.72 4.792C4.04 6.072 4.296 7.864 4.488 10.168C4.744 12.408 4.904 15.416 4.968 19.192C5.096 22.904 5.16 27.672 5.16 33.496C5.16 39.64 5.096 44.696 4.968 48.664C4.904 52.632 4.744 55.832 4.488 58.264C4.296 60.632 4.04 62.52 3.72 63.928C3.4 65.272 2.984 66.424 2.472 67.384L1.8 66.232ZM86.9873 67.672L78.1553 61.72C78.0273 61.592 78.1553 61.528 78.5393 61.528C78.9873 61.528 79.1473 61.592 79.0193 61.72L70.2833 67.672L69.3233 66.328L78.0593 60.376C78.1873 60.312 78.3473 60.28 78.5393 60.28C78.7313 60.28 78.8593 60.312 78.9233 60.376L87.7553 66.328L86.9873 67.672ZM141.419 67.672L132.395 61.72C132.267 61.592 132.395 61.528 132.779 61.528C133.163 61.528 133.291 61.592 133.163 61.72L124.139 67.672L123.371 66.328L132.395 60.376C132.523 60.312 132.651 60.28 132.779 60.28C132.971 60.28 133.099 60.312 133.163 60.376L142.187 66.328L141.419 67.672ZM84.2033 19L77.8673 8.056C77.8033 7.992 77.8353 8.024 77.9633 8.152C78.0913 8.28 78.1233 8.344 78.0593 8.344L69.3233 2.392L70.2833 1.048L79.0193 7C79.0193 7.064 79.0193 7.128 79.0193 7.192C79.0833 7.192 79.1473 7.224 79.2113 7.288L85.5473 18.232L84.2033 19ZM142.187 2.392L133.163 8.344C133.099 8.344 133.131 8.28 133.259 8.152C133.387 8.024 133.451 7.992 133.451 8.056L126.923 18.52L125.579 17.752L132.107 7.288C132.171 7.224 132.203 7.192 132.203 7.192C132.267 7.128 132.331 7.064 132.395 7L141.419 1.048L142.187 2.392ZM77.7713 61.048V7.672C77.7713 7.48 77.8353 7.32 77.9633 7.192C78.1553 7 78.3473 6.904 78.5393 6.904H87.8513C87.9793 6.904 88.1073 6.968 88.2353 7.096C88.4273 7.16 88.5553 7.256 88.6193 7.384L106.379 60.184C106.507 60.568 106.251 60.76 105.611 60.76C105.035 60.76 104.779 60.568 104.843 60.184L123.083 7.384C123.211 7.256 123.339 7.16 123.467 7.096C123.595 6.968 123.723 6.904 123.851 6.904H132.779C132.971 6.904 133.131 7 133.259 7.192C133.451 7.32 133.547 7.48 133.547 7.672V61.048H132.011V7.672C132.011 7.48 132.171 7.576 132.491 7.96C132.875 8.28 132.971 8.44 132.779 8.44H123.851C123.723 8.44 123.819 8.312 124.139 8.056C124.523 7.8 124.683 7.768 124.619 7.96L106.379 60.76C106.251 61.08 105.995 61.24 105.611 61.24C105.227 61.24 104.971 61.08 104.843 60.76L87.0833 7.96C87.0193 7.768 87.1473 7.8 87.4673 8.056C87.8513 8.312 87.9793 8.44 87.8513 8.44H78.5393C78.3473 8.44 78.4113 8.28 78.7313 7.96C79.1153 7.576 79.3073 7.48 79.3073 7.672V61.048H77.7713ZM95.2433 2.296L88.3313 8.248C88.2673 8.312 88.2993 8.248 88.4273 8.056C88.5553 7.864 88.6193 7.8 88.6193 7.86399L85.6433 18.808L84.1073 18.424L87.0833 7.48C87.1473 7.352 87.1793 7.288 87.1793 7.288C87.2433 7.224 87.3073 7.16 87.3713 7.096L94.2833 1.144L95.2433 2.296ZM125.483 18.328L123.083 7.86399C123.083 7.736 123.147 7.8 123.275 8.056C123.403 8.248 123.403 8.312 123.275 8.248L117.131 2.296L118.283 1.144L124.427 7.096C124.491 7.16 124.523 7.224 124.523 7.288C124.523 7.352 124.555 7.416 124.619 7.48L127.019 17.944L125.483 18.328ZM108.491 67.384L104.939 60.856C104.811 60.536 105.035 60.408 105.611 60.472C106.187 60.472 106.411 60.6 106.283 60.856L102.059 67.384L100.715 66.616L104.939 60.088C105.131 59.832 105.355 59.704 105.611 59.704C105.931 59.704 106.155 59.832 106.283 60.088L109.835 66.616L108.491 67.384ZM106.859 43L106.379 60.472H104.843L105.323 43H106.859ZM69.8033 67.768C69.5473 67.768 69.3233 67.64 69.1313 67.384C69.0033 67.128 69.0033 66.872 69.1313 66.616C69.6433 65.656 70.0593 64.536 70.3793 63.256C70.6993 61.912 70.9233 60.056 71.0513 57.688C71.2433 55.32 71.3713 52.216 71.4353 48.376C71.5633 44.472 71.6273 39.512 71.6273 33.496C71.6273 27.8 71.5633 23.128 71.4353 19.48C71.3713 15.832 71.2433 12.888 71.0513 10.648C70.9233 8.408 70.6993 6.648 70.3793 5.368C70.0593 4.088 69.6433 2.99999 69.1313 2.10399C69.0033 1.78399 69.0033 1.528 69.1313 1.336C69.3233 1.08 69.5473 0.951998 69.8033 0.951998H94.7633C94.9553 0.951998 95.1153 1.048 95.2433 1.23999C95.4353 1.368 95.5313 1.528 95.5313 1.72C95.5313 2.872 95.5953 4.15199 95.7233 5.56C95.8513 6.904 96.1713 8.728 96.6833 11.032C97.1953 13.272 98.0273 16.312 99.1793 20.152C100.395 23.928 102.059 28.856 104.171 34.936L106.859 42.712H105.323L108.011 34.936C110.123 28.92 111.787 24.024 113.003 20.248C114.219 16.408 115.083 13.368 115.595 11.128C116.171 8.824 116.523 6.968 116.651 5.56C116.843 4.15199 116.939 2.872 116.939 1.72C116.939 1.528 117.003 1.368 117.131 1.23999C117.323 1.048 117.515 0.951998 117.707 0.951998H141.803C142.123 0.951998 142.347 1.08 142.475 1.336C142.603 1.528 142.603 1.78399 142.475 2.10399C142.027 2.99999 141.611 4.088 141.227 5.368C140.907 6.648 140.651 8.408 140.459 10.648C140.331 12.888 140.203 15.832 140.075 19.48C140.011 23.128 139.979 27.8 139.979 33.496C139.979 39.512 140.011 44.472 140.075 48.376C140.203 52.216 140.331 55.32 140.459 57.688C140.651 60.056 140.907 61.912 141.227 63.256C141.611 64.536 142.027 65.656 142.475 66.616C142.603 66.872 142.603 67.128 142.475 67.384C142.347 67.64 142.123 67.768 141.803 67.768H123.755C123.499 67.768 123.275 67.64 123.083 67.384C122.955 67.128 122.955 66.872 123.083 66.616C123.595 65.656 124.011 64.536 124.331 63.256C124.651 61.912 124.875 60.056 125.003 57.688C125.195 55.32 125.323 52.216 125.387 48.376C125.515 44.472 125.579 39.512 125.579 33.496C125.579 31.256 125.579 28.696 125.579 25.816C125.579 22.872 125.547 20.312 125.483 18.136L127.019 18.424C126.251 20.6 125.355 23.096 124.331 25.912C123.307 28.728 122.155 31.928 120.875 35.512C118.763 41.208 117.035 45.912 115.691 49.624C114.411 53.336 113.387 56.312 112.619 58.552C111.851 60.792 111.275 62.552 110.891 63.832C110.507 65.112 110.187 66.232 109.931 67.192C109.867 67.384 109.771 67.512 109.643 67.576C109.515 67.704 109.355 67.768 109.163 67.768H101.387C101.195 67.768 101.035 67.704 100.907 67.576C100.779 67.512 100.683 67.384 100.619 67.192C100.363 66.232 100.043 65.112 99.6593 63.832C99.2753 62.552 98.6993 60.792 97.9313 58.552C97.2273 56.312 96.2353 53.336 94.9553 49.624C93.6753 45.912 92.0113 41.208 89.9633 35.512C88.7473 32.12 87.6593 29.048 86.6993 26.296C85.8033 23.544 84.9393 21.08 84.1073 18.904L85.6433 18.616C85.5793 20.472 85.5473 22.808 85.5473 25.624C85.5473 28.44 85.5473 31.064 85.5473 33.496C85.5473 39.512 85.5793 44.472 85.6433 48.376C85.7713 52.216 85.8993 55.32 86.0273 57.688C86.2193 60.056 86.4753 61.912 86.7953 63.256C87.1793 64.536 87.5953 65.656 88.0433 66.616C88.1713 66.872 88.1713 67.128 88.0433 67.384C87.9153 67.64 87.6913 67.768 87.3713 67.768H69.8033ZM69.8033 66.232H87.3713L86.6993 67.384C86.2513 66.424 85.8353 65.272 85.4513 63.928C85.1313 62.52 84.8433 60.632 84.5873 58.264C84.3953 55.832 84.2353 52.632 84.1073 48.664C84.0433 44.696 84.0113 39.64 84.0113 33.496C84.0113 31.064 84.0113 28.44 84.0113 25.624C84.0113 22.808 84.0433 20.472 84.1073 18.616C84.1073 18.168 84.2993 17.912 84.6833 17.848C85.1313 17.784 85.4513 17.944 85.6433 18.328C86.4113 20.44 87.2753 22.872 88.2353 25.624C89.1953 28.312 90.2833 31.416 91.4993 34.936C93.5473 40.696 95.2113 45.432 96.4913 49.144C97.7713 52.856 98.7633 55.864 99.4673 58.168C100.235 60.408 100.811 62.168 101.195 63.448C101.579 64.728 101.899 65.848 102.155 66.808L101.387 66.232H109.163L108.395 66.808C108.651 65.848 108.971 64.728 109.355 63.448C109.739 62.168 110.315 60.408 111.083 58.168C111.851 55.864 112.875 52.856 114.155 49.144C115.499 45.432 117.227 40.696 119.339 34.936C120.363 32.184 121.195 29.848 121.835 27.928C122.539 26.008 123.179 24.28 123.755 22.744C124.331 21.144 124.907 19.512 125.483 17.848C125.611 17.464 125.899 17.304 126.347 17.368C126.795 17.432 127.019 17.688 127.019 18.136C127.083 20.312 127.115 22.872 127.115 25.816C127.115 28.696 127.115 31.256 127.115 33.496C127.115 39.64 127.051 44.696 126.923 48.664C126.859 52.632 126.699 55.832 126.443 58.264C126.251 60.632 125.995 62.52 125.675 63.928C125.355 65.272 124.939 66.424 124.427 67.384L123.755 66.232H141.803L141.131 67.384C140.683 66.424 140.267 65.272 139.883 63.928C139.563 62.52 139.275 60.632 139.019 58.264C138.827 55.832 138.667 52.632 138.539 48.664C138.475 44.696 138.443 39.64 138.443 33.496C138.443 27.672 138.475 22.904 138.539 19.192C138.667 15.416 138.827 12.408 139.019 10.168C139.275 7.864 139.563 6.072 139.883 4.792C140.267 3.448 140.683 2.296 141.131 1.336L141.803 2.488H117.707L118.475 1.72C118.475 2.872 118.379 4.15199 118.187 5.56C118.059 6.968 117.707 8.856 117.131 11.224C116.619 13.528 115.755 16.632 114.539 20.536C113.323 24.376 111.659 29.368 109.547 35.512L106.859 43.288C106.731 43.608 106.475 43.768 106.091 43.768C105.707 43.768 105.451 43.608 105.323 43.288L102.635 35.512C100.523 29.368 98.8593 24.344 97.6433 20.44C96.4913 16.536 95.6593 13.432 95.1473 11.128C94.6353 8.824 94.3153 6.968 94.1873 5.56C94.0593 4.15199 93.9953 2.872 93.9953 1.72L94.7633 2.488H69.8033L70.4753 1.336C70.9873 2.296 71.4033 3.448 71.7233 4.792C72.0433 6.072 72.2993 7.864 72.4913 10.168C72.7473 12.408 72.9073 15.416 72.9713 19.192C73.0993 22.904 73.1633 27.672 73.1633 33.496C73.1633 39.64 73.0993 44.696 72.9713 48.664C72.9073 52.632 72.7473 55.832 72.4913 58.264C72.2993 60.632 72.0433 62.52 71.7233 63.928C71.4033 65.272 70.9873 66.424 70.4753 67.384L69.8033 66.232ZM192.047 18.808C190.639 18.232 189.103 17.752 187.439 17.368C185.839 16.984 184.207 16.792 182.543 16.792C178.447 16.792 174.863 17.752 171.791 19.672C168.783 21.528 166.415 24.152 164.687 27.544C163.023 30.872 162.191 34.776 162.191 39.256C162.191 43.736 163.023 47.64 164.687 50.968C166.415 54.296 168.783 56.888 171.791 58.744C174.863 60.536 178.447 61.432 182.543 61.432C184.271 61.432 185.935 61.272 187.535 60.952C189.135 60.568 190.639 60.12 192.047 59.608L192.623 60.952C191.087 61.592 189.487 62.104 187.823 62.488C186.159 62.808 184.399 62.968 182.543 62.968C178.191 62.968 174.351 62.008 171.023 60.088C167.759 58.104 165.199 55.352 163.343 51.832C161.551 48.248 160.655 44.056 160.655 39.256C160.655 34.456 161.551 30.264 163.343 26.68C165.199 23.096 167.759 20.312 171.023 18.328C174.351 16.28 178.191 15.256 182.543 15.256C184.335 15.256 186.063 15.448 187.727 15.832C189.455 16.216 191.087 16.76 192.623 17.464L192.047 18.808ZM198.767 14.008L192.815 18.712C192.687 18.84 192.655 18.68 192.719 18.232C192.847 17.784 192.943 17.624 193.007 17.752L198.959 28.6L197.615 29.368L191.663 18.52C191.599 18.328 191.567 18.136 191.567 17.944C191.631 17.752 191.727 17.624 191.855 17.56L197.807 12.856L198.767 14.008ZM198.959 49.72L193.007 60.664C192.943 60.792 192.847 60.632 192.719 60.184C192.655 59.736 192.687 59.576 192.815 59.704L198.767 64.312L197.807 65.464L191.855 60.856C191.727 60.728 191.631 60.6 191.567 60.472C191.567 60.28 191.599 60.088 191.663 59.896L197.615 48.952L198.959 49.72ZM169.199 39.16C169.199 44.28 170.447 48.312 172.943 51.256C175.439 54.136 178.639 55.576 182.543 55.576C185.359 55.576 188.047 54.936 190.607 53.656C193.167 52.376 195.567 50.744 197.807 48.76C198.063 48.504 198.319 48.472 198.575 48.664C198.895 48.792 199.055 49.016 199.055 49.336V64.888C199.055 65.208 198.895 65.432 198.575 65.56C196.335 66.584 193.871 67.384 191.183 67.96C188.495 68.6 185.615 68.92 182.543 68.92C176.719 68.92 171.631 67.672 167.279 65.176C162.991 62.68 159.631 59.224 157.199 54.808C154.831 50.328 153.647 45.176 153.647 39.352C153.647 33.464 154.831 28.28 157.199 23.8C159.631 19.32 162.991 15.8 167.279 13.24C171.631 10.68 176.719 9.4 182.543 9.4C185.615 9.4 188.495 9.72 191.183 10.36C193.871 10.936 196.335 11.736 198.575 12.76C198.703 12.824 198.799 12.92 198.863 13.048C198.991 13.176 199.055 13.304 199.055 13.432V28.984C199.055 29.304 198.895 29.56 198.575 29.752C198.319 29.88 198.063 29.816 197.807 29.56C195.631 27.704 193.231 26.104 190.607 24.76C187.983 23.352 185.263 22.648 182.447 22.648C178.543 22.648 175.343 24.12 172.847 27.064C170.415 30.008 169.199 34.04 169.199 39.16ZM167.663 39.16C167.663 33.528 169.039 29.112 171.791 25.912C174.607 22.712 178.159 21.112 182.447 21.112C185.455 21.112 188.367 21.848 191.183 23.32C193.999 24.792 196.527 26.488 198.767 28.408L197.519 28.984V13.432L197.999 14.104C195.823 13.208 193.455 12.472 190.895 11.896C188.335 11.256 185.551 10.936 182.543 10.936C176.975 10.936 172.143 12.152 168.047 14.584C163.951 16.952 160.783 20.28 158.543 24.568C156.303 28.792 155.183 33.72 155.183 39.352C155.183 44.92 156.303 49.816 158.543 54.04C160.783 58.2 163.951 61.464 168.047 63.832C172.143 66.2 176.975 67.384 182.543 67.384C185.551 67.384 188.335 67.096 190.895 66.52C193.455 65.88 195.823 65.112 197.999 64.216L197.519 64.888V49.336L198.767 49.912C196.399 51.96 193.839 53.688 191.087 55.096C188.399 56.44 185.551 57.112 182.543 57.112C178.255 57.112 174.703 55.544 171.887 52.408C169.071 49.208 167.663 44.792 167.663 39.16ZM248.017 9.112C245.777 8.92 243.153 8.792 240.145 8.72799C237.137 8.6 234.129 8.504 231.121 8.44C228.177 8.376 225.585 8.376 223.345 8.44C223.153 8.44 223.217 8.28 223.537 7.96C223.921 7.576 224.113 7.48 224.113 7.672V61.048C224.113 61.24 223.921 61.176 223.537 60.856C223.217 60.472 223.153 60.28 223.345 60.28C225.649 60.344 228.273 60.376 231.217 60.376C234.161 60.312 237.105 60.216 240.049 60.088C242.993 59.96 245.585 59.8 247.825 59.608L248.017 61.144C245.713 61.336 243.057 61.496 240.049 61.624C237.105 61.752 234.161 61.848 231.217 61.912C228.273 61.912 225.649 61.88 223.345 61.816C223.089 61.816 222.897 61.752 222.769 61.624C222.641 61.432 222.577 61.24 222.577 61.048V7.672C222.577 7.48 222.641 7.32 222.769 7.192C222.897 7 223.089 6.904 223.345 6.904C225.585 6.84 228.177 6.84 231.121 6.904C234.129 6.968 237.137 7.064 240.145 7.192C243.217 7.256 245.905 7.384 248.209 7.576L248.017 9.112ZM245.521 34.168H223.345V32.632H245.521V34.168ZM231.025 55.576L223.825 61.624C223.825 61.624 223.825 61.656 223.825 61.72C223.825 61.72 223.793 61.72 223.729 61.72L214.225 67.672L213.457 66.328L222.961 60.376C222.961 60.376 222.929 60.408 222.865 60.472L230.065 54.424L231.025 55.576ZM214.225 1.048L223.729 7C223.793 7 223.825 7.032 223.825 7.096L231.025 13.144L230.065 14.296L222.865 8.248C222.865 8.248 222.865 8.28 222.865 8.344C222.929 8.344 222.961 8.344 222.961 8.344L213.457 2.392L214.225 1.048ZM254.641 2.2L248.689 8.824C248.561 8.952 248.497 8.792 248.497 8.344C248.561 7.896 248.657 7.736 248.785 7.86399L254.737 16.216L253.393 17.176L247.441 8.824C247.377 8.696 247.345 8.536 247.345 8.344C247.409 8.088 247.473 7.928 247.537 7.86399L253.489 1.23999L254.641 2.2ZM256.369 51.544L248.497 60.856C248.433 60.984 248.369 60.824 248.305 60.376C248.305 59.928 248.369 59.768 248.497 59.896L254.449 66.52L253.297 67.48L247.345 60.856C247.217 60.728 247.153 60.568 247.153 60.376C247.153 60.184 247.217 60.024 247.345 59.896L255.217 50.584L256.369 51.544ZM252.049 26.008L246.097 33.88C246.033 34.008 246.001 33.848 246.001 33.4C246.001 32.952 246.033 32.792 246.097 32.92L252.049 40.696L250.897 41.656L244.945 33.88C244.817 33.752 244.753 33.592 244.753 33.4C244.753 33.208 244.817 33.048 244.945 32.92L250.897 25.048L252.049 26.008ZM230.641 28.216L223.825 33.976C223.633 34.104 223.537 33.912 223.537 33.4C223.537 32.888 223.633 32.696 223.825 32.824L230.641 38.584L229.681 39.736L222.865 33.976C222.673 33.848 222.577 33.656 222.577 33.4C222.577 33.144 222.673 32.952 222.865 32.824L229.681 27.064L230.641 28.216ZM213.841 67.768C213.585 67.768 213.361 67.64 213.169 67.384C213.041 67.128 213.041 66.872 213.169 66.616C213.681 65.656 214.097 64.536 214.417 63.256C214.737 61.912 214.961 60.056 215.089 57.688C215.281 55.32 215.409 52.216 215.473 48.376C215.601 44.472 215.665 39.512 215.665 33.496C215.665 27.8 215.601 23.128 215.473 19.48C215.409 15.832 215.281 12.888 215.089 10.648C214.961 8.408 214.737 6.648 214.417 5.368C214.097 4.088 213.681 2.99999 213.169 2.10399C213.041 1.78399 213.041 1.528 213.169 1.336C213.361 1.08 213.585 0.951998 213.841 0.951998H254.065C254.257 0.951998 254.417 1.048 254.545 1.23999C254.737 1.368 254.833 1.528 254.833 1.72V16.696C254.833 16.952 254.705 17.176 254.449 17.368C254.257 17.496 254.001 17.496 253.681 17.368C252.657 16.792 251.377 16.28 249.841 15.832C248.369 15.384 246.129 15.032 243.121 14.776C240.177 14.456 235.985 14.36 230.545 14.488L231.313 13.72C231.249 15.448 231.185 17.464 231.121 19.768C231.057 22.008 230.993 24.632 230.929 27.64L230.161 26.872C235.153 26.808 238.993 26.744 241.681 26.68C244.369 26.552 246.385 26.36 247.729 26.104C249.073 25.784 250.193 25.368 251.089 24.856C251.409 24.728 251.665 24.728 251.857 24.856C252.113 24.984 252.241 25.208 252.241 25.528V41.176C252.241 41.432 252.113 41.656 251.857 41.848C251.665 41.976 251.409 41.976 251.089 41.848C250.193 41.336 249.073 40.952 247.729 40.696C246.385 40.44 244.369 40.248 241.681 40.12C239.057 39.992 235.217 39.928 230.161 39.928L230.929 39.16C230.993 42.616 231.057 45.656 231.121 48.28C231.185 50.84 231.249 53.08 231.313 55L230.545 54.232C236.113 54.296 240.497 54.2 243.697 53.944C246.897 53.688 249.361 53.272 251.089 52.696C252.817 52.12 254.225 51.384 255.313 50.488C255.633 50.232 255.921 50.2 256.177 50.392C256.497 50.584 256.625 50.84 256.561 51.16L254.641 67.096C254.577 67.288 254.481 67.448 254.353 67.576C254.225 67.704 254.065 67.768 253.873 67.768H213.841ZM213.841 66.232H253.873L253.105 66.904L255.025 50.968L256.273 51.64C255.121 52.6 253.649 53.4 251.857 54.04C250.065 54.68 247.505 55.16 244.177 55.48C240.913 55.736 236.369 55.832 230.545 55.768C230.353 55.768 230.161 55.704 229.969 55.576C229.841 55.448 229.777 55.256 229.777 55C229.713 53.08 229.649 50.84 229.585 48.28C229.521 45.656 229.457 42.616 229.393 39.16C229.393 38.968 229.457 38.808 229.585 38.68C229.777 38.488 229.969 38.392 230.161 38.392C234.065 38.392 237.265 38.456 239.761 38.584C242.257 38.648 244.241 38.776 245.713 38.968C247.249 39.096 248.465 39.288 249.361 39.544C250.257 39.8 251.089 40.12 251.857 40.504L250.705 41.176V25.528L251.857 26.2C251.089 26.584 250.257 26.904 249.361 27.16C248.465 27.416 247.249 27.64 245.713 27.832C244.241 28.024 242.257 28.184 239.761 28.312C237.329 28.376 234.129 28.408 230.161 28.408C229.969 28.408 229.777 28.344 229.585 28.216C229.457 28.024 229.393 27.832 229.393 27.64C229.457 24.632 229.521 22.008 229.585 19.768C229.649 17.464 229.713 15.448 229.777 13.72C229.777 13.464 229.841 13.272 229.969 13.144C230.161 13.016 230.353 12.952 230.545 12.952C236.113 12.824 240.433 12.92 243.505 13.24C246.577 13.56 248.881 13.976 250.417 14.488C252.017 14.936 253.361 15.448 254.449 16.024L253.297 16.696V1.72L254.065 2.488H213.841L214.513 1.336C215.025 2.296 215.441 3.448 215.761 4.792C216.081 6.072 216.337 7.864 216.529 10.168C216.785 12.408 216.945 15.416 217.009 19.192C217.137 22.904 217.201 27.672 217.201 33.496C217.201 39.64 217.137 44.696 217.009 48.664C216.945 52.632 216.785 55.832 216.529 58.264C216.337 60.632 216.081 62.52 215.761 63.928C215.441 65.272 215.025 66.424 214.513 67.384L213.841 66.232ZM331.447 17.464L317.911 62.296C317.783 62.68 317.527 62.872 317.143 62.872C316.759 62.872 316.503 62.68 316.375 62.296L302.647 18.136C302.583 17.816 302.839 17.656 303.415 17.656C304.055 17.656 304.311 17.816 304.183 18.136L290.359 62.296C290.231 62.68 289.975 62.872 289.591 62.872C289.207 62.872 288.951 62.68 288.823 62.296L274.999 17.464L276.535 17.08L290.359 61.912C290.487 62.232 290.231 62.392 289.591 62.392C289.015 62.392 288.759 62.232 288.823 61.912L302.647 17.752C302.775 17.368 303.031 17.176 303.415 17.176C303.799 17.176 304.055 17.368 304.183 17.752L317.911 61.912C318.039 62.232 317.783 62.392 317.143 62.392C316.567 62.392 316.311 62.232 316.375 61.912L329.911 17.08L331.447 17.464ZM265.783 10.648L276.151 16.6C276.279 16.664 276.151 16.696 275.767 16.696C275.383 16.696 275.255 16.664 275.383 16.6L284.215 10.648L284.983 11.992L276.151 17.944C276.087 18.008 275.959 18.04 275.767 18.04C275.639 18.04 275.511 18.008 275.383 17.944L265.015 11.992L265.783 10.648ZM322.903 10.744L331.159 16.696C331.287 16.76 331.127 16.792 330.679 16.792C330.295 16.728 330.167 16.664 330.295 16.6L340.375 10.648L341.143 11.992L331.063 17.944C330.935 18.008 330.775 18.04 330.583 18.04C330.455 17.976 330.327 17.912 330.199 17.848L321.943 11.896L322.903 10.744ZM298.423 10.84L303.991 17.464C304.119 17.656 303.927 17.752 303.415 17.752C302.903 17.688 302.711 17.592 302.839 17.464L308.695 10.84L309.847 11.8L303.991 18.424C303.863 18.616 303.671 18.712 303.415 18.712C303.159 18.712 302.967 18.616 302.839 18.424L297.271 11.8L298.423 10.84ZM302.359 36.664L302.647 17.944H304.183L303.895 36.664H302.359ZM283.447 66.424L289.111 61.528C289.239 61.4 289.399 61.336 289.591 61.336C289.847 61.336 290.039 61.4 290.167 61.528L294.871 66.424L293.719 67.576L289.015 62.68C288.887 62.488 289.047 62.424 289.495 62.488C290.007 62.488 290.199 62.552 290.071 62.68L284.407 67.576L283.447 66.424ZM311.383 66.424L316.663 61.528C316.791 61.4 316.951 61.336 317.143 61.336C317.335 61.336 317.527 61.4 317.719 61.528L322.807 66.424L321.655 67.576L316.567 62.68C316.439 62.552 316.631 62.488 317.143 62.488C317.655 62.488 317.815 62.552 317.623 62.68L312.343 67.576L311.383 66.424ZM290.839 41.464L290.359 62.104H288.823L289.303 41.464H290.839ZM318.007 40.984L317.911 62.104H316.375L316.471 40.984H318.007ZM295.063 67C295.063 67.192 294.999 67.352 294.871 67.48C294.743 67.672 294.551 67.768 294.295 67.768H283.927C283.735 67.768 283.575 67.704 283.447 67.576C283.319 67.448 283.223 67.288 283.159 67.096C283.095 66.328 282.935 65.4 282.679 64.312C282.423 63.16 282.007 61.656 281.431 59.8C280.919 57.88 280.151 55.352 279.127 52.216C278.167 49.016 276.887 44.984 275.287 40.12C273.623 34.936 272.215 30.68 271.063 27.352C269.975 24.024 269.047 21.368 268.279 19.384C267.575 17.4 266.935 15.832 266.359 14.68C265.847 13.528 265.303 12.536 264.727 11.704C264.599 11.448 264.631 11.192 264.823 10.936C264.951 10.68 265.143 10.552 265.399 10.552H284.599C284.919 10.552 285.143 10.68 285.271 10.936C285.399 11.128 285.399 11.352 285.271 11.608C284.823 12.568 284.535 13.656 284.407 14.872C284.279 16.088 284.407 17.72 284.791 19.768C285.175 21.816 285.847 24.568 286.807 28.024C287.767 31.416 289.111 35.832 290.839 41.272H289.303C291.031 35.704 292.407 31.192 293.431 27.736C294.519 24.28 295.287 21.528 295.735 19.48C296.247 17.432 296.599 15.832 296.791 14.68C296.983 13.464 297.079 12.344 297.079 11.32C297.079 11.064 297.143 10.872 297.271 10.744C297.463 10.616 297.655 10.552 297.847 10.552H309.271C309.463 10.552 309.623 10.616 309.751 10.744C309.943 10.872 310.039 11.064 310.039 11.32C310.039 12.344 310.103 13.464 310.231 14.68C310.423 15.896 310.775 17.528 311.287 19.576C311.799 21.56 312.599 24.248 313.687 27.64C314.775 30.968 316.215 35.32 318.007 40.696L316.471 40.792C317.943 35.48 319.127 31.16 320.023 27.832C320.919 24.504 321.559 21.816 321.943 19.768C322.391 17.72 322.583 16.12 322.519 14.968C322.519 13.752 322.263 12.664 321.751 11.704C321.623 11.384 321.623 11.128 321.751 10.936C321.943 10.68 322.167 10.552 322.423 10.552H340.759C341.079 10.552 341.303 10.68 341.431 10.936C341.559 11.192 341.559 11.448 341.431 11.704C340.855 12.536 340.279 13.528 339.703 14.68C339.191 15.832 338.551 17.4 337.783 19.384C337.015 21.368 336.055 24.024 334.903 27.352C333.815 30.68 332.439 34.936 330.775 40.12C329.239 44.92 327.959 48.888 326.935 52.024C325.911 55.16 325.111 57.688 324.535 59.608C323.959 61.528 323.543 63.064 323.287 64.216C323.095 65.304 322.999 66.232 322.999 67C322.999 67.192 322.935 67.352 322.807 67.48C322.679 67.672 322.487 67.768 322.231 67.768H311.959C311.767 67.768 311.575 67.704 311.383 67.576C311.255 67.448 311.191 67.288 311.191 67.096C311.127 65.944 310.807 64.216 310.231 61.912C309.655 59.608 308.727 56.44 307.447 52.408C306.231 48.376 304.535 43.224 302.359 36.952H303.895C301.847 43.096 300.151 48.184 298.807 52.216C297.463 56.248 296.503 59.448 295.927 61.816C295.351 64.12 295.063 65.848 295.063 67ZM293.527 67C293.527 65.848 293.815 64.12 294.391 61.816C294.967 59.448 295.895 56.216 297.175 52.12C298.519 48.024 300.247 42.776 302.359 36.376C302.487 36.056 302.743 35.896 303.127 35.896C303.511 35.896 303.767 36.056 303.895 36.376C306.071 42.712 307.767 47.928 308.983 52.024C310.263 56.12 311.191 59.352 311.767 61.72C312.343 64.024 312.663 65.752 312.727 66.904L311.959 66.232H322.231L321.463 67C321.463 66.232 321.559 65.304 321.751 64.216C321.943 63.064 322.327 61.528 322.903 59.608C323.479 57.688 324.279 55.16 325.303 52.024C326.327 48.824 327.639 44.728 329.239 39.736C330.967 34.488 332.407 30.168 333.559 26.776C334.711 23.384 335.671 20.696 336.439 18.712C337.207 16.664 337.847 15.064 338.359 13.912C338.935 12.76 339.511 11.768 340.087 10.936L340.759 12.088H322.423L323.095 10.936C323.607 11.96 323.927 13.08 324.055 14.296C324.183 15.448 324.055 17.048 323.671 19.096C323.287 21.08 322.615 23.832 321.655 27.352C320.759 30.808 319.543 35.416 318.007 41.176C317.943 41.56 317.687 41.752 317.239 41.752C316.855 41.752 316.599 41.592 316.471 41.272C314.679 35.832 313.239 31.384 312.151 27.928C311.063 24.472 310.263 21.72 309.751 19.672C309.239 17.56 308.887 15.896 308.695 14.68C308.567 13.464 308.503 12.344 308.503 11.32L309.271 12.088H297.847L298.615 11.32C298.615 12.344 298.519 13.464 298.327 14.68C298.135 15.896 297.783 17.528 297.271 19.576C296.823 21.624 296.055 24.408 294.967 27.928C293.943 31.448 292.567 36.024 290.839 41.656C290.711 42.04 290.455 42.232 290.071 42.232C289.687 42.232 289.431 42.04 289.303 41.656C287.511 35.896 286.103 31.256 285.079 27.736C284.119 24.152 283.479 21.336 283.159 19.288C282.839 17.24 282.743 15.608 282.871 14.392C283.063 13.176 283.415 12.056 283.927 11.032L284.599 12.088H265.399L266.071 10.936C266.647 11.768 267.191 12.76 267.703 13.912C268.279 15.064 268.919 16.664 269.623 18.712C270.391 20.696 271.351 23.384 272.503 26.776C273.655 30.168 275.095 34.488 276.823 39.736C278.423 44.6 279.703 48.632 280.663 51.832C281.687 55.032 282.455 57.592 282.967 59.512C283.543 61.432 283.959 62.968 284.215 64.12C284.471 65.208 284.631 66.136 284.695 66.904L283.927 66.232H294.295L293.527 67ZM350.297 59.992L353.945 49.624C353.945 49.624 353.977 49.624 354.041 49.624L366.329 16.792C366.457 16.472 366.681 16.312 367.001 16.312H371.897C372.217 16.312 372.441 16.472 372.569 16.792L384.857 49.624C384.921 49.624 384.953 49.624 384.953 49.624L388.505 59.992L386.969 60.568L383.417 50.2C383.481 50.2 383.513 50.2 383.513 50.2L371.225 17.368C371.161 17.24 371.289 17.304 371.609 17.56C371.929 17.752 372.025 17.848 371.897 17.848H367.001C366.873 17.848 366.969 17.752 367.289 17.56C367.673 17.304 367.801 17.24 367.673 17.368L355.385 50.2C355.449 50.2 355.481 50.2 355.481 50.2L351.833 60.568L350.297 59.992ZM384.185 50.68H354.713V49.144H384.185V50.68ZM363.161 10.84L367.577 16.6C367.641 16.664 367.673 16.728 367.673 16.792C367.737 16.792 367.769 16.856 367.769 16.984L369.881 28.216C369.945 28.6 369.689 28.792 369.113 28.792C368.537 28.728 368.281 28.504 368.345 28.12L371.129 16.888C371.193 16.824 371.225 16.792 371.225 16.792C371.225 16.728 371.257 16.664 371.321 16.6L376.409 10.84L377.561 11.8L372.473 17.56C372.409 17.624 372.409 17.592 372.473 17.464C372.601 17.272 372.665 17.208 372.665 17.272L369.881 28.504C369.817 28.888 369.561 29.08 369.113 29.08C368.729 29.08 368.473 28.856 368.345 28.408L366.233 17.176C366.233 17.112 366.265 17.176 366.329 17.368C366.393 17.56 366.425 17.624 366.425 17.56L362.009 11.8L363.161 10.84ZM363.545 44.824L355.193 50.584C355.001 50.648 354.937 50.424 355.001 49.912C355.065 49.4 355.161 49.24 355.289 49.432L359.897 55.096L358.745 56.056L354.137 50.392C354.009 50.2 353.945 50.008 353.945 49.816C354.009 49.56 354.105 49.368 354.233 49.24L362.585 43.48L363.545 44.824ZM375.545 43.48L384.569 49.24C384.825 49.368 384.953 49.56 384.953 49.816C384.953 50.072 384.889 50.264 384.761 50.392L379.481 56.056L378.329 55.096L383.609 49.432C383.801 49.24 383.929 49.4 383.993 49.912C384.057 50.424 383.993 50.648 383.801 50.584L374.777 44.824L375.545 43.48ZM358.457 67.576L350.585 60.856C350.457 60.728 350.585 60.696 350.969 60.76C351.417 60.76 351.577 60.824 351.449 60.952L340.216 67.672L339.448 66.328L350.681 59.608C350.809 59.48 350.969 59.448 351.161 59.512C351.353 59.512 351.481 59.576 351.545 59.704L359.417 66.424L358.457 67.576ZM399.353 67.672L387.353 60.952C387.225 60.824 387.353 60.76 387.737 60.76C388.185 60.696 388.345 60.728 388.217 60.856L379.769 67.576L378.809 66.424L387.257 59.704C387.385 59.576 387.513 59.512 387.641 59.512C387.833 59.448 387.993 59.48 388.121 59.608L400.121 66.328L399.353 67.672ZM400.312 66.52C400.505 66.776 400.537 67.032 400.409 67.288C400.281 67.608 400.057 67.768 399.737 67.768H379.289C379.033 67.768 378.809 67.64 378.617 67.384C378.489 67.192 378.457 66.968 378.521 66.712C378.969 65.56 379.225 64.248 379.289 62.776C379.417 61.24 379.033 58.904 378.137 55.768L378.905 56.344H359.321L360.089 55.768C359.257 58.904 358.873 61.24 358.937 62.776C359.001 64.248 359.257 65.56 359.705 66.712C359.769 66.968 359.737 67.192 359.609 67.384C359.481 67.64 359.257 67.768 358.937 67.768H339.832C339.512 67.768 339.288 67.608 339.16 67.288C339.032 67.032 339.064 66.776 339.256 66.52C339.896 65.688 340.569 64.696 341.273 63.544C341.977 62.392 342.777 60.824 343.673 58.84C344.633 56.856 345.785 54.2 347.129 50.872C348.537 47.544 350.265 43.256 352.312 38.008C354.169 33.08 355.705 29.048 356.921 25.912C358.137 22.776 359.097 20.28 359.801 18.424C360.505 16.568 360.985 15.128 361.241 14.104C361.561 13.016 361.753 12.088 361.817 11.32C361.817 11.064 361.881 10.872 362.009 10.744C362.201 10.616 362.393 10.552 362.585 10.552H376.985C377.177 10.552 377.337 10.616 377.465 10.744C377.593 10.872 377.689 11.032 377.753 11.224C377.881 11.992 378.105 12.92 378.425 14.008C378.745 15.032 379.225 16.472 379.865 18.328C380.505 20.184 381.401 22.68 382.553 25.816C383.769 28.952 385.337 33.016 387.257 38.008C389.305 43.256 391.001 47.544 392.345 50.872C393.753 54.2 394.905 56.856 395.801 58.84C396.761 60.824 397.593 62.392 398.297 63.544C399.001 64.696 399.673 65.688 400.312 66.52ZM368.441 28.6H369.785L363.737 44.44L363.065 43.384H375.161L374.489 44.44L368.441 28.6ZM399.161 67.48C398.521 66.648 397.849 65.656 397.145 64.504C396.441 63.352 395.577 61.784 394.552 59.8C393.593 57.752 392.409 55.032 391 51.64C389.657 48.248 387.961 43.896 385.913 38.584C383.993 33.592 382.425 29.496 381.209 26.296C379.993 23.096 379.033 20.568 378.329 18.712C377.689 16.792 377.209 15.32 376.889 14.296C376.569 13.208 376.345 12.248 376.217 11.416L376.985 12.088H362.585L363.353 11.32C363.289 12.152 363.097 13.112 362.777 14.2C362.521 15.224 362.041 16.696 361.337 18.616C360.697 20.472 359.737 23 358.457 26.2C357.241 29.4 355.641 33.528 353.657 38.584C351.609 43.896 349.881 48.248 348.473 51.64C347.065 55.032 345.881 57.752 344.921 59.8C343.961 61.784 343.129 63.352 342.425 64.504C341.721 65.656 341.049 66.648 340.409 67.48L339.832 66.232H358.937L358.169 67.288C357.721 66.008 357.465 64.536 357.401 62.872C357.337 61.208 357.721 58.712 358.553 55.384C358.617 55.192 358.713 55.064 358.841 55C358.969 54.872 359.129 54.808 359.321 54.808H378.905C379.097 54.808 379.257 54.872 379.385 55C379.513 55.064 379.609 55.192 379.673 55.384C380.569 58.712 380.953 61.208 380.825 62.872C380.761 64.536 380.505 66.008 380.057 67.288L379.289 66.232H399.737L399.161 67.48ZM369.785 28.024L375.833 43.864C375.961 44.12 375.961 44.376 375.833 44.632C375.705 44.824 375.481 44.92 375.161 44.92H363.065C362.809 44.92 362.617 44.824 362.489 44.632C362.361 44.376 362.329 44.12 362.393 43.864L368.441 28.024C368.569 27.704 368.793 27.544 369.113 27.544C369.497 27.544 369.721 27.704 369.785 28.024ZM416.284 61.048V17.176C416.284 16.792 416.444 16.536 416.764 16.408C417.148 16.28 417.436 16.376 417.628 16.696L451.036 60.76C451.292 61.016 451.132 61.272 450.556 61.528C449.98 61.72 449.692 61.624 449.692 61.24V17.272H451.228V61.24C451.228 61.624 451.036 61.88 450.652 62.008C450.332 62.072 450.076 61.976 449.884 61.72L416.476 17.656C416.22 17.336 416.38 17.08 416.956 16.888C417.532 16.696 417.82 16.792 417.82 17.176V61.048H416.284ZM425.308 67.672L416.572 61.72C416.508 61.592 416.668 61.528 417.052 61.528C417.5 61.528 417.66 61.592 417.532 61.72L408.892 67.672L407.932 66.328L416.572 60.376C416.7 60.312 416.86 60.28 417.052 60.28C417.244 60.28 417.404 60.312 417.532 60.376L426.268 66.328L425.308 67.672ZM442.3 10.648L450.94 16.6C451.068 16.664 450.908 16.696 450.46 16.696C450.076 16.696 449.916 16.664 449.98 16.6L458.716 10.648L459.676 11.992L450.94 17.944C450.812 18.008 450.652 18.04 450.46 18.04C450.268 18.04 450.108 18.008 449.98 17.944L441.34 11.992L442.3 10.648ZM408.796 10.648L417.436 16.504C417.628 16.632 417.468 16.76 416.956 16.888C416.508 17.016 416.316 16.984 416.38 16.792L419.932 10.936L421.276 11.704L417.724 17.56C417.596 17.752 417.404 17.88 417.148 17.944C416.956 17.944 416.796 17.912 416.668 17.848L408.028 11.992L408.796 10.648ZM457.756 67.576L449.98 61.816C449.852 61.688 450.012 61.592 450.46 61.528C450.972 61.464 451.164 61.528 451.036 61.72L446.62 67.48L445.468 66.52L449.884 60.76C450.012 60.632 450.172 60.568 450.364 60.568C450.556 60.504 450.748 60.536 450.94 60.664L458.716 66.424L457.756 67.576ZM417.82 17.08L423.964 36.568L422.428 36.952L416.284 17.464L417.82 17.08ZM445.18 42.136L451.228 61.048L449.692 61.432L443.644 42.52L445.18 42.136ZM459.004 66.808C459.068 67.064 459.004 67.288 458.812 67.48C458.684 67.672 458.492 67.768 458.236 67.768H446.044C445.788 67.768 445.596 67.672 445.468 67.48L422.62 37.24L423.964 36.76C423.964 42.072 423.996 46.488 424.06 50.008C424.188 53.464 424.348 56.248 424.54 58.36C424.732 60.472 424.988 62.168 425.308 63.448C425.628 64.664 426.012 65.72 426.46 66.616C426.588 66.872 426.588 67.128 426.46 67.384C426.332 67.64 426.108 67.768 425.788 67.768H408.412C408.156 67.768 407.932 67.64 407.74 67.384C407.612 67.128 407.612 66.872 407.74 66.616C408.252 65.656 408.668 64.536 408.988 63.256C409.308 61.912 409.532 60.056 409.66 57.688C409.852 55.32 409.98 52.216 410.044 48.376C410.172 44.472 410.236 39.512 410.236 33.496C410.236 29.528 410.172 26.296 410.044 23.8C409.916 21.24 409.724 19.224 409.468 17.752C409.276 16.216 409.02 15 408.7 14.104C408.444 13.208 408.124 12.408 407.74 11.704C407.612 11.384 407.612 11.128 407.74 10.936C407.932 10.68 408.156 10.552 408.412 10.552H420.604C420.924 10.552 421.116 10.648 421.18 10.84L444.988 41.848L443.644 42.328V33.496C443.644 29.528 443.58 26.296 443.452 23.8C443.324 21.24 443.132 19.224 442.876 17.752C442.684 16.216 442.428 15 442.108 14.104C441.852 13.208 441.532 12.408 441.148 11.704C441.02 11.384 441.02 11.128 441.148 10.936C441.34 10.68 441.564 10.552 441.82 10.552H459.196C459.516 10.552 459.74 10.68 459.868 10.936C459.996 11.128 459.996 11.384 459.868 11.704C459.484 12.408 459.132 13.208 458.812 14.104C458.556 15 458.3 16.216 458.044 17.752C457.852 19.224 457.692 21.24 457.564 23.8C457.436 26.296 457.372 29.528 457.372 33.496C457.372 39.576 457.404 44.536 457.468 48.376C457.532 52.152 457.628 55.192 457.756 57.496C457.884 59.736 458.044 61.56 458.236 62.968C458.492 64.312 458.748 65.592 459.004 66.808ZM457.468 67.192C457.212 65.976 456.956 64.664 456.7 63.256C456.508 61.848 456.348 59.992 456.22 57.688C456.092 55.384 455.996 52.312 455.932 48.472C455.868 44.632 455.836 39.64 455.836 33.496C455.836 29.464 455.9 26.136 456.028 23.512C456.156 20.888 456.348 18.808 456.604 17.272C456.86 15.672 457.148 14.424 457.468 13.528C457.788 12.568 458.14 11.704 458.524 10.936L459.196 12.088H441.82L442.492 10.936C442.876 11.704 443.228 12.568 443.548 13.528C443.868 14.424 444.156 15.672 444.412 17.272C444.668 18.808 444.86 20.888 444.988 23.512C445.116 26.136 445.18 29.464 445.18 33.496V42.328C445.18 42.712 444.988 42.968 444.604 43.096C444.284 43.16 444.028 43.064 443.836 42.808L420.028 11.8L420.604 12.088H408.412L409.084 10.936C409.468 11.704 409.82 12.568 410.14 13.528C410.46 14.424 410.748 15.672 411.004 17.272C411.26 18.808 411.452 20.888 411.58 23.512C411.708 26.136 411.772 29.464 411.772 33.496C411.772 39.64 411.708 44.696 411.58 48.664C411.516 52.632 411.356 55.832 411.1 58.264C410.908 60.632 410.652 62.52 410.332 63.928C410.012 65.272 409.596 66.424 409.084 67.384L408.412 66.232H425.788L425.116 67.384C424.668 66.424 424.284 65.304 423.964 64.024C423.644 62.744 423.356 61.016 423.1 58.84C422.908 56.664 422.748 53.816 422.62 50.296C422.492 46.712 422.428 42.2 422.428 36.76C422.428 36.376 422.588 36.12 422.908 35.992C423.292 35.864 423.58 35.96 423.772 36.28L446.62 66.52L446.044 66.232H458.236L457.468 67.192Z" fill="white"/>
</svg>
