<svg width="560" height="890" viewBox="0 0 447 63" fill="none" xmlns="http://www.w3.org/2000/svg">
<path d="M0.76 62.152V9.16H9.496V0.423996H19.096V10.12H10.456V26.536H18.136V17.8H26.968V9.16H35.608V0.423996H45.4V10.12H36.568V18.76H27.928V27.4H19.096V35.08H27.928V43.816H36.568V52.552H45.4V62.152H35.608V53.512H26.968V44.776H18.136V36.04H10.456V62.152H0.76ZM61.81 62.152V9.16H70.546V0.423996H80.146V9.16H88.978V26.536H96.658V9.16H105.49V0.423996H115.186V9.16H123.826V62.152H114.226V10.12H106.45V27.4H97.618V53.512H88.018V27.4H79.186V10.12H71.506V62.152H61.81ZM148.94 62.152V53.512H140.204V26.536H148.94V17.8H176.012V26.536H184.844V36.04H175.052V27.4H149.9V52.552H175.052V43.816H184.844V53.512H176.012V62.152H148.94ZM207.083 62.152V53.512H198.347V9.16H207.083V0.423996H234.155V9.16H242.987V18.76H233.195V10.12H208.043V26.536H225.515V36.04H208.043V52.552H233.195V43.816H242.987V53.512H234.155V62.152H207.083ZM259.398 62.152V17.8H269.094V52.552H285.606V17.8H295.206V52.552H311.814V17.8H321.414V53.512H312.774V62.152H294.246V53.512H286.566V62.152H259.398ZM343.621 62.152V53.512H334.885V26.536H343.621V17.8H370.693V26.536H379.525V52.552H388.261V62.152H378.565V53.512H370.693V62.152H343.621ZM344.581 52.552H369.733V27.4H344.581V52.552ZM401.747 62.152V17.8H437.555V26.536H446.387V62.152H436.595V27.4H411.443V62.152H401.747Z" fill="white"/>
</svg>
