<svg width="134" height="110" viewBox="0 0 134 110" fill="none" xmlns="http://www.w3.org/2000/svg">
<g filter="url(#filter0_ddii_1_4)">
<mask id="path-1-outside-1_1_4" maskUnits="userSpaceOnUse" x="3" y="-1.00002" width="128" height="104" fill="black">
<rect fill="white" x="3" y="-1.00002" width="128" height="104"/>
<path d="M126.768 101.128H87.856V97.16L99.888 87.688V16.904L65.712 101.128H58.672L24.752 16.008V89.224L38.192 96.008L35.632 101.128H5.68V97.16L17.712 87.688V12.68L4.4 5.51198L6.96 0.391983H34.736L66.736 80.776L98.608 0.391983H128.048V4.35998L115.888 13.832V91.272L129.328 96.008L126.768 101.128Z"/>
</mask>
<path d="M126.768 101.128H87.856V97.16L99.888 87.688V16.904L65.712 101.128H58.672L24.752 16.008V89.224L38.192 96.008L35.632 101.128H5.68V97.16L17.712 87.688V12.68L4.4 5.51198L6.96 0.391983H34.736L66.736 80.776L98.608 0.391983H128.048V4.35998L115.888 13.832V91.272L129.328 96.008L126.768 101.128Z" fill="#0D4843"/>
<path d="M126.768 101.128V102.128H127.386L127.662 101.575L126.768 101.128ZM87.856 101.128H86.856V102.128H87.856V101.128ZM87.856 97.16L87.2374 96.3742L86.856 96.6745V97.16H87.856ZM99.888 87.688L100.507 88.4737L100.888 88.1734V87.688H99.888ZM99.888 16.904H100.888L98.9614 16.528L99.888 16.904ZM65.712 101.128V102.128H66.3854L66.6386 101.504L65.712 101.128ZM58.672 101.128L57.743 101.498L57.994 102.128H58.672V101.128ZM24.752 16.008L25.681 15.6378L23.752 16.008H24.752ZM24.752 89.224H23.752V89.8394L24.3014 90.1167L24.752 89.224ZM38.192 96.008L39.0864 96.4552L39.5319 95.5642L38.6426 95.1153L38.192 96.008ZM35.632 101.128V102.128H36.25L36.5264 101.575L35.632 101.128ZM5.68 101.128H4.68V102.128H5.68V101.128ZM5.68 97.16L5.06144 96.3742L4.68 96.6745V97.16H5.68ZM17.712 87.688L18.3306 88.4737L18.712 88.1734V87.688H17.712ZM17.712 12.68H18.712V12.0827L18.1861 11.7995L17.712 12.68ZM4.4 5.51198L3.50557 5.06476L3.07171 5.9325L3.9259 6.39245L4.4 5.51198ZM6.96 0.391983V-0.608017H6.34197L6.06557 -0.0552309L6.96 0.391983ZM34.736 0.391983L35.6651 0.0221233L35.4142 -0.608017H34.736V0.391983ZM66.736 80.776L65.8069 81.1458L66.7379 83.4844L67.6656 81.1446L66.736 80.776ZM98.608 0.391983V-0.608017H97.9288L97.6784 0.0234014L98.608 0.391983ZM128.048 0.391983H129.048V-0.608017H128.048V0.391983ZM128.048 4.35998L128.663 5.14888L129.048 4.84861V4.35998H128.048ZM115.888 13.832L115.273 13.0431L114.888 13.3433V13.832H115.888ZM115.888 91.272H114.888V91.9799L115.556 92.2151L115.888 91.272ZM129.328 96.008L130.222 96.4552L130.729 95.4415L129.66 95.0648L129.328 96.008ZM126.768 100.128H87.856V102.128H126.768V100.128ZM88.856 101.128V97.16H86.856V101.128H88.856ZM88.4746 97.9457L100.507 88.4737L99.2694 86.9022L87.2374 96.3742L88.4746 97.9457ZM100.888 87.688V16.904H98.888V87.688H100.888ZM98.9614 16.528L64.7854 100.752L66.6386 101.504L100.815 17.28L98.9614 16.528ZM65.712 100.128H58.672V102.128H65.712V100.128ZM59.601 100.758L25.681 15.6378L23.823 16.3782L57.743 101.498L59.601 100.758ZM23.752 16.008V89.224H25.752V16.008H23.752ZM24.3014 90.1167L37.7414 96.9007L38.6426 95.1153L25.2026 88.3313L24.3014 90.1167ZM37.2976 95.5608L34.7376 100.681L36.5264 101.575L39.0864 96.4552L37.2976 95.5608ZM35.632 100.128H5.68V102.128H35.632V100.128ZM6.68 101.128V97.16H4.68V101.128H6.68ZM6.29856 97.9457L18.3306 88.4737L17.0934 86.9022L5.06144 96.3742L6.29856 97.9457ZM18.712 87.688V12.68H16.712V87.688H18.712ZM18.1861 11.7995L4.8741 4.63151L3.9259 6.39245L17.2379 13.5604L18.1861 11.7995ZM5.29443 5.95919L7.85443 0.839197L6.06557 -0.0552309L3.50557 5.06476L5.29443 5.95919ZM6.96 1.39198H34.736V-0.608017H6.96V1.39198ZM33.8069 0.761843L65.8069 81.1458L67.6651 80.4061L35.6651 0.0221233L33.8069 0.761843ZM67.6656 81.1446L99.5376 0.760565L97.6784 0.0234014L65.8064 80.4074L67.6656 81.1446ZM98.608 1.39198H128.048V-0.608017H98.608V1.39198ZM127.048 0.391983V4.35998H129.048V0.391983H127.048ZM127.433 3.57107L115.273 13.0431L116.503 14.6209L128.663 5.14888L127.433 3.57107ZM114.888 13.832V91.272H116.888V13.832H114.888ZM115.556 92.2151L128.996 96.9511L129.66 95.0648L116.22 90.3288L115.556 92.2151ZM128.434 95.5608L125.874 100.681L127.662 101.575L130.222 96.4552L128.434 95.5608Z" fill="black" mask="url(#path-1-outside-1_1_4)"/>
</g>
<defs>
<filter id="filter0_ddii_1_4" x="0.399994" y="0.391983" width="132.928" height="108.736" filterUnits="userSpaceOnUse" color-interpolation-filters="sRGB">
<feFlood flood-opacity="0" result="BackgroundImageFix"/>
<feColorMatrix in="SourceAlpha" type="matrix" values="0 0 0 0 0 0 0 0 0 0 0 0 0 0 0 0 0 0 127 0" result="hardAlpha"/>
<feOffset dy="4"/>
<feGaussianBlur stdDeviation="2"/>
<feComposite in2="hardAlpha" operator="out"/>
<feColorMatrix type="matrix" values="0 0 0 0 0 0 0 0 0 0 0 0 0 0 0 0 0 0 0.25 0"/>
<feBlend mode="normal" in2="BackgroundImageFix" result="effect1_dropShadow_1_4"/>
<feColorMatrix in="SourceAlpha" type="matrix" values="0 0 0 0 0 0 0 0 0 0 0 0 0 0 0 0 0 0 127 0" result="hardAlpha"/>
<feOffset dy="4"/>
<feGaussianBlur stdDeviation="2"/>
<feComposite in2="hardAlpha" operator="out"/>
<feColorMatrix type="matrix" values="0 0 0 0 0 0 0 0 0 0 0 0 0 0 0 0 0 0 0.25 0"/>
<feBlend mode="normal" in2="effect1_dropShadow_1_4" result="effect2_dropShadow_1_4"/>
<feBlend mode="normal" in="SourceGraphic" in2="effect2_dropShadow_1_4" result="shape"/>
<feColorMatrix in="SourceAlpha" type="matrix" values="0 0 0 0 0 0 0 0 0 0 0 0 0 0 0 0 0 0 127 0" result="hardAlpha"/>
<feOffset dy="4"/>
<feGaussianBlur stdDeviation="2"/>
<feComposite in2="hardAlpha" operator="arithmetic" k2="-1" k3="1"/>
<feColorMatrix type="matrix" values="0 0 0 0 0 0 0 0 0 0 0 0 0 0 0 0 0 0 0.25 0"/>
<feBlend mode="normal" in2="shape" result="effect3_innerShadow_1_4"/>
<feColorMatrix in="SourceAlpha" type="matrix" values="0 0 0 0 0 0 0 0 0 0 0 0 0 0 0 0 0 0 127 0" result="hardAlpha"/>
<feOffset dy="4"/>
<feGaussianBlur stdDeviation="2"/>
<feComposite in2="hardAlpha" operator="arithmetic" k2="-1" k3="1"/>
<feColorMatrix type="matrix" values="0 0 0 0 0 0 0 0 0 0 0 0 0 0 0 0 0 0 0.25 0"/>
<feBlend mode="normal" in2="effect3_innerShadow_1_4" result="effect4_innerShadow_1_4"/>
</filter>
</defs>
</svg>
