<?xml version="1.0" encoding="UTF-8"?>
<svg version="1.1" xmlns="http://www.w3.org/2000/svg" width="410" height="502">
<path d="M0 0 C135.3 0 270.6 0 410 0 C410 165.66 410 331.32 410 502 C274.7 502 139.4 502 0 502 C0 336.34 0 170.68 0 0 Z " fill="#E6EBE5" transform="translate(0,0)"/>
<path d="M0 0 C1.04120048 -0.00445784 2.08240096 -0.00891569 3.15515298 -0.01350862 C4.88434251 -0.01323207 4.88434251 -0.01323207 6.64846516 -0.01294994 C7.8662172 -0.01662663 9.08396925 -0.02030332 10.33862287 -0.02409142 C13.72967401 -0.03323068 17.12067669 -0.03783067 20.51173556 -0.04048073 C24.16490949 -0.0443793 27.81806935 -0.05395801 31.47123432 -0.0626936 C40.29957694 -0.08247165 49.12792072 -0.09252634 57.95627996 -0.10142139 C62.11201027 -0.10580247 66.2677393 -0.11116978 70.42346859 -0.11641026 C84.23554914 -0.13342459 98.0476289 -0.1479189 111.85971832 -0.155159 C115.44541328 -0.15706895 119.03110823 -0.15898927 122.61680317 -0.16094494 C123.50802981 -0.16142868 124.39925645 -0.16191242 125.31748996 -0.16241082 C139.75566036 -0.17071158 154.19374793 -0.19604834 168.63188215 -0.22852562 C183.44983355 -0.2615859 198.26774285 -0.27960686 213.08573133 -0.28280324 C221.40764075 -0.2849694 229.7294294 -0.29373334 238.05130291 -0.31926441 C245.13862484 -0.34095743 252.22579668 -0.3490288 259.31314804 -0.33929763 C262.9292473 -0.33474869 266.54503681 -0.33667317 270.16109371 -0.35605907 C274.08230617 -0.37689931 278.00309053 -0.36671884 281.92434406 -0.35352612 C283.06598347 -0.36449536 284.20762288 -0.37546461 285.38385743 -0.38676625 C293.58751151 -0.31999329 297.73073135 1.2010625 303.97886372 6.63422108 C307.47943554 10.75254087 307.23657966 14.41989748 307.28086567 19.71942616 C307.28743687 20.37200901 307.29400806 21.02459187 307.30077839 21.69694996 C307.32043323 23.84921874 307.33215607 26.00141802 307.34214497 28.15375233 C307.34622049 28.89156122 307.35029602 29.62937012 307.35449505 30.38953686 C307.37532193 34.29441895 307.38963853 38.19926624 307.39902973 42.10419178 C307.41009064 46.12579531 307.44449592 50.14684503 307.48420143 54.16825294 C307.51041089 57.27133139 307.51872533 60.37427862 307.52231121 63.477458 C307.52716557 64.95935973 307.5387467 66.44125605 307.55734921 67.92304897 C307.66078125 76.70751955 307.69907799 83.12330283 301.50620747 89.87640858 C297.24195859 93.17409437 294.42194373 94.25828156 289.09750366 94.26564884 C287.53701641 94.27141056 287.53701641 94.27141056 285.94500417 94.27728868 C284.79833282 94.27642219 283.65166147 94.27555571 282.4702425 94.27466297 C281.25501402 94.27763409 280.03978553 94.28060522 278.78773195 94.28366637 C275.40840909 94.29085473 272.02913706 94.29352631 268.64981019 94.29426384 C265.00758154 94.29611322 261.36536394 94.30365996 257.72314167 94.31039906 C249.75622991 94.32398752 241.78932318 94.33000785 233.82240176 94.33440971 C228.84914178 94.33717118 223.87588375 94.34140836 218.90262508 94.34591389 C205.13682362 94.35810706 191.37102372 94.36840639 177.60521698 94.37178898 C176.72398356 94.37200854 175.84275014 94.37222811 174.93481268 94.37245433 C174.05145524 94.37267261 173.16809779 94.37289089 172.25797194 94.37311578 C170.46791438 94.37355925 168.67785682 94.37400581 166.88779926 94.37445545 C165.99986643 94.37467688 165.11193359 94.37489831 164.1970937 94.37512645 C149.80682654 94.37907514 135.41660999 94.39653109 121.02636238 94.41981497 C106.25697434 94.44351971 91.4876117 94.45599042 76.71820432 94.4571569 C68.42375261 94.45807414 60.12936685 94.46383873 51.83493328 94.48197651 C44.77250947 94.49736563 37.71017199 94.502505 30.6477346 94.49423841 C27.04395618 94.4903277 23.44035168 94.4912818 19.83659458 94.50529575 C15.93046627 94.52034672 12.02458366 94.51218058 8.11843586 94.50171375 C6.97845668 94.50977016 5.83847749 94.51782656 4.66395348 94.5261271 C-1.90647917 94.48481793 -6.72221163 94.06195032 -11.75941753 89.41547108 C-12.23765972 88.82765858 -12.71590191 88.23984608 -13.20863628 87.63422108 C-13.6997691 87.04640858 -14.19090191 86.45859608 -14.69691753 85.85297108 C-17.20534154 82.25783569 -17.03278897 78.88893734 -17.0572691 74.64667225 C-17.062234 73.99262913 -17.06719891 73.33858601 -17.07231426 72.6647234 C-17.08691178 70.50220147 -17.09373425 68.33975292 -17.09926128 66.17718983 C-17.10501526 64.67127449 -17.11077296 63.16535917 -17.11653423 61.65944386 C-17.12703773 58.50121183 -17.13288447 55.34300521 -17.13637066 52.18475819 C-17.14185037 48.14631416 -17.16586966 44.10820815 -17.19434261 40.06987 C-17.21300734 36.95825197 -17.21817665 33.8467147 -17.21970654 30.73504543 C-17.22272556 29.24675431 -17.23072874 27.75846436 -17.24389172 26.27022839 C-17.26103127 24.18321201 -17.2590532 22.09701255 -17.2525816 20.0099535 C-17.25622723 18.82431309 -17.25987286 17.63867268 -17.26362896 16.41710377 C-16.66208061 11.04335678 -14.53091797 7.18498567 -10.33363628 3.82172108 C-9.73422222 3.33058826 -9.13480816 2.83945545 -8.51723003 2.33343983 C-5.5498798 0.13831568 -3.64339457 0.00721058 0 0 Z " fill="#A1BFCC" transform="translate(59.89613628387451,374.86577892303467)"/>
<path d="M0 0 C1.22789246 -0.01073296 1.22789246 -0.01073296 2.48059082 -0.02168274 C3.37518005 -0.02437164 4.26976929 -0.02706055 5.19146729 -0.02983093 C6.13651123 -0.03640213 7.08155518 -0.04297333 8.05523682 -0.04974365 C11.18691079 -0.06947563 14.3185368 -0.08113918 17.45025635 -0.09111023 C18.51995918 -0.09518576 19.58966202 -0.09926128 20.69178009 -0.10346031 C26.35378324 -0.12432081 32.01576215 -0.13862253 37.67779541 -0.147995 C43.52322147 -0.15905819 49.36826673 -0.19345742 55.2135582 -0.23316669 C59.71061914 -0.25932351 64.20758922 -0.26768603 68.70471954 -0.27127647 C70.85926128 -0.27614497 73.0137989 -0.2877664 75.1682663 -0.30631447 C78.18672277 -0.33068501 81.20419237 -0.32974444 84.22271729 -0.32279968 C85.55245575 -0.34201477 85.55245575 -0.34201477 86.90905762 -0.36161804 C93.49530769 -0.30650883 97.70975344 1.22687693 102.70806885 5.70967102 C107.07354592 11.24931089 107.11942783 15.60156062 107.1428833 22.47651672 C107.1494545 23.31441742 107.1560257 24.15231812 107.16279602 25.01560974 C107.18248464 27.78472488 107.19418102 30.55378593 107.2041626 33.32295227 C107.20823812 34.27037985 107.21231365 35.21780743 107.21651268 36.19394493 C107.23735336 41.20756689 107.25166438 46.22116163 107.26104736 51.2348175 C107.27211449 56.40651423 107.30652369 61.57778103 107.34621906 66.74932575 C107.37238923 70.73254179 107.3807395 74.71565536 107.38432884 78.69894981 C107.38919284 80.60508825 107.40080152 82.51122216 107.41936684 84.41727638 C107.44376949 87.08840997 107.44279146 89.7584303 107.43585205 92.42964172 C107.44866211 93.21170486 107.46147217 93.99376801 107.47467041 94.79953003 C107.42226032 100.35370782 106.11632715 103.55574778 102.96588135 108.14717102 C98.97233559 111.84120084 95.33132679 114.39191525 89.80477905 114.40786743 C88.98336426 114.41495224 88.16194946 114.42203705 87.31564331 114.42933655 C86.42307831 114.42685913 85.53051331 114.42438171 84.61090088 114.42182922 C83.19070648 114.42949562 83.19070648 114.42949562 81.74182129 114.43731689 C78.61071457 114.45122138 75.47982778 114.45025533 72.34869385 114.44795227 C70.17159951 114.45183898 67.99450593 114.4561736 65.81741333 114.4609375 C61.25278262 114.46840175 56.68822925 114.46810712 52.12359619 114.46284485 C46.27702795 114.45705275 40.43077677 114.47397414 34.58426094 114.49718952 C30.08723096 114.51192971 25.59027725 114.51279811 21.09322739 114.50967979 C18.9378789 114.51019295 16.78252614 114.51542964 14.62720108 114.52549171 C11.61114227 114.53784284 8.5957 114.53107189 5.57965088 114.51948547 C4.69113434 114.52712921 3.8026178 114.53477295 2.88717651 114.54264832 C-3.02970164 114.49246681 -7.38785775 113.5881664 -11.8973999 109.42842102 C-12.37564209 108.84060852 -12.85388428 108.25279602 -13.34661865 107.64717102 C-13.83775146 107.05935852 -14.32888428 106.47154602 -14.8348999 105.86592102 C-17.61695942 101.87860445 -17.18868765 97.58021483 -17.19525146 92.93135071 C-17.20021637 92.09359604 -17.20518127 91.25584137 -17.21029663 90.3927002 C-17.22491401 87.61814047 -17.23172019 84.84363795 -17.23724365 82.06904602 C-17.24299624 80.13954161 -17.24875396 78.21003722 -17.2545166 76.28053284 C-17.26502593 72.23200718 -17.27086878 68.18350137 -17.27435303 64.13496399 C-17.27983215 58.95547008 -17.30384806 53.7762398 -17.33232498 48.59682846 C-17.35098088 44.60932152 -17.35615858 40.62187764 -17.3576889 36.63433075 C-17.3607102 34.72541617 -17.36872102 32.81650257 -17.38187408 30.90763092 C-17.39899337 28.23174205 -17.39703983 25.55649139 -17.39056396 22.88056946 C-17.39977875 22.09693527 -17.40899353 21.31330109 -17.41848755 20.50592041 C-17.37402306 14.61912014 -16.31823187 9.75313656 -12.31536865 5.18623352 C-11.72755615 4.7195929 -11.13974365 4.25295227 -10.53411865 3.77217102 C-9.94630615 3.29006165 -9.35849365 2.80795227 -8.75286865 2.31123352 C-5.88476972 0.36874833 -3.36418944 0.02022541 0 0 Z " fill="#A0BFCC" transform="translate(279.03411865234375,206.8528289794922)"/>
<path d="M0 0 C0.96338287 -0.01022186 1.92676575 -0.02044373 2.91934204 -0.03097534 C6.09508307 -0.05871135 9.26995323 -0.05685831 12.44580078 -0.05224609 C14.66008831 -0.06002342 16.87437286 -0.06869346 19.08865356 -0.07821655 C23.72716956 -0.09312909 28.36538107 -0.09256754 33.00390625 -0.08203125 C38.93802028 -0.07044634 44.8708849 -0.10429613 50.8047924 -0.1507206 C55.37744389 -0.18023583 59.94979591 -0.18193327 64.52252579 -0.17570114 C66.70973306 -0.17672566 68.89695751 -0.18716546 71.08407211 -0.20732498 C74.14801088 -0.23210011 77.20953517 -0.21844918 80.2734375 -0.1953125 C81.17032288 -0.21059998 82.06720825 -0.22588745 82.99127197 -0.24163818 C89.6186422 -0.13144701 93.51727518 1.95401201 98.26611328 6.54931641 C102.46817156 12.10687736 102.4154617 17.89245676 102.41137695 24.64086914 C102.41473557 25.44150787 102.41809418 26.24214661 102.42155457 27.06704712 C102.43102988 29.70568404 102.43300585 32.34425729 102.43408203 34.98291016 C102.43729659 36.82227097 102.44066082 38.66163154 102.44416809 40.50099182 C102.45015051 44.35345045 102.45200886 48.20588667 102.45141602 52.05834961 C102.45131435 56.98896587 102.46497476 61.91943825 102.48218822 66.85002041 C102.49331826 70.64789996 102.49533493 74.44574481 102.49480629 78.24363899 C102.49598457 80.06126464 102.50039783 81.87889123 102.50813866 83.69650078 C102.51796035 86.24055893 102.5150521 88.78430574 102.5090332 91.32836914 C102.51465271 92.07505356 102.52027222 92.82173798 102.52606201 93.59104919 C102.47977929 101.30831739 100.59576518 105.97177372 95.26611328 111.54931641 C90.64801115 115.23304415 86.2964864 114.99360079 80.64575195 114.98510742 C79.20089668 115.00022118 79.20089668 115.00022118 77.72685242 115.01564026 C74.54581053 115.04411247 71.36524338 115.04999667 68.18408203 115.05322266 C65.96836655 115.06286488 63.752653 115.07295745 61.53694153 115.08348083 C56.89250258 115.10144083 52.24823099 115.10700205 47.60375977 115.10522461 C41.66181128 115.10491992 35.72093972 115.14586145 29.77924633 115.19754124 C25.20232751 115.230953 20.62566757 115.23698068 16.0486393 115.23539543 C13.85862837 115.23892859 11.66861025 115.25215923 9.47871971 115.27539253 C6.40993992 115.30490012 3.34347801 115.29612176 0.2746582 115.27807617 C-1.07302643 115.30336395 -1.07302643 115.30336395 -2.44793701 115.3291626 C-9.07906749 115.2304358 -13.10197872 113.31193608 -17.73388672 108.54931641 C-21.79830801 103.65017435 -22.32138164 98.83338591 -22.28320312 92.71166992 C-22.29342499 91.8554303 -22.30364685 90.99919067 -22.31417847 90.11700439 C-22.3418401 87.30378791 -22.34006763 84.49155845 -22.33544922 81.67822266 C-22.34322993 79.71198669 -22.35190067 77.74575407 -22.36141968 75.77952576 C-22.37631563 71.66483649 -22.37578231 67.55049054 -22.36523438 63.43579102 C-22.35364351 58.17536687 -22.3875206 52.9163508 -22.43392372 47.6561594 C-22.4634552 43.59734449 -22.4651344 39.53886662 -22.45890427 35.4799633 C-22.45992771 33.54115954 -22.47034739 31.60233617 -22.49052811 29.66363716 C-22.5153401 26.94695872 -22.50163364 24.23299576 -22.47851562 21.51635742 C-22.4938031 20.72390121 -22.50909058 19.93144501 -22.52484131 19.11497498 C-22.40643333 12.78682074 -20.08676254 9.05676333 -15.73388672 4.54931641 C-10.69726131 0.06059353 -6.43919797 -0.03541343 0 0 Z " fill="#9FBDCA" transform="translate(45.73388671875,206.45068359375)"/>
<path d="M0 0 C1.04120048 -0.00445784 2.08240096 -0.00891569 3.15515298 -0.01350862 C4.88434251 -0.01323207 4.88434251 -0.01323207 6.64846516 -0.01294994 C7.8662172 -0.01662663 9.08396925 -0.02030332 10.33862287 -0.02409142 C13.72967401 -0.03323068 17.12067669 -0.03783067 20.51173556 -0.04048073 C24.16490949 -0.0443793 27.81806935 -0.05395801 31.47123432 -0.0626936 C40.29957694 -0.08247165 49.12792072 -0.09252634 57.95627996 -0.10142139 C62.11201027 -0.10580247 66.2677393 -0.11116978 70.42346859 -0.11641026 C84.23554914 -0.13342459 98.0476289 -0.1479189 111.85971832 -0.155159 C115.44541328 -0.15706895 119.03110823 -0.15898927 122.61680317 -0.16094494 C123.50802981 -0.16142868 124.39925645 -0.16191242 125.31748996 -0.16241082 C139.75566036 -0.17071158 154.19374793 -0.19604834 168.63188215 -0.22852562 C183.44983355 -0.2615859 198.26774285 -0.27960686 213.08573133 -0.28280324 C221.40764075 -0.2849694 229.7294294 -0.29373334 238.05130291 -0.31926441 C245.13862484 -0.34095743 252.22579668 -0.3490288 259.31314804 -0.33929763 C262.9292473 -0.33474869 266.54503681 -0.33667317 270.16109371 -0.35605907 C274.08230617 -0.37689931 278.00309053 -0.36671884 281.92434406 -0.35352612 C283.06598347 -0.36449536 284.20762288 -0.37546461 285.38385743 -0.38676625 C293.58751151 -0.31999329 297.73073135 1.2010625 303.97886372 6.63422108 C307.47943554 10.75254087 307.23657966 14.41989748 307.28086567 19.71942616 C307.28743687 20.37200901 307.29400806 21.02459187 307.30077839 21.69694996 C307.32043323 23.84921874 307.33215607 26.00141802 307.34214497 28.15375233 C307.34622049 28.89156122 307.35029602 29.62937012 307.35449505 30.38953686 C307.37532193 34.29441895 307.38963853 38.19926624 307.39902973 42.10419178 C307.41009064 46.12579531 307.44449592 50.14684503 307.48420143 54.16825294 C307.51041089 57.27133139 307.51872533 60.37427862 307.52231121 63.477458 C307.52716557 64.95935973 307.5387467 66.44125605 307.55734921 67.92304897 C307.66078125 76.70751955 307.69907799 83.12330283 301.50620747 89.87640858 C297.24195859 93.17409437 294.42194373 94.25828156 289.09750366 94.26564884 C287.53701641 94.27141056 287.53701641 94.27141056 285.94500417 94.27728868 C284.79833282 94.27642219 283.65166147 94.27555571 282.4702425 94.27466297 C281.25501402 94.27763409 280.03978553 94.28060522 278.78773195 94.28366637 C275.40840909 94.29085473 272.02913706 94.29352631 268.64981019 94.29426384 C265.00758154 94.29611322 261.36536394 94.30365996 257.72314167 94.31039906 C249.75622991 94.32398752 241.78932318 94.33000785 233.82240176 94.33440971 C228.84914178 94.33717118 223.87588375 94.34140836 218.90262508 94.34591389 C205.13682362 94.35810706 191.37102372 94.36840639 177.60521698 94.37178898 C176.72398356 94.37200854 175.84275014 94.37222811 174.93481268 94.37245433 C174.05145524 94.37267261 173.16809779 94.37289089 172.25797194 94.37311578 C170.46791438 94.37355925 168.67785682 94.37400581 166.88779926 94.37445545 C165.99986643 94.37467688 165.11193359 94.37489831 164.1970937 94.37512645 C149.80682654 94.37907514 135.41660999 94.39653109 121.02636238 94.41981497 C106.25697434 94.44351971 91.4876117 94.45599042 76.71820432 94.4571569 C68.42375261 94.45807414 60.12936685 94.46383873 51.83493328 94.48197651 C44.77250947 94.49736563 37.71017199 94.502505 30.6477346 94.49423841 C27.04395618 94.4903277 23.44035168 94.4912818 19.83659458 94.50529575 C15.93046627 94.52034672 12.02458366 94.51218058 8.11843586 94.50171375 C6.97845668 94.50977016 5.83847749 94.51782656 4.66395348 94.5261271 C-1.90647917 94.48481793 -6.72221163 94.06195032 -11.75941753 89.41547108 C-12.23765972 88.82765858 -12.71590191 88.23984608 -13.20863628 87.63422108 C-13.6997691 87.04640858 -14.19090191 86.45859608 -14.69691753 85.85297108 C-17.20534154 82.25783569 -17.03278897 78.88893734 -17.0572691 74.64667225 C-17.062234 73.99262913 -17.06719891 73.33858601 -17.07231426 72.6647234 C-17.08691178 70.50220147 -17.09373425 68.33975292 -17.09926128 66.17718983 C-17.10501526 64.67127449 -17.11077296 63.16535917 -17.11653423 61.65944386 C-17.12703773 58.50121183 -17.13288447 55.34300521 -17.13637066 52.18475819 C-17.14185037 48.14631416 -17.16586966 44.10820815 -17.19434261 40.06987 C-17.21300734 36.95825197 -17.21817665 33.8467147 -17.21970654 30.73504543 C-17.22272556 29.24675431 -17.23072874 27.75846436 -17.24389172 26.27022839 C-17.26103127 24.18321201 -17.2590532 22.09701255 -17.2525816 20.0099535 C-17.25622723 18.82431309 -17.25987286 17.63867268 -17.26362896 16.41710377 C-16.66208061 11.04335678 -14.53091797 7.18498567 -10.33363628 3.82172108 C-9.73422222 3.33058826 -9.13480816 2.83945545 -8.51723003 2.33343983 C-5.5498798 0.13831568 -3.64339457 0.00721058 0 0 Z M-11.23878765 10.96893787 C-13.11344879 14.54925483 -13.40250325 16.75891398 -13.41371441 20.77875233 C-13.42632305 22.08030262 -13.43893169 23.38185291 -13.45192242 24.72284412 C-13.44476216 26.13080866 -13.43655806 27.53876821 -13.42738628 28.94672108 C-13.43008393 30.40351082 -13.43396862 31.8602988 -13.43898296 33.31708241 C-13.44486533 36.36340016 -13.43635658 39.40924729 -13.41762066 42.45551014 C-13.39483099 46.34949171 -13.40796098 50.24237037 -13.43191051 54.13631153 C-13.4464032 57.14248347 -13.44174682 60.14839632 -13.43139935 63.1545763 C-13.4287416 64.58981935 -13.43196819 66.02508634 -13.44131756 67.4603014 C-13.45153843 69.47009261 -13.43318341 71.47996692 -13.41371441 73.48968983 C-13.41053204 74.63075184 -13.40734966 75.77181385 -13.40407085 76.9474535 C-12.59720617 82.00970044 -10.26286307 84.91323692 -6.49462414 88.27964497 C-1.78191707 91.28443107 3.62136194 90.68479787 9.02232075 90.64215565 C10.2319454 90.64839561 11.44157005 90.65463557 12.68785 90.66106462 C16.03789382 90.6742481 19.38703913 90.66951897 22.73702812 90.65711975 C26.3526444 90.64806552 29.96818244 90.66204081 33.58378315 90.67303944 C40.66369864 90.69082533 47.74344451 90.68698441 54.82336664 90.67538887 C60.57738194 90.66635508 66.33134971 90.66513031 72.08537006 90.66948414 C72.90433171 90.67009707 73.72329336 90.67071 74.56707203 90.67134151 C76.23078046 90.67262041 77.89448887 90.67391726 79.55819726 90.67523187 C95.158566 90.68663787 110.75884072 90.67352367 126.35919404 90.65203041 C139.74483414 90.6341594 153.13033549 90.6372635 166.51597309 90.65570545 C182.06053865 90.67711183 197.60502179 90.68553924 213.14960003 90.6732564 C214.8071858 90.6719822 216.46477158 90.67072472 218.12235737 90.66948414 C219.34570103 90.66855849 219.34570103 90.66855849 220.5937587 90.66761413 C226.34081985 90.66416053 232.08782873 90.66998979 237.83488178 90.67940235 C244.83871875 90.69062113 251.84237641 90.68758492 258.84619284 90.66627938 C262.41964843 90.6557672 265.99280505 90.65164966 269.56625843 90.66487598 C273.4394769 90.678995 277.31220586 90.66213592 281.18540668 90.64215565 C282.31555761 90.65107853 283.44570854 90.66000142 284.61010647 90.6691947 C290.75725522 90.60750037 294.4515772 90.29040519 299.10386372 86.13422108 C302.62407859 81.87459782 303.60613681 78.97741645 303.62144184 73.48968983 C303.6403548 71.53736439 303.6403548 71.53736439 303.65964985 69.54559803 C303.65248959 68.1376335 303.64428549 66.72967394 303.63511372 65.32172108 C303.63781136 63.86493134 303.64169605 62.40814336 303.6467104 60.95135975 C303.65259276 57.90504199 303.64408401 54.85919486 303.62534809 51.81293201 C303.60255842 47.91895044 303.61568841 44.02607178 303.63963795 40.13213062 C303.65413064 37.12595868 303.64947425 34.12004584 303.63912678 31.11386585 C303.63646903 29.67862281 303.63969562 28.24335581 303.64904499 26.80814075 C303.65926586 24.79834954 303.64091084 22.78847523 303.62144184 20.77875233 C303.61825947 19.63769032 303.6150771 18.4966283 303.61179829 17.32098866 C302.8049336 12.25874171 300.4705905 9.35520524 296.70235157 5.98879719 C291.9896445 2.98401108 286.58636549 3.58364429 281.18540668 3.62628651 C279.97578203 3.62004654 278.76615738 3.61380658 277.51987743 3.60737753 C274.16983362 3.59419406 270.82068831 3.59892318 267.47069931 3.6113224 C263.85508303 3.62037664 260.23954499 3.60640134 256.62394428 3.59540272 C249.54402879 3.57761683 242.46428293 3.58145774 235.38436079 3.59305328 C229.63034549 3.60208707 223.87637773 3.60331184 218.12235737 3.59895802 C217.30339572 3.59834508 216.48443407 3.59773215 215.6406554 3.59710065 C213.97694698 3.59582174 212.31323857 3.59452489 210.64953017 3.59321028 C195.04916143 3.58180428 179.44888671 3.59491848 163.84853339 3.61641175 C150.46289329 3.63428276 137.07739194 3.63117866 123.69175434 3.6127367 C108.14718879 3.59133033 92.60270564 3.58290292 77.0581274 3.59518576 C75.40054164 3.59645995 73.74295586 3.59771744 72.08537006 3.59895802 C70.8620264 3.59988367 70.8620264 3.59988367 69.61396873 3.60082802 C63.86690758 3.60428162 58.1198987 3.59845236 52.37284565 3.5890398 C45.36900868 3.57782102 38.36535102 3.58085723 31.3615346 3.60216278 C27.788079 3.61267495 24.21492238 3.61679249 20.641469 3.60356617 C16.76825053 3.58944716 12.89552157 3.60630624 9.02232075 3.62628651 C7.89216982 3.61736362 6.76201889 3.60844073 5.59762096 3.59924746 C-2.30406925 3.67855081 -6.08612118 4.73397248 -11.23878765 10.96893787 Z " fill="#273A52" transform="translate(59.89613628387451,374.86577892303467)"/>
<path d="M0 0 C1.22789246 -0.01073296 1.22789246 -0.01073296 2.48059082 -0.02168274 C3.37518005 -0.02437164 4.26976929 -0.02706055 5.19146729 -0.02983093 C6.13651123 -0.03640213 7.08155518 -0.04297333 8.05523682 -0.04974365 C11.18691079 -0.06947563 14.3185368 -0.08113918 17.45025635 -0.09111023 C18.51995918 -0.09518576 19.58966202 -0.09926128 20.69178009 -0.10346031 C26.35378324 -0.12432081 32.01576215 -0.13862253 37.67779541 -0.147995 C43.52322147 -0.15905819 49.36826673 -0.19345742 55.2135582 -0.23316669 C59.71061914 -0.25932351 64.20758922 -0.26768603 68.70471954 -0.27127647 C70.85926128 -0.27614497 73.0137989 -0.2877664 75.1682663 -0.30631447 C78.18672277 -0.33068501 81.20419237 -0.32974444 84.22271729 -0.32279968 C85.55245575 -0.34201477 85.55245575 -0.34201477 86.90905762 -0.36161804 C93.49530769 -0.30650883 97.70975344 1.22687693 102.70806885 5.70967102 C107.07354592 11.24931089 107.11942783 15.60156062 107.1428833 22.47651672 C107.1494545 23.31441742 107.1560257 24.15231812 107.16279602 25.01560974 C107.18248464 27.78472488 107.19418102 30.55378593 107.2041626 33.32295227 C107.20823812 34.27037985 107.21231365 35.21780743 107.21651268 36.19394493 C107.23735336 41.20756689 107.25166438 46.22116163 107.26104736 51.2348175 C107.27211449 56.40651423 107.30652369 61.57778103 107.34621906 66.74932575 C107.37238923 70.73254179 107.3807395 74.71565536 107.38432884 78.69894981 C107.38919284 80.60508825 107.40080152 82.51122216 107.41936684 84.41727638 C107.44376949 87.08840997 107.44279146 89.7584303 107.43585205 92.42964172 C107.44866211 93.21170486 107.46147217 93.99376801 107.47467041 94.79953003 C107.42226032 100.35370782 106.11632715 103.55574778 102.96588135 108.14717102 C98.97233559 111.84120084 95.33132679 114.39191525 89.80477905 114.40786743 C88.98336426 114.41495224 88.16194946 114.42203705 87.31564331 114.42933655 C86.42307831 114.42685913 85.53051331 114.42438171 84.61090088 114.42182922 C83.19070648 114.42949562 83.19070648 114.42949562 81.74182129 114.43731689 C78.61071457 114.45122138 75.47982778 114.45025533 72.34869385 114.44795227 C70.17159951 114.45183898 67.99450593 114.4561736 65.81741333 114.4609375 C61.25278262 114.46840175 56.68822925 114.46810712 52.12359619 114.46284485 C46.27702795 114.45705275 40.43077677 114.47397414 34.58426094 114.49718952 C30.08723096 114.51192971 25.59027725 114.51279811 21.09322739 114.50967979 C18.9378789 114.51019295 16.78252614 114.51542964 14.62720108 114.52549171 C11.61114227 114.53784284 8.5957 114.53107189 5.57965088 114.51948547 C4.69113434 114.52712921 3.8026178 114.53477295 2.88717651 114.54264832 C-3.02970164 114.49246681 -7.38785775 113.5881664 -11.8973999 109.42842102 C-12.37564209 108.84060852 -12.85388428 108.25279602 -13.34661865 107.64717102 C-13.83775146 107.05935852 -14.32888428 106.47154602 -14.8348999 105.86592102 C-17.61695942 101.87860445 -17.18868765 97.58021483 -17.19525146 92.93135071 C-17.20021637 92.09359604 -17.20518127 91.25584137 -17.21029663 90.3927002 C-17.22491401 87.61814047 -17.23172019 84.84363795 -17.23724365 82.06904602 C-17.24299624 80.13954161 -17.24875396 78.21003722 -17.2545166 76.28053284 C-17.26502593 72.23200718 -17.27086878 68.18350137 -17.27435303 64.13496399 C-17.27983215 58.95547008 -17.30384806 53.7762398 -17.33232498 48.59682846 C-17.35098088 44.60932152 -17.35615858 40.62187764 -17.3576889 36.63433075 C-17.3607102 34.72541617 -17.36872102 32.81650257 -17.38187408 30.90763092 C-17.39899337 28.23174205 -17.39703983 25.55649139 -17.39056396 22.88056946 C-17.39977875 22.09693527 -17.40899353 21.31330109 -17.41848755 20.50592041 C-17.37402306 14.61912014 -16.31823187 9.75313656 -12.31536865 5.18623352 C-11.72755615 4.7195929 -11.13974365 4.25295227 -10.53411865 3.77217102 C-9.94630615 3.29006165 -9.35849365 2.80795227 -8.75286865 2.31123352 C-5.88476972 0.36874833 -3.36418944 0.02022541 0 0 Z M-11.37677002 10.86714172 C-13.39858163 14.86847324 -13.5975866 18.2456751 -13.55169678 22.62763977 C-13.55870605 23.45768524 -13.56571533 24.28773071 -13.57293701 25.14292908 C-13.59047469 27.87385477 -13.57890957 30.60373565 -13.56536865 33.33467102 C-13.56806479 35.23986509 -13.57194822 37.14505782 -13.57696533 39.05024719 C-13.58285465 43.03809239 -13.57431568 47.02557857 -13.55560303 51.01338196 C-13.53281384 56.11795633 -13.54593996 61.22168939 -13.56989288 66.32623291 C-13.58436617 70.25884814 -13.57973785 74.19126481 -13.56938171 78.12388611 C-13.56671866 80.00570272 -13.56996934 81.88753752 -13.57929993 83.76933289 C-13.5894908 86.40227313 -13.57392966 89.03386232 -13.55169678 91.66670227 C-13.5597937 92.43986786 -13.56789063 93.21303345 -13.57623291 94.0096283 C-13.49489488 99.22477567 -12.43295092 102.20090556 -9.03411865 106.14717102 C-4.04442256 110.5372892 0.02836583 110.72394302 6.36431885 110.66474915 C7.29190002 110.67175842 8.2194812 110.6787677 9.1751709 110.68598938 C12.23071537 110.70354454 15.28532802 110.6919552 18.34088135 110.67842102 C20.47027768 110.68111664 22.59967281 110.68499964 24.72906494 110.6900177 C29.18768048 110.6959094 33.64597505 110.68736013 38.10455322 110.6686554 C43.81443836 110.64586632 49.5235714 110.65899112 55.23342896 110.68294525 C59.62926888 110.69741192 64.02493103 110.69279319 68.42077637 110.68243408 C70.52587982 110.67976921 72.6309995 110.68302809 74.73608398 110.69235229 C77.68030438 110.70253195 80.62331347 110.6869965 83.56744385 110.66474915 C84.43411682 110.67284607 85.30078979 110.68094299 86.19372559 110.68928528 C91.58400617 110.61397761 94.76998023 109.83887918 98.96588135 106.14717102 C102.95979823 101.50997359 103.54555453 97.59608518 103.48345947 91.66670227 C103.49046875 90.8366568 103.49747803 90.00661133 103.50469971 89.15141296 C103.52223739 86.42048727 103.51067227 83.69060639 103.49713135 80.95967102 C103.49982748 79.05447695 103.50371092 77.14928422 103.50872803 75.24409485 C103.51461734 71.25624965 103.50607838 67.26876347 103.48736572 63.28096008 C103.46457654 58.17638571 103.47770265 53.07265265 103.50165558 47.96810913 C103.51612886 44.03549391 103.51150054 40.10307723 103.50114441 36.17045593 C103.49848136 34.28863932 103.50173203 32.40680452 103.51106262 30.52500916 C103.52125349 27.89206891 103.50569236 25.26047972 103.48345947 22.62763977 C103.4915564 21.85447418 103.49965332 21.08130859 103.50799561 20.28471375 C103.42665758 15.06956637 102.36471361 12.09343649 98.96588135 8.14717102 C93.97618526 3.75705284 89.90339687 3.57039902 83.56744385 3.6295929 C82.63986267 3.62258362 81.71228149 3.61557434 80.7565918 3.60835266 C77.70104733 3.5907975 74.64643467 3.60238684 71.59088135 3.61592102 C69.46148501 3.6132254 67.33208988 3.6093424 65.20269775 3.60432434 C60.74408222 3.59843264 56.28578765 3.60698191 51.82720947 3.62568665 C46.11732433 3.64847572 40.4081913 3.63535092 34.69833374 3.61139679 C30.30249381 3.59693012 25.90683166 3.60154885 21.51098633 3.61190796 C19.40588288 3.61457283 17.3007632 3.61131395 15.19567871 3.60198975 C12.25145831 3.59181009 9.30844923 3.60734554 6.36431885 3.6295929 C5.49764587 3.62149597 4.6309729 3.61339905 3.73803711 3.60505676 C-3.11790914 3.70084126 -6.81091823 5.56589064 -11.37677002 10.86714172 Z " fill="#293C53" transform="translate(279.03411865234375,206.8528289794922)"/>
<path d="M0 0 C0.96338287 -0.01022186 1.92676575 -0.02044373 2.91934204 -0.03097534 C6.09508307 -0.05871135 9.26995323 -0.05685831 12.44580078 -0.05224609 C14.66008831 -0.06002342 16.87437286 -0.06869346 19.08865356 -0.07821655 C23.72716956 -0.09312909 28.36538107 -0.09256754 33.00390625 -0.08203125 C38.93802028 -0.07044634 44.8708849 -0.10429613 50.8047924 -0.1507206 C55.37744389 -0.18023583 59.94979591 -0.18193327 64.52252579 -0.17570114 C66.70973306 -0.17672566 68.89695751 -0.18716546 71.08407211 -0.20732498 C74.14801088 -0.23210011 77.20953517 -0.21844918 80.2734375 -0.1953125 C81.17032288 -0.21059998 82.06720825 -0.22588745 82.99127197 -0.24163818 C89.6186422 -0.13144701 93.51727518 1.95401201 98.26611328 6.54931641 C102.46817156 12.10687736 102.4154617 17.89245676 102.41137695 24.64086914 C102.41473557 25.44150787 102.41809418 26.24214661 102.42155457 27.06704712 C102.43102988 29.70568404 102.43300585 32.34425729 102.43408203 34.98291016 C102.43729659 36.82227097 102.44066082 38.66163154 102.44416809 40.50099182 C102.45015051 44.35345045 102.45200886 48.20588667 102.45141602 52.05834961 C102.45131435 56.98896587 102.46497476 61.91943825 102.48218822 66.85002041 C102.49331826 70.64789996 102.49533493 74.44574481 102.49480629 78.24363899 C102.49598457 80.06126464 102.50039783 81.87889123 102.50813866 83.69650078 C102.51796035 86.24055893 102.5150521 88.78430574 102.5090332 91.32836914 C102.51465271 92.07505356 102.52027222 92.82173798 102.52606201 93.59104919 C102.47977929 101.30831739 100.59576518 105.97177372 95.26611328 111.54931641 C90.64801115 115.23304415 86.2964864 114.99360079 80.64575195 114.98510742 C79.20089668 115.00022118 79.20089668 115.00022118 77.72685242 115.01564026 C74.54581053 115.04411247 71.36524338 115.04999667 68.18408203 115.05322266 C65.96836655 115.06286488 63.752653 115.07295745 61.53694153 115.08348083 C56.89250258 115.10144083 52.24823099 115.10700205 47.60375977 115.10522461 C41.66181128 115.10491992 35.72093972 115.14586145 29.77924633 115.19754124 C25.20232751 115.230953 20.62566757 115.23698068 16.0486393 115.23539543 C13.85862837 115.23892859 11.66861025 115.25215923 9.47871971 115.27539253 C6.40993992 115.30490012 3.34347801 115.29612176 0.2746582 115.27807617 C-1.07302643 115.30336395 -1.07302643 115.30336395 -2.44793701 115.3291626 C-9.07906749 115.2304358 -13.10197872 113.31193608 -17.73388672 108.54931641 C-21.79830801 103.65017435 -22.32138164 98.83338591 -22.28320312 92.71166992 C-22.29342499 91.8554303 -22.30364685 90.99919067 -22.31417847 90.11700439 C-22.3418401 87.30378791 -22.34006763 84.49155845 -22.33544922 81.67822266 C-22.34322993 79.71198669 -22.35190067 77.74575407 -22.36141968 75.77952576 C-22.37631563 71.66483649 -22.37578231 67.55049054 -22.36523438 63.43579102 C-22.35364351 58.17536687 -22.3875206 52.9163508 -22.43392372 47.6561594 C-22.4634552 43.59734449 -22.4651344 39.53886662 -22.45890427 35.4799633 C-22.45992771 33.54115954 -22.47034739 31.60233617 -22.49052811 29.66363716 C-22.5153401 26.94695872 -22.50163364 24.23299576 -22.47851562 21.51635742 C-22.4938031 20.72390121 -22.50909058 19.93144501 -22.52484131 19.11497498 C-22.40643333 12.78682074 -20.08676254 9.05676333 -15.73388672 4.54931641 C-10.69726131 0.06059353 -6.43919797 -0.03541343 0 0 Z M-16.07653809 11.26928711 C-18.0983497 15.27061863 -18.29735467 18.64782048 -18.25146484 23.02978516 C-18.25847412 23.85983063 -18.2654834 24.6898761 -18.27270508 25.54507446 C-18.29024276 28.27600016 -18.27867764 31.00588103 -18.26513672 33.73681641 C-18.26783285 35.64201048 -18.27171629 37.54720321 -18.2767334 39.45239258 C-18.28262271 43.44023778 -18.27408375 47.42772396 -18.25537109 51.41552734 C-18.23258191 56.52010171 -18.24570802 61.62383477 -18.26966095 66.7283783 C-18.28413423 70.66099352 -18.27950591 74.5934102 -18.26914978 78.52603149 C-18.26648673 80.40784811 -18.2697374 82.28968291 -18.27906799 84.17147827 C-18.28925887 86.80441852 -18.27369773 89.43600771 -18.25146484 92.06884766 C-18.25956177 92.84201324 -18.26765869 93.61517883 -18.27600098 94.41177368 C-18.19466295 99.62692106 -17.13271898 102.60305094 -13.73388672 106.54931641 C-8.74419063 110.93943458 -4.67140224 111.1260884 1.66455078 111.06689453 C2.59213196 111.07390381 3.51971313 111.08091309 4.47540283 111.08813477 C7.5309473 111.10568992 10.58555996 111.09410059 13.64111328 111.08056641 C15.77050961 111.08326203 17.89990475 111.08714503 20.02929688 111.09216309 C24.48791241 111.09805479 28.94620698 111.08950552 33.40478516 111.07080078 C39.1146703 111.0480117 44.82380333 111.0611365 50.53366089 111.08509064 C54.92950082 111.09955731 59.32516297 111.09493857 63.7210083 111.08457947 C65.82611175 111.0819146 67.93123143 111.08517348 70.03631592 111.09449768 C72.98053632 111.10467734 75.9235454 111.08914188 78.86767578 111.06689453 C79.73434875 111.07499146 80.60102173 111.08308838 81.49395752 111.09143066 C86.88423811 111.016123 90.07021216 110.24102457 94.26611328 106.54931641 C98.26003016 101.91211897 98.84578646 97.99823057 98.78369141 92.06884766 C98.79070068 91.23880219 98.79770996 90.40875671 98.80493164 89.55355835 C98.82246932 86.82263265 98.8109042 84.09275178 98.79736328 81.36181641 C98.80005942 79.45662234 98.80394285 77.55142961 98.80895996 75.64624023 C98.81484928 71.65839503 98.80631031 67.67090885 98.78759766 63.68310547 C98.76480847 58.5785311 98.77793459 53.47479804 98.80188751 48.37025452 C98.8163608 44.43763929 98.81173247 40.50522261 98.80137634 36.57260132 C98.79871329 34.69078471 98.80196396 32.80894991 98.81129456 30.92715454 C98.82148543 28.29421429 98.80592429 25.6626251 98.78369141 23.02978516 C98.79178833 22.25661957 98.79988525 21.48345398 98.80822754 20.68685913 C98.72688951 15.47171175 97.66494555 12.49558187 94.26611328 8.54931641 C89.27641719 4.15919823 85.2036288 3.97254441 78.86767578 4.03173828 C77.9400946 4.024729 77.01251343 4.01771973 76.05682373 4.01049805 C73.00127926 3.99294289 69.9466666 4.00453222 66.89111328 4.01806641 C64.76171695 4.01537079 62.63232181 4.01148778 60.50292969 4.00646973 C56.04431415 4.00057802 51.58601958 4.00912729 47.12744141 4.02783203 C41.41755627 4.05062111 35.70842323 4.03749631 29.99856567 4.01354218 C25.60272575 3.9990755 21.2070636 4.00369424 16.81121826 4.01405334 C14.70611481 4.01671821 12.60099513 4.01345934 10.49591064 4.00413513 C7.55169025 3.99395548 4.60868116 4.00949093 1.66455078 4.03173828 C0.79787781 4.02364136 -0.06879517 4.01554443 -0.96173096 4.00720215 C-7.81767721 4.10298664 -11.5106863 5.96803603 -16.07653809 11.26928711 Z " fill="#283B53" transform="translate(45.73388671875,206.45068359375)"/>
<path d="M0 0 C8.91 0 17.82 0 27 0 C27 3.3 27 6.6 27 10 C21.06 10 15.12 10 9 10 C9 12.64 9 15.28 9 18 C10.21236328 17.94779297 10.21236328 17.94779297 11.44921875 17.89453125 C12.51785156 17.86746094 13.58648437 17.84039062 14.6875 17.8125 C15.74324219 17.77769531 16.79898438 17.74289063 17.88671875 17.70703125 C21.47541926 18.04473832 23.17573106 18.78196255 26 21 C29.49527815 25.22951602 29.48764411 29.19060224 29.4375 34.4375 C29.4674707 35.54448242 29.4674707 35.54448242 29.49804688 36.67382812 C29.49342306 41.87561466 28.49468807 44.92798209 25 49 C21.62580275 51.51794935 18.17623289 51.29932903 14.0625 51.3125 C12.85722656 51.32925781 11.65195313 51.34601563 10.41015625 51.36328125 C5.79057409 50.87116081 3.18128072 49.38494981 0.1875 45.875 C-1.50547653 41.77621472 -1.19782041 38.41798924 -1 34 C2.3 34 5.6 34 9 34 C9 36.31 9 38.62 9 41 C12.3 41 15.6 41 19 41 C19 36.71 19 32.42 19 28 C13.68074678 28.05754492 13.68074678 28.05754492 9 30 C6.03 30 3.06 30 0 30 C0 20.1 0 10.2 0 0 Z " fill="#2C3E55" transform="translate(191,113)"/>
<path d="M0 0 C3.96 0 7.92 0 12 0 C12 3.96 12 7.92 12 12 C15.96 12 19.92 12 24 12 C24 15.96 24 19.92 24 24 C19.71 24 15.42 24 11 24 C11 27.96 11 31.92 11 36 C7.37 36 3.74 36 0 36 C0 32.04 0 28.08 0 24 C-4.29 24 -8.58 24 -13 24 C-13 20.04 -13 16.08 -13 12 C-8.71 12 -4.42 12 0 12 C0 8.04 0 4.08 0 0 Z " fill="#283C53" transform="translate(318,243)"/>
<path d="M0 0 C4.62 0 9.24 0 14 0 C18 4 18 4 18.49609375 6.91015625 C18.47675781 7.95042969 18.45742187 8.99070312 18.4375 10.0625 C18.43621094 11.10535156 18.43492187 12.14820313 18.43359375 13.22265625 C18 16 18 16 16.390625 17.359375 C15.93171875 17.90078125 15.4728125 18.4421875 15 19 C15.27472539 21.86836937 15.67734092 24.40107414 16.3125 27.1875 C16.46912109 27.93708984 16.62574219 28.68667969 16.78710938 29.45898438 C17.17602692 31.30928904 17.58602122 33.15514072 18 35 C15.69 35 13.38 35 11 35 C9.73694665 29.92523206 8.72963916 25.27203646 9 20 C8.01 20 7.02 20 6 20 C6 24.95 6 29.9 6 35 C4.02 35 2.04 35 0 35 C0 23.45 0 11.9 0 0 Z " fill="#2A3D55" transform="translate(156,401)"/>
<path d="M0 0 C0.9590625 -0.00773437 1.918125 -0.01546875 2.90625 -0.0234375 C5.97274909 0.44762109 6.66236792 0.92767702 8.5 3.375 C8.88818359 5.87109375 8.88818359 5.87109375 8.8984375 8.8125 C8.90423828 10.40191406 8.90423828 10.40191406 8.91015625 12.0234375 C8.89855469 13.12945312 8.88695312 14.23546875 8.875 15.375 C8.88660156 16.48101562 8.89820313 17.58703125 8.91015625 18.7265625 C8.90628906 19.78617188 8.90242188 20.84578125 8.8984375 21.9375 C8.89505371 22.90816406 8.89166992 23.87882812 8.88818359 24.87890625 C8.43875582 27.76881163 7.83349124 28.66625615 5.5 30.375 C3.16015625 30.80859375 3.16015625 30.80859375 0.5625 30.8125 C-0.71947266 30.84150391 -0.71947266 30.84150391 -2.02734375 30.87109375 C-5.3288482 30.2087066 -6.3887493 28.96420753 -8.5 26.375 C-9.00170898 23.85717773 -9.00170898 23.85717773 -8.99609375 21.05859375 C-8.99673828 20.04732422 -8.99738281 19.03605469 -8.99804688 17.99414062 C-8.97806641 16.94419922 -8.95808594 15.89425781 -8.9375 14.8125 C-8.94458984 13.75869141 -8.95167969 12.70488281 -8.95898438 11.61914062 C-8.89490817 3.89549335 -8.89490817 3.89549335 -7.13500977 1.57592773 C-4.7613833 -0.16751987 -2.91081067 -0.02347428 0 0 Z " fill="#2C3E55" transform="translate(160.5,43.625)"/>
<path d="M0 0 C0.95003906 0.00128906 1.90007812 0.00257812 2.87890625 0.00390625 C3.82636719 -0.01800781 4.77382813 -0.03992187 5.75 -0.0625 C9.47799123 0.80862712 10.37024222 2.4053136 12.44140625 5.56640625 C12.89550781 8.42895508 12.89550781 8.42895508 12.83203125 11.5234375 C12.81269531 13.19116211 12.81269531 13.19116211 12.79296875 14.89257812 C12.75945312 16.04306641 12.7259375 17.19355469 12.69140625 18.37890625 C12.67335938 19.54873047 12.6553125 20.71855469 12.63671875 21.92382812 C12.58967065 24.80552405 12.52394334 27.68554422 12.44140625 30.56640625 C10.46140625 30.56640625 8.48140625 30.56640625 6.44140625 30.56640625 C6.44140625 26.60640625 6.44140625 22.64640625 6.44140625 18.56640625 C4.46140625 18.56640625 2.48140625 18.56640625 0.44140625 18.56640625 C0.44140625 22.52640625 0.44140625 26.48640625 0.44140625 30.56640625 C-1.53859375 30.56640625 -3.51859375 30.56640625 -5.55859375 30.56640625 C-5.64568127 26.31653535 -5.69901556 22.06689386 -5.74609375 17.81640625 C-5.77123047 16.60984375 -5.79636719 15.40328125 -5.82226562 14.16015625 C-5.83193359 13 -5.84160156 11.83984375 -5.8515625 10.64453125 C-5.86727295 9.5762207 -5.8829834 8.50791016 -5.89916992 7.40722656 C-5.40268337 3.26592364 -4.1754665 0.92433991 0 0 Z " fill="#2F4157" transform="translate(283.55859375,43.43359375)"/>
<path d="M0 0 C12.21 0 24.42 0 37 0 C37 3.96 37 7.92 37 12 C24.79 12 12.58 12 0 12 C0 8.04 0 4.08 0 0 Z " fill="#2A3D55" transform="translate(67,255)"/>
<path d="M0 0 C2.31 0 4.62 0 7 0 C8.32 3.63 9.64 7.26 11 11 C11.33 7.37 11.66 3.74 12 0 C13.98 0 15.96 0 18 0 C18 9.9 18 19.8 18 30 C16.02 30 14.04 30 12 30 C10.35 25.38 8.7 20.76 7 16 C6.67 20.62 6.34 25.24 6 30 C4.02 30 2.04 30 0 30 C0 20.1 0 10.2 0 0 Z " fill="#2C3E55" transform="translate(195,44)"/>
<path d="M0 0 C4.29 0 8.58 0 13 0 C17 4 17 4 17.4609375 6.69140625 C17.41839844 8.11259766 17.41839844 8.11259766 17.375 9.5625 C17.35566406 10.98755859 17.35566406 10.98755859 17.3359375 12.44140625 C17 15 17 15 15 18 C15.19536602 20.99199259 15.19536602 20.99199259 15.875 24.1875 C16.07867187 25.27417969 16.28234375 26.36085938 16.4921875 27.48046875 C16.65976562 28.31191406 16.82734375 29.14335938 17 30 C15.02 30 13.04 30 11 30 C10.01 26.37 9.02 22.74 8 19 C7.34 19 6.68 19 6 19 C6 22.63 6 26.26 6 30 C4.02 30 2.04 30 0 30 C0 20.1 0 10.2 0 0 Z " fill="#2B3E55" transform="translate(258,44)"/>
<path d="M0 0 C12 0 12 0 15.25 1.25 C18.10887087 5.74251137 18.0157849 10.84401597 17 16 C15.40234375 18.375 15.40234375 18.375 13 20 C10.69 20 8.38 20 6 20 C6 24.62 6 29.24 6 34 C4.02 34 2.04 34 0 34 C0 22.78 0 11.56 0 0 Z " fill="#2D3F56" transform="translate(35,40)"/>
<path d="M0 0 C2.6875 1.625 2.6875 1.625 4 4 C4.25 7.25 4.25 7.25 4 10 C2.02 10 0.04 10 -2 10 C-2 8.68 -2 7.36 -2 6 C-3.98 6 -5.96 6 -8 6 C-8.13440778 8.42919865 -8.13440778 8.42919865 -7 11 C-5.03000593 11.97174595 -3.03121819 12.5932564 -0.9453125 13.27734375 C1 14 1 14 3 15.625 C4.59284219 19.40800021 4.62881477 22.96818767 4 27 C2.625 29.5625 2.625 29.5625 0 31 C-4.6325131 31.73104443 -8.53549565 31.87172878 -12.625 29.4375 C-14.46392977 26.17757904 -14.28299062 23.67887806 -14 20 C-12.02 20 -10.04 20 -8 20 C-8 21.65 -8 23.3 -8 25 C-6.02 25 -4.04 25 -2 25 C-1.7886547 22.6087705 -1.7886547 22.6087705 -3 20 C-5.22792917 18.71632987 -7.46663552 17.80150988 -9.87109375 16.89453125 C-12 16 -12 16 -14 14 C-14.30078125 11.50390625 -14.30078125 11.50390625 -14.3125 8.5625 C-14.32925781 7.59441406 -14.34601563 6.62632812 -14.36328125 5.62890625 C-14 3 -14 3 -12.8203125 1.1796875 C-9.03832597 -1.27129948 -4.30812122 -0.57398621 0 0 Z " fill="#2A3D55" transform="translate(210,405)"/>
<path d="M0 0 C1.98 0 3.96 0 6 0 C6 3.96 6 7.92 6 12 C7.98 12 9.96 12 12 12 C12 8.04 12 4.08 12 0 C13.98 0 15.96 0 18 0 C18 9.9 18 19.8 18 30 C16.02 30 14.04 30 12 30 C12 26.04 12 22.08 12 18 C10.02 18 8.04 18 6 18 C6 21.96 6 25.92 6 30 C4.02 30 2.04 30 0 30 C0 20.1 0 10.2 0 0 Z " fill="#2C3F55" transform="translate(103,44)"/>
<path d="M0 0 C1.98 0 3.96 0 6 0 C6 7.92 6 15.84 6 24 C7.98 24 9.96 24 12 24 C12 16.08 12 8.16 12 0 C13.98 0 15.96 0 18 0 C18.11638426 4.06225821 18.18731373 8.1240863 18.25 12.1875 C18.30027344 13.91323242 18.30027344 13.91323242 18.3515625 15.67382812 C18.36445313 16.78564453 18.37734375 17.89746094 18.390625 19.04296875 C18.41157227 20.06414795 18.43251953 21.08532715 18.45410156 22.13745117 C17.87973821 25.75810186 16.54351348 27.40979513 14 30 C11.5625 30.62890625 11.5625 30.62890625 9 30.5625 C8.154375 30.56378906 7.30875 30.56507812 6.4375 30.56640625 C3.17713737 29.80878993 2.07898908 28.60361661 0 26 C-0.45410156 23.15917969 -0.45410156 23.15917969 -0.390625 19.921875 C-0.37773437 18.76171875 -0.36484375 17.6015625 -0.3515625 16.40625 C-0.31804687 15.1996875 -0.28453125 13.993125 -0.25 12.75 C-0.22292969 10.91695312 -0.22292969 10.91695312 -0.1953125 9.046875 C-0.148181 6.03045922 -0.08239413 3.01562509 0 0 Z " fill="#2F4157" transform="translate(173,44)"/>
<path d="M0 0 C5.28 0 10.56 0 16 0 C16 2.31 16 4.62 16 7 C12.7 7 9.4 7 6 7 C6 8.98 6 10.96 6 13 C8.31 13 10.62 13 13 13 C13 14.98 13 16.96 13 19 C10.69 19 8.38 19 6 19 C6 21.31 6 23.62 6 26 C9.3 26 12.6 26 16 26 C16 27.98 16 29.96 16 32 C10.72 32 5.44 32 0 32 C0 21.44 0 10.88 0 0 Z " fill="#2C4057" transform="translate(218,404)"/>
<path d="M0 0 C5.28 0 10.56 0 16 0 C16 2.31 16 4.62 16 7 C12.7 7 9.4 7 6 7 C6 8.98 6 10.96 6 13 C8.31 13 10.62 13 13 13 C13 14.98 13 16.96 13 19 C10.69 19 8.38 19 6 19 C6 21.31 6 23.62 6 26 C9.3 26 12.6 26 16 26 C16 27.98 16 29.96 16 32 C10.72 32 5.44 32 0 32 C0 21.44 0 10.88 0 0 Z " fill="#2C4057" transform="translate(177,404)"/>
<path d="M0 0 C2.67680011 0.86815139 3.6569562 1.5025865 5.25 3.8125 C6.11081611 6.32321365 6.14647297 8.36348649 6 11 C4.02 11 2.04 11 0 11 C0 9.35 0 7.7 0 6 C-1.98 6 -3.96 6 -6 6 C-6 13.26 -6 20.52 -6 28 C-4.02 28 -2.04 28 0 28 C0 26.68 0 25.36 0 24 C1.65 24 3.3 24 5 24 C5.36683303 30.48071688 5.36683303 30.48071688 3.796875 32.703125 C1.44904915 34.39764279 -0.06002682 34.43317297 -2.9375 34.4375 C-3.79214844 34.45683594 -4.64679688 34.47617188 -5.52734375 34.49609375 C-8.8468194 33.830101 -9.89240673 32.62218088 -12 30 C-12.824721 25.70616656 -12.6027339 21.36419485 -12.5625 17 C-12.58634766 15.81148437 -12.61019531 14.62296875 -12.63476562 13.3984375 C-12.63283203 12.25632812 -12.63089844 11.11421875 -12.62890625 9.9375 C-12.62963135 8.89464844 -12.63035645 7.85179687 -12.63110352 6.77734375 C-12 4 -12 4 -9.68334961 1.65234375 C-6.20378934 -0.49028785 -4.02358112 -0.43893612 0 0 Z " fill="#2F4157" transform="translate(143,40)"/>
<path d="M0 0 C0.9590625 -0.00773437 1.918125 -0.01546875 2.90625 -0.0234375 C5.5 0.375 5.5 0.375 7.33203125 1.66796875 C9.21607006 4.42156394 8.68265321 7.14812669 8.5 10.375 C6.85 10.375 5.2 10.375 3.5 10.375 C3.5 9.055 3.5 7.735 3.5 6.375 C1.52 6.375 -0.46 6.375 -2.5 6.375 C-2.5 12.315 -2.5 18.255 -2.5 24.375 C-0.52 24.375 1.46 24.375 3.5 24.375 C3.5 22.725 3.5 21.075 3.5 19.375 C5.15 19.375 6.8 19.375 8.5 19.375 C8.86739563 26.84537773 8.86739563 26.84537773 7.296875 29.109375 C4.94798007 30.76381404 3.41921197 30.80820419 0.5625 30.8125 C-0.71947266 30.84150391 -0.71947266 30.84150391 -2.02734375 30.87109375 C-5.3288482 30.2087066 -6.3887493 28.96420753 -8.5 26.375 C-9.00170898 23.85717773 -9.00170898 23.85717773 -8.99609375 21.05859375 C-8.99673828 20.04732422 -8.99738281 19.03605469 -8.99804688 17.99414062 C-8.97806641 16.94419922 -8.95808594 15.89425781 -8.9375 14.8125 C-8.94458984 13.75869141 -8.95167969 12.70488281 -8.95898438 11.61914062 C-8.89490817 3.89549335 -8.89490817 3.89549335 -7.13500977 1.57592773 C-4.7613833 -0.16751987 -2.91081067 -0.02347428 0 0 Z " fill="#2E4057" transform="translate(90.5,43.625)"/>
<path d="M0 0 C5.94 0 11.88 0 18 0 C18 1.98 18 3.96 18 6 C16.02 6 14.04 6 12 6 C12 15.24 12 24.48 12 34 C10.02 34 8.04 34 6 34 C6 24.76 6 15.52 6 6 C4.02 6 2.04 6 0 6 C0 4.02 0 2.04 0 0 Z " fill="#314459" transform="translate(238,40)"/>
<path d="M0 0 C5.94 0 11.88 0 18 0 C18 1.65 18 3.3 18 5 C16.02 5 14.04 5 12 5 C12 13.58 12 22.16 12 31 C10.02 31 8.04 31 6 31 C6 22.75 6 14.5 6 6 C4.02 6 2.04 6 0 6 C0 4.02 0 2.04 0 0 Z " fill="#283B53" transform="translate(237,405)"/>
<path d="M0 0 C5.94 0 11.88 0 18 0 C18 1.98 18 3.96 18 6 C16.02 6 14.04 6 12 6 C12 13.92 12 21.84 12 30 C10.02 30 8.04 30 6 30 C6 22.08 6 14.16 6 6 C4.02 6 2.04 6 0 6 C0 4.02 0 2.04 0 0 Z " fill="#2F4157" transform="translate(214,44)"/>
<path d="M0 0 C5.94 0 11.88 0 18 0 C18 1.98 18 3.96 18 6 C16.02 6 14.04 6 12 6 C12 13.92 12 21.84 12 30 C10.02 30 8.04 30 6 30 C6 22.08 6 14.16 6 6 C4.02 6 2.04 6 0 6 C0 4.02 0 2.04 0 0 Z " fill="#2F4157" transform="translate(62,44)"/>
<path d="M0 0 C0.99 0.33 1.98 0.66 3 1 C2.34 2.32 1.68 3.64 1 5 C2.32 4.34 3.64 3.68 5 3 C5 3.99 5 4.98 5 6 C4.34 6 3.68 6 3 6 C3 11.94 3 17.88 3 24 C4.98 24 6.96 24 9 24 C9 22.35 9 20.7 9 19 C10.65 19 12.3 19 14 19 C14.36739563 26.47037773 14.36739563 26.47037773 12.796875 28.734375 C10.44798007 30.38881404 8.91921197 30.43320419 6.0625 30.4375 C4.78052734 30.46650391 4.78052734 30.46650391 3.47265625 30.49609375 C0.1711518 29.8337066 -0.8887493 28.58920753 -3 26 C-3.50170898 23.48217773 -3.50170898 23.48217773 -3.49609375 20.68359375 C-3.49673828 19.67232422 -3.49738281 18.66105469 -3.49804688 17.61914062 C-3.47806641 16.56919922 -3.45808594 15.51925781 -3.4375 14.4375 C-3.44458984 13.38369141 -3.45167969 12.32988281 -3.45898438 11.24414062 C-3.39449916 3.47119156 -3.39449916 3.47119156 -1.47290039 1.17602539 C-0.98684326 0.78793701 -0.50078613 0.39984863 0 0 Z " fill="#33455B" transform="translate(303,44)"/>
<path d="M0 0 C0.99 0 1.98 0 3 0 C3 0.66 3 1.32 3 2 C6.63 2 10.26 2 14 2 C13.34 3.98 12.68 5.96 12 8 C11.67 7.34 11.34 6.68 11 6 C9.35 6 7.7 6 6 6 C6 8.64 6 11.28 6 14 C6.66 14 7.32 14 8 14 C7.505 15.7325 7.505 15.7325 7 17.5 C5.91598066 21.77500587 5.84298623 25.60361453 6 30 C4.02 30 2.04 30 0 30 C0 20.1 0 10.2 0 0 Z " fill="#31435A" transform="translate(359,44)"/>
<path d="M0 0 C2.97 0 5.94 0 9 0 C8.67386719 0.64066406 8.34773438 1.28132813 8.01171875 1.94140625 C5.5050753 6.90293355 3.12216209 11.86213389 1 17 C2.65 17 4.3 17 6 17 C6 19.31 6 21.62 6 24 C8.97 24 11.94 24 15 24 C15 25.98 15 27.96 15 30 C10.05 30 5.1 30 0 30 C0 20.1 0 10.2 0 0 Z " fill="#293C53" transform="translate(341,44)"/>
<path d="M0 0 C1.98 0 3.96 0 6 0 C6 9.9 6 19.8 6 30 C4.02 30 2.04 30 0 30 C0 20.1 0 10.2 0 0 Z " fill="#293C53" transform="translate(54,44)"/>
<path d="M0 0 C1.98 0 3.96 0 6 0 C5.67 0.99 5.34 1.98 5 3 C3.68 3 2.36 3 1 3 C1.20625 3.928125 1.4125 4.85625 1.625 5.8125 C2 9 2 9 0 12 C0.36276173 15.93761371 1.86771309 19.14824415 3.5625 22.6875 C6 27.79036827 6 27.79036827 6 30 C4.02 30 2.04 30 0 30 C-3.91655978 23.42577466 -6.54527524 17.72637621 -5 10 C-3.60549656 6.48969824 -1.93182454 3.24270548 0 0 Z " fill="#2C3E55" transform="translate(332,44)"/>
<path d="M0 0 C0.63994933 5.17038426 -1.59557823 8.76386999 -3.9375 13.1875 C-4.31068359 13.91130859 -4.68386719 14.63511719 -5.06835938 15.38085938 C-6.03752949 17.25808077 -7.01801365 19.12945096 -8 21 C-8.33 21.66 -8.66 22.32 -9 23 C-10.32 23 -11.64 23 -13 23 C-11.125 17.25 -11.125 17.25 -10 15 C-10.66 15 -11.32 15 -12 15 C-12 12.36 -12 9.72 -12 7 C-10.02 7 -8.04 7 -6 7 C-5.34 5.68 -4.68 4.36 -4 3 C-7.63 3 -11.26 3 -15 3 C-15 2.34 -15 1.68 -15 1 C-9.92928099 0.28832014 -5.11791642 -0.10662326 0 0 Z " fill="#F6F7F8" transform="translate(377,43)"/>
<path d="M0 0 C1.98 0 3.96 0 6 0 C6 5.94 6 11.88 6 18 C4.02 18 2.04 18 0 18 C0 12.06 0 6.12 0 0 Z " fill="#E3E8E1" transform="translate(158,50)"/>
<path d="M0 0 C0.33 0 0.66 0 1 0 C1.05422947 1.4370809 1.09289723 2.87475462 1.125 4.3125 C1.14820313 5.11300781 1.17140625 5.91351563 1.1953125 6.73828125 C1 9 1 9 -1 12 C-0.80463398 14.99199259 -0.80463398 14.99199259 -0.125 18.1875 C0.07867187 19.27417969 0.28234375 20.36085938 0.4921875 21.48046875 C0.65976562 22.31191406 0.82734375 23.14335938 1 24 C-0.98 24 -2.96 24 -5 24 C-6.83838509 19.45810743 -7.11780519 16.75067205 -6 12 C-5.05204682 9.84150273 -4.02878489 7.71469447 -2.9375 5.625 C-2.38964844 4.56539062 -1.84179688 3.50578125 -1.27734375 2.4140625 C-0.85582031 1.61742187 -0.43429687 0.82078125 0 0 Z " fill="#32445A" transform="translate(375,50)"/>
<path d="M0 0 C0 7.26 0 14.52 0 22 C-0.99 22 -1.98 22 -3 22 C-3.33 16.06 -3.66 10.12 -4 4 C-4.66 4.66 -5.32 5.32 -6 6 C-6.99 6 -7.98 6 -9 6 C-8.75 4.125 -8.75 4.125 -8 2 C-5.06004981 -0.02755186 -3.72295997 0 0 0 Z " fill="#FDFDFD" transform="translate(326,44)"/>
<path d="M0 0 C0.33 0 0.66 0 1 0 C1 6.27 1 12.54 1 19 C2.32 19 3.64 19 5 19 C5 21.64 5 24.28 5 27 C3.02 27 1.04 27 -1 27 C-1.02886537 22.68751391 -1.04675255 18.37505238 -1.0625 14.0625 C-1.07087891 12.83080078 -1.07925781 11.59910156 -1.08789062 10.33007812 C-1.09111328 9.16025391 -1.09433594 7.99042969 -1.09765625 6.78515625 C-1.10289307 5.70113525 -1.10812988 4.61711426 -1.11352539 3.50024414 C-1 1 -1 1 0 0 Z " fill="#425367" transform="translate(322,47)"/>
<path d="M0 0 C0 7.26 0 14.52 0 22 C-0.99 22 -1.98 22 -3 22 C-3.33 16.06 -3.66 10.12 -4 4 C-5.98 4.99 -5.98 4.99 -8 6 C-7.6875 4.125 -7.6875 4.125 -7 2 C-4 0 -4 0 0 0 Z " fill="#FDFDFD" transform="translate(311,44)"/>
<path d="M0 0 C2.97 0 5.94 0 9 0 C8.67386719 0.64066406 8.34773438 1.28132813 8.01171875 1.94140625 C5.5050753 6.90293355 3.12216209 11.86213389 1 17 C2.65 17 4.3 17 6 17 C6 17.33 6 17.66 6 18 C4.02 18 2.04 18 0 18 C0 12.06 0 6.12 0 0 Z " fill="#3A4B61" transform="translate(341,44)"/>
<path d="M0 0 C1.98 0 3.96 0 6 0 C6 2.64 6 5.28 6 8 C4.02 8 2.04 8 0 8 C0 5.36 0 2.72 0 0 Z " fill="#94B1BE" transform="translate(162,407)"/>
<path d="M0 0 C4 2 4 2 5 3 C5.04092937 5.33297433 5.04241723 7.66705225 5 10 C3.35 10 1.7 10 0 10 C0 6.7 0 3.4 0 0 Z " fill="#283B53" transform="translate(312,44)"/>
<path d="M0 0 C0.66 0 1.32 0 2 0 C2 5.28 2 10.56 2 16 C2.99 16 3.98 16 5 16 C5 16.66 5 17.32 5 18 C3.35 18 1.7 18 0 18 C0 12.06 0 6.12 0 0 Z " fill="#F1F4EC" transform="translate(306,50)"/>
<path d="M0 0 C1.65 0 3.3 0 5 0 C5 2.64 5 5.28 5 8 C3.35 8 1.7 8 0 8 C0 5.36 0 2.72 0 0 Z " fill="#263951" transform="translate(322,66)"/>
<path d="M0 0 C1.35015859 4.05047576 0.62084998 6.7920168 0 11 C-1.98 11 -3.96 11 -6 11 C-6 10.01 -6 9.02 -6 8 C-5.34 8 -4.68 8 -4 8 C-3.71125 7.05125 -3.4225 6.1025 -3.125 5.125 C-2 2 -2 2 0 0 Z " fill="#A6AFB3" transform="translate(352,47)"/>
<path d="M0 0 C1.65 0 3.3 0 5 0 C5 2.64 5 5.28 5 8 C3.35 8 1.7 8 0 8 C0 5.36 0 2.72 0 0 Z " fill="#E3E8E1" transform="translate(264,50)"/>
<path d="M0 0 C1.65 0 3.3 0 5 0 C5 2.64 5 5.28 5 8 C3.35 8 1.7 8 0 8 C0 5.36 0 2.72 0 0 Z " fill="#E7ECE4" transform="translate(41,46)"/>
<path d="M0 0 C1.65 0 3.3 0 5 0 C6 3 6 3 4.5625 6.1875 C3.7890625 7.5796875 3.7890625 7.5796875 3 9 C2.01 8.67 1.02 8.34 0 8 C0 5.36 0 2.72 0 0 Z " fill="#E5EAE3" transform="translate(365,50)"/>
<path d="M0 0 C1.98 0 3.96 0 6 0 C6 1.98 6 3.96 6 6 C4.02 6 2.04 6 0 6 C0 4.02 0 2.04 0 0 Z " fill="#E8ECE5" transform="translate(284,50)"/>
<path d="M0 0 C2.31 0 4.62 0 7 0 C8.125 5.625 8.125 5.625 7 9 C6.401875 8.071875 5.80375 7.14375 5.1875 6.1875 C3.54727155 3.79745282 2.1281083 1.91529747 0 0 Z " fill="#9BB7C4" transform="translate(139,209)"/>
<path d="M0 0 C0.33 0 0.66 0 1 0 C1 2.31 1 4.62 1 7 C-1.31 7 -3.62 7 -6 7 C-5.02433888 5.83040013 -4.044375 4.66438823 -3.0625 3.5 C-2.51722656 2.8503125 -1.97195312 2.200625 -1.41015625 1.53125 C-0.71212891 0.77328125 -0.71212891 0.77328125 0 0 Z " fill="#98B6C4" transform="translate(145,312)"/>
<path d="M0 0 C1.16959987 0.97566112 2.33561177 1.955625 3.5 2.9375 C4.1496875 3.48277344 4.799375 4.02804687 5.46875 4.58984375 C5.9740625 5.05519531 6.479375 5.52054687 7 6 C7 6.33 7 6.66 7 7 C4.69 7 2.38 7 0 7 C0 4.69 0 2.38 0 0 Z " fill="#98B6C4" transform="translate(26,312)"/>
<path d="M0 0 C2.31 0 4.62 0 7 0 C6.02433888 1.16959987 5.044375 2.33561177 4.0625 3.5 C3.51722656 4.1496875 2.97195312 4.799375 2.41015625 5.46875 C1.94480469 5.9740625 1.47945312 6.479375 1 7 C0.67 7 0.34 7 0 7 C0 4.69 0 2.38 0 0 Z " fill="#98B6C4" transform="translate(26,209)"/>
<path d="M0 0 C1.98 0.495 1.98 0.495 4 1 C3.67 2.32 3.34 3.64 3 5 C1.68 5 0.36 5 -1 5 C-0.67 3.35 -0.34 1.7 0 0 Z " fill="#FAFBFA" transform="translate(334,58)"/>
</svg>
