<?xml version="1.0" standalone="no"?>
<!DOCTYPE svg PUBLIC "-//W3C//DTD SVG 20010904//EN"
 "http://www.w3.org/TR/2001/REC-SVG-20010904/DTD/svg10.dtd">
<svg version="1.0" xmlns="http://www.w3.org/2000/svg"
 width="143.000000pt" height="143.000000pt" viewBox="0 0 143.000000 143.000000"
 preserveAspectRatio="xMidYMid meet">

<g transform="translate(0.000000,143.000000) scale(0.100000,-0.100000)"
fill="#000000" stroke="none">
<path d="M578 1269 c-10 -5 -18 -20 -18 -33 0 -12 -10 -32 -23 -44 -23 -21
-23 -21 -52 -2 -17 11 -33 20 -37 20 -5 0 -8 -31 -8 -69 0 -53 4 -74 20 -94
17 -22 19 -34 14 -100 -6 -68 -10 -77 -36 -97 -16 -11 -26 -25 -23 -30 9 -15
117 -70 137 -70 10 0 18 -4 18 -10 0 -5 13 -16 30 -25 l29 -15 -24 -35 c-13
-20 -25 -39 -27 -44 -2 -5 -13 -12 -26 -15 -22 -7 -21 -5 9 45 31 50 32 52 14
65 -10 8 -29 14 -41 14 -12 0 -38 7 -59 16 -34 14 -39 14 -56 -2 -18 -16 -19
-16 -19 9 0 31 -16 43 -34 28 -7 -6 -21 -9 -30 -5 -10 4 -26 -3 -41 -17 -28
-27 -32 -47 -10 -55 14 -6 13 -8 -2 -19 -17 -13 -17 -14 0 -20 9 -4 31 -5 47
-3 29 4 30 4 24 -29 -13 -69 -14 -67 54 -77 51 -7 62 -12 62 -27 0 -14 -7 -19
-30 -19 -125 0 -166 -156 -51 -195 l31 -10 -61 -50 c-76 -63 -78 -88 -6 -91
42 -2 50 1 64 24 20 32 94 112 104 112 4 0 9 -12 11 -27 7 -61 117 -95 171
-53 l26 21 3 -63 c3 -60 4 -63 30 -65 15 -1 33 6 44 18 18 20 18 21 -3 37 -20
16 -21 21 -11 76 9 53 9 61 -8 73 -17 13 -17 15 10 41 l27 27 22 -26 c31 -37
58 -49 112 -49 72 0 106 20 157 92 58 80 63 85 124 100 60 16 67 29 22 45
l-33 11 35 4 c19 1 34 7 34 13 -1 5 -27 23 -59 39 -53 27 -62 29 -106 19 -27
-5 -49 -7 -49 -4 0 3 11 23 24 44 20 33 25 36 36 22 20 -24 106 -15 96 10 -2
7 1 18 7 24 8 8 8 14 -1 23 -9 9 -15 9 -24 0 -19 -19 -29 -14 -16 8 20 32 -2
45 -47 26 -21 -9 -48 -16 -61 -16 -12 0 -39 -10 -59 -21 -31 -19 -45 -20 -109
-14 -59 5 -73 10 -72 23 0 8 -9 18 -22 21 -22 6 -21 7 10 32 18 14 47 33 63
42 31 16 85 67 71 67 -5 0 -3 7 4 15 13 16 6 35 -15 35 -21 0 -71 64 -90 116
-9 27 -21 61 -27 75 -5 14 -29 48 -54 75 l-44 49 -29 -33 c-22 -26 -34 -32
-50 -27 -12 3 -21 13 -21 20 0 14 -30 35 -47 35 -4 0 -16 -5 -25 -11z m50 -8
c8 -4 12 -19 10 -32 -2 -19 -9 -24 -33 -24 -24 0 -31 5 -33 24 -4 23 11 41 33
41 6 0 16 -4 23 -9z m177 -47 c19 -26 40 -65 46 -88 6 -23 18 -54 26 -71 19
-38 73 -95 90 -95 15 0 17 -16 3 -25 -6 -4 -8 -10 -5 -14 5 -10 -24 -37 -69
-66 -18 -11 -54 -34 -79 -51 -90 -61 -241 -69 -329 -19 -24 14 -36 25 -27 25
26 0 42 25 26 38 -10 9 -11 28 -6 82 11 102 15 110 52 110 51 0 102 18 127 45
13 14 29 25 37 25 9 0 13 14 13 46 0 44 29 104 50 104 5 0 25 -21 45 -46z
m-125 -50 c0 -9 -167 -84 -189 -84 -22 0 -28 -14 -11 -25 6 -3 10 -12 10 -18
-1 -7 -10 -1 -20 12 -14 16 -19 36 -18 65 l1 41 4 -37 4 -37 52 16 c29 8 77
28 107 44 62 32 60 31 60 23z m-180 -18 c0 -2 -8 -10 -17 -17 -16 -13 -17 -12
-4 4 13 16 21 21 21 13z m700 -369 c0 -7 -5 -18 -12 -25 -9 -9 -7 -13 6 -18
11 -4 21 -1 26 7 5 7 12 10 16 6 4 -3 1 -13 -6 -22 -7 -8 -9 -15 -4 -15 5 0 2
-5 -6 -10 -22 -14 -61 -12 -80 5 -13 12 -22 12 -53 1 -20 -7 -40 -15 -43 -19
-16 -15 -23 -6 -12 13 12 19 138 90 159 90 5 0 9 -6 9 -13z m-810 -37 c0 -34
-4 -42 -30 -55 -16 -8 -42 -15 -57 -15 l-28 1 24 13 24 14 -21 6 c-12 4 -22
14 -22 23 0 12 6 14 28 8 22 -5 25 -4 15 6 -21 22 -15 31 17 24 19 -4 30 -3
30 4 0 6 5 11 10 11 6 0 10 -18 10 -40z m455 10 c0 -11 19 -17 77 -24 69 -8
80 -7 113 13 45 26 71 28 30 1 -44 -29 -65 -75 -65 -142 0 -64 -7 -88 -25 -88
-19 0 -144 68 -186 101 -39 31 -55 37 -42 17 4 -7 8 -23 8 -36 1 -26 8 -26
-100 4 -33 9 -61 18 -63 19 -7 6 21 50 52 84 17 19 26 31 19 27 -6 -3 -15 -1
-19 5 -5 8 -1 10 13 7 12 -3 45 3 74 13 63 22 114 21 114 -1z m-363 -16 c24
-9 56 -22 72 -29 l30 -13 -33 -31 c-18 -17 -58 -38 -89 -48 -31 -9 -64 -23
-73 -30 -27 -23 -39 -16 -32 20 4 17 7 42 8 54 0 12 2 20 4 18 2 -3 17 14 32
35 16 22 31 40 34 40 2 0 24 -7 47 -16z m757 -131 l56 -28 -33 -5 c-42 -6 -42
-22 0 -34 l33 -9 -52 -12 c-69 -16 -92 -32 -132 -96 -50 -80 -73 -94 -152 -94
-61 0 -69 3 -107 35 -28 24 -41 43 -41 63 -1 17 4 27 13 27 8 0 25 13 38 28
22 27 28 28 84 24 59 -4 62 -3 97 33 20 20 37 46 39 58 3 21 30 34 77 36 13 1
49 -11 80 -26z m-642 -16 c-10 -7 -41 -26 -68 -44 -27 -17 -49 -28 -49 -23 0
10 110 80 125 79 5 0 2 -6 -8 -12z m-78 0 c-2 -1 -13 -9 -24 -17 -19 -14 -19
-14 -6 3 7 9 18 17 24 17 6 0 8 -1 6 -3z m159 -17 c-32 -9 -101 -50 -106 -62
-2 -4 -8 -8 -13 -8 -18 0 3 22 49 51 25 16 57 29 71 28 l26 -1 -27 -8z m28
-40 c-21 -11 -44 -24 -52 -31 -7 -6 -18 -9 -25 -7 -13 4 80 58 101 57 8 0 -2
-8 -24 -19z m166 -22 c-6 -22 -34 -48 -52 -48 -30 0 -40 22 -25 57 14 32 14
32 47 18 18 -8 32 -20 30 -27z m-116 -3 c-11 -8 -27 -15 -35 -14 -9 0 -2 7 14
14 39 18 45 18 21 0z m-276 -231 c-29 -27 -58 -61 -66 -76 -8 -15 -21 -28 -29
-28 -18 0 -20 40 -2 60 10 12 9 12 -5 1 -9 -7 -18 -22 -20 -33 -4 -30 -28 -35
-28 -7 0 35 94 119 134 119 17 0 38 4 46 10 32 20 19 -1 -30 -46z m310 19 c-1
-10 -5 -38 -9 -62 -10 -50 -5 -71 15 -71 18 0 18 -14 -1 -30 -12 -10 -18 -10
-32 1 -11 10 -14 10 -9 2 4 -7 2 -13 -3 -13 -17 0 -13 126 4 160 17 33 35 40
35 13z m-468 -100 c-3 -16 -7 -22 -10 -15 -4 13 4 42 11 42 2 0 2 -12 -1 -27z"/>
<path d="M740 1211 c-15 -29 -12 -74 6 -97 15 -18 15 -18 5 3 -14 28 -14 69
-1 94 6 10 8 19 6 19 -3 0 -10 -9 -16 -19z"/>
<path d="M756 1161 c-4 -5 3 -7 14 -4 23 6 26 13 6 13 -8 0 -17 -4 -20 -9z"/>
<path d="M770 1140 c-11 -8 -7 -9 15 -4 37 8 45 14 19 14 -10 0 -26 -5 -34
-10z"/>
<path d="M786 1121 c-4 -5 3 -7 14 -4 23 6 26 13 6 13 -8 0 -17 -4 -20 -9z"/>
<path d="M646 1019 c-14 -11 -26 -26 -26 -32 0 -7 5 -4 11 6 6 11 25 25 43 33
17 7 24 13 15 14 -9 0 -28 -9 -43 -21z"/>
<path d="M510 1003 c8 -3 24 -13 35 -22 20 -16 20 -16 1 7 -11 12 -26 22 -35
21 -14 0 -14 -1 -1 -6z"/>
<path d="M675 939 c-34 -30 -44 -49 -26 -49 11 0 90 63 90 73 2 17 -31 5 -64
-24z"/>
<path d="M490 932 c0 -13 49 -56 56 -49 4 4 1 14 -6 22 -17 21 -50 38 -50 27z"/>
</g>
</svg>
