<?xml version="1.0" standalone="no"?>
<!DOCTYPE svg PUBLIC "-//W3C//DTD SVG 20010904//EN"
 "http://www.w3.org/TR/2001/REC-SVG-20010904/DTD/svg10.dtd">
<svg version="1.0" xmlns="http://www.w3.org/2000/svg"
 width="50.000000pt" height="50.000000pt" viewBox="0 0 50.000000 50.000000"
 preserveAspectRatio="xMidYMid meet">

<g transform="translate(0.000000,50.000000) scale(0.100000,-0.100000)"
fill="#000000" stroke="none">
<path d="M311 424 c-12 -15 -21 -36 -21 -48 0 -20 -5 -21 -88 -21 -48 -1 -104
-6 -124 -14 l-38 -13 0 -148 0 -148 37 -14 c49 -17 217 -17 266 0 23 8 37 20
37 30 0 9 13 24 29 34 20 11 34 30 42 57 17 56 -1 116 -42 139 -16 10 -29 25
-29 34 0 10 -10 20 -23 24 -19 4 -23 11 -19 29 5 29 27 49 41 40 6 -3 14 -20
19 -38 5 -18 16 -33 25 -35 13 -3 17 4 17 31 0 49 -33 87 -75 87 -24 0 -39 -7
-54 -26z m36 -20 c-2 -2 -12 -2 -21 2 -13 5 -14 9 -5 21 11 12 14 12 22 -2 5
-9 7 -19 4 -21z m33 26 c0 -5 -4 -10 -10 -10 -5 0 -10 5 -10 10 0 6 5 10 10
10 6 0 10 -4 10 -10z m35 -9 c3 -5 1 -12 -5 -16 -5 -3 -10 1 -10 9 0 18 6 21
15 7z m-85 -41 c0 -5 -7 -10 -15 -10 -8 0 -15 5 -15 10 0 6 7 10 15 10 8 0 15
-4 15 -10z m100 -10 c0 -5 -4 -10 -10 -10 -5 0 -10 5 -10 10 0 6 5 10 10 10 6
0 10 -4 10 -10z m-150 -45 c0 -26 13 -31 59 -18 23 6 24 7 5 15 -16 7 -16 7
-1 5 28 -3 22 -21 -12 -31 l-31 -9 0 -118 c0 -67 4 -119 9 -119 5 0 22 5 36
10 23 9 26 8 23 -7 -7 -39 -210 -56 -291 -24 l-28 11 3 142 c2 115 6 142 18
145 12 4 13 3 1 -5 -10 -7 0 -13 38 -21 60 -13 175 -15 167 -3 -3 5 -33 8 -68
7 -35 -1 -72 2 -83 6 -19 7 -19 8 3 8 12 1 22 5 22 9 0 5 -15 7 -32 6 l-33 -3
30 8 c17 5 60 9 98 10 65 1 67 0 67 -24z m40 15 c0 -5 -7 -10 -15 -10 -8 0
-15 5 -15 10 0 6 7 10 15 10 8 0 15 -4 15 -10z m96 -76 c18 -14 18 -14 -6 -3
-31 14 -36 19 -24 19 6 0 19 -7 30 -16z m-11 -57 c9 -36 -1 -101 -16 -105 -11
-3 -10 -1 1 7 10 7 11 11 3 11 -9 0 -13 18 -13 55 0 55 15 74 25 32z m42 -29
c-3 -7 -5 -2 -5 12 0 14 2 19 5 13 2 -7 2 -19 0 -25z"/>
<path d="M284 170 c0 -69 1 -97 3 -63 2 35 2 91 0 125 -2 35 -3 7 -3 -62z"/>
<path d="M264 165 c0 -66 1 -92 3 -57 2 34 2 88 0 120 -2 31 -3 3 -3 -63z"/>
</g>
</svg>
