<?xml version="1.0" standalone="no"?>
<!DOCTYPE svg PUBLIC "-//W3C//DTD SVG 20010904//EN"
 "http://www.w3.org/TR/2001/REC-SVG-20010904/DTD/svg10.dtd">
<svg version="1.0" xmlns="http://www.w3.org/2000/svg"
 width="1024.000000pt" height="1434.000000pt" viewBox="0 0 1024.000000 1434.000000"
 preserveAspectRatio="xMidYMid meet">

<g transform="translate(0.000000,1434.000000) scale(0.100000,-0.100000)"
fill="#000000" stroke="none">
<path d="M4911 12824 c-40 -45 -250 -463 -284 -564 -14 -41 -37 -118 -52 -170
-28 -101 -59 -163 -162 -330 -72 -115 -91 -140 -104 -137 -5 1 -26 -24 -47
-56 l-39 -58 -11 73 c-12 78 -20 148 -26 214 -2 23 -9 51 -16 63 -9 18 -14 20
-26 10 -28 -23 -63 -94 -86 -174 -19 -68 -23 -102 -22 -230 l1 -150 -19 55
c-10 30 -21 82 -25 115 -9 92 -22 101 -23 15 0 -80 25 -191 61 -264 12 -26 14
-36 5 -26 -38 39 -86 240 -86 362 0 113 101 367 185 466 40 46 44 62 16 62
-43 0 -158 -170 -221 -329 -127 -316 -133 -630 -15 -878 19 -40 29 -73 23 -73
-6 0 -2 -12 7 -27 10 -15 14 -28 8 -30 -6 -2 8 -37 29 -78 22 -41 36 -80 32
-86 -9 -15 -74 88 -115 182 -18 41 -35 77 -39 82 -24 29 3 -327 32 -422 26
-83 66 -164 113 -225 20 -26 35 -52 33 -57 -2 -6 -21 3 -43 18 -62 45 -74 48
-27 8 23 -20 42 -41 42 -46 0 -5 -28 5 -62 22 -35 17 -57 25 -50 18 6 -7 12
-25 12 -40 0 -41 47 -215 73 -272 31 -67 99 -141 176 -192 33 -22 61 -42 61
-45 0 -3 -22 -6 -49 -7 -55 -2 -129 -33 -158 -65 l-18 -21 73 5 c67 5 95 -3
55 -16 -28 -9 -107 -87 -132 -131 -22 -38 -64 -205 -52 -205 4 0 35 29 71 65
63 63 98 79 61 27 -28 -40 -71 -129 -71 -147 0 -9 -29 -44 -64 -78 -99 -96
-169 -201 -195 -292 -22 -75 -31 -226 -16 -262 13 -31 12 -36 -13 -78 -22 -35
-34 -46 -62 -50 -204 -35 -303 -67 -397 -132 -36 -24 -67 -42 -70 -39 -9 9 96
144 146 187 l46 40 -55 -21 c-287 -111 -393 -202 -525 -449 -67 -126 -92 -195
-110 -310 -7 -47 -14 -72 -14 -56 -2 51 -13 105 -22 105 -18 0 -28 -42 -53
-213 -24 -163 -26 -188 -16 -305 6 -70 15 -143 20 -162 5 -18 6 -29 1 -24 -5
5 -11 18 -13 28 -3 21 -48 33 -48 13 0 -8 -3 -9 -8 -1 -9 14 -103 24 -165 17
-56 -7 -55 -3 -27 -146 17 -82 35 -131 94 -252 40 -82 103 -203 139 -267 69
-122 75 -134 55 -122 -7 4 -8 3 -4 -5 4 -6 11 -9 16 -6 4 3 23 -19 41 -48 18
-28 49 -71 68 -95 35 -44 224 -202 241 -202 5 0 29 -13 53 -30 24 -16 88 -51
143 -77 55 -27 91 -49 81 -51 -15 -3 -87 14 -144 35 -35 12 2 -16 68 -53 35
-20 55 -33 44 -29 -25 8 -199 55 -204 55 -3 0 6 -12 20 -26 37 -40 133 -100
196 -124 93 -35 322 -92 418 -105 l90 -11 -43 -23 c-26 -13 -40 -26 -36 -33 4
-7 3 -8 -4 -4 -15 9 -64 -23 -55 -37 3 -5 2 -7 -4 -4 -6 4 -19 0 -29 -8 -29
-22 -1 -18 68 10 34 14 63 25 66 25 2 0 -7 -15 -20 -32 -35 -47 -45 -69 -14
-31 15 18 41 42 58 54 27 19 24 13 -21 -47 -29 -38 -68 -98 -88 -134 l-35 -65
33 31 c82 74 249 188 260 177 5 -5 -5 -55 -26 -118 -19 -61 -35 -114 -35 -119
0 -5 34 36 76 93 42 56 78 100 80 98 2 -1 -6 -36 -16 -77 -55 -214 -78 -493
-59 -690 16 -156 17 -204 4 -208 -5 -1 -11 15 -13 35 -6 70 -20 56 -27 -28 -6
-67 -15 -99 -50 -173 -24 -50 -77 -165 -119 -254 -99 -217 -226 -438 -291
-508 -5 -6 -23 -28 -40 -49 -72 -92 -197 -220 -248 -253 -12 -8 -43 -37 -68
-64 -57 -59 -63 -81 -89 -321 -26 -233 -33 -274 -76 -432 -51 -190 -63 -223
-104 -300 -64 -121 -68 -128 -84 -197 -21 -89 -20 -112 4 -60 10 23 21 42 24
42 3 0 3 -35 -1 -79 -3 -43 -2 -91 2 -107 l7 -29 17 45 c48 123 208 338 282
375 45 23 46 24 75 5 26 -18 29 -18 35 -3 4 13 19 3 67 -46 60 -61 62 -62 62
-34 0 27 -18 102 -35 148 -7 20 58 -44 83 -81 11 -16 12 -13 8 29 -3 42 -1 47
13 42 9 -4 34 -11 56 -16 22 -5 75 -17 118 -27 81 -19 96 -15 47 15 -17 9 -30
21 -30 24 0 9 48 -4 78 -20 28 -15 52 -14 27 1 -19 11 -17 13 15 19 19 4 58
14 85 21 44 13 48 16 30 25 -11 6 -39 13 -61 16 -86 10 -122 59 -154 205 -44
205 -44 406 0 524 43 115 204 307 350 417 125 95 474 320 583 376 56 29 149
70 207 90 190 67 279 117 471 264 153 118 317 315 395 474 24 49 64 155 91
236 l48 149 95 4 c52 3 106 10 118 17 21 11 29 7 99 -56 186 -168 354 -294
432 -324 36 -13 47 -23 57 -53 15 -41 1 -59 -21 -30 -10 13 -6 -13 10 -75 14
-51 28 -97 31 -102 12 -20 -57 -119 -148 -215 -54 -55 -95 -103 -93 -106 3 -3
-6 -30 -20 -62 -14 -31 -25 -67 -24 -79 l0 -22 11 23 c13 26 32 30 24 5 -3
-10 -10 -88 -16 -173 -11 -168 -22 -244 -46 -330 -28 -98 -115 -313 -166 -410
-44 -82 -51 -105 -56 -166 -8 -123 28 -186 147 -251 76 -42 183 -125 227 -175
17 -19 74 -95 127 -169 53 -74 126 -172 162 -218 36 -47 65 -88 65 -91 0 -3
-5 -11 -12 -18 -8 -8 -9 -12 -1 -12 18 0 20 -30 6 -95 -17 -82 -17 -82 17 -50
44 42 48 23 6 -35 -20 -27 -34 -50 -31 -50 25 0 126 50 156 77 22 20 39 32 39
27 0 -4 16 23 35 62 19 38 35 74 35 81 0 7 12 1 26 -12 15 -14 31 -25 35 -25
14 0 10 24 -7 49 l-16 23 30 -16 c52 -27 184 -77 190 -72 3 3 -1 12 -7 20 -19
23 -90 306 -77 306 3 0 12 -8 22 -17 18 -18 114 -66 114 -57 0 3 -9 17 -20 31
-11 14 -20 28 -20 32 0 3 29 7 65 8 77 3 125 22 60 24 -22 0 -51 4 -64 8 -23
6 -22 7 15 19 21 6 74 41 116 76 43 36 85 69 95 75 16 9 16 12 3 21 -8 5 -26
8 -40 5 -14 -3 -51 -7 -83 -10 -37 -4 -69 -13 -87 -27 -46 -33 -117 -35 -183
-5 -104 47 -286 183 -440 327 -116 109 -139 168 -112 287 20 88 98 243 183
363 104 148 588 623 737 723 48 31 109 94 118 120 6 16 2 17 -28 11 -19 -3
-35 -2 -35 3 0 5 21 29 46 53 61 59 99 138 129 263 36 154 49 291 41 457 -12
265 -10 251 -83 470 -43 131 -159 347 -273 510 -16 23 -14 24 -290 -127 -236
-129 -519 -376 -676 -588 -41 -55 -85 -112 -98 -127 -13 -15 -21 -30 -18 -32
3 -3 -3 -8 -12 -12 -9 -3 -13 -11 -9 -17 4 -6 1 -7 -7 -2 -11 7 -10 10 1 19 8
6 15 18 17 26 10 43 169 247 282 361 178 180 371 326 580 441 36 19 91 50 123
67 32 18 65 30 72 27 12 -4 -12 33 -108 164 -17 24 -48 61 -67 81 -86 90 -148
157 -177 194 -17 22 -51 65 -75 95 -24 30 -71 91 -103 134 -32 43 -78 91 -100
105 -45 29 -203 87 -211 78 -3 -3 -1 -15 6 -26 11 -21 -3 -31 -15 -11 -13 21
-173 115 -182 107 -3 -3 9 -13 27 -22 37 -19 107 -81 121 -106 10 -19 21 -71
44 -204 7 -44 20 -108 28 -142 9 -35 13 -63 11 -63 -3 0 -33 24 -68 53 -70 57
-187 130 -195 121 -3 -3 3 -10 14 -16 11 -6 40 -32 65 -57 51 -52 79 -118 86
-207 l6 -59 -25 51 c-24 49 -47 76 -47 55 0 -5 4 -12 9 -15 28 -18 66 -376 40
-376 -5 0 -34 50 -64 110 -30 61 -57 110 -59 110 -2 0 3 -21 12 -47 19 -59 23
-334 5 -373 -8 -17 -12 -19 -12 -8 -1 21 -65 185 -76 195 -4 5 -5 0 -2 -9 31
-87 0 -305 -57 -403 l-29 -49 -29 34 c-15 19 -28 37 -28 40 0 3 -32 32 -71 64
-39 32 -84 79 -100 105 -40 64 -37 39 4 -29 18 -30 36 -63 40 -73 21 -55 -133
87 -166 154 -26 51 -43 51 -32 -1 4 -16 2 -37 -3 -46 -12 -21 -45 81 -69 214
-19 105 -32 108 -43 10 -3 -35 -9 -56 -12 -48 -46 121 -89 237 -125 335 -75
203 -89 219 -320 372 -82 54 -174 118 -205 143 -52 41 -55 46 -35 52 13 3 -6
6 -44 7 -80 1 -100 18 -106 88 -7 83 60 167 132 167 25 0 37 5 41 18 4 12 15
18 37 18 36 0 26 16 -13 22 -58 7 -52 124 10 189 32 34 35 39 16 37 -19 -3
-21 3 -27 72 -6 74 -22 119 -57 162 -47 58 -59 68 -29 23 19 -27 42 -65 51
-82 21 -41 34 -153 18 -153 -7 0 -15 12 -18 28 -14 57 -47 124 -55 110 -5 -7
-9 -17 -9 -23 0 -5 5 -3 10 5 6 9 10 10 10 3 0 -25 -19 -22 -48 8 l-30 31 1
-29 c1 -15 0 -57 -2 -93 -2 -47 -5 -59 -11 -45 -6 14 -9 16 -9 4 -1 -8 -7 -23
-13 -32 -11 -15 -13 -8 -11 40 l2 58 -9 -53 c-8 -51 -31 -90 -115 -187 -23
-27 -25 -27 -14 -5 7 14 26 42 44 62 31 37 55 96 55 134 -1 11 -9 -5 -19 -34
-20 -59 -59 -109 -47 -62 l6 25 -11 -25 c-24 -50 -73 -130 -81 -130 -5 0 -6
24 -4 53 4 35 3 44 -3 27 l-8 -25 -11 25 c-10 22 -11 20 -6 -15 3 -22 8 -48
11 -57 3 -12 -1 -18 -11 -18 -12 0 -16 11 -17 48 0 26 -4 65 -8 87 l-9 40 -1
-40 c-1 -22 -4 -50 -7 -62 -6 -22 -7 -22 -36 7 -27 27 -29 33 -19 60 6 18 6
30 0 30 -5 0 -9 -4 -9 -10 0 -5 -7 -10 -15 -10 -8 0 -15 5 -15 12 0 6 -2 9 -5
6 -10 -9 16 -108 33 -125 9 -8 17 -22 18 -29 4 -27 -54 8 -133 82 -76 69 -81
77 -73 100 6 14 10 60 10 102 0 53 3 72 10 62 8 -12 10 -10 10 10 0 44 -20
154 -35 193 -8 20 -11 37 -7 37 5 0 32 -20 61 -45 56 -48 71 -52 51 -15 -9 17
-9 21 0 15 17 -10 6 24 -31 100 -35 71 -23 62 21 -15 l31 -55 -6 39 c-4 22
-24 75 -46 118 -22 43 -36 78 -32 78 5 0 26 -11 48 -25 55 -34 60 -31 31 18
-14 23 -30 55 -35 70 -16 41 5 24 30 -25 25 -50 36 -44 14 8 -19 46 -15 59 22
67 15 3 35 8 44 12 10 4 20 -5 31 -28 9 -18 38 -63 66 -99 28 -37 53 -76 57
-88 4 -14 12 -19 22 -16 8 3 27 -2 41 -13 15 -10 74 -42 132 -71 58 -28 112
-58 121 -66 8 -7 23 -40 33 -73 10 -32 28 -69 42 -82 32 -30 30 -21 -12 62
-19 39 -33 73 -31 76 3 2 37 -12 75 -31 83 -42 123 -86 138 -153 10 -44 13
-48 39 -46 16 1 48 16 71 32 23 17 45 27 49 23 5 -4 5 -2 2 4 -8 14 18 38 31
30 5 -3 17 3 27 14 10 11 32 20 49 21 30 1 30 1 6 8 -19 6 -32 2 -55 -18 -16
-14 8 14 55 62 46 48 87 87 89 87 3 0 -17 -22 -44 -50 -48 -48 -48 -50 -23
-50 15 0 29 -4 32 -9 4 -5 -9 -6 -29 -1 -20 5 -33 4 -29 -1 3 -5 17 -9 32 -9
l26 0 -34 -37 c-18 -21 20 16 86 82 65 66 177 190 247 275 70 85 145 173 165
196 42 46 170 114 213 114 19 0 81 -32 181 -95 151 -95 168 -104 168 -85 0 5
13 39 30 74 16 36 32 76 36 90 8 35 21 43 95 61 151 35 360 4 468 -70 28 -19
51 -31 51 -25 0 6 12 3 27 -7 26 -17 26 -17 21 5 -7 27 9 41 19 15 23 -64 109
-157 208 -227 89 -62 89 -62 66 -17 -23 45 -26 55 -11 46 6 -4 22 -29 36 -57
l26 -51 48 127 c27 70 50 130 53 132 7 8 30 -104 24 -120 -11 -29 7 -16 40 27
69 93 112 205 113 293 0 115 -75 386 -167 597 -117 272 -142 406 -123 682 17
247 19 256 87 329 103 110 253 356 253 415 0 18 -17 42 -61 84 l-62 58 12 56
c10 53 14 149 4 111 -3 -14 -15 -18 -54 -18 -54 0 -99 18 -140 56 l-26 25 -31
-70 c-32 -74 -54 -90 -106 -77 -25 6 -44 54 -31 76 4 6 3 39 0 74 l-7 63 -46
-25 c-59 -33 -149 -36 -210 -5 l-41 20 -6 -26 c-11 -51 -25 -273 -19 -298 6
-20 -2 -32 -49 -74 -58 -51 -97 -117 -97 -162 0 -20 25 -53 104 -136 58 -60
109 -119 115 -130 26 -48 37 -455 16 -606 -12 -89 -25 -208 -31 -270 -6 -80
-11 -116 -17 -121 -6 -6 -120 71 -139 95 -11 13 -29 21 -48 21 -16 0 -30 4
-30 8 0 8 -102 32 -140 34 -8 1 -33 13 -55 28 -22 16 -103 63 -180 105 -77 43
-174 104 -217 136 -42 33 -81 59 -86 59 -5 0 -33 25 -61 55 -29 30 -55 55 -58
55 -3 0 -20 10 -37 23 -33 25 -61 38 -86 42 -8 1 -37 10 -65 19 -54 20 -209
27 -259 13 -26 -7 -28 -6 -23 14 5 20 3 21 -45 17 -121 -12 -249 48 -293 136
-13 27 -22 52 -20 57 3 4 31 -2 63 -13 31 -11 109 -28 172 -38 l114 -18 43 47
c24 25 43 49 43 53 0 8 -66 28 -95 28 -32 0 -215 49 -265 71 -25 11 -56 30
-69 42 -26 24 -121 164 -121 178 0 17 25 8 49 -17 45 -47 212 -117 307 -129
12 -2 31 -8 42 -14 11 -6 68 -23 126 -39 l106 -29 48 95 c42 85 47 102 46 161
0 48 -8 84 -27 130 -15 35 -24 68 -21 73 3 5 22 -13 41 -42 18 -28 38 -48 43
-45 6 4 10 30 10 58 0 29 3 83 7 121 6 68 6 69 44 85 22 9 39 21 39 26 0 6 28
28 62 50 100 64 153 110 204 176 107 140 267 469 227 469 -5 0 -50 -23 -99
-50 -49 -28 -96 -49 -104 -48 -9 2 -37 -30 -72 -82 -58 -87 -143 -189 -151
-180 -2 3 -13 31 -24 64 l-22 58 27 24 c22 19 24 23 9 24 -15 0 -12 8 18 47
59 77 124 219 140 306 17 91 19 136 5 157 -9 12 -15 9 -40 -20 -17 -19 -44
-56 -61 -82 -17 -27 -35 -46 -40 -43 -5 3 -11 -6 -15 -20 -3 -14 -8 -24 -11
-22 -7 8 38 147 48 147 6 0 9 6 7 14 -4 18 106 194 160 256 24 27 40 50 37 50
-4 0 -2 7 5 15 18 22 40 18 40 -7 0 -60 -76 -341 -125 -463 l-7 -20 14 20 c24
31 63 148 97 287 61 248 41 264 -122 98 -119 -122 -121 -121 -54 40 62 151 86
191 154 261 55 57 61 68 48 79 -13 10 -24 5 -70 -34 -100 -86 -189 -206 -246
-333 -35 -76 -78 -108 -249 -184 -154 -68 -144 -64 -136 -51 13 21 -2 13 -49
-28 -40 -34 -53 -40 -93 -40 -26 0 -64 -4 -84 -9 -63 -15 -42 6 40 39 l77 31
-75 -5 c-42 -3 -95 -12 -119 -21 -24 -8 -46 -13 -48 -11 -6 6 63 68 131 119
35 27 43 37 26 32 -33 -10 -118 -53 -153 -77 -50 -35 -48 -14 3 60 28 39 48
72 43 72 -17 0 -174 -137 -204 -178 -31 -42 -49 -53 -49 -29 0 6 10 50 23 97
21 79 22 97 16 275 -4 105 -14 231 -22 280 -8 50 -18 124 -22 164 -13 148 -94
412 -151 491 -58 81 -86 88 -133 34z m144 -72 c52 -80 75 -180 106 -466 16
-149 30 -293 30 -321 1 -85 -78 -364 -155 -545 l-13 -33 -8 49 c-4 27 -16 75
-26 106 -19 52 -19 60 -5 115 34 132 67 359 78 529 16 260 1 302 -88 254 -94
-50 -167 -165 -209 -325 -22 -86 -27 -133 -35 -335 -5 -129 -7 -270 -3 -312
l6 -78 27 53 c15 28 37 78 50 110 22 53 40 73 40 44 0 -23 -38 -150 -69 -232
-17 -44 -53 -118 -81 -165 -46 -80 -49 -83 -48 -50 0 19 4 64 9 100 21 171 21
157 3 135 -15 -18 -16 -18 -10 -2 13 40 19 127 8 127 -7 0 -14 -11 -18 -25 -4
-14 -7 -25 -9 -23 -1 2 1 55 5 118 6 82 4 153 -7 245 -18 160 -12 276 23 403
24 88 79 227 112 282 47 79 147 221 181 258 35 38 43 42 61 32 11 -6 31 -28
45 -48z m-11 -363 c15 -76 -4 -420 -24 -427 -5 -2 -28 -60 -51 -130 l-42 -127
-13 36 c-17 52 -44 214 -44 270 0 67 43 186 100 279 l22 35 -37 -40 c-20 -22
-50 -60 -66 -84 -43 -66 -35 -31 13 62 44 84 101 157 123 157 7 0 15 -14 19
-31z m1246 -1047 c-24 -87 -89 -215 -137 -272 -35 -41 -42 -63 -18 -54 22 9
19 -3 -4 -15 -15 -9 -22 -6 -35 14 -15 24 -15 25 19 41 39 18 38 34 -3 34 -52
0 -53 15 -2 39 27 13 57 32 67 43 18 20 18 20 -17 14 -19 -4 -44 -10 -55 -13
-13 -4 -4 12 29 48 72 80 124 164 149 244 l22 70 3 -58 c2 -36 -5 -86 -18
-135z m-2105 87 c-8 -19 -13 -27 -11 -18 2 9 8 38 13 65 7 42 8 45 11 18 2
-17 -4 -47 -13 -65z m742 49 c-42 -229 -108 -394 -175 -436 l-37 -24 34 36
c40 41 34 47 -12 12 -18 -13 -45 -32 -62 -42 l-30 -19 19 30 c11 17 38 55 60
85 55 73 63 85 46 75 -8 -5 -2 11 12 36 14 24 36 73 49 109 46 128 111 221 96
138z m458 -205 c-2 -15 -2 -23 1 -16 3 7 11 10 19 7 7 -3 20 4 28 16 13 19 16
19 30 5 9 -8 25 -15 36 -15 12 0 21 -4 21 -10 0 -5 3 -9 8 -8 14 3 42 -14 42
-27 0 -7 8 -19 18 -26 16 -13 16 -13 2 6 -17 23 37 -25 83 -74 18 -19 41 -44
52 -55 21 -21 39 -56 29 -56 -2 0 -27 11 -54 25 -28 14 -50 23 -50 21 0 -3 27
-23 59 -45 81 -55 133 -111 119 -128 -8 -10 -6 -13 8 -13 11 0 15 -4 9 -8 -16
-11 -16 -28 0 -65 17 -41 13 -47 -31 -47 -27 0 -38 8 -67 48 -19 26 -42 63
-51 82 -40 87 -191 207 -281 225 -26 5 -24 3 15 -20 25 -14 35 -23 23 -20 -34
9 -19 -20 18 -35 32 -14 102 -88 133 -142 l19 -33 -24 21 c-13 11 -55 43 -94
69 l-70 48 45 -48 c25 -27 0 -7 -55 45 -55 52 -117 116 -138 142 -58 72 -72
60 -42 -38 22 -72 18 -84 -10 -39 l-26 40 6 -35 c7 -35 7 -35 -10 -12 -9 12
-22 41 -29 64 l-12 42 -21 -35 c-12 -19 -41 -50 -65 -69 l-42 -35 26 35 c14
19 31 46 38 60 11 22 8 20 -27 -11 -38 -35 -132 -106 -163 -124 -8 -5 6 16 33
47 48 57 61 81 30 57 -10 -8 3 11 28 41 25 30 65 81 89 113 l43 57 18 -22 c26
-29 84 -34 126 -11 18 10 33 21 33 26 0 5 10 17 23 27 21 18 23 18 39 0 11
-11 15 -29 13 -47z m-958 -295 c49 -57 114 -135 146 -175 85 -105 81 -103 130
-55 65 63 212 169 285 204 49 25 83 34 134 36 38 3 68 0 68 -5 0 -5 16 -28 35
-50 19 -23 35 -44 35 -47 0 -3 -23 -6 -51 -6 -67 0 -163 -25 -217 -57 -24 -13
-87 -67 -140 -118 l-97 -93 18 -29 c10 -15 32 -57 50 -93 28 -59 31 -72 30
-160 -1 -116 -25 -189 -80 -242 -48 -45 -88 -58 -180 -58 -80 0 -97 6 -158 56
-49 40 -157 215 -192 311 -30 83 -40 207 -24 318 13 90 57 279 73 310 10 20
38 55 44 55 1 0 42 -46 91 -102z m1381 -253 c-3 -3 -9 2 -12 12 -6 14 -5 15 5
6 7 -7 10 -15 7 -18z m-476 -74 c7 -6 13 -111 10 -175 -2 -34 -4 -38 -24 -33
-13 4 -43 9 -67 13 l-45 7 22 -28 c13 -16 19 -32 14 -37 -8 -8 -177 33 -213
52 -23 13 -24 38 -4 67 12 17 22 21 44 17 42 -9 45 23 6 57 -16 15 -27 31 -22
35 20 20 145 42 207 37 36 -3 68 -8 72 -12z m2484 -360 c41 -25 68 -83 59
-127 -8 -46 -45 -79 -135 -122 -41 -20 -92 -46 -112 -59 -51 -31 -58 -29 -58
16 0 44 -13 59 -35 41 -13 -11 -41 -12 -185 -8 -8 0 -25 10 -37 21 -19 16 -23
31 -23 75 0 59 24 122 47 122 21 0 49 -17 118 -69 70 -55 110 -81 124 -81 5 0
20 21 33 48 26 54 130 162 156 162 9 0 31 -9 48 -19z m-3608 -47 c12 -8 22
-21 22 -27 0 -7 12 -29 26 -50 l25 -38 -50 25 c-28 15 -54 26 -57 26 -15 0 41
-51 88 -81 26 -17 48 -33 48 -34 0 -2 -17 -1 -37 2 -43 6 -92 47 -119 100 -14
27 -16 37 -6 40 6 3 12 11 12 19 0 9 4 12 10 9 6 -3 7 1 4 9 -8 20 5 20 34 0z
m38 -265 c4 -8 1 -8 -14 0 -12 6 -24 16 -28 22 -4 8 -1 8 14 0 12 -6 24 -16
28 -22z m66 9 c15 -7 29 -20 32 -28 2 -8 15 -31 28 -50 l23 -35 -38 24 c-54
33 -55 21 -2 -19 45 -34 54 -51 17 -31 -27 14 -35 14 -26 -1 5 -8 2 -9 -10 -5
-10 4 -24 7 -32 7 -8 0 -14 7 -14 15 0 8 -5 15 -11 15 -6 0 -8 7 -5 16 3 9 2
12 -5 9 -6 -4 -13 3 -16 14 -4 15 -11 20 -23 16 -9 -3 -22 1 -29 9 -10 11 -5
15 26 18 29 4 47 -1 73 -19 57 -38 58 -26 0 17 -38 29 -48 40 -34 40 11 0 32
-6 46 -12z m110 -28 c9 0 41 -25 71 -55 37 -38 48 -54 33 -49 -33 10 -98 50
-136 84 -33 29 -33 31 -10 26 14 -3 33 -6 42 -6z m-92 -140 c0 -5 -7 -10 -15
-10 -8 0 -15 5 -15 10 0 6 7 10 15 10 8 0 15 -4 15 -10z m158 -38 c37 -6 46
-12 57 -40 14 -32 14 -32 -13 -27 -24 5 -24 4 8 -14 l35 -20 -51 -1 c-91 0
-204 49 -204 89 0 16 99 24 168 13z m189 -49 c22 -23 22 -23 1 -23 -25 0 -84
35 -91 55 -15 36 44 16 90 -32z m-18 -50 c2 -2 -1 -3 -7 -3 -6 0 -24 12 -39
26 l-28 26 35 -23 c19 -12 37 -24 39 -26z m-148 -29 c53 -7 54 -8 21 -16 -27
-7 -44 -4 -88 16 -58 27 -75 44 -21 21 19 -8 58 -17 88 -21z m348 -42 l0 -27
-10 24 c-5 14 -15 32 -22 40 -10 12 -9 13 11 2 15 -8 22 -21 21 -39z m-139 12
c-17 -45 -9 -61 10 -19 l18 40 11 -28 c6 -16 11 -45 11 -65 0 -41 -46 -133
-70 -140 -13 -4 -13 -3 -2 10 10 13 10 18 1 24 -7 4 -18 -1 -26 -11 -14 -20
-16 -15 -13 23 2 29 -8 28 -20 -3 -6 -16 -14 -23 -25 -19 -9 4 -15 1 -15 -9 0
-8 -9 -17 -20 -20 -25 -6 -26 15 -4 94 12 41 27 67 56 95 l40 39 -27 -53 c-14
-30 -24 -56 -21 -59 2 -3 12 10 22 29 19 37 65 96 76 97 4 1 3 -11 -2 -25z
m119 -29 c11 -19 17 -35 12 -35 -12 0 -27 21 -35 48 -10 32 -1 27 23 -13z
m183 -46 c37 -37 68 -70 68 -74 0 -13 -54 25 -82 58 -33 37 -39 14 -7 -27 28
-36 7 -33 -30 5 -22 21 -31 26 -31 15 0 -22 -20 -20 -21 2 0 11 -5 7 -13 -12
l-13 -29 -6 43 c-14 109 35 115 135 19z m-465 -11 c-26 -51 -33 -59 -35 -39
-7 45 18 83 65 100 1 1 -13 -27 -30 -61z m494 -109 c40 -43 36 -51 -16 -31
-43 16 -61 34 -49 53 10 17 36 9 65 -22z m-108 -66 c5 -4 6 10 2 32 -6 38 -5
39 10 20 11 -13 14 -30 10 -50 -5 -28 -40 -75 -57 -75 -10 0 -11 65 -1 111 l6
33 11 -31 c6 -17 15 -35 19 -40z m870 58 c5 -1 7 -6 5 -13 -2 -6 5 -21 16 -32
13 -13 16 -21 8 -24 -8 -2 -7 -9 4 -20 12 -11 13 -17 5 -20 -9 -3 -9 -8 -1
-17 8 -10 5 -17 -12 -29 -17 -12 -24 -13 -30 -3 -5 8 -8 8 -8 1 0 -7 -13 -10
-30 -9 -16 1 -30 -2 -30 -7 0 -5 -4 -7 -9 -3 -14 8 -71 13 -71 6 0 -8 -58 -6
-66 2 -3 3 -14 1 -23 -5 -11 -7 -37 -7 -79 -1 -34 6 -62 7 -62 3 0 -12 -37 -4
-61 13 l-24 16 25 1 c22 1 23 2 9 13 -8 7 -18 19 -21 28 -6 14 -1 15 30 8 80
-19 109 -5 50 23 l-33 15 53 -5 c61 -5 67 6 14 30 l-37 16 33 1 c18 1 67 -6
108 -15 42 -8 79 -13 82 -10 3 3 -2 14 -11 23 -15 17 -11 18 71 16 48 -1 91
-2 95 -2z m-946 -123 c-3 -8 -6 -5 -6 6 -1 11 2 17 5 13 3 -3 4 -12 1 -19z
m371 -6 c20 -13 42 -42 42 -56 0 -3 -12 2 -27 9 -23 12 -31 12 -49 1 -19 -13
-22 -12 -38 15 -19 31 -16 35 16 18 30 -16 36 0 8 22 l-25 20 25 -7 c14 -4 35
-14 48 -22z m-215 -2 c3 -11 1 -18 -4 -14 -5 3 -9 12 -9 20 0 20 7 17 13 -6z
m38 3 c13 -16 12 -17 -3 -4 -10 7 -18 15 -18 17 0 8 8 3 21 -13z m59 -45 c0
-13 -23 -5 -28 10 -2 7 2 10 12 6 9 -3 16 -11 16 -16z m-961 -258 c12 -52 21
-97 21 -101 0 -11 -160 -122 -167 -116 -9 9 18 147 29 147 9 0 4 -57 -9 -104
-4 -14 10 -8 57 25 34 24 64 48 66 54 2 5 -4 45 -14 87 l-17 78 -100 -80 -100
-80 -12 -122 c-6 -68 -9 -126 -5 -129 4 -4 42 -16 85 -27 l77 -21 148 111 c81
61 149 113 151 114 4 4 -33 60 -72 107 l-22 29 -37 -63 c-21 -35 -36 -64 -35
-66 2 -1 20 2 41 8 72 20 70 2 -2 -20 -41 -12 -76 -20 -79 -17 -4 4 105 186
112 186 10 0 116 -154 112 -163 -3 -7 -74 -65 -159 -129 l-155 -117 -88 24
c-49 14 -92 28 -96 32 -11 11 12 255 25 272 15 19 218 182 222 179 1 -2 12
-46 23 -98z m452 76 c-10 -11 -8 -16 8 -21 23 -7 23 -2 -6 -120 -19 -78 -81
-207 -130 -269 -57 -73 -218 -204 -299 -243 -116 -56 -263 -56 -349 -1 -19 13
-35 26 -35 29 0 3 46 6 103 6 87 1 114 6 167 27 97 40 180 99 269 191 87 91
138 179 168 287 18 67 62 124 97 127 15 1 16 -2 7 -13z m1518 -401 c0 -48 -1
-51 -37 -66 -20 -9 -165 -73 -322 -142 l-285 -126 -208 -188 c-224 -202 -285
-255 -274 -236 5 7 74 72 154 145 333 302 318 290 443 345 63 27 206 90 318
139 l203 89 -5 65 c-4 43 -3 58 3 45 5 -11 10 -42 10 -70z m57 -13 c4 -27 12
-37 41 -48 19 -8 33 -17 31 -20 -9 -8 -76 25 -82 41 -3 9 -5 38 -5 63 1 26 3
36 6 22 2 -14 6 -40 9 -58z m-45 -172 l6 -85 -198 -205 c-109 -113 -318 -324
-466 -470 -147 -146 -219 -215 -160 -155 l108 111 -76 88 c-41 48 -75 90 -75
93 0 3 64 67 142 143 l143 137 -45 54 c-24 30 -45 56 -47 58 -4 7 -213 -170
-318 -270 -57 -54 -108 -99 -112 -99 -24 1 402 380 427 380 9 0 100 -107 100
-119 0 -3 -63 -69 -139 -145 l-139 -139 71 -84 c39 -45 74 -83 79 -83 19 0 5
26 -47 83 -30 34 -55 66 -55 72 0 5 65 75 145 155 l146 146 -61 76 c-33 42
-60 80 -60 85 0 11 590 263 610 260 11 -2 16 -22 21 -87z m261 9 c112 -44 205
-83 207 -85 3 -3 -5 -36 -35 -134 -3 -9 8 -22 27 -33 17 -10 29 -20 26 -23 -3
-4 -21 4 -39 17 -18 12 -34 23 -35 24 -1 0 9 32 23 69 13 38 23 70 22 71 -2 2
-97 41 -213 89 -115 47 -204 85 -198 86 7 0 104 -36 215 -81z m83 13 c72 -27
138 -52 148 -56 23 -7 22 -52 -2 -116 l-19 -50 37 -30 36 -30 -38 21 c-20 11
-39 25 -42 29 -3 5 4 36 15 69 11 33 20 66 20 74 0 8 -59 37 -147 72 -82 32
-152 62 -158 68 -12 12 -23 15 150 -51z m-286 -63 c1 -35 7 -41 196 -183 106
-80 197 -152 201 -158 10 -15 -25 10 -231 165 -184 139 -183 138 -183 237 0
55 0 55 9 15 4 -22 8 -56 8 -76z m20 -107 c25 -22 115 -87 199 -147 84 -59
155 -112 159 -117 11 -19 -348 231 -380 264 -11 11 -25 18 -33 16 -7 -2 -141
-135 -298 -297 -157 -162 -293 -299 -303 -304 -10 -5 43 53 117 129 233 241
484 494 488 494 2 0 25 -17 51 -38z m-929 -76 c0 -2 -8 -10 -17 -17 -16 -13
-17 -12 -4 4 13 16 21 21 21 13z m-120 -109 c0 -2 -10 -12 -22 -23 l-23 -19
19 23 c18 21 26 27 26 19z m1461 -74 c13 -16 12 -17 -3 -4 -10 7 -18 15 -18
17 0 8 8 3 21 -13z m-20 -30 c13 -16 12 -17 -3 -4 -10 7 -18 15 -18 17 0 8 8
3 21 -13z m-1561 -6 c0 -2 -10 -12 -22 -23 l-23 -19 19 23 c18 21 26 27 26 19z
m-60 -161 c0 -2 -8 -10 -17 -17 -16 -13 -17 -12 -4 4 13 16 21 21 21 13z m50
-9 c0 -2 -10 -12 -22 -23 l-23 -19 19 23 c18 21 26 27 26 19z m-92 -52 c-6
-14 -13 -23 -15 -21 -5 5 15 46 22 46 3 0 -1 -11 -7 -25z m602 -88 c0 -1 -66
-67 -147 -147 l-148 -145 145 148 c134 137 150 152 150 144z m-623 -109 c-3
-8 -6 -5 -6 6 -1 11 2 17 5 13 3 -3 4 -12 1 -19z m713 8 c0 -2 -8 -10 -17 -17
-16 -13 -17 -12 -4 4 13 16 21 21 21 13z m-1644 -80 c-16 -39 -36 -46 -57 -20
-11 14 -7 20 27 49 44 38 54 28 30 -29z m1634 -19 c0 -2 -17 -19 -37 -38 l-38
-34 34 38 c33 34 41 42 41 34z m-665 -287 c20 -27 34 -54 30 -60 -8 -13 -85
-13 -85 -1 0 6 5 13 11 17 7 4 9 22 4 50 -3 24 -4 44 -1 44 2 0 21 -22 41 -50z
m-2528 -196 c-3 -3 -12 -4 -19 -1 -8 3 -5 6 6 6 11 1 17 -2 13 -5z m80 -10
c-3 -3 -12 -4 -19 -1 -8 3 -5 6 6 6 11 1 17 -2 13 -5z m2047 -21 c4 -9 5 -18
2 -20 -5 -5 -36 26 -36 37 0 14 28 0 34 -17z m-269 -234 c65 -15 85 -26 85
-47 0 -14 2 -15 9 -3 8 13 13 11 28 -6 10 -12 38 -38 63 -58 53 -44 100 -110
99 -139 0 -13 -3 -16 -6 -7 -4 10 -7 10 -13 1 -4 -7 -11 6 -15 32 -6 31 -9 37
-12 21 -3 -13 -9 -23 -14 -23 -5 0 -10 10 -10 23 -1 17 -3 15 -8 -8 -6 -28 -8
-24 -30 43 -13 39 -25 72 -27 72 -2 0 0 -39 3 -87 5 -64 3 -84 -5 -79 -7 4
-12 13 -12 21 0 8 -6 18 -14 22 -7 4 -22 24 -32 43 l-19 35 -3 -37 c-2 -21 -7
-38 -12 -38 -5 0 -13 -15 -18 -32 -6 -22 -14 -33 -26 -32 -16 2 -16 0 -2 -15
19 -21 21 -62 4 -58 -7 1 -19 -18 -27 -43 -20 -58 -20 -58 -38 -35 -16 20 -16
20 -8 0 13 -37 19 -139 7 -131 -5 3 -12 1 -14 -6 -3 -8 -12 -1 -23 15 -22 34
-22 95 0 137 19 37 19 63 0 30 l-14 -25 -1 30 c0 23 -3 27 -10 15 -6 -10 -10
-11 -10 -2 0 30 -18 7 -32 -40 l-14 -53 -23 53 c-25 56 -46 64 -68 27 -11 -18
-12 -15 -13 23 0 24 6 55 14 70 7 15 21 62 31 104 13 61 15 85 6 109 -6 18
-11 39 -11 47 0 22 54 -31 93 -91 17 -27 33 -44 35 -39 2 6 -8 42 -21 81 -14
39 -24 71 -22 71 2 0 17 -24 34 -52 35 -60 41 -43 13 38 l-18 51 36 -9 c19 -4
58 -13 85 -19z m564 -226 c20 -12 36 -34 49 -68 11 -27 22 -49 26 -48 4 1 21
22 39 45 33 43 70 59 90 39 8 -8 5 -11 -9 -11 -23 0 -51 -28 -81 -82 l-21 -36
34 -51 c19 -28 39 -51 44 -51 20 0 9 -19 -12 -23 -15 -3 -10 -5 13 -6 35 -1
38 -4 67 -70 80 -179 96 -379 46 -575 -19 -72 -85 -260 -108 -303 -18 -37 -20
-47 -6 -38 14 9 170 -40 256 -80 121 -55 323 -203 309 -225 -3 -5 0 -12 6 -16
8 -4 9 -3 5 4 -15 25 11 11 44 -23 19 -19 31 -35 26 -35 -4 0 -4 -5 0 -11 4
-8 9 -7 15 2 7 11 9 10 9 -3 0 -25 -6 -23 -64 23 -222 176 -362 260 -530 318
-50 17 -91 29 -91 28 -1 -1 -21 -38 -44 -82 -54 -102 -90 -151 -173 -240 -137
-145 -355 -228 -514 -195 -72 15 -104 31 -154 76 -115 104 -145 282 -95 565 8
46 12 85 10 88 -3 2 -5 -2 -5 -9 0 -7 -2 -11 -5 -8 -3 3 2 21 10 41 20 48 20
63 0 47 -13 -11 -14 -10 -9 4 3 9 13 16 21 16 10 0 14 7 10 20 -3 11 -1 20 5
20 6 0 8 9 5 20 -3 11 -1 18 4 14 5 -3 9 -1 9 5 0 5 3 18 6 28 5 15 4 15 -5 3
-8 -11 -11 -11 -11 -2 0 7 6 15 14 18 8 3 12 13 9 25 -6 22 -30 20 -25 -2 2
-8 0 -11 -4 -7 -4 4 -14 3 -23 -3 -9 -6 4 7 28 29 25 23 48 39 52 37 4 -3 21
26 39 63 48 102 115 206 207 323 69 87 143 163 143 146 0 -2 -27 -33 -61 -68
-93 -97 -184 -223 -240 -333 l-52 -99 38 23 37 23 -36 -72 c-21 -41 -50 -126
-68 -199 -27 -111 -31 -144 -32 -267 0 -155 13 -210 75 -307 66 -103 190 -132
311 -74 160 76 254 181 368 409 142 284 188 487 145 650 -33 127 -121 254
-193 278 -84 28 -190 7 -275 -53 -32 -23 -32 -23 7 25 22 27 58 65 80 84 23
20 33 33 23 30 -10 -4 -16 -3 -13 2 10 16 75 22 98 10 17 -8 14 -3 -9 19 -27
25 -33 39 -33 72 0 52 13 76 53 100 40 25 76 25 116 3z m1895 -8 c62 -13 124
-41 114 -51 -2 -2 -26 5 -54 15 -48 18 -149 38 -231 44 -24 2 -46 7 -50 12
-11 11 137 -2 221 -20z m-2154 -39 c0 -2 -8 -10 -17 -17 -16 -13 -17 -12 -4 4
13 16 21 21 21 13z m-180 -103 c0 -22 -2 -25 -11 -13 -7 11 -8 2 -4 -30 5 -32
2 -51 -9 -65 -15 -19 -15 -19 -16 8 0 17 -4 26 -10 22 -7 -4 -9 2 -5 17 5 21
11 74 14 122 2 31 41 -27 41 -61z m130 57 c-8 -5 -17 -7 -19 -4 -3 3 1 9 9 14
8 5 17 7 19 4 3 -3 -1 -9 -9 -14z m-460 -174 c0 -30 -7 -47 -35 -77 l-35 -39
0 27 c0 16 9 42 20 60 12 20 14 30 6 27 -10 -4 -11 7 -3 56 l10 62 18 -39 c10
-21 18 -55 19 -77z m226 -3 c-6 -15 -8 -15 -16 -3 -12 18 -13 103 -2 114 10
11 26 -89 18 -111z m215 54 c-10 -9 -11 -8 -5 6 3 10 9 15 12 12 3 -3 0 -11
-7 -18z m-381 -41 c-5 -13 -6 -33 -3 -44 2 -11 -2 -33 -10 -48 -17 -31 -87
-107 -94 -101 -5 6 53 126 72 147 14 16 21 34 24 63 1 4 5 7 11 7 6 0 6 -9 0
-24z m146 -144 c-13 -12 -18 9 -10 45 l8 38 4 -39 c2 -21 1 -41 -2 -44z m-86
-7 c0 -5 -9 -21 -20 -35 l-21 -25 7 28 c8 37 -4 34 -18 -4 -18 -52 -20 -24 -2
37 l16 57 19 -24 c10 -13 19 -28 19 -34z m-108 -115 c-3 -46 -7 -59 -13 -45
l-8 20 -1 -20 c-1 -18 -2 -17 -15 5 -14 25 -14 25 -15 -15 0 -33 -3 -37 -11
-22 -15 26 -1 74 33 113 17 19 31 33 32 32 1 -2 0 -32 -2 -68z m118 39 c0 -6
-21 -31 -46 -57 -52 -52 -43 -20 10 36 34 35 36 37 36 21z m3020 -14 c0 -8
-282 -147 -287 -142 -5 6 257 146 275 147 6 0 12 -2 12 -5z m-3810 -75 l25 -8
-25 -1 c-14 0 -32 4 -40 9 -13 9 -13 10 0 9 8 -1 26 -5 40 -9z m-8 -60 c51
-10 79 -19 61 -19 -40 -1 -39 -30 3 -48 16 -7 23 -12 16 -13 -14 0 -133 58
-184 91 -23 14 -26 19 -11 14 12 -3 64 -15 115 -25z m130 -1 c-15 -6 -30 -5
-40 1 -13 7 -8 9 23 9 35 0 37 -1 17 -10z m143 -193 c6 -13 5 -17 -3 -13 -6 4
-18 29 -27 56 l-16 48 -62 11 -62 11 59 -6 c58 -5 59 -4 52 19 -21 76 -11 69
17 -12 18 -52 37 -104 42 -114z m-252 113 c72 -21 76 -24 50 -31 -36 -10 -173
40 -223 83 l-35 29 65 -29 c36 -16 100 -39 143 -52z m1036 -21 c44 -57 81
-106 83 -109 4 -8 -122 -228 -134 -235 -5 -3 -12 -4 -15 -1 -11 12 -64 210
-59 224 10 26 23 5 46 -78 l24 -82 20 26 c12 14 35 52 53 84 l31 58 -65 83
c-36 46 -69 80 -74 75 -4 -4 -39 -72 -78 -150 l-70 -141 43 -156 c24 -86 46
-159 48 -162 7 -6 208 15 233 25 12 5 66 90 137 217 64 115 119 216 123 224 4
11 -21 30 -88 68 -52 28 -96 52 -99 52 -7 0 -32 -199 -27 -205 3 -2 33 20 69
50 59 49 80 58 80 36 0 -12 -163 -151 -177 -151 -7 0 -13 12 -13 28 0 56 33
267 44 279 8 9 40 -5 134 -58 67 -39 122 -75 122 -80 0 -14 -260 -473 -275
-485 -19 -14 -274 -39 -285 -28 -5 5 -30 85 -55 178 l-47 168 83 174 c46 95
89 174 96 174 7 0 48 -46 92 -102z m-875 80 c-3 -4 -17 -8 -32 -8 -20 0 -23 3
-13 9 18 11 52 10 45 -1z m-86 -25 c-10 -2 -26 -2 -35 0 -10 3 -2 5 17 5 19 0
27 -2 18 -5z m49 -127 c-3 -8 -1 -17 6 -20 7 -2 -24 -4 -68 -4 -68 0 -74 1
-40 8 22 5 51 13 65 19 35 14 43 13 37 -3z m93 -6 c0 -5 -11 -10 -24 -10 -14
0 -28 5 -31 10 -4 6 7 10 24 10 17 0 31 -4 31 -10z m60 -69 c0 -12 -29 -23
-41 -15 -5 3 -9 0 -9 -5 0 -6 -5 -11 -11 -11 -8 0 -8 4 1 14 6 8 19 12 27 9
11 -4 14 -2 9 5 -4 7 -1 12 8 12 9 0 16 -4 16 -9z m-96 -26 c-4 -11 -21 -15
-57 -15 -28 0 -47 3 -44 7 4 3 25 6 46 5 22 -1 43 3 46 8 9 15 15 12 9 -5z
m199 8 c-7 -2 -19 -2 -25 0 -7 3 -2 5 12 5 14 0 19 -2 13 -5z m3717 -138 c0
-8 -17 -19 -42 -26 -24 -6 -79 -29 -123 -50 -51 -25 -82 -36 -89 -29 -6 6 30
29 105 64 119 58 149 66 149 41z m-3880 -89 c0 -2 -8 -10 -17 -17 -16 -13 -17
-12 -4 4 13 16 21 21 21 13z m1910 -117 c0 -5 -4 -9 -10 -9 -5 0 -10 7 -10 16
0 8 5 12 10 9 6 -3 10 -10 10 -16z m-510 -364 c50 -25 90 -47 90 -50 0 -5
-179 82 -189 91 -14 13 20 -1 99 -41z m2681 -134 c-18 -84 -108 -341 -125
-358 -18 -18 -10 15 31 127 40 109 61 196 89 355 l7 40 9 -34 c7 -25 4 -59
-11 -130z m-2521 43 c0 -2 -9 0 -20 6 -11 6 -20 13 -20 16 0 2 9 0 20 -6 11
-6 20 -13 20 -16z m50 -30 c0 -2 -9 0 -20 6 -11 6 -20 13 -20 16 0 2 9 0 20
-6 11 -6 20 -13 20 -16z m173 -121 c16 -13 26 -23 22 -23 -9 0 -57 32 -80 53
-11 11 -39 32 -62 48 -24 17 -43 32 -43 35 0 6 118 -75 163 -113z m-1196 -36
c-12 -35 -32 -77 -44 -93 -21 -26 -20 -21 9 64 17 51 37 92 44 92 9 0 7 -17
-9 -63z m256 -14 c-5 -32 -8 -133 -8 -226 0 -107 -4 -166 -10 -164 -12 4 -14
353 -2 410 13 60 28 44 20 -20z m3107 -223 c0 -5 -2 -10 -4 -10 -3 0 -8 5 -11
10 -3 6 -1 10 4 10 6 0 11 -4 11 -10z m-3110 -230 c0 -5 -5 -10 -11 -10 -5 0
-7 5 -4 10 3 6 8 10 11 10 2 0 4 -4 4 -10z"/>
<path d="M4292 10790 c0 -47 3 -96 7 -110 4 -14 6 20 4 75 -6 127 -11 146 -11
35z"/>
<path d="M4710 10646 c0 -2 8 -10 18 -17 15 -13 16 -12 3 4 -13 16 -21 21 -21
13z"/>
<path d="M4493 10630 c-57 -13 -83 -39 -120 -117 -47 -97 -50 -180 -11 -263
30 -64 97 -136 144 -156 69 -29 160 -11 216 43 43 41 72 142 65 222 -15 169
-84 251 -232 274 -16 2 -45 1 -62 -3z m22 -131 c17 -28 30 -53 29 -55 -2 -21
-50 -134 -56 -134 -10 0 -22 30 -33 78 -4 20 -3 32 4 32 6 0 14 -15 19 -32 l9
-33 20 45 20 45 -21 32 c-12 18 -23 33 -26 33 -3 0 -22 -33 -42 -74 l-37 -73
26 -82 c19 -63 28 -81 40 -77 8 3 33 6 56 6 l42 0 67 117 67 116 -37 27 c-41
31 -47 29 -57 -18 l-7 -34 31 17 c17 8 31 11 31 5 0 -12 -80 -64 -87 -56 -8 8
29 136 39 136 11 0 95 -56 102 -69 6 -9 -115 -225 -137 -248 -7 -6 -41 -13
-77 -15 l-65 -3 -26 90 -26 90 46 92 c25 51 48 93 51 93 3 0 19 -23 35 -51z"/>
<path d="M6095 8549 c-11 -5 -143 -61 -294 -124 -151 -63 -276 -117 -278 -119
-2 -1 25 -38 60 -81 l64 -77 -148 -152 c-85 -87 -144 -156 -141 -162 4 -7 29
-35 56 -64 l49 -52 334 334 333 334 -1 65 c-1 88 -9 109 -34 98z"/>
<path d="M5620 4934 c8 -8 23 -20 34 -26 19 -10 18 -8 -3 16 -26 27 -53 37
-31 10z"/>
<path d="M4126 6243 c-6 -14 -5 -15 5 -6 7 7 10 15 7 18 -3 3 -9 -2 -12 -12z"/>
<path d="M6521 11904 c0 -11 3 -14 6 -6 3 7 2 16 -1 19 -3 4 -6 -2 -5 -13z"/>
<path d="M6192 11453 c-15 -48 -8 -55 8 -8 7 20 10 38 8 41 -3 2 -10 -13 -16
-33z"/>
<path d="M2357 8211 c-4 -17 -3 -21 5 -13 5 5 8 16 6 23 -3 8 -7 3 -11 -10z"/>
<path d="M2336 8155 c-9 -26 -7 -32 5 -12 6 10 9 21 6 23 -2 3 -7 -2 -11 -11z"/>
<path d="M2401 7894 c0 -11 3 -14 6 -6 3 7 2 16 -1 19 -3 4 -6 -2 -5 -13z"/>
<path d="M2380 7836 c0 -35 12 -86 19 -82 9 6 0 106 -10 106 -5 0 -9 -11 -9
-24z"/>
<path d="M2397 7734 c-4 -4 -7 -14 -7 -23 0 -11 3 -12 11 -4 6 6 10 16 7 23
-2 6 -7 8 -11 4z"/>
<path d="M2264 7585 c0 -71 1 -99 3 -62 2 37 2 96 0 130 -2 34 -3 4 -3 -68z"/>
<path d="M6320 7563 c-46 -100 -51 -130 -5 -37 15 30 25 57 23 60 -3 2 -11 -8
-18 -23z"/>
<path d="M4970 7474 c18 -25 34 -43 37 -40 5 5 -54 86 -63 86 -3 0 9 -21 26
-46z"/>
<path d="M6236 7385 c-9 -26 -7 -32 5 -12 6 10 9 21 6 23 -2 3 -7 -2 -11 -11z"/>
<path d="M5459 7343 c-13 -16 -12 -17 4 -4 9 7 17 15 17 17 0 8 -8 3 -21 -13z"/>
<path d="M4637 7175 c3 -16 10 -39 14 -50 l8 -20 0 20 c0 11 -6 34 -14 50
l-14 30 6 -30z"/>
<path d="M5180 7176 c0 -3 9 -10 20 -16 11 -6 20 -8 20 -6 0 3 -9 10 -20 16
-11 6 -20 8 -20 6z"/>
<path d="M4371 7154 c0 -11 3 -14 6 -6 3 7 2 16 -1 19 -3 4 -6 -2 -5 -13z"/>
<path d="M2302 7140 c0 -14 2 -19 5 -12 2 6 2 18 0 25 -3 6 -5 1 -5 -13z"/>
<path d="M5300 7098 c29 -24 70 -67 91 -97 22 -30 39 -49 39 -44 0 29 -147
183 -173 183 -5 0 14 -19 43 -42z"/>
<path d="M2312 7080 c0 -14 2 -19 5 -12 2 6 2 18 0 25 -3 6 -5 1 -5 -13z"/>
<path d="M4465 7040 c3 -5 11 -10 16 -10 6 0 7 5 4 10 -3 6 -11 10 -16 10 -6
0 -7 -4 -4 -10z"/>
<path d="M5180 6950 c20 -13 53 -13 45 0 -3 6 -18 10 -33 10 -21 0 -24 -2 -12
-10z"/>
<path d="M6551 6919 c-5 -16 -17 -29 -25 -29 -8 0 -16 -10 -18 -22 -2 -13 -8
-22 -13 -21 -15 2 -11 -48 6 -74 9 -15 24 -23 42 -23 15 0 60 -11 99 -25 39
-14 73 -25 74 -25 2 0 -15 29 -37 65 -21 36 -51 90 -66 120 -32 65 -48 74 -62
34z"/>
<path d="M5431 6931 c-1 -10 -10 -12 -33 -8 l-33 6 29 -15 c30 -17 53 -7 43
18 -4 11 -6 10 -6 -1z"/>
<path d="M6325 6880 c-7 -12 22 -12 50 0 17 7 15 9 -12 9 -17 1 -35 -3 -38 -9z"/>
<path d="M5095 6655 c21 -10 136 -22 127 -13 -6 6 -38 12 -73 14 -35 2 -59 2
-54 -1z"/>
<path d="M5258 6623 c6 -2 18 -2 25 0 6 3 1 5 -13 5 -14 0 -19 -2 -12 -5z"/>
<path d="M2475 6505 c7 -24 123 -213 135 -220 7 -4 -105 189 -130 225 -9 12
-10 11 -5 -5z"/>
<path d="M6251 5644 c0 -11 3 -14 6 -6 3 7 2 16 -1 19 -3 4 -6 -2 -5 -13z"/>
<path d="M7845 2310 c11 -13 28 -33 37 -44 19 -21 97 -178 129 -259 11 -27 22
-82 26 -123 5 -65 3 -81 -17 -123 -25 -54 -60 -85 -106 -95 l-31 -7 -6 108
c-5 94 -31 222 -42 211 -2 -2 2 -25 10 -51 7 -25 15 -99 17 -164 l3 -117 -55
-34 c-43 -26 -48 -32 -25 -26 110 25 241 107 265 164 19 45 7 178 -26 280 -45
145 -98 234 -167 282 l-32 22 20 -24z"/>
<path d="M7385 2016 c10 -14 19 -26 22 -26 7 0 -17 39 -28 46 -6 3 -3 -5 6
-20z"/>
<path d="M3110 1978 c0 -3 6 -21 14 -39 27 -66 39 -176 27 -243 -7 -33 -16
-70 -21 -81 -11 -25 -30 -108 -30 -131 0 -34 12 -4 36 88 37 143 40 208 15
308 -12 46 -26 89 -31 94 -6 6 -10 7 -10 4z"/>
<path d="M3707 1631 c-5 -106 -12 -169 -20 -179 -10 -13 -7 -14 28 -8 82 15
176 38 172 42 -2 3 -43 -4 -91 -14 l-87 -19 5 51 c13 128 15 175 8 231 -7 51
-9 36 -15 -104z"/>
<path d="M7475 1725 c3 -22 8 -67 12 -100 4 -33 6 -68 5 -77 -1 -10 3 -18 9
-18 7 0 9 12 5 33 -3 17 -8 64 -12 102 -4 39 -10 77 -15 85 -4 9 -6 -1 -4 -25z"/>
<path d="M3994 1646 c-3 -8 -4 -27 -2 -43 3 -23 5 -20 9 15 5 43 2 53 -7 28z"/>
<path d="M7004 1572 c12 -20 193 -72 244 -71 47 2 47 2 -14 10 -53 6 -144 34
-218 64 -13 6 -17 5 -12 -3z"/>
<path d="M3957 1533 c-16 -18 -36 -33 -45 -33 -8 0 -13 -3 -9 -6 11 -12 47 8
68 37 29 42 20 43 -14 2z"/>
<path d="M7343 1503 c9 -2 25 -2 35 0 9 3 1 5 -18 5 -19 0 -27 -2 -17 -5z"/>
<path d="M3623 1433 c9 -2 25 -2 35 0 9 3 1 5 -18 5 -19 0 -27 -2 -17 -5z"/>
<path d="M3568 1423 c6 -2 18 -2 25 0 6 3 1 5 -13 5 -14 0 -19 -2 -12 -5z"/>
</g>
</svg>
