<?xml version="1.0" standalone="no"?>
<!DOCTYPE svg PUBLIC "-//W3C//DTD SVG 20010904//EN"
 "http://www.w3.org/TR/2001/REC-SVG-20010904/DTD/svg10.dtd">
<svg version="1.0" xmlns="http://www.w3.org/2000/svg"
 width="1280.000000pt" height="1296.000000pt" viewBox="0 0 1280.000000 1296.000000"
 preserveAspectRatio="xMidYMid meet">

<g transform="translate(0.000000,1296.000000) scale(0.100000,-0.100000)"
fill="#000000" stroke="none">
<path d="M3610 12885 l0 -75 -75 0 -75 0 0 -75 0 -75 -1130 0 -1130 0 0 75 0
75 -450 0 -450 0 0 -75 0 -75 -75 0 -75 0 0 -75 0 -75 -75 0 -75 0 0 -6105 0
-6105 75 0 75 0 0 -75 0 -75 75 0 75 0 0 -75 0 -75 6100 0 6100 0 0 75 0 75
75 0 75 0 0 75 0 75 75 0 75 0 0 5806 0 5805 -72 -2 -73 -2 -3 76 -3 77 -74 0
-75 0 0 75 0 75 -75 0 -75 0 0 75 0 75 -75 0 -75 0 0 75 0 75 -75 0 -75 0 0
75 0 75 -75 0 -75 0 0 75 0 75 -1280 0 -1280 0 0 -150 0 -150 -75 0 -75 0 0
150 0 150 -75 0 -75 0 0 75 0 75 -2715 0 -2715 0 0 -75z m5423 -1207 c4 -623
7 -1640 7 -2260 l0 -1128 -75 0 -75 0 0 -75 0 -75 -2640 0 -2640 0 0 75 0 75
-75 0 -75 0 0 2185 0 2185 75 0 75 0 0 75 0 75 2708 0 2709 0 6 -1132z m1359
-600 l3 -223 148 -3 147 -3 0 226 0 225 80 0 80 0 0 -525 0 -525 -80 0 -80 0
0 225 0 226 -147 -3 -148 -3 -3 -222 -2 -223 -75 0 -75 0 0 525 0 525 75 0 75
0 2 -222z m1058 147 l0 -75 75 0 75 0 0 -375 0 -375 -75 0 -75 0 0 -75 0 -75
-227 0 -228 0 3 525 2 525 225 0 225 0 0 -75z m-610 -4970 l0 -75 -4440 0
-4440 0 0 75 0 75 4440 0 4440 0 0 -75z m-8890 -150 l0 -75 -75 0 -75 0 0
-300 0 -300 4600 0 4600 0 0 300 0 300 -75 0 -75 0 0 75 0 76 73 -3 72 -3 3
-72 3 -72 72 -3 72 -3 0 -2935 0 -2935 -2185 0 -2185 0 -3 73 -3 72 -74 0 -75
0 0 75 0 75 -75 0 -75 0 0 75 0 75 -70 0 -70 0 0 -75 0 -75 -75 0 -75 0 0 -75
0 -75 -75 0 -74 0 -3 -72 -3 -73 -2185 0 -2185 0 0 2935 0 2935 73 3 72 3 0
68 c0 37 3 71 7 74 3 4 37 7 75 7 l68 0 0 -75z m-1050 -5355 l0 -150 -150 0
-150 0 0 150 0 150 150 0 150 0 0 -150z m11300 0 l0 -150 -150 0 -150 0 0 150
0 150 150 0 150 0 0 -150z"/>
<path d="M6780 12435 l0 -75 -75 0 -75 0 0 -75 0 -74 -77 -3 -78 -3 -3 -1732
-2 -1733 75 0 75 0 0 -75 0 -74 78 -3 77 -3 3 -72 3 -73 749 0 749 0 3 73 3
72 75 5 75 5 3 73 3 72 74 0 75 0 0 1735 0 1735 -75 0 -75 0 0 75 0 75 -75 0
-75 0 0 75 0 75 -755 0 -755 0 0 -75z"/>
<path d="M11150 10775 l0 -375 150 0 150 0 0 375 0 375 -150 0 -150 0 0 -375z"/>
<path d="M2258 5163 c-3 -36 -5 -38 -40 -41 l-38 -3 0 -75 0 -74 40 0 c39 0
40 -1 40 -35 l0 -35 150 0 150 0 0 35 0 35 -75 0 -75 0 0 75 0 74 73 3 72 3 3
38 3 37 -150 0 -150 0 -3 -37z m72 -118 l0 -75 -35 0 -35 0 0 75 0 75 35 0 35
0 0 -75z"/>
<path d="M2637 5194 c-4 -4 -7 -445 -7 -981 l0 -973 -225 0 -225 0 0 -40 0
-40 150 0 150 0 0 -75 0 -75 -150 0 -150 0 0 -35 0 -35 150 0 150 0 0 34 c0
33 2 35 38 38 l37 3 3 73 3 72 37 0 37 0 -3 -975 -2 -975 40 0 40 0 0 900 0
900 35 0 35 0 0 79 0 79 -35 -2 -35 -1 -2 1015 -3 1015 -30 3 c-17 2 -34 0
-38 -4z"/>
<path d="M2180 4785 l0 -35 115 0 115 0 0 -40 c0 -39 1 -40 35 -40 33 0 35 -2
35 -35 0 -33 -2 -35 -35 -35 -34 0 -35 -1 -35 -40 l0 -40 -115 0 -115 0 0 -35
0 -35 105 0 c58 0 108 -1 113 -2 4 -2 8 14 10 35 3 35 5 37 38 37 33 0 34 1
34 40 l0 40 40 0 c39 0 40 1 40 35 0 34 -1 35 -40 35 l-40 0 0 40 c0 39 -1 40
-35 40 -33 0 -35 2 -35 35 l0 35 -115 0 -115 0 0 -35z"/>
<path d="M3010 4595 l0 -75 3690 0 3690 0 0 75 0 75 -3690 0 -3690 0 0 -75z"/>
<path d="M2260 4336 c0 -33 -2 -35 -37 -38 l-38 -3 -3 -77 -3 -78 41 0 c39 0
40 -1 40 -35 l0 -35 110 0 110 0 0 34 c0 33 2 35 38 38 l37 3 0 75 0 75 -37 3
c-36 3 -38 5 -38 38 l0 34 -110 0 -110 0 0 -34z m220 -121 l0 -75 -110 0 -110
0 0 75 0 75 110 0 110 0 0 -75z"/>
<path d="M2180 3955 l0 -35 75 0 75 0 0 -75 0 -75 -150 0 -150 0 0 -40 0 -40
265 0 265 0 0 40 0 40 -75 0 -75 0 0 75 0 75 75 0 75 0 0 35 0 35 -75 0 -75 0
0 -35 c0 -34 -1 -35 -40 -35 -39 0 -40 1 -40 35 l0 35 -75 0 -75 0 0 -35z"/>
<path d="M3017 3763 c-4 -3 -7 -37 -7 -75 l0 -68 3690 0 3690 0 0 75 0 75
-3683 0 c-2026 0 -3687 -3 -3690 -7z"/>
<path d="M2260 3580 l0 -40 -40 0 -40 0 0 -75 0 -75 40 0 c40 0 40 0 40 -40
l0 -39 148 2 147 2 3 38 3 37 -75 0 -76 0 0 75 0 75 75 0 75 0 0 40 0 40 -150
0 -150 0 0 -40z m70 -115 l0 -75 -35 0 -35 0 0 75 0 75 35 0 35 0 0 -75z"/>
<path d="M2180 2825 c0 -34 1 -35 41 -35 l40 0 -3 -37 c-3 -36 -5 -38 -40 -41
-36 -3 -38 -5 -38 -38 l0 -34 190 0 190 0 0 35 0 35 -115 0 -115 0 0 40 c0 39
-1 40 -35 40 -33 0 -35 2 -35 35 0 34 -1 35 -40 35 -39 0 -40 -1 -40 -35z"/>
<path d="M3012 2788 l3 -73 3688 -3 3687 -2 0 75 0 75 -3690 0 -3691 0 3 -72z"/>
<path d="M2260 2525 c0 -34 -1 -35 -40 -35 l-40 0 0 -75 0 -75 -75 0 -75 0 0
-40 0 -40 265 0 266 0 -3 113 -3 112 -37 3 c-36 3 -38 5 -38 38 l0 34 -110 0
-110 0 0 -35z m220 -110 l0 -75 -110 0 -110 0 0 75 0 75 110 0 110 0 0 -75z"/>
<path d="M2260 2150 l0 -40 -40 0 -40 0 0 -75 0 -75 40 0 40 0 0 -40 0 -40
110 0 110 0 0 40 0 40 40 0 41 0 -3 113 -3 112 -35 0 -35 0 -3 -112 -3 -113
-34 0 -34 0 -3 113 -3 112 -72 3 -73 3 0 -41z m70 -115 l0 -75 -35 0 -35 0 0
75 0 75 35 0 35 0 0 -75z"/>
<path d="M3010 1885 l0 -75 3690 0 3690 0 0 75 0 75 -3690 0 -3690 0 0 -75z"/>
<path d="M2180 1770 l0 -40 40 0 c39 0 40 -1 40 -35 0 -34 -1 -35 -40 -35
l-40 0 0 -40 0 -40 190 0 190 0 0 40 0 40 -115 0 -115 0 0 35 c0 33 -2 35 -35
35 -34 0 -35 1 -35 40 l0 40 -40 0 -40 0 0 -40z"/>
<path d="M2260 1470 l0 -40 -40 0 -40 0 0 -75 0 -75 40 0 c40 0 40 0 40 -37
l0 -38 110 3 110 3 0 35 c0 33 1 34 40 34 l40 0 0 115 0 115 -40 0 -40 0 0
-115 0 -115 -35 0 -34 0 -3 113 -3 112 -72 3 -73 3 0 -41z m70 -115 l0 -75
-35 0 -35 0 0 75 0 75 35 0 35 0 0 -75z"/>
<path d="M2107 1123 c-4 -3 -7 -19 -7 -35 0 -25 -3 -28 -35 -28 l-35 0 0 -80
0 -80 35 0 c33 0 35 -2 35 -35 l0 -35 115 0 115 0 0 34 c0 33 2 35 38 38 l37
3 3 73 3 72 109 0 110 0 0 -75 0 -75 -35 0 c-33 0 -35 -2 -35 -35 0 -33 2 -35
35 -35 33 0 35 2 35 34 0 33 2 35 38 38 l37 3 0 75 0 75 -37 3 c-36 3 -38 5
-38 38 l0 34 -110 0 -110 0 0 -34 c0 -33 -2 -35 -37 -38 l-38 -3 -3 -77 -3
-78 -109 0 -110 0 0 75 0 75 35 0 c34 0 35 1 35 40 0 39 -1 40 -33 40 -19 0
-37 -3 -40 -7z"/>
<path d="M3010 980 l0 -70 3690 0 3690 0 0 70 0 70 -3690 0 -3690 0 0 -70z"/>
<path d="M2030 715 l0 -35 190 0 190 0 0 -40 0 -40 110 0 110 0 0 -35 0 -35
-110 0 -110 0 0 -40 0 -40 -190 0 -190 0 0 -35 0 -35 190 0 190 0 0 35 0 35
110 0 110 0 0 40 0 40 40 0 c39 0 40 1 40 35 0 34 -1 35 -40 35 l-40 0 0 40 0
40 -110 0 -110 0 0 35 0 35 -190 0 -190 0 0 -35z"/>
</g>
</svg>
