<?xml version="1.0" standalone="no"?>
<!DOCTYPE svg PUBLIC "-//W3C//DTD SVG 20010904//EN"
 "http://www.w3.org/TR/2001/REC-SVG-20010904/DTD/svg10.dtd">
<svg version="1.0" xmlns="http://www.w3.org/2000/svg"
 width="328.000000pt" height="440.000000pt" viewBox="0 0 328.000000 440.000000"
 preserveAspectRatio="xMidYMid meet">

<g transform="translate(0.000000,440.000000) scale(0.100000,-0.100000)"
fill="#000000" stroke="none">
<path d="M800 3760 l0 -240 40 0 40 0 0 -40 0 -40 40 0 40 0 0 -40 0 -40 40 0
40 0 0 -40 0 -40 40 0 40 0 0 -40 0 -40 40 0 40 0 0 40 0 40 40 0 40 0 0 -40
0 -40 40 0 40 0 0 40 0 40 40 0 40 0 0 -40 0 -40 40 0 40 0 0 -80 0 -80 -40 0
-40 0 0 40 0 40 -80 0 -80 0 0 -40 0 -40 -40 0 -40 0 0 -80 0 -80 40 0 40 0 0
-40 0 -40 -40 0 -40 0 0 -80 0 -80 40 0 40 0 0 -80 0 -80 -40 0 -40 0 0 -40 0
-40 -40 0 -40 0 0 80 0 80 -80 0 -80 0 0 -40 0 -40 40 0 40 0 0 -40 0 -40 -40
0 -40 0 0 -40 0 -40 40 0 40 0 0 -40 0 -40 -40 0 -40 0 0 -80 0 -80 -40 0 -40
0 0 -40 0 -40 -40 0 -40 0 0 -240 0 -240 -40 0 -40 0 0 -40 0 -40 40 0 40 0 0
-40 0 -40 -40 0 -40 0 0 -80 0 -80 -40 0 -40 0 0 -80 0 -80 40 0 40 0 0 -80 0
-80 40 0 40 0 0 -40 0 -40 40 0 40 0 0 -40 0 -40 120 0 120 0 0 -40 0 -40 40
0 40 0 0 -40 0 -40 -40 0 -40 0 0 -40 0 -40 -40 0 -40 0 0 -40 0 -40 -80 0
-80 0 0 -40 0 -40 -40 0 -40 0 0 -40 0 -40 -40 0 -40 0 0 -40 0 -40 40 0 40 0
0 -40 0 -40 80 0 80 0 0 80 0 80 80 0 80 0 0 -40 0 -40 -40 0 -40 0 0 -40 0
-40 40 0 40 0 0 40 0 40 120 0 120 0 0 200 0 200 40 0 40 0 0 80 0 80 40 0 40
0 0 40 0 40 40 0 40 0 0 40 0 40 40 0 40 0 0 -40 0 -40 40 0 40 0 0 -40 0 -40
40 0 40 0 0 -80 0 -80 40 0 40 0 0 -200 0 -200 120 0 120 0 0 -40 0 -40 40 0
40 0 0 40 0 40 -40 0 -40 0 0 40 0 40 80 0 80 0 0 -80 0 -80 80 0 80 0 0 40 0
40 40 0 40 0 0 40 0 40 -40 0 -40 0 0 40 0 40 -40 0 -40 0 0 40 0 40 -80 0
-80 0 0 40 0 40 -40 0 -40 0 0 40 0 40 -40 0 -40 0 0 40 0 40 40 0 40 0 0 40
0 40 120 0 120 0 0 40 0 40 40 0 40 0 0 40 0 40 40 0 40 0 0 240 0 240 -40 0
-40 0 0 40 0 40 40 0 40 0 0 40 0 40 -40 0 -40 0 0 240 0 240 -40 0 -40 0 0
40 0 40 -40 0 -40 0 0 80 0 80 -40 0 -40 0 0 40 0 40 40 0 40 0 0 40 0 40 -40
0 -40 0 0 40 0 40 40 0 40 0 0 40 0 40 -80 0 -80 0 0 -80 0 -80 -40 0 -40 0 0
40 0 40 -40 0 -40 0 0 80 0 80 40 0 40 0 0 80 0 80 -40 0 -40 0 0 40 0 40 40
0 40 0 0 80 0 80 -40 0 -40 0 0 40 0 40 -80 0 -80 0 0 -40 0 -40 -40 0 -40 0
0 80 0 80 40 0 40 0 0 40 0 40 40 0 40 0 0 -40 0 -40 40 0 40 0 0 40 0 40 40
0 40 0 0 -40 0 -40 40 0 40 0 0 40 0 40 40 0 40 0 0 40 0 40 40 0 40 0 0 40 0
40 40 0 40 0 0 40 0 40 40 0 40 0 0 240 0 240 -40 0 -40 0 0 -40 0 -40 -40 0
-40 0 0 -40 0 -40 -160 0 -160 0 0 -40 0 -40 -80 0 -80 0 0 -40 0 -40 -80 0
-80 0 0 40 0 40 -40 0 -40 0 0 -40 0 -40 -80 0 -80 0 0 40 0 40 -80 0 -80 0 0
40 0 40 -160 0 -160 0 0 40 0 40 -40 0 -40 0 0 40 0 40 -40 0 -40 0 0 -240z
m240 -200 l0 -120 -40 0 -40 0 0 80 0 80 -40 0 -40 0 0 40 0 40 80 0 80 0 0
-120z m1360 80 l0 -40 -40 0 -40 0 0 -80 0 -80 -40 0 -40 0 0 120 0 120 80 0
80 0 0 -40z m-880 -240 l0 -40 -80 0 -80 0 0 40 0 40 80 0 80 0 0 -40z m400 0
l0 -40 -80 0 -80 0 0 40 0 40 80 0 80 0 0 -40z m-400 -560 l0 -40 40 0 40 0 0
40 0 40 40 0 40 0 0 -40 0 -40 40 0 40 0 0 40 0 40 40 0 40 0 0 -40 0 -40 -40
0 -40 0 0 -40 0 -40 -40 0 -40 0 0 40 0 40 -40 0 -40 0 0 -40 0 -40 -40 0 -40
0 0 40 0 40 -40 0 -40 0 0 40 0 40 40 0 40 0 0 -40z m80 -560 l0 -40 40 0 40
0 0 40 0 40 120 0 120 0 0 -40 0 -40 -40 0 -40 0 0 -40 0 -40 -200 0 -200 0 0
40 0 40 -40 0 -40 0 0 40 0 40 120 0 120 0 0 -40z m-240 -280 l0 -80 -40 0
-40 0 0 -120 0 -120 40 0 40 0 0 -40 0 -40 40 0 40 0 0 -40 0 -40 40 0 40 0 0
-40 0 -40 120 0 120 0 0 40 0 40 40 0 40 0 0 40 0 40 40 0 40 0 0 40 0 40 40
0 40 0 0 120 0 120 -40 0 -40 0 0 80 0 80 80 0 80 0 0 -120 0 -120 40 0 40 0
0 -120 0 -120 40 0 40 0 0 -40 0 -40 40 0 40 0 0 -40 0 -40 40 0 40 0 0 -40 0
-40 40 0 40 0 0 -200 0 -200 -40 0 -40 0 0 -40 0 -40 -120 0 -120 0 0 -40 0
-40 -120 0 -120 0 0 40 0 40 -40 0 -40 0 0 -40 0 -40 -40 0 -40 0 0 40 0 40
-40 0 -40 0 0 40 0 40 40 0 40 0 0 40 0 40 -40 0 -40 0 0 160 0 160 -40 0 -40
0 0 -240 0 -240 -40 0 -40 0 0 -40 0 -40 -120 0 -120 0 0 -40 0 -40 -40 0 -40
0 0 40 0 40 -40 0 -40 0 0 40 0 40 -80 0 -80 0 0 40 0 40 -80 0 -80 0 0 200 0
200 40 0 40 0 0 80 0 80 40 0 40 0 0 40 0 40 40 0 40 0 0 40 0 40 40 0 40 0 0
80 0 80 40 0 40 0 0 120 0 120 80 0 80 0 0 -80z m-400 -1720 l0 -40 -40 0 -40
0 0 -40 0 -40 -40 0 -40 0 0 40 0 40 40 0 40 0 0 40 0 40 40 0 40 0 0 -40z
m1440 0 l0 -40 40 0 40 0 0 -40 0 -40 -40 0 -40 0 0 40 0 40 -40 0 -40 0 0 40
0 40 40 0 40 0 0 -40z"/>
</g>
</svg>
