<?xml version="1.0" standalone="no"?>
<!DOCTYPE svg PUBLIC "-//W3C//DTD SVG 20010904//EN"
 "http://www.w3.org/TR/2001/REC-SVG-20010904/DTD/svg10.dtd">
<svg version="1.0" xmlns="http://www.w3.org/2000/svg"
 width="600.000000pt" height="849.000000pt" viewBox="0 0 600.000000 849.000000"
 preserveAspectRatio="xMidYMid meet">

<g transform="translate(0.000000,849.000000) scale(0.100000,-0.100000)"
fill="#000000" stroke="none">
<path d="M0 4245 l0 -4245 3000 0 3000 0 0 3585 0 3585 -25 10 c-14 5 -25 12
-25 16 0 3 11 3 25 0 l25 -6 0 650 0 650 -1906 0 c-1688 0 -1905 -2 -1894 -15
7 -8 23 -15 36 -15 17 0 25 -7 30 -25 4 -16 13 -25 25 -25 10 0 19 -6 20 -12
0 -7 4 -4 9 7 8 18 9 18 9 2 1 -10 5 -16 11 -12 5 3 7 12 3 20 -3 8 0 15 6 15
6 0 11 -5 11 -11 0 -6 7 -9 15 -5 13 5 14 2 4 -15 -14 -28 -3 -38 16 -13 14
18 14 18 15 -5 0 -18 3 -21 13 -13 9 8 21 7 41 -3 16 -8 48 -15 72 -15 44 0
58 12 28 24 -8 3 -12 10 -9 16 3 5 -1 10 -9 10 -9 0 -16 4 -16 10 0 5 8 6 18
3 15 -6 15 -5 3 11 -13 15 -13 19 0 27 8 5 27 9 42 9 25 0 27 -2 17 -20 -9
-16 -7 -22 7 -28 57 -24 84 -48 80 -69 -3 -14 1 -23 9 -23 21 0 64 -22 59 -31
-3 -4 13 -10 35 -14 24 -4 46 -15 53 -26 6 -10 17 -19 24 -19 7 0 16 -6 20
-14 4 -8 21 -18 37 -22 26 -6 28 -5 22 11 -6 18 -6 18 12 2 10 -9 28 -17 39
-17 14 0 22 -8 26 -26 4 -23 0 -28 -34 -42 -39 -15 -52 -32 -24 -32 8 0 15 -4
15 -9 0 -5 10 -13 23 -17 12 -4 25 -11 28 -16 7 -11 79 10 79 23 0 13 56 29
120 33 82 6 130 16 130 27 0 5 5 9 10 9 17 0 11 -29 -9 -47 -23 -19 -19 -33
10 -33 11 0 22 -6 25 -14 3 -7 22 -16 43 -20 21 -3 43 -12 49 -19 6 -7 26 -12
46 -11 27 2 39 -4 51 -22 8 -13 19 -23 23 -21 4 1 17 -8 30 -21 27 -27 42 -29
35 -4 -3 15 2 18 31 19 42 1 48 -12 11 -21 -16 -4 -25 -13 -23 -23 2 -9 -3
-18 -11 -21 -8 -3 -11 0 -7 7 5 7 -2 11 -17 11 -14 0 -27 6 -30 13 -3 9 -16
12 -35 9 -27 -4 -29 -2 -25 22 4 19 1 26 -10 26 -21 0 -33 -20 -17 -30 9 -5 9
-9 1 -14 -16 -10 -33 3 -27 20 3 9 -4 16 -20 20 -13 3 -29 15 -35 25 -5 11
-20 19 -34 19 -13 0 -27 5 -30 10 -3 6 -25 10 -47 10 -22 0 -58 5 -80 12 -27
8 -42 8 -46 1 -15 -23 -50 -24 -65 -3 -10 14 -17 18 -22 10 -11 -17 38 -52
117 -84 24 -9 38 -22 41 -38 2 -13 5 -5 6 20 1 52 16 56 19 5 1 -21 4 -63 6
-93 3 -30 5 -62 5 -71 1 -9 8 -20 17 -23 8 -3 12 -2 9 4 -13 21 14 8 47 -22
74 -70 164 -138 175 -133 8 2 13 -4 13 -15 0 -10 5 -22 10 -25 6 -4 1 -14 -12
-25 l-23 -19 23 -1 c12 0 22 -5 22 -11 0 -6 9 -8 20 -4 11 4 20 2 20 -4 0 -6
-6 -11 -12 -11 -8 -1 -5 -7 6 -15 10 -8 22 -12 27 -10 14 9 19 -13 10 -38 -10
-27 -4 -97 9 -97 4 0 8 24 9 53 1 28 6 54 11 55 6 2 10 10 10 18 0 17 22 18
39 2 10 -11 11 -9 5 6 -7 18 -6 18 22 0 l29 -18 -18 21 c-11 12 -20 42 -22 74
-3 37 -2 49 5 39 5 -8 10 -28 10 -43 0 -16 9 -40 20 -54 11 -14 20 -31 20 -37
0 -7 18 -31 40 -55 22 -23 40 -46 40 -51 0 -4 16 -11 36 -15 47 -8 39 -16 -9
-8 -28 4 -42 13 -53 35 -12 23 -20 28 -37 23 -15 -4 -18 -3 -9 3 10 7 10 11
-3 22 -13 10 -15 9 -15 -6 1 -21 27 -60 38 -57 4 2 7 -6 7 -16 0 -11 3 -23 8
-27 4 -4 7 1 7 12 1 18 1 18 11 1 6 -9 14 -15 20 -12 5 3 6 -1 3 -9 -7 -18 27
-30 58 -20 20 6 21 5 9 -10 -7 -9 -23 -16 -35 -16 -20 0 -20 -1 3 -19 18 -14
21 -20 10 -24 -8 -3 1 -3 19 0 20 3 32 1 32 -6 0 -6 -9 -11 -19 -11 -14 0 -18
-5 -14 -21 5 -16 8 -18 15 -7 8 10 11 10 15 0 2 -7 11 -19 20 -27 8 -8 10 -15
5 -15 -6 0 -13 -7 -16 -16 -6 -15 -4 -15 19 0 22 14 25 15 25 1 0 -8 -6 -15
-14 -15 -8 0 -17 -4 -20 -9 -3 -5 5 -8 19 -7 16 0 25 7 25 17 0 9 7 19 15 23
23 9 30 7 30 -8 0 -7 7 -21 14 -30 18 -21 24 -138 8 -148 -20 -13 -3 -16 49
-9 44 6 53 4 63 -11 7 -11 7 -18 1 -18 -5 0 -10 5 -10 10 0 15 -79 12 -95 -4
-11 -10 -11 -16 -2 -25 9 -9 8 -11 -6 -6 -13 6 -18 0 -23 -24 -4 -18 -16 -39
-28 -47 -21 -15 -21 -15 -1 -30 17 -13 20 -13 26 3 5 15 6 15 13 -3 9 -23 6
-30 -14 -27 -8 2 4 -6 28 -17 46 -21 63 -47 41 -61 -10 -6 -4 -9 19 -9 19 0
32 5 32 13 0 6 5 4 11 -5 5 -10 15 -18 22 -18 8 0 7 3 -2 9 -10 7 -7 9 12 8
15 -1 27 -7 27 -14 0 -7 -7 -10 -15 -7 -10 4 -15 0 -15 -11 0 -9 -4 -13 -10
-10 -6 4 -10 -6 -10 -22 0 -22 2 -25 11 -13 8 11 12 12 16 3 2 -7 17 -13 31
-12 15 0 21 3 14 6 -16 6 -16 24 0 20 19 -3 36 -40 24 -49 -6 -4 -2 -10 9 -13
48 -16 66 -26 60 -34 -7 -12 7 -21 39 -23 14 -1 26 -6 26 -10 0 -4 0 -11 0
-15 0 -8 -5 -9 -37 -12 -10 0 -31 -13 -48 -27 -22 -20 -25 -25 -10 -20 26 7
50 -8 42 -28 -11 -29 52 -11 83 23 16 18 48 27 70 19 24 -7 24 -8 -3 -4 -21 2
-25 0 -17 -9 6 -7 20 -10 32 -7 13 3 26 -1 33 -12 11 -14 17 -15 39 -5 14 7
26 18 26 26 0 18 30 17 58 -3 25 -17 29 -34 7 -34 -8 0 -15 -7 -15 -15 0 -8
-7 -15 -15 -15 -9 0 -27 -11 -39 -24 -13 -12 -31 -26 -41 -29 -9 -4 -13 -11
-10 -17 3 -5 1 -10 -6 -10 -8 0 -8 -4 1 -15 10 -12 10 -15 -3 -15 -14 0 -14
-3 -1 -30 9 -16 20 -30 25 -30 6 0 7 5 4 11 -4 6 2 13 14 16 15 4 18 9 12 17
-6 7 -5 18 4 29 13 19 32 7 20 -13 -11 -17 5 -32 20 -20 22 18 34 3 30 -38 -3
-20 -2 -29 1 -19 11 34 29 10 36 -47 4 -31 12 -64 17 -74 7 -12 5 -22 -7 -35
-11 -13 -12 -17 -3 -15 17 4 24 -53 8 -65 -8 -6 -7 -7 4 -4 9 3 21 1 27 -5 6
-6 12 -6 17 2 4 7 2 16 -5 20 -8 5 -7 9 5 13 9 4 13 3 10 -3 -3 -6 3 -10 15
-10 17 0 20 5 18 28 -3 24 0 27 29 27 22 0 33 5 33 14 0 11 4 10 15 -5 15 -19
16 -19 13 1 -1 11 2 38 6 60 5 22 9 60 11 85 6 98 17 140 36 140 27 0 23 17
-5 24 -15 4 -25 13 -25 24 1 9 -2 27 -6 40 -9 28 9 29 29 1 15 -21 15 -21 35
12 27 43 26 47 -3 55 -33 8 -51 -3 -36 -21 10 -12 6 -12 -19 -2 -16 6 -27 15
-25 19 3 5 10 6 15 3 5 -4 19 1 31 11 14 10 16 14 6 11 -9 -3 -19 -3 -21 1 -2
4 -2 1 0 -7 2 -9 -2 -11 -13 -7 -9 4 -27 0 -39 -8 -22 -14 -23 -14 -17 7 5 19
4 20 -11 8 -9 -7 -24 -10 -34 -7 -22 9 -5 24 32 28 17 2 28 8 25 13 -3 6 -12
9 -20 7 -103 -19 -180 -8 -180 24 0 10 6 14 14 11 8 -3 17 -3 20 0 3 4 17 7
30 9 20 2 23 -1 19 -19 -4 -16 1 -13 16 11 23 35 27 37 65 22 21 -8 24 -7 19
7 -5 12 -2 15 10 10 9 -3 17 -2 17 3 0 6 7 10 16 10 8 0 13 4 10 9 -3 5 1 14
9 21 8 7 12 16 9 21 -3 5 -1 9 5 9 16 0 8 -40 -9 -41 -9 0 -10 -2 -3 -5 7 -3
10 -11 7 -19 -3 -7 3 -16 15 -20 12 -3 19 -11 16 -16 -4 -5 -2 -9 4 -9 6 0 15
9 21 20 7 14 7 20 0 20 -5 0 -10 -4 -10 -10 0 -5 -7 -7 -16 -3 -12 4 -11 8 8
17 13 6 27 21 33 34 5 12 17 22 26 22 19 0 42 -24 32 -33 -3 -4 -1 -7 6 -7 9
0 11 9 7 28 -5 22 -4 24 6 11 10 -15 14 -12 29 19 15 27 16 39 7 56 -10 19
-10 20 5 8 9 -8 22 -10 28 -6 9 5 7 10 -7 15 -14 6 -8 8 20 8 22 1 36 4 33 8
-4 3 0 17 8 30 9 13 13 23 10 23 -3 0 0 6 7 14 9 10 17 11 26 4 7 -6 14 -9 17
-7 9 10 -18 96 -37 117 -12 12 -18 22 -14 22 4 0 33 -26 64 -57 32 -33 57 -52
60 -45 2 7 9 9 14 6 7 -5 8 -2 4 5 -5 8 0 14 13 18 24 6 29 23 6 23 -9 0 -12
6 -9 15 4 8 2 15 -2 15 -5 0 -9 11 -9 25 0 14 4 25 8 25 5 0 5 5 1 11 -9 14
14 29 46 29 18 0 21 -3 11 -9 -7 -5 -11 -13 -7 -19 4 -6 -2 -8 -16 -4 -19 5
-20 4 -7 -10 8 -9 25 -14 39 -12 l25 4 -24 -20 c-13 -11 -22 -22 -20 -23 2 -2
15 -8 29 -14 25 -10 25 -10 -18 -32 -24 -12 -45 -28 -48 -35 -3 -8 -15 -17
-27 -21 -18 -6 -19 -8 -5 -12 9 -2 15 -10 12 -18 -3 -7 -1 -16 5 -20 19 -11
12 -23 -14 -21 -13 2 -23 -1 -22 -7 1 -5 -4 -12 -10 -14 -7 -3 -13 0 -13 6 0
6 -7 11 -15 11 -8 0 -15 -9 -15 -19 0 -11 -7 -26 -15 -35 -20 -19 -19 -33 3
-39 14 -4 14 -5 -3 -6 -15 -1 -16 -4 -7 -10 11 -6 10 -15 -4 -45 -11 -21 -23
-35 -31 -32 -7 3 -15 1 -18 -4 -4 -6 3 -10 14 -10 16 0 20 -5 17 -22 -3 -13
-5 -25 -5 -28 -1 -3 -10 -6 -21 -6 -13 0 -19 5 -16 13 3 7 1 23 -5 35 l-10 23
5 -22 c2 -13 0 -25 -4 -28 -5 -3 -8 -13 -7 -23 0 -9 -5 -39 -12 -65 -13 -46
-13 -48 11 -67 28 -21 32 -74 7 -92 -11 -8 -11 -11 -1 -15 10 -4 10 -8 0 -21
-11 -13 -10 -15 5 -9 11 4 17 2 17 -8 0 -8 -7 -15 -16 -15 -8 0 -12 -5 -9 -10
4 -6 11 -7 17 -4 7 4 8 2 4 -5 -4 -7 -13 -10 -19 -8 -11 3 -36 -20 -37 -34 0
-4 12 -15 28 -25 21 -14 24 -14 14 -2 -10 13 -10 17 0 20 7 3 23 -17 37 -45
19 -37 23 -51 13 -54 -6 -3 -10 -9 -7 -14 3 -5 1 -18 -5 -29 -9 -16 -8 -20 6
-20 11 0 14 -5 10 -16 -4 -9 -2 -22 2 -28 16 -19 22 -84 9 -89 -7 -2 -9 -8 -5
-12 4 -4 14 -2 23 5 8 7 15 8 15 2 0 -5 -7 -15 -15 -22 -18 -15 -20 -34 -2
-27 18 7 16 -56 -3 -65 -13 -6 -13 -7 0 -7 12 -1 15 -16 15 -70 0 -38 -3 -67
-7 -65 -4 3 0 -12 8 -32 9 -23 11 -33 3 -29 -8 5 -9 1 -4 -16 4 -13 12 -27 18
-31 5 -3 11 -22 12 -41 1 -19 5 -39 9 -46 4 -6 4 -20 1 -31 -7 -21 10 -28 18
-7 2 6 4 0 3 -15 0 -16 -5 -28 -10 -28 -4 0 -5 -11 -2 -24 4 -16 0 -30 -9 -40
-19 -18 -19 -24 0 -42 10 -11 12 -28 8 -64 -6 -48 -5 -50 19 -50 15 0 25 -6
25 -15 0 -8 -4 -15 -9 -15 -4 0 -8 5 -8 11 0 5 -4 7 -10 4 -16 -10 -11 -33 8
-37 13 -3 17 -13 17 -46 0 -37 -2 -41 -20 -35 -17 5 -18 4 -7 -10 7 -8 11 -19
10 -23 -2 -5 2 -9 7 -9 6 0 9 5 7 10 -2 6 2 5 8 -1 6 -6 13 -24 14 -39 3 -19
-2 -29 -18 -35 -17 -7 -18 -9 -3 -9 9 -1 17 -5 17 -10 0 -10 -101 7 -114 20
-6 5 -20 9 -32 9 -13 0 -29 9 -36 19 -12 17 -14 14 -15 -32 -1 -38 -15 -84
-53 -172 -28 -66 -55 -127 -60 -135 -20 -30 -53 -95 -49 -95 7 0 -59 -90 -80
-110 -20 -17 -21 -20 -5 -25 12 -4 26 3 44 23 l26 29 -1 -25 c0 -14 -6 -32
-14 -39 -11 -11 -12 -9 -1 12 l13 25 -24 -21 c-19 -17 -29 -20 -47 -13 -17 6
-30 5 -45 -6 -12 -8 -43 -15 -70 -15 -44 0 -54 4 -89 40 -22 22 -42 40 -44 40
-2 0 -4 -9 -4 -19 0 -11 -4 -22 -9 -26 -6 -3 -6 7 0 27 15 54 31 88 41 88 8 0
5 -18 -9 -56 -7 -20 74 -84 108 -84 68 0 123 44 177 141 l31 56 -62 -15 c-34
-7 -79 -14 -100 -13 -31 0 -38 -3 -33 -16 5 -12 1 -14 -14 -10 -13 3 -18 1
-13 -6 3 -6 7 -24 8 -39 2 -24 -2 -28 -19 -26 -24 4 -34 48 -38 175 -2 46 -5
83 -8 83 -12 -1 -40 -28 -40 -39 0 -6 -5 -11 -11 -11 -5 0 -8 4 -5 9 3 5 -18
7 -47 6 -54 -4 -194 28 -373 85 -172 55 -212 78 -229 130 -10 31 -22 24 -29
-18 -12 -75 -68 -130 -275 -269 -77 -51 -86 -55 -112 -45 -37 13 -37 3 2 -31
18 -15 43 -27 58 -27 26 0 37 6 103 66 15 13 31 24 36 24 7 0 77 49 144 100
26 20 58 27 58 13 0 -5 -20 -20 -43 -36 -84 -55 -112 -78 -124 -105 -8 -18
-12 -21 -13 -9 0 9 -4 17 -9 17 -8 0 -54 -33 -79 -57 -7 -7 -24 -16 -38 -19
-13 -3 -24 -9 -24 -13 0 -10 52 -35 68 -32 8 1 12 -12 12 -39 0 -23 5 -40 11
-40 8 0 10 14 6 45 -5 35 -3 45 8 45 8 0 15 -13 17 -34 l3 -35 53 25 c47 21
52 27 46 47 -4 12 -15 29 -24 37 -17 15 -24 54 -8 44 4 -3 8 -12 8 -20 0 -12
11 -18 31 -16 3 1 5 -10 3 -23 -3 -29 -3 -29 40 -11 28 12 33 18 30 42 -10 97
-9 104 17 104 8 0 8 -4 0 -14 -9 -10 -9 -16 -1 -21 6 -4 9 -13 6 -21 -3 -8 -3
-21 1 -30 5 -13 7 -13 14 -2 14 20 31 -11 23 -42 -10 -47 -52 -125 -81 -151
-48 -44 -121 -91 -131 -85 -6 3 -12 -1 -15 -9 -7 -17 -67 -49 -67 -35 0 5 -4
10 -10 10 -5 0 -10 -9 -10 -19 0 -11 -9 -23 -20 -26 -23 -7 -26 -21 -7 -28 9
-4 9 -6 0 -6 -6 -1 -15 4 -18 9 -9 14 -35 12 -35 -2 -1 -18 -107 -80 -136 -80
-14 -1 -34 8 -46 18 -21 19 -21 19 -9 -3 15 -29 50 -53 76 -53 12 0 52 18 91
41 38 23 94 56 124 74 30 17 80 45 110 61 30 16 57 31 60 35 12 13 83 52 77
42 -4 -6 -1 -14 5 -16 17 -7 -12 -29 -29 -22 -7 2 -13 1 -13 -4 0 -12 -52 -35
-74 -32 -10 2 -16 -2 -12 -7 8 -13 -159 -126 -177 -119 -9 3 -17 -2 -20 -13
-3 -11 -21 -27 -41 -37 -20 -9 -36 -20 -36 -25 0 -4 -7 -8 -16 -8 -10 0 -14 5
-10 16 3 8 2 12 -4 9 -16 -10 -12 -23 11 -35 17 -9 23 -8 35 7 11 12 17 14 20
6 3 -7 13 -9 22 -6 14 5 15 3 5 -8 -8 -7 -13 -39 -13 -76 0 -48 -4 -64 -17
-72 -10 -6 -13 -10 -8 -11 15 0 40 18 41 30 1 5 2 28 3 50 1 28 5 40 16 40 11
0 15 -11 15 -36 0 -28 3 -35 18 -32 9 2 19 14 20 27 3 16 0 21 -8 16 -9 -5
-10 -1 -5 15 13 41 13 55 -3 73 -14 15 -14 17 1 17 22 0 27 -11 29 -73 2 -54
2 -55 28 -44 35 15 50 28 49 41 -3 26 2 35 16 30 8 -4 12 -10 9 -15 -3 -5 -10
-6 -16 -3 -7 4 -8 2 -4 -5 6 -9 13 -9 29 2 12 7 54 32 92 55 l71 40 -4 71 c-4
71 -4 71 22 71 14 0 26 -4 26 -10 0 -5 -6 -10 -13 -10 -8 0 -11 -14 -9 -45 2
-25 8 -45 13 -45 5 0 9 -4 9 -10 0 -5 -5 -9 -12 -7 -13 2 -18 -22 -8 -38 4 -5
17 -35 29 -66 12 -31 27 -56 34 -56 24 -1 99 -24 94 -30 -3 -3 -29 0 -58 6
-41 9 -54 9 -61 -1 -4 -7 -8 -10 -8 -6 0 12 -220 -101 -220 -112 0 -6 25 3 55
20 30 16 79 43 108 58 28 16 61 28 72 26 115 -15 185 -38 168 -55 -6 -6 -21
-4 -39 6 -34 17 -54 19 -54 5 0 -5 -10 -10 -22 -10 -31 0 -16 -10 18 -11 62
-3 104 -19 104 -39 0 -26 -10 -25 -42 5 -29 27 -51 33 -42 13 2 -7 23 -22 46
-33 23 -11 55 -31 70 -43 15 -13 28 -21 28 -17 0 4 7 2 15 -5 12 -10 15 -10
15 1 0 12 2 12 9 1 9 -15 61 -24 61 -11 0 9 -15 13 -33 10 -5 -1 -6 3 -2 9 9
15 41 -5 48 -30 4 -16 1 -20 -11 -16 -63 18 -268 31 -342 21 -14 -2 -29 -4
-33 -4 -5 -1 -5 -6 -1 -13 5 -8 2 -9 -10 -5 -26 10 -113 -33 -126 -61 -6 -14
-16 -22 -24 -19 -7 3 -19 0 -25 -6 -6 -6 -13 -8 -17 -5 -3 4 8 14 24 22 17 9
34 21 37 27 4 6 -7 4 -23 -5 -17 -9 -34 -20 -37 -26 -4 -6 -10 -8 -15 -5 -11
7 -62 -18 -79 -38 -9 -12 -9 -17 0 -23 7 -4 9 -3 6 3 -7 11 41 28 50 19 8 -8
-7 -26 -23 -26 -8 0 -12 -5 -9 -10 4 -6 3 -10 -2 -9 -17 3 -29 -2 -53 -22
l-25 -20 35 5 c30 5 31 5 12 -4 -24 -10 -72 -4 -72 9 0 4 -10 7 -22 6 -25 -1
-68 -25 -68 -38 0 -4 12 1 27 10 15 10 24 12 20 6 -10 -16 14 -18 29 -3 8 8
15 6 25 -6 12 -15 12 -16 -9 -10 -18 6 -21 4 -16 -11 4 -14 4 -15 -4 -4 -5 7
-15 10 -21 7 -6 -4 -11 -1 -11 6 -1 8 -7 5 -18 -8 -10 -11 -23 -19 -30 -16 -6
2 -12 -1 -12 -7 0 -6 5 -11 11 -11 5 0 7 -4 4 -10 -9 -14 -42 -12 -48 3 -3 7
-6 5 -6 -5 -1 -23 -51 -48 -98 -48 -57 0 -106 -18 -126 -45 -17 -24 -15 -51 3
-40 12 8 32 -22 27 -42 -4 -14 -5 -13 -6 5 0 12 -5 22 -10 22 -12 0 -23 -29
-15 -41 9 -15 46 -10 61 9 13 16 14 15 10 -5 -3 -13 -1 -23 5 -23 5 0 6 -5 3
-11 -4 -6 -13 -8 -20 -5 -10 4 -13 -4 -10 -32 1 -20 3 -43 4 -49 1 -7 5 -13
10 -13 5 0 7 18 5 41 -3 33 -1 40 11 35 10 -3 15 1 15 11 0 9 3 13 7 9 8 -8
14 -34 14 -58 0 -10 4 -18 9 -18 13 0 25 23 22 43 -3 14 2 13 24 -8 15 -14 33
-25 41 -25 11 0 11 -3 1 -14 -7 -8 -16 -12 -20 -9 -5 2 -8 -1 -8 -6 0 -6 -11
-11 -24 -11 -13 0 -29 -7 -36 -15 -7 -9 -22 -13 -34 -10 -12 3 -15 2 -8 -1 18
-9 15 -34 -5 -35 -10 0 -13 -3 -7 -5 7 -3 10 -14 7 -24 -5 -19 -20 -25 -52
-20 -12 1 -13 -1 -3 -13 9 -10 25 -13 57 -10 52 6 105 -2 131 -21 17 -13 16
-15 -23 -25 -22 -6 -44 -18 -47 -26 -7 -18 7 -18 59 0 22 8 50 15 61 15 26 0
75 -47 72 -69 -2 -11 4 -16 20 -15 19 1 23 -3 19 -22 -2 -13 0 -21 7 -18 16 6
38 -50 31 -83 -5 -27 -5 -27 5 -4 6 13 8 42 6 63 -6 50 16 47 25 -3 5 -28 7
-29 8 -8 0 14 4 28 7 32 10 9 64 -22 61 -35 -1 -7 23 -21 53 -32 30 -11 57
-24 58 -28 4 -8 108 -78 116 -78 2 0 2 18 0 41 -3 33 -1 40 11 35 17 -6 21 9
5 19 -6 4 -10 12 -8 18 3 18 -35 77 -49 77 -7 0 -13 5 -13 11 0 6 15 10 33 9
62 -4 77 -1 71 14 -4 10 2 16 18 18 19 2 12 9 -42 40 l-65 37 50 -5 c28 -4 60
-13 73 -21 12 -7 26 -12 30 -10 4 2 21 -2 37 -9 19 -8 23 -13 13 -14 -10 0
-18 -5 -18 -11 0 -6 9 -9 19 -6 35 9 61 -74 50 -165 -2 -16 -7 -28 -11 -28 -3
0 -12 -16 -19 -35 -8 -22 -20 -35 -31 -35 -13 0 -18 -8 -19 -27 l-1 -28 -8 30
-8 30 -2 -35 -2 -35 -11 35 -10 35 -7 -30 -8 -30 -2 30 -2 30 -9 -27 c-6 -16
-16 -25 -23 -22 -20 8 -25 -17 -15 -71 10 -51 5 -69 -12 -45 -9 12 -10 12 -5
-3 3 -10 6 -24 6 -30 0 -7 4 -6 9 2 8 12 12 12 25 2 9 -8 16 -10 16 -7 0 4 10
0 22 -8 16 -12 25 -13 35 -4 10 8 17 8 26 -1 9 -10 8 -11 -5 -6 -11 4 -18 2
-18 -4 0 -6 -7 -11 -17 -11 -9 0 -13 -3 -10 -7 8 -7 -51 -63 -67 -64 -6 0 -28
-2 -48 -4 -29 -3 -36 -1 -31 11 3 7 0 14 -6 14 -6 0 -17 13 -25 29 -30 57 -87
36 -71 -26 4 -17 1 -29 -7 -34 -10 -7 -10 -9 1 -9 8 0 -3 -13 -23 -29 l-36
-29 -48 24 c-26 13 -57 31 -70 40 -21 15 -22 15 -16 0 3 -9 12 -16 20 -16 8 0
14 -5 14 -10 0 -6 16 -18 35 -27 19 -9 35 -20 35 -24 0 -18 -44 -38 -71 -32
-18 3 -29 1 -29 -5 0 -6 -6 -9 -14 -6 -7 3 -13 11 -12 19 0 8 -3 14 -8 14 -5
-1 -12 4 -16 10 -4 8 -14 5 -30 -9 -18 -15 -26 -17 -37 -8 -8 6 -12 17 -9 24
8 21 -12 27 -22 7 -5 -10 -12 -34 -15 -54 -3 -19 -13 -53 -22 -75 -16 -36 -18
-37 -25 -17 -5 12 -17 26 -27 32 -10 6 -12 11 -5 11 6 0 12 7 12 15 0 8 11 17
24 21 14 3 27 13 30 21 6 16 4 15 -55 -3 -9 -3 -16 0 -16 8 -3 43 -11 79 -22
91 -6 9 -14 34 -17 58 -3 23 -9 50 -14 59 -5 10 -7 20 -4 23 3 3 2 12 -2 19
-5 7 -7 45 -5 84 2 45 -2 74 -8 79 -6 3 -8 11 -5 17 4 6 -1 8 -12 6 -11 -2
-17 -11 -15 -19 2 -8 5 -38 7 -67 2 -29 6 -57 9 -62 3 -6 1 -10 -5 -10 -5 0
-18 16 -27 35 -19 39 -29 44 -38 16 -3 -10 -16 -22 -28 -26 -19 -6 -20 -8 -4
-12 11 -3 24 3 33 14 12 16 15 16 24 3 5 -8 10 -23 10 -33 0 -10 4 -16 9 -12
11 6 15 -6 32 -90 37 -195 37 -199 -10 -213 -21 -7 -57 -12 -80 -12 -24 0 -41
-5 -41 -11 0 -12 39 -9 131 7 l36 6 9 -83 c4 -46 8 -101 8 -121 0 -45 12 -48
63 -17 19 12 36 19 39 16 8 -7 -44 -35 -140 -74 -91 -38 -121 -43 -58 -11 34
18 39 24 26 31 -8 5 -18 6 -21 3 -7 -7 -43 23 -43 36 0 4 7 8 15 8 8 0 15 -4
15 -10 0 -5 5 -10 10 -10 17 0 11 14 -10 28 -16 9 -24 10 -39 0 -22 -13 -51 3
-51 29 0 8 -4 12 -10 8 -6 -4 -6 -15 0 -31 15 -39 12 -40 -20 -6 -16 18 -30
28 -30 24 0 -4 -8 9 -17 28 -22 44 -35 58 -51 52 -7 -2 -12 0 -11 5 4 18 -14
43 -33 43 -10 0 -16 5 -13 10 10 16 -23 24 -40 10 -9 -7 -14 -19 -13 -28 2 -8
-3 -17 -9 -19 -7 -3 -13 0 -13 6 0 6 -4 11 -10 11 -5 0 -10 -6 -10 -13 0 -20
52 -46 75 -37 47 16 100 1 108 -32 6 -22 5 -22 -8 -4 -11 15 -29 18 -98 20
-63 1 -83 4 -80 13 7 18 -21 16 -60 -3 l-32 -15 25 21 c14 11 34 25 45 30 17
7 17 9 3 9 -10 1 -18 6 -18 11 0 6 8 10 18 11 10 0 12 3 5 6 -7 2 -23 -3 -35
-11 -19 -14 -20 -16 -5 -16 17 0 17 -1 3 -16 -9 -8 -21 -12 -27 -8 -8 4 -9 3
-5 -4 4 -7 3 -12 -2 -12 -9 0 -26 -55 -23 -75 1 -5 -5 -2 -12 7 -8 10 -22 18
-31 18 -9 0 -16 5 -16 10 0 6 9 10 20 10 11 0 20 5 20 10 0 23 -39 8 -52 -20
-14 -32 -27 -37 -46 -18 -7 7 -12 8 -12 2 0 -5 -5 -2 -11 6 -8 12 -9 11 -7 -5
3 -17 -2 -20 -32 -17 -36 3 -52 16 -43 39 4 9 -4 13 -25 13 -28 0 -54 18 -51
36 4 23 -2 45 -11 39 -5 -3 -10 3 -10 14 0 12 -6 21 -12 22 -7 0 -2 5 12 11
21 9 22 12 8 15 -19 5 -25 23 -7 23 5 0 7 5 4 10 -3 6 -1 10 5 10 6 0 8 4 5
10 -9 15 7 12 29 -5 30 -22 49 -19 41 7 -6 17 -4 20 10 15 9 -4 26 -7 38 -8
12 0 17 -3 11 -5 -17 -7 -5 -42 17 -49 11 -4 16 -12 13 -23 -5 -14 -4 -14 4
-3 11 15 5 41 -9 41 -5 0 -9 5 -9 11 0 6 7 9 15 5 13 -5 19 5 16 26 0 4 6 5
14 2 10 -4 20 7 31 34 18 41 38 46 73 18 11 -8 15 -8 19 2 2 7 11 19 19 28 12
11 13 18 4 27 -8 8 -11 8 -11 -1 0 -7 -4 -12 -10 -12 -5 0 -10 9 -10 20 0 10
-8 24 -17 29 -17 10 -17 10 0 11 11 0 17 8 17 25 0 16 -6 25 -15 25 -18 0 -20
26 -3 33 7 3 3 6 -9 6 -13 1 -23 -5 -23 -11 0 -7 -9 -2 -19 11 -11 15 -24 22
-34 18 -9 -3 -18 1 -22 11 -6 16 -7 16 -16 0 -6 -10 -15 -18 -21 -18 -7 0 -6
5 2 15 22 26 -4 43 -55 37 -33 -3 -45 -1 -45 8 0 8 -7 22 -16 32 -16 17 -15
17 26 13 23 -2 51 -12 61 -21 40 -36 17 1 -25 41 -39 36 -50 41 -86 39 -45 -2
-68 -14 -29 -15 20 0 21 -1 6 -8 -14 -5 -30 3 -59 30 -37 34 -44 60 -15 58 9
0 8 -2 -1 -6 -24 -9 0 -23 41 -23 l42 0 -32 23 c-37 25 -47 55 -12 37 11 -6
25 -9 32 -7 7 3 4 8 -8 13 -11 4 -37 22 -58 41 -20 18 -44 33 -52 33 -8 0 -15
5 -15 10 0 6 6 10 13 9 6 -1 20 -1 30 0 25 1 11 21 -15 21 -17 0 -19 4 -14 26
5 17 3 24 -4 19 -7 -4 -14 2 -17 14 -4 16 -14 21 -42 22 -20 1 -39 1 -43 0 -5
0 -8 6 -8 14 0 8 -9 19 -20 25 -22 12 -27 1 -9 -17 6 -6 8 -17 4 -23 -6 -9
-10 -9 -16 1 -8 12 -10 12 -18 0 -6 -9 -11 -10 -15 -2 -4 6 -3 11 2 11 15 0 9
29 -7 36 -14 5 -13 7 4 14 19 8 19 9 -3 9 -13 1 -33 6 -45 12 -20 9 -20 9 -5
-4 10 -8 15 -17 11 -20 -3 -4 -1 -7 6 -7 7 0 10 -10 7 -24 -2 -14 1 -27 7 -30
8 -3 8 -5 -1 -5 -8 -1 -16 7 -19 18 -2 10 -15 24 -27 30 -21 12 -45 54 -50 88
-2 9 -17 24 -34 33 -17 8 -32 20 -32 27 0 7 -9 17 -21 24 -14 7 -19 17 -16 30
3 10 1 22 -4 25 -14 8 -11 26 4 18 6 -4 0 4 -15 19 -16 14 -28 33 -28 42 0 8
-4 15 -8 15 -5 0 -9 6 -9 13 0 6 -4 21 -9 32 -7 18 -6 18 9 6 9 -7 17 -20 17
-27 0 -8 6 -14 13 -14 13 0 74 -75 96 -117 6 -13 19 -23 27 -23 10 0 14 -7 12
-21 -2 -15 8 -27 40 -46 l42 -25 0 31 c0 24 -4 31 -20 31 -11 0 -20 -4 -20
-10 0 -5 -5 -10 -11 -10 -7 0 -8 11 -4 30 4 19 3 30 -4 30 -6 0 -11 12 -10 28
1 23 2 24 7 7 11 -33 40 -68 51 -61 5 4 8 13 5 21 -4 8 -11 12 -17 8 -6 -3 -7
-1 -3 5 13 22 -13 51 -52 57 -57 10 -72 15 -72 26 0 6 4 8 9 4 16 -10 101 -23
96 -15 -3 5 1 10 7 13 7 2 9 8 5 13 -4 4 -16 3 -27 -4 -12 -7 -21 -8 -25 -2
-3 6 6 15 21 20 22 9 30 7 45 -9 11 -11 19 -25 19 -31 0 -5 4 -10 10 -10 15 0
60 -72 60 -97 0 -13 5 -23 10 -23 6 0 10 5 10 10 0 7 7 7 21 -1 17 -9 20 -8
16 3 -3 7 -13 36 -22 64 -11 36 -22 54 -37 57 -16 5 -20 12 -16 36 5 37 1 40
-12 9 -8 -22 -9 -22 -9 -3 -1 12 4 26 10 32 7 7 4 12 -14 17 -13 3 -24 11 -24
18 0 7 -4 21 -8 31 -5 13 -2 17 13 17 17 0 19 4 13 33 -5 18 -13 42 -20 55
-15 27 1 62 28 62 31 0 33 28 3 55 -15 14 -31 25 -37 26 -5 0 4 5 20 10 19 5
31 5 33 -1 5 -13 32 -13 32 0 0 6 -7 10 -15 10 -8 0 -12 6 -9 14 3 8 1 17 -5
21 -6 3 -11 -1 -11 -9 0 -20 -15 -20 -73 0 -40 14 -47 20 -47 42 l1 27 17 -21
c23 -27 68 -39 75 -20 3 7 0 19 -6 26 -12 13 -9 13 41 -7 15 -6 15 -5 2 8 -8
8 -23 18 -32 22 -19 7 -25 27 -8 27 6 0 10 3 10 8 0 4 -19 9 -42 10 -89 6 -86
5 -83 32 l3 25 -16 -23 -16 -24 -30 37 c-28 33 -33 35 -58 26 -18 -7 -28 -7
-28 -1 0 6 7 10 15 10 8 0 15 4 15 9 0 5 -9 7 -20 4 -12 -3 -20 0 -20 6 0 8
-12 10 -37 6 -32 -4 -35 -4 -17 6 28 14 46 53 32 67 -6 6 -7 15 -3 22 5 8 11
6 20 -7 9 -11 10 -22 4 -28 -17 -17 -9 -30 22 -32 17 -1 38 -8 47 -15 10 -8 7
0 -6 18 -12 17 -26 43 -32 58 -10 26 -17 30 -57 26 -15 -1 -23 4 -23 14 0 9
-4 16 -9 16 -6 0 -6 -12 -1 -30 10 -36 -6 -52 -19 -18 -5 13 -7 26 -4 30 2 4
-3 5 -11 2 -10 -4 -16 -1 -16 10 0 10 -6 13 -15 10 -17 -7 -21 11 -4 22 8 4 7
9 -2 15 -11 7 -11 9 1 9 25 0 43 -17 35 -31 -7 -12 -6 -12 6 -1 12 11 11 16
-9 32 l-23 19 31 -1 c17 -1 27 -4 21 -7 -5 -4 -4 -14 5 -25 7 -11 17 -16 21
-12 4 4 2 11 -5 15 -7 4 -12 14 -10 21 2 8 -11 18 -29 23 -36 11 -131 92 -120
103 3 4 12 3 19 -3 17 -13 56 -14 63 -2 5 8 -15 14 -37 10 -4 0 -5 6 -1 15 3
9 12 13 21 9 9 -3 13 -3 9 1 -4 4 -33 8 -65 9 -31 2 -49 0 -39 -2 9 -2 17 -11
17 -19 0 -11 -4 -12 -19 -2 -21 13 -66 98 -52 98 5 0 11 -6 14 -12 3 -9 9 -7
20 7 14 18 15 18 11 -13 -3 -26 0 -32 16 -32 10 0 22 -4 25 -10 3 -6 14 -10
23 -10 13 0 10 6 -11 26 -16 14 -26 32 -24 38 3 7 -4 18 -14 25 -11 6 -17 17
-13 23 4 6 3 8 -3 5 -5 -3 -17 5 -27 19 -11 13 -28 25 -40 25 -15 1 -13 3 9 9
28 7 29 8 5 9 -18 1 -26 7 -27 21 -1 11 3 19 9 17 6 -1 13 4 15 11 3 6 0 12
-6 12 -6 0 -8 8 -4 18 3 9 3 14 -1 10 -5 -4 -19 -3 -32 2 -14 6 -26 6 -29 0
-4 -6 -13 -10 -21 -10 -9 0 -23 -7 -31 -16 -13 -13 -14 -20 -5 -35 10 -16 10
-21 -2 -25 -9 -3 -18 -15 -22 -26 -6 -19 -6 -19 -19 -1 -7 10 -11 21 -8 26 8
13 -21 3 -32 -11 -8 -10 -18 -3 -43 31 -18 25 -32 50 -32 57 0 7 -8 9 -22 4
-13 -4 -29 -7 -35 -7 -7 0 -13 -4 -13 -9 0 -4 -9 -3 -19 4 -28 17 -17 26 28
22 45 -4 77 19 40 29 -13 4 -18 10 -14 18 6 9 -1 10 -28 5 -24 -5 -37 -3 -40
6 -3 8 -6 6 -6 -4 -1 -10 -5 -18 -11 -18 -5 0 -6 8 -3 17 5 13 2 15 -11 10
-10 -4 -15 -3 -11 3 3 6 13 10 21 10 8 0 14 7 14 16 0 8 4 13 9 9 5 -3 12 4
16 15 3 11 13 20 21 20 17 0 18 21 2 39 -9 9 -9 12 -1 7 7 -4 13 2 15 16 2 12
9 23 17 26 8 3 11 0 7 -6 -3 -6 0 -13 6 -15 8 -3 9 -6 2 -6 -7 -1 -10 -16 -8
-38 1 -21 -2 -41 -9 -45 -9 -5 -9 -8 -1 -8 14 0 48 49 49 70 0 8 -4 24 -8 35
-8 16 -7 18 4 8 19 -19 26 -16 25 10 -1 17 4 22 22 21 25 -1 30 14 7 22 -10 4
-13 13 -10 25 4 11 4 19 1 19 -8 0 -51 -44 -51 -52 0 -15 -13 -18 -18 -3 -4 8
-2 15 2 15 15 0 21 30 11 50 -13 25 -2 53 19 46 9 -3 6 2 -6 10 -13 9 -23 25
-23 36 0 11 10 29 23 39 22 20 22 20 0 10 -12 -6 -25 -11 -29 -11 -11 0 19 32
38 39 11 4 14 11 9 19 -6 10 -15 7 -39 -13 -36 -30 -43 -23 -12 10 20 21 19
55 -1 55 -5 0 -22 14 -37 30 -16 17 -32 30 -35 30 -11 0 -47 34 -47 43 0 5 8
6 18 3 12 -4 19 -1 19 7 0 9 -7 12 -18 10 -11 -3 -32 6 -51 22 -30 25 -31 27
-8 20 14 -5 32 -9 40 -10 35 -4 59 -17 65 -36 4 -11 9 -18 11 -16 9 9 -20 57
-34 57 -8 0 -12 6 -9 14 8 19 -12 36 -43 36 -18 0 -38 12 -59 35 -17 19 -26
35 -19 35 8 0 7 4 -3 10 -9 5 -20 25 -23 44 -8 41 -43 123 -56 131 -5 3 -7 12
-3 20 3 8 0 15 -7 15 -7 0 -9 8 -4 22 6 20 5 21 -10 9 -14 -12 -16 -11 -16 7
0 11 -7 25 -15 32 -10 8 -13 21 -8 38 4 17 2 23 -6 18 -6 -4 -11 -3 -11 3 0 5
5 11 11 13 14 5 -44 178 -65 193 -12 9 -13 14 -3 25 9 10 9 13 0 17 -14 5 -18
35 -6 46 3 4 17 -3 31 -15 l24 -23 -13 30 c-7 17 -21 39 -31 51 -10 11 -18 27
-18 35 0 8 -7 24 -15 35 -8 10 -15 29 -15 42 0 13 -6 22 -16 22 -9 0 -12 5 -8
12 4 7 9 39 10 73 1 33 5 70 9 83 6 17 3 22 -10 22 -11 0 -15 5 -12 14 4 11 1
13 -10 9 -11 -4 -14 -2 -9 5 4 7 1 12 -7 12 -9 0 -17 15 -21 40 -5 31 -11 41
-31 46 -14 3 -22 10 -19 15 3 5 -1 9 -8 9 -8 0 -9 3 -3 8 6 4 9 14 9 22 -1 8
-2 23 -3 33 0 10 -5 15 -11 12 -6 -3 -7 1 -4 9 3 9 12 16 20 16 8 0 14 5 14
10 0 7 -6 7 -19 1 -20 -11 -31 -5 -31 17 0 11 3 12 14 3 11 -10 15 -8 18 6 3
10 1 29 -4 42 -6 18 -5 22 5 18 10 -4 13 1 9 18 -4 21 -7 23 -29 14 -14 -5
-28 -7 -31 -4 -3 3 1 5 8 5 7 0 10 3 6 8 -4 4 -11 7 -14 7 -13 0 -47 30 -50
44 -2 8 -11 21 -20 28 -15 12 -15 13 7 11 15 -2 26 3 28 12 4 13 3 13 -6 0 -9
-12 -11 -10 -11 13 0 15 -6 27 -12 27 -9 0 -9 3 1 9 12 8 12 11 0 25 -8 8 -19
21 -24 28 -12 15 -12 65 -1 121 5 26 4 37 -3 33 -14 -9 18 97 33 107 8 5 7 10
-4 18 -13 9 -13 11 -1 16 10 4 8 9 -10 20 -13 8 -16 12 -6 9 21 -7 23 10 1 18
-8 3 -12 11 -9 16 9 14 -100 230 -127 253 -11 9 -16 17 -12 17 5 0 -8 12 -29
27 -24 17 -37 34 -37 49 0 13 -5 26 -11 30 -6 3 -9 19 -7 35 3 16 2 29 -2 29
-14 0 -24 188 -11 223 10 26 31 38 31 17 0 -5 12 -26 26 -47 25 -37 43 -58 32
-38 -8 14 -43 94 -62 138 -14 34 -29 56 -77 115 -17 20 -89 183 -89 200 0 11
12 4 38 -21 21 -21 41 -35 44 -31 4 3 4 -3 1 -15 -4 -17 -1 -21 18 -21 19 0
21 -2 9 -10 -13 -9 -13 -11 0 -20 26 -16 25 51 -1 96 -14 25 -25 66 -30 114
-4 41 -13 99 -20 128 l-12 52 -168 0 -169 0 0 -4245z m2415 4185 c3 -5 1 -10
-4 -10 -6 0 -11 5 -11 10 0 6 2 10 4 10 3 0 8 -4 11 -10z m25 -25 c-7 -9 -15
-13 -19 -10 -3 3 1 10 9 15 21 14 24 12 10 -5z m30 -9 c0 -3 -4 -8 -10 -11 -5
-3 -10 -1 -10 4 0 6 5 11 10 11 6 0 10 -2 10 -4z m1660 -26 c-6 -11 -16 -20
-22 -20 -6 0 -3 9 7 20 10 11 20 20 22 20 2 0 -1 -9 -7 -20z m670 -8 c0 -32
53 -102 78 -102 26 0 82 -38 82 -55 0 -8 6 -15 13 -15 6 0 33 -10 60 -22 41
-20 47 -26 46 -53 l-1 -30 -9 33 c-7 22 -16 32 -29 32 -11 0 -20 5 -20 10 0 6
-15 10 -32 10 -35 0 -61 12 -58 26 3 24 -10 44 -30 44 -34 0 -79 28 -96 61
-19 37 -27 89 -14 89 6 0 10 -12 10 -28z m-938 -24 c25 -17 34 -19 49 -10 24
15 50 15 72 -2 15 -12 9 -14 -45 -19 -43 -5 -76 -2 -103 7 -22 8 -44 11 -50 8
-5 -4 -14 -7 -20 -7 -5 0 -10 -12 -9 -26 1 -26 0 -26 -55 -24 -69 4 -101 -3
-101 -21 0 -8 -3 -13 -7 -12 -5 1 -24 -12 -43 -31 -46 -43 -65 -49 -125 -41
-45 7 -46 8 -15 10 19 1 44 2 55 1 28 -2 95 66 73 74 -8 3 -19 5 -24 4 -22 -4
-71 14 -71 27 0 19 24 17 75 -6 l42 -19 17 26 c16 24 20 25 74 19 53 -6 58 -5
78 20 14 18 27 25 41 21 10 -3 24 1 31 9 16 19 26 18 61 -8z m-862 -114 c0 -8
-5 -12 -10 -9 -6 4 -8 11 -5 16 9 14 15 11 15 -7z m1933 -53 c20 -7 37 -18 37
-26 0 -7 10 -16 23 -19 21 -6 20 -7 -12 -21 -19 -9 -32 -18 -28 -21 3 -3 14 0
26 8 18 11 26 10 55 -6 19 -10 41 -16 49 -13 15 6 84 -50 74 -59 -3 -3 -19 4
-36 17 -17 12 -32 21 -33 18 -2 -2 -11 -14 -22 -26 -18 -22 -18 -22 23 -33 25
-7 41 -17 41 -26 0 -8 -4 -12 -10 -9 -5 3 -10 2 -10 -4 0 -11 -40 -27 -55 -22
-5 2 -28 3 -50 2 -22 0 -55 4 -75 11 l-35 12 30 6 c19 3 30 11 30 22 0 9 4 20
8 24 15 15 6 26 -17 20 -15 -4 -26 -1 -29 7 -4 9 -8 9 -14 1 -11 -15 -104 -35
-130 -28 -11 3 -24 1 -27 -5 -4 -6 -25 -11 -48 -11 -39 0 -40 0 -20 -17 20
-18 20 -18 -1 -37 -20 -19 -20 -19 -13 8 4 15 2 26 -3 26 -12 0 -33 -35 -25
-43 8 -8 -57 -28 -103 -33 -32 -2 -41 0 -37 10 3 8 -4 16 -17 19 -13 4 -21 9
-18 12 8 8 69 -6 64 -15 -2 -4 17 -3 43 1 43 9 56 17 52 35 -1 4 4 11 12 15
23 15 -16 11 -55 -6 -20 -8 -44 -12 -54 -9 -15 5 -16 4 -3 -5 17 -12 10 -14
-14 -5 -9 3 -13 10 -10 15 3 5 4 9 2 10 -2 0 -36 2 -75 5 -59 5 -73 3 -73 -8
0 -10 -9 -13 -29 -10 -16 2 -32 -1 -35 -7 -4 -7 1 -11 13 -11 11 0 22 -4 26
-10 3 -5 -15 -7 -47 -3 l-53 5 34 -31 c18 -18 36 -30 39 -27 3 3 26 -6 52 -21
l47 -26 36 27 c22 17 38 23 42 16 3 -5 17 -7 31 -4 17 4 31 0 45 -12 24 -22
70 -20 105 3 21 13 29 14 48 4 21 -12 56 -68 56 -91 0 -6 11 -32 24 -59 15
-31 20 -54 15 -63 -14 -21 -10 -65 6 -78 9 -7 14 -19 11 -27 -3 -8 -2 -12 3
-9 4 3 16 -3 26 -14 10 -11 28 -20 40 -20 13 0 40 -7 61 -16 29 -12 43 -13 56
-5 10 6 25 11 33 11 8 0 15 7 15 16 0 8 5 12 10 9 6 -4 8 -11 5 -16 -4 -5 4
-9 18 -9 25 0 74 55 69 78 -2 7 6 25 17 41 l21 29 -23 16 c-22 16 -22 16 0 6
19 -9 22 -7 25 13 2 15 11 23 28 25 26 4 50 19 50 32 0 9 -15 7 -43 -5 -10 -4
-21 -5 -24 -1 -4 3 1 6 9 6 9 0 15 8 14 18 0 9 5 16 12 14 18 -3 15 25 -4 36
-13 7 -10 13 21 32 31 19 39 20 46 9 5 -8 9 -9 9 -4 0 6 5 3 10 -5 9 -13 10
-13 10 1 0 8 -5 20 -11 26 -18 18 -1 35 22 22 16 -8 25 -7 40 7 24 21 25 2 2
-22 -21 -20 -44 -84 -36 -96 3 -5 17 -14 31 -20 l27 -11 -24 -6 c-14 -4 -27
-13 -29 -20 -3 -8 0 -11 7 -7 7 5 13 -3 17 -21 5 -24 10 -28 36 -27 18 0 37 9
46 20 13 18 14 18 7 -6 -5 -19 -44 -95 -59 -117 -7 -10 -49 14 -56 31 -7 18
-15 21 -59 19 -29 -1 -49 1 -47 6 3 5 -5 11 -19 13 -29 6 -55 -18 -55 -50 0
-11 -10 -36 -22 -56 -21 -31 -28 -35 -68 -36 -25 0 -52 -5 -60 -10 -13 -9 -11
-14 13 -34 16 -13 34 -34 41 -47 7 -14 24 -26 41 -29 30 -6 30 -6 6 -14 -21
-7 -31 -1 -75 46 -48 52 -126 98 -165 98 -9 0 -27 8 -41 17 -22 16 -23 16 -17
-1 4 -10 3 -15 -3 -11 -6 3 -10 11 -10 17 0 5 -7 25 -16 44 -9 19 -14 48 -12
65 4 27 1 33 -26 45 -24 10 -27 13 -10 14 32 0 35 9 14 51 -11 21 -20 44 -20
51 0 7 -11 26 -24 43 -22 28 -25 28 -47 14 -35 -23 -93 -30 -116 -14 -29 20
-102 16 -134 -7 l-27 -20 -41 27 c-22 15 -47 25 -55 22 -9 -4 -28 4 -43 17
-16 13 -40 26 -53 27 -14 2 -28 8 -31 12 -3 5 -33 1 -66 -7 -64 -17 -245 -22
-208 -6 11 5 35 9 53 9 17 1 32 6 32 11 0 6 11 8 25 4 16 -4 36 1 58 14 19 10
51 25 73 32 21 7 51 26 67 42 31 31 70 36 93 13 17 -17 119 -22 109 -5 -3 6 1
10 9 10 9 0 16 -4 16 -8 0 -5 13 -7 30 -4 18 3 35 -2 45 -12 20 -20 39 -20 55
-1 7 8 15 13 19 11 3 -2 15 0 26 5 19 8 19 8 -2 15 -13 3 -23 11 -23 16 0 5 4
7 9 3 5 -3 12 -1 16 5 10 16 28 12 21 -5 -4 -12 0 -14 22 -9 65 16 97 30 97
43 0 8 6 16 14 19 8 3 11 0 7 -7 -4 -6 -1 -11 8 -11 25 0 46 12 46 26 0 8 11
20 25 26 25 11 34 28 15 28 -5 0 -2 8 8 18 9 10 19 15 22 11 3 -3 22 -12 43
-18z m-1736 -47 c-3 -3 -12 -4 -19 -1 -8 3 -5 6 6 6 11 1 17 -2 13 -5z m1533
-43 c0 -5 -18 -13 -41 -19 -46 -12 -44 -3 4 14 18 6 33 12 35 13 1 0 2 -3 2
-8z m-1256 -16 c-4 -8 -10 -15 -15 -15 -4 0 -6 7 -3 15 4 8 10 15 15 15 4 0 6
-7 3 -15z m-214 -35 c0 -5 -5 -10 -11 -10 -5 0 -7 5 -4 10 3 6 8 10 11 10 2 0
4 -4 4 -10z m1260 -5 c0 -8 -4 -15 -10 -15 -5 0 -10 7 -10 15 0 8 5 15 10 15
6 0 10 -7 10 -15z m50 0 c0 -2 -10 -9 -22 -15 -22 -11 -22 -10 -4 4 21 17 26
19 26 11z m-407 -36 c-8 -8 -16 -8 -30 0 -16 11 -16 11 5 6 14 -4 22 -2 22 6
0 7 3 9 7 6 4 -4 2 -12 -4 -18z m-708 -49 c3 -5 -1 -10 -9 -10 -9 0 -16 5 -16
10 0 6 4 10 9 10 6 0 13 -4 16 -10z m955 -10 c0 -5 -4 -10 -10 -10 -5 0 -10 5
-10 10 0 6 5 10 10 10 6 0 10 -4 10 -10z m836 -16 c32 -16 32 -16 13 -35 -16
-16 -24 -18 -34 -9 -7 6 -25 12 -39 14 -26 3 -66 32 -66 48 0 13 87 0 126 -18z
m-1425 -35 c17 -17 30 -20 65 -16 30 3 47 0 55 -9 9 -11 5 -14 -22 -16 -19 0
-41 -1 -49 0 -141 11 -174 11 -181 0 -5 -8 -7 -4 -6 10 1 17 12 25 47 36 62
19 67 19 91 -5z m-3391 1 c0 -5 -4 -10 -10 -10 -5 0 -10 5 -10 10 0 6 5 10 10
10 6 0 10 -4 10 -10z m3216 -52 c-6 -15 -14 -28 -18 -28 -12 0 -10 18 2 25 8
5 7 11 -1 21 -6 7 -15 11 -20 8 -5 -3 -9 -1 -9 4 0 17 11 20 34 9 20 -10 22
-14 12 -39z m-31 3 c-3 -6 -11 -8 -17 -5 -6 4 -5 9 3 15 16 10 23 4 14 -10z
m-1 -97 c-24 -36 -30 -14 -8 28 13 24 19 29 22 16 2 -9 -5 -29 -14 -44z m1929
0 c5 -16 15 -35 21 -43 8 -11 8 -13 -4 -9 -8 2 -18 19 -22 36 -7 25 -14 32
-34 32 -14 0 -23 4 -20 8 12 20 50 5 59 -24z m-1723 -36 c0 -4 -13 4 -30 19
-16 14 -30 30 -30 35 0 4 14 -4 30 -19 17 -14 30 -30 30 -35z m-100 32 c0 -5
-8 -10 -17 -10 -15 0 -16 2 -3 10 19 12 20 12 20 0z m-64 -20 c0 -22 -11 -26
-22 -9 -5 9 5 22 21 29 1 0 1 -9 1 -20z m151 -36 c-3 -3 -12 -4 -19 -1 -8 3
-5 6 6 6 11 1 17 -2 13 -5z m98 -54 c3 -5 1 -10 -4 -10 -6 0 -11 5 -11 10 0 6
2 10 4 10 3 0 8 -4 11 -10z m150 -70 c-3 -5 -16 -10 -28 -10 -18 0 -19 2 -7
10 20 13 43 13 35 0z m909 4 c9 -3 16 -10 16 -15 0 -15 -37 -10 -50 6 -10 12
-10 15 3 15 8 0 22 -3 31 -6z m-4524 -165 c0 -10 5 -19 11 -19 6 0 8 9 4 20
-7 24 7 26 25 5 9 -11 9 -15 1 -15 -7 0 -9 -5 -6 -10 6 -10 -22 -26 -31 -18
-10 11 -23 68 -13 63 5 -4 9 -15 9 -26z m3512 -1 c-7 -7 -12 -8 -12 -2 0 14
12 26 19 19 2 -3 -1 -11 -7 -17z m938 -40 c0 -11 5 -28 11 -40 6 -11 8 -22 5
-25 -3 -3 -10 7 -17 23 -6 16 -18 45 -26 64 l-15 35 21 -19 c12 -11 21 -28 21
-38z m285 -8 c3 -6 -1 -7 -9 -4 -18 7 -21 14 -7 14 6 0 13 -4 16 -10z m-60
-78 c9 -80 22 -115 50 -142 14 -13 25 -35 25 -50 0 -26 39 -77 75 -98 12 -7
15 -12 6 -12 -23 0 -91 75 -91 102 0 14 -13 42 -30 63 -16 20 -32 54 -35 74
-13 77 -17 97 -22 115 -3 11 -1 16 5 12 6 -3 14 -32 17 -64z m-1060 23 c33
-15 43 -24 29 -24 -11 -1 -29 6 -40 14 -10 8 -27 15 -36 15 -9 0 -20 5 -23 10
-10 16 16 11 70 -15z m862 -37 c-3 -8 -6 -5 -6 6 -1 11 2 17 5 13 3 -3 4 -12
1 -19z m433 12 c18 -12 2 -12 -25 0 -13 6 -15 9 -5 9 8 0 22 -4 30 -9z m40 -6
c0 -8 -5 -12 -10 -9 -6 4 -8 11 -5 16 9 14 15 11 15 -7z m-1370 -20 c0 -2 -7
-4 -15 -4 -8 0 -15 4 -15 10 0 5 7 7 15 4 8 -4 15 -8 15 -10z m208 10 c18 -4
34 -14 37 -25 3 -10 14 -20 23 -22 13 -4 12 -5 -4 -6 -11 0 -29 8 -39 19 -10
11 -29 20 -42 20 -12 0 -23 5 -23 10 0 12 7 12 48 4z m1208 -25 c19 -22 19
-22 -3 -10 -13 6 -23 16 -23 21 0 15 5 12 26 -11z m-7 -131 c12 -56 24 -72 34
-45 2 6 8 8 13 4 5 -5 1 -14 -8 -21 -10 -7 -15 -16 -11 -19 3 -4 -2 -9 -11
-13 -19 -7 -53 16 -37 26 7 4 6 33 -4 91 -27 152 -9 134 24 -23z m-495 106 c9
-24 7 -28 -9 -14 -17 14 -20 30 -6 30 5 0 12 -7 15 -16z m540 -9 c3 -8 1 -15
-4 -15 -6 0 -10 7 -10 15 0 8 2 15 4 15 2 0 6 -7 10 -15z m-1264 -95 c0 -5 7
-10 16 -10 10 0 14 -6 11 -14 -3 -8 -1 -17 6 -19 7 -2 -1 -4 -18 -4 -16 0 -38
-3 -47 -7 -15 -7 -18 -3 -18 19 0 27 1 27 19 11 11 -10 21 -13 25 -7 4 5 2 12
-4 16 -13 8 -13 25 0 25 6 0 10 -4 10 -10z m507 -6 c-3 -3 -12 -4 -19 -1 -8 3
-5 6 6 6 11 1 17 -2 13 -5z m-107 -24 c-8 -6 -24 -10 -35 -9 -15 0 -13 3 10
13 32 14 49 11 25 -4z m-317 -20 c-6 -22 -18 -26 -28 -10 -8 13 3 30 20 30 8
0 11 -7 8 -20z m1286 -64 c-12 -10 -60 -16 -54 -6 3 5 18 10 32 10 15 0 24 -2
22 -4z m-1351 -88 c7 -7 12 -26 11 -42 -1 -29 -1 -29 -8 -7 -4 14 -13 27 -20
29 -10 3 -12 0 -8 -12 5 -13 2 -17 -11 -14 -10 2 -18 14 -20 31 -3 23 0 27 20
27 13 0 29 -5 36 -12z m1202 -28 c0 -5 -4 -10 -10 -10 -5 0 -10 5 -10 10 0 6
5 10 10 10 6 0 10 -4 10 -10z m-220 -120 c0 -5 -5 -10 -11 -10 -5 0 -7 5 -4
10 3 6 8 10 11 10 2 0 4 -4 4 -10z m260 -35 c0 -2 -10 -10 -22 -16 -21 -11
-22 -11 -9 4 13 16 31 23 31 12z m5 -34 c3 -5 1 -12 -5 -16 -5 -3 -10 1 -10 9
0 18 6 21 15 7z m-1152 -65 c-14 -19 -19 -21 -21 -9 -2 9 2 19 10 24 24 16 29
9 11 -15z m-3603 4 c0 -5 -5 -10 -11 -10 -5 0 -7 5 -4 10 3 6 8 10 11 10 2 0
4 -4 4 -10z m4370 -10 c0 -5 -4 -10 -9 -10 -6 0 -13 5 -16 10 -3 6 1 10 9 10
9 0 16 -4 16 -10z m-4479 -23 c-10 -9 -11 -8 -5 6 3 10 9 15 12 12 3 -3 0 -11
-7 -18z m3949 13 c0 -5 -4 -10 -10 -10 -5 0 -10 5 -10 10 0 6 5 10 10 10 6 0
10 -4 10 -10z m923 -40 c3 -11 1 -20 -4 -20 -5 0 -9 9 -9 20 0 11 2 20 4 20 2
0 6 -9 9 -20z m-4729 -58 c2 -4 -4 -8 -14 -8 -10 0 -16 4 -14 8 3 4 9 8 14 8
5 0 11 -4 14 -8z m3776 -7 c-7 -9 -15 -13 -19 -10 -3 3 1 10 9 15 21 14 24 12
10 -5z m946 -42 c-10 -26 -18 -8 -9 23 5 21 8 24 11 11 2 -10 1 -25 -2 -34z
m-190 2 c-17 -13 -17 -15 -3 -21 13 -5 14 -10 5 -30 -11 -24 -28 -33 -28 -14
0 6 5 10 10 10 6 0 6 7 -1 19 -15 23 -5 51 18 51 17 -1 17 -2 -1 -15z m-4513
-25 c3 -11 1 -18 -4 -14 -5 3 -9 12 -9 20 0 20 7 17 13 -6z m4215 -110 c0 -16
-2 -19 -5 -7 -2 9 -9 17 -14 17 -11 0 -12 35 -2 70 7 23 8 21 15 -15 4 -22 7
-51 6 -65z m464 77 c-6 -7 -16 -30 -23 -53 -8 -22 -18 -40 -24 -40 -11 1 -11
4 17 68 11 26 25 45 30 42 5 -4 5 -10 0 -17z m-372 4 c0 -5 -7 -11 -14 -14
-10 -4 -13 -1 -9 9 6 15 23 19 23 5z m-4355 -51 c3 -5 1 -10 -4 -10 -6 0 -11
5 -11 10 0 6 2 10 4 10 3 0 8 -4 11 -10z m82 -16 c0 -10 -5 -10 -21 -2 -29 15
-30 16 -3 16 13 0 24 -6 24 -14z m28 6 c3 -5 1 -10 -4 -10 -6 0 -11 5 -11 10
0 6 2 10 4 10 3 0 8 -4 11 -10z m9 -71 c-3 -5 -10 -7 -15 -3 -5 3 -7 10 -3 15
3 5 10 7 15 3 5 -3 7 -10 3 -15z m-33 -31 c-10 -11 -11 -10 -6 5 4 10 2 17 -4
17 -6 0 -11 5 -11 12 0 8 6 6 17 -5 14 -14 15 -19 4 -29z m4586 0 c-3 -8 -6
-5 -6 6 -1 11 2 17 5 13 3 -3 4 -12 1 -19z m-4533 -5 c3 -10 9 -25 13 -33 5
-13 4 -13 -10 -1 -10 7 -17 19 -17 26 0 8 -6 16 -12 18 -8 4 -7 6 3 6 9 1 19
-7 23 -16z m-12 -47 c7 4 8 2 4 -4 -12 -20 -26 -13 -25 11 1 17 2 18 6 4 2 -9
9 -14 15 -11z m4428 -45 c-8 -6 -18 -7 -22 -5 -4 3 -8 0 -8 -5 0 -6 -4 -11
-10 -11 -5 0 -7 7 -4 15 4 8 18 15 33 15 20 0 22 -3 11 -9z m-450 -31 c0 -5
-5 -10 -11 -10 -5 0 -7 5 -4 10 3 6 8 10 11 10 2 0 4 -4 4 -10z m162 -40 c-2
-16 -6 -30 -8 -30 -2 0 -4 14 -4 30 0 17 4 30 8 30 5 0 7 -13 4 -30z m-22 5
c0 -8 -4 -15 -10 -15 -5 0 -7 7 -4 15 4 8 8 15 10 15 2 0 4 -7 4 -15z m-43
-37 c-3 -7 -5 -2 -5 12 0 14 2 19 5 13 2 -7 2 -19 0 -25z m-52 -48 c3 -6 -1
-7 -9 -4 -18 7 -21 14 -7 14 6 0 13 -4 16 -10z m-3984 -89 c-9 -6 -10 -14 -5
-22 5 -8 9 -18 9 -24 0 -5 8 -25 18 -42 10 -18 15 -33 11 -33 -4 0 -1 -6 5
-14 8 -9 8 -16 2 -20 -13 -8 -34 31 -27 49 3 8 1 17 -4 20 -6 4 -10 1 -10 -6
0 -30 -12 4 -15 43 -5 55 3 84 18 69 9 -9 8 -14 -2 -20z m113 -459 c-19 -5
-33 9 -64 63 l-23 40 51 -50 c38 -36 47 -51 36 -53z m4416 74 c0 -3 -4 -8 -10
-11 -5 -3 -10 -1 -10 4 0 6 5 11 10 11 6 0 10 -2 10 -4z m15 -256 c3 -5 1 -10
-4 -10 -6 0 -11 5 -11 10 0 6 2 10 4 10 3 0 8 -4 11 -10z m4 -39 c7 -5 9 -11
5 -14 -5 -3 -15 1 -22 9 -14 16 -5 18 17 5z m37 -92 c3 -6 1 -16 -6 -22 -10
-9 -11 -9 -5 2 4 8 2 17 -6 22 -9 6 -10 9 -2 9 6 0 15 -5 19 -11z m44 -53 c0
-7 -11 -13 -25 -14 -21 -1 -23 1 -13 11 15 17 38 18 38 3z m55 -15 c3 -5 1
-12 -5 -16 -5 -3 -10 1 -10 9 0 18 6 21 15 7z m-53 -46 c2 -19 3 -35 3 -35 -1
0 -13 9 -26 21 -23 20 -24 21 -5 35 25 18 23 20 28 -21z m30 -27 c-9 -9 -12
-7 -12 12 0 19 3 21 12 12 9 -9 9 -15 0 -24z m-4159 -83 c-10 -8 -20 -11 -23
-8 -3 3 1 8 8 10 6 3 10 9 7 14 -4 5 1 6 10 3 14 -6 14 -8 -2 -19z m3 -110
c-4 -14 -2 -25 3 -25 11 0 8 -96 -3 -107 -4 -4 -4 0 0 10 4 12 1 17 -11 17
-12 0 -15 5 -9 22 6 21 5 21 -10 9 -16 -13 -16 -12 -4 14 9 20 9 30 2 32 -20
7 -4 53 18 53 17 0 19 -5 14 -25z m2728 -62 c3 -16 8 -38 12 -50 3 -13 2 -23
-4 -23 -9 0 -21 38 -26 83 -4 28 11 20 18 -10z m-2784 -5 c0 -4 -9 -8 -20 -8
-11 0 -20 4 -20 8 0 4 9 8 20 8 11 0 20 -4 20 -8z m3990 -60 c0 -17 -16 -6
-28 20 -25 51 -25 57 2 23 14 -19 26 -39 26 -43z m134 15 c-8 -76 -37 -143
-61 -143 -15 0 -16 2 -3 10 14 9 13 11 -9 14 -6 0 -16 8 -23 16 -11 12 -11 12
5 1 9 -7 17 -10 17 -6 0 4 7 2 15 -5 13 -10 17 -7 30 23 8 20 15 58 15 85 0
43 5 62 17 62 2 0 0 -26 -3 -57z m-4104 9 c0 -10 -46 -10 -56 1 -4 4 7 7 24 7
18 0 32 -4 32 -8z m2740 -26 c0 -3 -4 -8 -10 -11 -5 -3 -10 -1 -10 4 0 6 5 11
10 11 6 0 10 -2 10 -4z m1253 -20 c6 -15 -17 -16 -30 -1 -4 4 -2 5 5 1 6 -4
12 -2 12 3 0 15 7 14 13 -3z m-3968 -6 c-3 -5 -11 -10 -16 -10 -6 0 -7 5 -4
10 3 6 11 10 16 10 6 0 7 -4 4 -10z m2685 6 c0 -2 -8 -10 -17 -17 -16 -13 -17
-12 -4 4 13 16 21 21 21 13z m1150 -21 c0 -8 -4 -15 -10 -15 -5 0 -7 7 -4 15
4 8 8 15 10 15 2 0 4 -7 4 -15z m-1196 -26 c-3 -5 -10 -7 -15 -3 -5 3 -7 10
-3 15 3 5 10 7 15 3 5 -3 7 -10 3 -15z m1306 -9 c8 -5 12 -11 9 -14 -3 -3 -14
1 -25 9 -21 16 -8 20 16 5z m-4002 -12 c-16 -10 -45 -10 -51 0 -3 4 10 7 29 8
21 0 30 -3 22 -8z m2649 -3 c0 -8 -4 -15 -9 -15 -10 0 -11 14 -1 23 9 10 10 9
10 -8z m1233 12 c0 -7 -49 -102 -49 -96 -2 15 32 99 40 99 5 0 9 -1 9 -3z
m-863 -13 c-3 -3 -12 -4 -19 -1 -8 3 -5 6 6 6 11 1 17 -2 13 -5z m920 -9 c8
-9 13 -18 11 -21 -3 -2 -13 5 -23 16 -21 23 -11 27 12 5z m58 -5 c3 -5 1 -10
-4 -10 -6 0 -11 5 -11 10 0 6 2 10 4 10 3 0 8 -4 11 -10z m-1419 -29 c-13 -15
-14 -20 -4 -24 7 -2 1 -4 -14 -4 -35 -1 -35 8 0 29 36 22 38 21 18 -1z m-2476
5 c0 -3 -4 -8 -10 -11 -5 -3 -10 -1 -10 4 0 6 5 11 10 11 6 0 10 -2 10 -4z
m3930 0 c0 -2 -18 -13 -40 -25 -22 -11 -40 -16 -40 -11 0 6 7 10 15 10 8 0 15
4 15 9 0 5 8 12 18 14 25 7 32 7 32 3z m19 -39 c-23 -21 -49 -31 -49 -18 0 8
52 40 64 41 5 0 -2 -10 -15 -23z m-134 -24 c-36 -26 -55 -34 -55 -23 0 6 7 13
15 16 8 4 13 9 11 13 -2 3 8 7 22 8 26 1 26 1 7 -14z m-562 -23 c-25 -23 -33
-38 -33 -65 0 -21 -5 -35 -12 -35 -9 0 -13 15 -13 42 0 37 4 44 30 58 17 8 32
18 33 23 2 4 9 7 15 7 7 0 -3 -14 -20 -30z m640 16 c4 -10 1 -13 -9 -9 -8 3
-20 1 -27 -5 -6 -6 -39 -25 -72 -43 -33 -18 -63 -37 -67 -43 -6 -8 -8 -8 -8 0
0 6 6 16 13 22 10 8 156 90 163 92 1 0 4 -7 7 -14z m-183 -31 c-7 -8 -16 -15
-21 -15 -5 0 -1 9 8 20 9 11 19 17 21 15 3 -3 -1 -11 -8 -20z m-3880 -15 c0
-5 -7 -10 -16 -10 -8 0 -12 5 -9 10 3 6 10 10 16 10 5 0 9 -4 9 -10z m2486 -5
c16 -8 22 -15 13 -15 -8 0 -24 7 -35 15 -25 19 -14 19 22 0z m1254 -11 c0 -2
-7 -4 -15 -4 -8 0 -15 4 -15 10 0 5 7 7 15 4 8 -4 15 -8 15 -10z m-410 -15 c0
-5 -4 -9 -10 -9 -5 0 -10 7 -10 16 0 8 5 12 10 9 6 -3 10 -10 10 -16z m-419 2
c-12 -8 -12 -13 3 -35 18 -28 52 -37 42 -11 -3 9 0 15 9 15 9 0 12 -8 9 -23
-3 -21 4 -26 89 -52 62 -20 99 -37 113 -54 l21 -25 8 23 c5 17 10 20 18 12 6
-6 21 -11 32 -11 12 0 25 -3 29 -7 4 -5 22 -8 39 -9 18 0 42 -4 55 -8 20 -7
22 -4 22 23 0 17 5 31 10 31 6 0 10 -13 10 -29 0 -21 -6 -32 -21 -36 -16 -5
-18 -10 -8 -21 7 -8 7 -14 1 -14 -5 0 -17 11 -26 25 -9 14 -22 25 -28 25 -9 0
-9 -3 0 -12 7 -7 12 -16 12 -21 0 -15 -45 -3 -61 18 -15 17 -19 18 -34 5 -15
-13 -19 -12 -31 4 -12 18 -14 18 -20 2 -6 -16 -9 -15 -29 4 -14 13 -24 17 -27
10 -2 -8 -26 -6 -82 9 -43 11 -83 18 -89 14 -5 -3 -8 0 -5 8 2 7 -18 34 -45
60 -39 37 -48 51 -42 68 3 12 14 21 23 21 14 0 14 -2 3 -9z m59 -12 c0 -11 -3
-11 -24 -3 -23 9 -20 23 4 17 11 -3 20 -9 20 -14z m876 -7 c-18 -16 -18 -16
-6 6 6 13 14 21 18 18 3 -4 -2 -14 -12 -24z m-779 -3 c27 -6 68 -16 93 -22 25
-6 47 -12 50 -13 62 -12 81 -17 85 -23 2 -4 -9 -5 -26 -3 -21 3 -34 -2 -50
-19 -19 -23 -19 -23 -10 -2 15 30 16 29 -35 42 -42 11 -49 10 -68 -7 -21 -20
-37 -20 -91 -2 -29 10 -29 10 8 6 22 -3 37 -1 37 6 0 6 6 5 16 -3 13 -10 17
-10 24 1 7 12 -5 18 -58 31 -37 9 -57 17 -45 18 13 0 44 -4 70 -10z m-3050
-21 c-3 -8 -6 -5 -6 6 -1 11 2 17 5 13 3 -3 4 -12 1 -19z m3920 2 c-19 -25
-20 -26 -13 -6 5 14 2 17 -9 12 -9 -3 -13 -2 -10 3 3 6 14 9 25 8 15 -1 17 -4
7 -17z m-3517 0 c0 -5 -2 -10 -4 -10 -3 0 -8 5 -11 10 -3 6 -1 10 4 10 6 0 11
-4 11 -10z m3294 -5 c-4 -8 -14 -15 -23 -15 -9 0 -22 -5 -29 -12 -17 -17 -16
8 1 27 17 20 58 20 51 0z m-3547 -32 c3 -7 -10 -11 -32 -10 -32 1 -33 2 -15
12 16 9 18 13 8 25 -10 10 -7 10 11 -1 14 -9 27 -21 28 -26z m3243 7 c0 -5 -5
-10 -11 -10 -5 0 -7 5 -4 10 3 6 8 10 11 10 2 0 4 -4 4 -10z m225 -20 c8 -13
-15 -13 -35 0 -12 8 -11 10 7 10 12 0 25 -4 28 -10z m-3455 -20 c0 -5 -8 -10
-17 -10 -15 0 -16 2 -3 10 19 12 20 12 20 0z m210 -5 c0 -8 -2 -15 -4 -15 -2
0 -6 7 -10 15 -3 8 -1 15 4 15 6 0 10 -7 10 -15z m3188 -69 c23 -16 42 -33 42
-37 0 -5 8 -9 18 -9 22 -1 56 -26 44 -34 -6 -3 -12 1 -16 9 -3 8 -15 15 -26
15 -12 0 -28 7 -37 15 -8 8 -19 12 -25 9 -6 -4 -8 -2 -5 3 4 6 -8 24 -27 39
-18 16 -36 40 -40 54 -7 23 -6 22 12 -5 10 -16 37 -43 60 -59z m521 58 c-6 -8
-17 -14 -23 -14 -6 0 -4 5 4 10 13 9 13 10 0 10 -13 0 -13 2 0 9 20 13 34 2
19 -15z m-1227 4 c-8 -8 -9 -15 -1 -25 8 -9 8 -13 1 -13 -13 0 -21 21 -14 38
2 6 9 12 15 12 8 0 7 -4 -1 -12z m1038 8 c0 -11 -19 -15 -25 -6 -3 5 1 10 9
10 9 0 16 -2 16 -4z m-3697 -26 c4 -14 0 -20 -11 -21 -15 -1 -15 -2 1 -6 23
-6 22 -23 -2 -23 -25 0 -34 26 -18 50 15 25 23 25 30 0z m3551 12 c3 -5 -1 -9
-9 -9 -8 0 -12 4 -9 9 3 4 7 8 9 8 2 0 6 -4 9 -8z m-564 -22 c0 -5 -4 -10 -10
-10 -5 0 -10 5 -10 10 0 6 5 10 10 10 6 0 10 -4 10 -10z m860 5 c0 -7 -101
-57 -106 -52 -2 2 17 15 43 29 50 27 63 31 63 23z m-1234 -31 c-15 -14 -30
-23 -33 -20 -8 7 31 44 47 45 9 0 4 -9 -14 -25z m-2566 -16 c0 -5 -4 -8 -10
-8 -5 0 -10 10 -10 23 0 18 2 19 10 7 5 -8 10 -18 10 -22z m3530 17 c-7 -8
-17 -15 -22 -15 -6 0 -5 7 2 15 7 8 17 15 22 15 6 0 5 -7 -2 -15z m-3404 -33
c-4 -3 -11 0 -16 8 -15 24 -11 33 6 15 9 -9 13 -19 10 -23z m-185 8 c6 0 7 -4
4 -10 -3 -5 -3 -16 2 -22 12 -20 14 -48 3 -48 -6 0 -10 5 -10 10 0 6 -5 10
-10 10 -6 0 -8 -11 -6 -25 3 -14 1 -25 -3 -25 -5 0 -8 17 -8 38 1 20 -3 48 -7
61 -7 20 -6 23 9 18 9 -4 21 -7 26 -7z m2717 -26 c2 -1 -10 -1 -27 0 -34 1
-46 10 -36 25 4 7 15 5 33 -6 15 -9 28 -18 30 -19z m-2558 16 c0 -5 -4 -10
-10 -10 -5 0 -10 5 -10 10 0 6 5 10 10 10 6 0 10 -4 10 -10z m3880 -20 c0 -5
-4 -10 -10 -10 -5 0 -10 5 -10 10 0 6 5 10 10 10 6 0 10 -4 10 -10z m0 -30 c0
-5 -4 -10 -10 -10 -5 0 -10 5 -10 10 0 6 5 10 10 10 6 0 10 -4 10 -10z m-534
-20 c13 0 24 -6 24 -13 0 -8 18 -19 40 -26 22 -6 40 -16 40 -20 0 -14 -82 14
-95 32 -17 24 -34 21 -79 -13 -40 -31 -39 -43 2 -14 17 11 22 12 22 2 0 -19
-10 -30 -52 -58 -21 -14 -38 -31 -38 -39 0 -11 3 -11 15 -1 15 13 20 3 17 -39
-1 -20 32 -51 44 -43 6 4 14 22 17 40 5 25 3 32 -10 32 -14 0 -14 2 -2 18 28
34 40 64 34 83 -4 12 -2 19 7 19 16 0 47 -19 33 -21 -5 0 -1 -4 10 -9 17 -7
17 -9 3 -9 -24 -1 -23 -22 2 -28 31 -8 24 -21 -11 -19 -25 1 -33 -3 -35 -19
-2 -11 -7 -39 -12 -62 -5 -24 -5 -43 -1 -43 5 0 9 11 9 23 0 13 9 32 20 42 19
17 20 17 20 1 0 -10 -5 -26 -10 -37 -6 -10 -7 -19 -2 -19 5 0 10 -11 10 -25 0
-13 -4 -22 -9 -19 -13 8 -11 -10 4 -26 10 -12 9 -12 -4 -2 -12 9 -18 7 -31 -7
-15 -18 -15 -20 3 -24 10 -3 19 0 19 6 0 8 3 8 11 0 15 -15 49 -4 49 16 0 9
-7 29 -15 45 -8 15 -15 32 -15 36 0 10 47 30 71 30 20 0 21 4 14 73 -6 58 -5
70 6 60 7 -7 12 -29 11 -50 -3 -70 3 -71 139 -13 68 29 149 65 179 80 71 35
100 44 100 31 0 -6 -4 -11 -9 -11 -17 0 -130 -54 -126 -60 2 -3 -5 -12 -17
-19 -11 -7 -17 -8 -13 -2 10 17 -11 13 -65 -10 -27 -12 -48 -26 -47 -31 1 -6
-5 -13 -13 -15 -13 -4 -13 -3 0 6 25 18 -10 13 -40 -5 -24 -14 -24 -15 -2 -11
13 3 20 1 16 -5 -3 -5 -17 -7 -30 -4 -14 4 -37 0 -54 -9 -16 -8 -39 -15 -52
-15 -19 0 -20 -2 -8 -10 12 -8 10 -10 -9 -8 -34 4 -36 -16 -6 -45 23 -20 25
-28 16 -45 -10 -18 -8 -20 12 -18 12 1 38 10 57 20 l35 18 -28 -27 c-25 -24
-37 -28 -90 -28 -87 0 -138 8 -178 28 l-34 17 29 -31 c17 -17 25 -31 19 -31
-5 0 -28 20 -50 44 -40 44 -41 46 -45 135 -3 68 -1 92 9 95 7 3 13 12 13 20 0
8 9 17 19 21 10 3 34 21 52 40 19 19 40 33 47 30 8 -3 25 -5 38 -5z m556 -97
c-22 -41 -72 -94 -72 -75 0 7 3 12 8 12 11 0 59 81 68 115 7 26 9 27 12 8 2
-12 -6 -39 -16 -60z m-4074 26 c-1 -22 -3 -27 -10 -16 -4 8 -5 22 -2 31 9 24
13 19 12 -15z m2632 1 c0 -5 -5 -10 -11 -10 -5 0 -7 5 -4 10 3 6 8 10 11 10 2
0 4 -4 4 -10z m-43 -57 c-3 -10 -5 -2 -5 17 0 19 2 27 5 18 2 -10 2 -26 0 -35z
m-41 12 c-2 -7 -1 -28 3 -46 8 -35 5 -59 -8 -59 -4 0 -9 21 -10 47 -1 26 -7
51 -14 55 -9 6 -9 10 3 17 17 12 33 4 26 -14z m-2584 -7 c-7 -7 -12 -8 -12 -2
0 14 12 26 19 19 2 -3 -1 -11 -7 -17z m3494 -4 c-23 -17 -36 -18 -36 -3 0 5 4
8 9 5 5 -3 14 1 21 9 7 9 16 13 19 9 3 -3 -3 -12 -13 -20z m-956 -3 c0 -5 -9
-11 -21 -14 -16 -4 -18 -3 -8 9 13 16 29 19 29 5z m1370 -11 c-8 -5 -19 -10
-25 -10 -5 0 -3 5 5 10 8 5 20 10 25 10 6 0 3 -5 -5 -10z m-3871 -19 c14 -12
18 -22 11 -26 -13 -8 -40 12 -40 31 0 18 3 18 29 -5z m2201 -11 c-16 -11 -40
-13 -40 -5 0 8 44 24 50 18 2 -2 -2 -8 -10 -13z m179 16 c-2 -2 -15 -9 -29
-15 -24 -11 -24 -11 -6 3 16 13 49 24 35 12z m61 -4 c0 -11 -41 -34 -48 -28
-3 4 3 13 14 21 21 16 34 19 34 7z m69 -23 c-12 -7 -12 -9 0 -9 8 0 12 -3 9
-6 -4 -3 -19 2 -35 11 -15 9 -20 14 -11 11 10 -3 20 -1 23 5 4 5 11 6 17 3 6
-4 5 -10 -3 -15z m249 5 c97 -19 144 -39 153 -63 6 -13 26 -39 45 -58 20 -18
32 -33 29 -33 -13 0 -85 55 -85 66 0 21 -27 46 -53 49 -14 2 -31 6 -36 10 -6
3 -19 8 -28 9 -10 2 -35 6 -56 10 -22 4 -35 11 -31 17 3 6 13 8 21 5 8 -4 27
-9 41 -12z m522 -21 c0 -28 -3 -34 -10 -23 -13 20 -13 60 0 60 6 0 10 -17 10
-37z m-300 -6 c0 -5 -4 -5 -10 -2 -5 3 -10 14 -10 23 0 15 2 15 10 2 5 -8 10
-19 10 -23z m-539 -5 c-17 -32 -12 -39 9 -14 14 17 25 22 40 17 11 -4 18 -10
15 -15 -3 -5 -12 -7 -19 -4 -14 6 -49 -34 -41 -46 3 -4 -3 -10 -13 -12 -15 -4
-18 2 -18 38 0 23 4 40 8 38 5 -3 11 2 14 11 4 9 9 14 11 11 3 -2 0 -13 -6
-24z m520 -23 c22 -11 17 -29 -9 -29 -15 0 -15 2 -2 10 12 8 11 10 -7 10 -13
0 -23 5 -23 10 0 13 16 13 41 -1z m838 -12 c12 -15 12 -17 -3 -11 -9 3 -16 13
-16 22 0 8 1 13 3 11 1 -2 9 -12 16 -22z m-959 -7 c0 -5 -2 -10 -4 -10 -3 0
-8 5 -11 10 -3 6 -1 10 4 10 6 0 11 -4 11 -10z m180 0 c0 -5 -2 -10 -4 -10 -3
0 -8 5 -11 10 -3 6 -1 10 4 10 6 0 11 -4 11 -10z m715 0 c-3 -5 -11 -10 -16
-10 -6 0 -7 5 -4 10 3 6 11 10 16 10 6 0 7 -4 4 -10z m-678 -6 c-3 -3 -12 -4
-19 -1 -8 3 -5 6 6 6 11 1 17 -2 13 -5z m708 -4 c3 -5 1 -10 -4 -10 -6 0 -11
5 -11 10 0 6 2 10 4 10 3 0 8 -4 11 -10z m-955 -13 c0 -8 10 -19 23 -25 12 -6
16 -11 9 -11 -22 -1 -52 19 -52 34 0 8 5 15 10 15 6 0 10 -6 10 -13z m1265 4
c3 -5 2 -12 -3 -15 -5 -3 -9 1 -9 9 0 17 3 19 12 6z m-895 -17 c0 -2 -9 -4
-20 -4 -11 0 -20 4 -20 9 0 5 9 7 20 4 11 -3 20 -7 20 -9z m628 -9 c-12 -27
-31 -35 -22 -10 5 11 2 13 -10 9 -9 -3 -16 -13 -16 -21 0 -9 -6 -13 -15 -9 -8
3 -14 0 -12 -6 1 -7 -7 -14 -18 -16 -33 -7 30 53 68 66 18 5 33 10 34 11 2 1
-3 -10 -9 -24z m-3348 -64 c9 -18 9 -22 0 -16 -7 4 -16 2 -21 -6 -4 -7 -12
-10 -16 -5 -4 5 -2 11 5 13 6 3 12 14 12 26 0 23 2 22 20 -12z m60 9 c0 -5 -5
-10 -11 -10 -5 0 -7 5 -4 10 3 6 8 10 11 10 2 0 4 -4 4 -10z m2770 0 c0 -5 -5
-10 -11 -10 -5 0 -7 5 -4 10 3 6 8 10 11 10 2 0 4 -4 4 -10z m725 -2 c-26 -15
-32 -25 -31 -51 1 -12 -3 -25 -8 -29 -5 -3 -2 -13 7 -23 19 -19 21 -25 8 -25
-10 0 -61 82 -61 98 0 6 19 17 43 25 51 18 69 21 42 5z m-975 -21 c19 -7 44
-21 55 -33 26 -27 75 -40 75 -20 0 8 -15 17 -35 20 -19 4 -35 11 -35 17 0 6 4
7 10 4 5 -3 46 -12 91 -20 79 -14 112 -25 74 -25 -15 0 -16 -2 -4 -17 12 -15
12 -16 -1 -8 -12 6 -13 5 -3 -5 7 -7 31 -14 55 -14 40 -1 42 1 49 33 4 18 15
41 24 50 12 11 15 11 10 2 -6 -11 -4 -13 8 -8 9 3 19 2 21 -2 3 -5 19 -11 37
-15 25 -5 29 -9 24 -25 -5 -17 -2 -19 19 -15 13 2 35 0 48 -5 12 -6 17 -10 10
-10 -7 -1 -10 -5 -7 -11 3 -5 1 -10 -4 -10 -6 0 -11 -8 -11 -18 0 -10 -5 -23
-12 -30 -9 -9 -9 -12 0 -12 7 0 12 -9 12 -20 0 -11 -3 -20 -7 -20 -5 0 -13
-11 -20 -25 -9 -21 -9 -25 5 -25 13 0 11 -4 -6 -16 -12 -8 -22 -21 -22 -28 0
-19 -50 -8 -58 12 -3 9 -18 29 -34 46 -26 27 -28 28 -28 7 0 -38 -37 -8 -38
31 -1 30 1 31 13 15 9 -13 20 -17 35 -12 20 6 20 8 5 31 -8 13 -11 24 -5 24 5
0 10 4 10 9 0 9 -64 25 -102 26 -9 0 -20 3 -24 8 -4 4 -18 7 -30 7 -13 0 -26
5 -29 10 -3 6 -17 7 -30 4 -18 -4 -36 3 -71 30 -58 44 -77 47 -68 9 4 -16 13
-41 21 -57 12 -23 12 -27 1 -24 -7 3 -15 15 -16 28 -3 15 -6 19 -11 11 -5 -7
-8 -1 -9 16 -3 58 -8 68 -40 78 -18 5 -32 13 -32 18 0 8 14 5 80 -16z m830 15
c0 -11 -71 -45 -78 -37 -3 3 0 5 7 5 7 0 10 4 7 9 -4 5 6 14 21 19 36 13 43
14 43 4z m220 -37 c0 -8 -4 -15 -10 -15 -5 0 -7 7 -4 15 4 8 8 15 10 15 2 0 4
-7 4 -15z m-1088 -12 c9 -40 3 -106 -11 -111 -10 -3 -12 0 -7 14 4 10 4 15 0
11 -4 -4 -14 -1 -23 6 -14 11 -14 10 -2 -5 7 -10 9 -18 4 -18 -19 0 -41 35
-40 62 2 20 7 28 21 28 15 0 16 -3 7 -14 -9 -11 -8 -15 5 -20 22 -9 27 -2 26
34 -1 32 13 41 20 13z m756 0 c-10 -2 -18 -9 -18 -14 0 -13 -27 -11 -36 3 -5
8 -2 9 9 5 9 -3 19 -2 22 3 4 6 14 9 23 9 15 -1 15 -2 0 -6z m-3304 -19 c5
-14 4 -15 -9 -4 -17 14 -19 20 -6 20 5 0 12 -7 15 -16z m3106 -4 c13 -9 13
-10 0 -10 -8 0 -22 5 -30 10 -13 9 -13 10 0 10 8 0 22 -5 30 -10z m335 -30
c17 -19 21 -28 10 -20 -25 18 -44 42 -45 54 0 5 1 7 3 5 1 -2 16 -20 32 -39z
m34 -3 c1 -4 -5 -2 -13 5 -7 7 -11 19 -8 27 4 11 7 10 13 -5 4 -10 8 -23 8
-27z m-305 -10 c3 -19 16 -37 27 -37 6 0 8 4 5 9 -4 5 13 19 37 30 48 23 57
25 57 12 0 -5 -14 -12 -31 -16 -34 -8 -29 -21 11 -28 21 -4 20 -4 -7 -6 -18 0
-33 4 -33 9 0 6 -4 10 -9 10 -8 0 -9 -21 -2 -62 0 -4 19 -12 40 -18 40 -11 42
-10 141 34 14 6 28 15 31 20 4 4 9 3 13 -2 8 -13 -5 -20 -109 -61 -44 -18 -85
-38 -90 -45 -10 -13 -152 -66 -175 -66 -22 0 -8 18 18 24 54 13 92 39 87 61
-2 11 -7 38 -10 60 -4 22 -10 45 -15 50 -8 10 -14 41 -11 60 2 11 22 -20 25
-38z m45 22 c-19 -12 -39 -11 -39 1 0 5 7 7 15 4 8 -4 15 -1 15 6 0 6 5 8 11
4 8 -4 7 -9 -2 -15z m454 -15 c-17 -7 -34 -18 -37 -23 -3 -5 -16 -7 -28 -3
-11 3 -19 1 -16 -4 4 -5 -9 -9 -28 -10 -19 0 -34 1 -34 3 0 6 52 25 105 39 65
16 78 16 38 -2z m-275 -7 c9 -10 3 -12 -26 -8 -30 3 -33 5 -17 12 28 11 31 11
43 -4z m122 -39 c0 -5 -9 -8 -20 -8 -18 0 -19 3 -9 21 9 17 13 19 20 8 5 -8 9
-17 9 -21z m-399 -31 c-17 -17 -24 -1 -9 22 11 18 14 19 16 5 2 -9 -1 -21 -7
-27z m139 2 c0 -5 -4 -9 -10 -9 -5 0 -10 7 -10 16 0 8 5 12 10 9 6 -3 10 -10
10 -16z m-370 1 c0 -5 -5 -10 -11 -10 -5 0 -7 5 -4 10 3 6 8 10 11 10 2 0 4
-4 4 -10z m417 -9 c-1 -12 -6 -17 -16 -13 -10 4 -11 7 -3 10 7 2 10 8 6 13 -3
5 -1 9 5 9 5 0 9 -9 8 -19z m-3287 -1 c0 -5 -5 -10 -11 -10 -5 0 -7 5 -4 10 3
6 8 10 11 10 2 0 4 -4 4 -10z m-60 -54 c0 -6 -7 -2 -15 8 -8 11 -15 25 -15 30
0 6 7 2 15 -8 8 -11 15 -25 15 -30z m95 34 c3 -5 1 -10 -4 -10 -6 0 -11 5 -11
10 0 6 2 10 4 10 3 0 8 -4 11 -10z m3080 0 c3 -5 2 -10 -4 -10 -5 0 -13 5 -16
10 -3 6 -2 10 4 10 5 0 13 -4 16 -10z m-675 -10 c8 -5 11 -10 5 -10 -5 0 -17
5 -25 10 -8 5 -10 10 -5 10 6 0 17 -5 25 -10z m925 -9 c-7 -13 -72 -34 -88
-28 -6 2 11 11 38 19 28 9 51 16 53 17 2 1 1 -3 -3 -8z m312 -9 c-10 -10 -17
-26 -17 -35 0 -9 -7 -17 -15 -17 -16 0 -10 30 9 42 6 4 7 10 3 15 -8 8 -88
-29 -120 -55 -9 -9 -20 -13 -23 -9 -5 5 23 25 91 64 11 7 35 12 54 12 32 1 33
0 18 -17z m-3547 -2 c0 -5 -4 -10 -10 -10 -5 0 -10 5 -10 10 0 6 5 10 10 10 6
0 10 -4 10 -10z m-297 -25 c-3 -9 -2 -15 3 -14 21 4 32 -2 37 -21 3 -11 1 -20
-4 -20 -5 0 -9 5 -9 10 0 6 -11 15 -25 20 -34 13 -33 26 2 39 1 1 0 -6 -4 -14z
m3867 5 c0 -5 -5 -10 -11 -10 -5 0 -7 5 -4 10 3 6 8 10 11 10 2 0 4 -4 4 -10z
m-3443 -87 c47 -50 50 -64 9 -38 -20 14 -26 14 -26 4 -1 -19 -28 32 -45 84
-14 41 -14 41 3 19 9 -13 36 -44 59 -69z m-298 66 c9 14 35 6 26 -9 -7 -11 14
-17 53 -14 17 1 32 -2 32 -7 0 -5 5 -9 11 -9 18 0 59 -37 51 -45 -4 -5 0 -6 9
-3 9 4 16 1 16 -8 0 -19 -1 -19 -39 16 -18 17 -34 26 -36 20 -2 -5 -11 -10
-20 -9 -11 0 -12 2 -4 6 28 11 9 21 -38 17 -41 -3 -50 0 -50 13 0 13 -3 14
-12 5 -17 -17 -28 -15 -22 6 5 16 5 16 -9 0 -8 -10 -19 -18 -26 -18 -6 0 -1
11 11 25 16 19 24 22 30 13 6 -10 10 -10 17 1z m2195 -4 c-4 -8 -11 -15 -16
-15 -6 0 -5 6 2 15 7 8 14 15 16 15 2 0 1 -7 -2 -15z m-50 -6 c-9 -15 -95 -51
-103 -43 -3 4 0 9 7 11 10 4 10 8 0 21 -11 15 -11 15 3 4 16 -12 25 -10 97 17
2 0 0 -4 -4 -10z m1334 -1 c7 -7 12 -15 12 -18 0 -10 -51 -10 -68 0 -14 8 -12
9 11 10 16 0 26 4 22 10 -9 14 8 13 23 -2z m-3598 -18 c0 -5 -4 -10 -10 -10
-5 0 -10 5 -10 10 0 6 5 10 10 10 6 0 10 -4 10 -10z m3071 1 c-12 -8 -12 -12
-2 -25 19 -23 83 -39 94 -23 6 9 8 8 4 -3 -3 -10 5 -20 19 -27 13 -6 24 -7 24
-2 0 5 10 8 23 8 12 -1 35 3 50 10 20 8 33 8 45 1 15 -10 14 -10 -3 -6 -11 3
-27 1 -35 -4 -12 -8 -11 -11 8 -16 13 -4 21 -12 19 -18 -5 -14 -55 -18 -78 -5
-15 7 -17 6 -13 -6 4 -9 26 -24 50 -35 24 -11 48 -29 54 -39 11 -22 50 -24 50
-3 0 7 -4 11 -9 8 -5 -4 -7 3 -4 15 4 14 8 17 13 9 5 -9 20 -5 51 13 153 89
194 108 238 114 34 4 51 2 56 -7 5 -9 4 -11 -3 -6 -16 10 -132 -23 -161 -46
-14 -10 -44 -27 -67 -37 -23 -11 -47 -29 -54 -40 -6 -12 -15 -19 -21 -16 -14
9 -29 -4 -23 -20 4 -8 10 -13 14 -10 5 3 5 -7 1 -22 -4 -16 -6 -34 -3 -42 3
-8 0 -11 -7 -7 -6 4 -11 22 -12 39 0 27 -2 29 -9 12 -7 -17 -9 -17 -9 -2 -1
10 -9 17 -21 17 -19 0 -20 -1 -4 -25 10 -16 14 -34 10 -51 -6 -22 -5 -24 8
-12 7 7 11 18 8 23 -3 6 7 -1 22 -15 40 -36 49 -57 30 -64 -10 -4 -18 1 -21
13 -11 41 -32 32 -39 -17 -4 -26 -12 -50 -18 -54 -7 -5 -5 -8 6 -8 9 0 18 6
20 12 3 9 9 8 21 -4 28 -28 20 -35 -40 -32 -32 1 -62 -2 -68 -6 -23 -16 -55
-18 -55 -3 0 9 -6 13 -15 9 -8 -3 -15 -1 -15 4 0 6 5 10 11 10 6 0 9 14 6 33
-2 17 -8 30 -13 27 -5 -3 -8 -8 -6 -12 1 -5 -2 -8 -8 -8 -5 0 -10 7 -10 16 0
13 -3 14 -14 5 -11 -9 -17 -8 -28 2 -7 7 -19 12 -26 9 -6 -2 -12 1 -12 6 0 6
8 12 18 14 13 3 11 7 -12 18 -31 16 -50 60 -40 93 9 28 27 20 20 -9 -6 -24 -6
-25 9 -10 14 14 14 18 2 36 -7 11 -17 17 -22 12 -4 -4 -5 1 -2 10 7 21 -29 36
-47 18 -8 -8 -7 -10 6 -5 12 5 16 2 13 -12 -2 -10 -4 -20 -4 -22 -1 -2 -10 4
-21 14 -13 12 -24 15 -32 9 -12 -8 -29 -10 -65 -5 -21 2 -15 18 9 24 12 4 28
1 35 -5 20 -16 26 -3 11 21 -14 22 -28 28 -28 11 0 -19 -18 -10 -25 13 -8 21
-8 21 -12 -5 -5 -34 -21 -39 -74 -23 -31 9 -39 15 -28 20 9 3 24 24 34 46 10
21 19 39 21 39 15 0 34 -15 34 -27 0 -10 6 -13 16 -9 10 4 26 -6 47 -29 28
-32 57 -49 42 -25 -3 6 1 10 10 10 25 0 12 23 -21 38 -52 23 -57 28 -59 50 -1
11 2 19 7 16 4 -3 8 0 8 5 0 6 5 11 11 11 6 0 9 -7 5 -15 -9 -26 21 -17 52 15
17 17 39 30 49 30 15 0 15 -2 4 -9z m426 -25 c-25 -28 -34 -27 -17 3 6 12 17
21 25 21 9 0 7 -7 -8 -24z m228 14 c-3 -5 -14 -10 -23 -9 -14 0 -13 2 3 9 27
11 27 11 20 0z m-1271 -20 c14 -5 26 -14 26 -19 0 -16 -85 -24 -111 -11 -22
12 -22 13 -4 26 22 16 54 18 89 4z m1114 -17 c-10 -2 -26 -2 -35 0 -10 3 -2 5
17 5 19 0 27 -2 18 -5z m-787 -17 c19 -7 40 -11 48 -8 10 3 12 0 8 -12 -4 -10
-7 -21 -7 -25 0 -5 -14 -8 -31 -9 -25 -1 -28 2 -18 14 9 11 7 14 -12 15 -34 1
-83 9 -89 15 -7 8 23 24 46 24 12 0 37 -6 55 -14z m49 10 c0 -3 -4 -8 -10 -11
-5 -3 -10 -1 -10 4 0 6 5 11 10 11 6 0 10 -2 10 -4z m566 -31 c18 -9 23 -15
12 -15 -9 0 -23 -3 -32 -6 -9 -3 -16 -1 -16 6 0 6 5 8 12 4 7 -4 8 -3 4 5 -4
6 -12 9 -17 6 -5 -4 -9 -1 -9 4 0 15 13 14 46 -4z m-3289 -62 c-11 -10 -27 8
-27 30 l0 21 16 -22 c9 -13 14 -26 11 -29z m2538 37 c-3 -5 -12 -7 -20 -3 -21
7 -19 13 6 13 11 0 18 -4 14 -10z m998 4 c10 -11 -20 -34 -45 -34 -19 0 -20 2
-8 11 12 8 9 10 -13 6 -31 -5 -24 8 8 16 31 7 51 8 58 1z m-1533 -13 c0 -5
-10 -11 -22 -14 -22 -6 -22 -6 -4 8 23 17 26 18 26 6z m476 -19 c-4 -3 -14 2
-24 12 -16 18 -16 18 6 6 13 -6 21 -14 18 -18z m832 11 c-2 -9 -8 -18 -15 -20
-7 -3 -9 3 -6 16 6 25 26 28 21 4z m-1248 -13 c0 -5 -8 -10 -17 -10 -15 0 -16
2 -3 10 19 12 20 12 20 0z m345 1 c-27 -11 -221 -41 -265 -41 -19 0 -70 -9
-114 -20 -43 -11 -88 -20 -100 -20 -18 0 -19 -2 -6 -11 12 -9 11 -10 -7 -6
-13 3 -23 0 -23 -6 0 -8 -4 -7 -12 1 -7 7 -31 12 -54 12 -24 0 -45 4 -48 9 -3
5 20 8 52 6 44 -2 67 3 102 21 37 19 64 24 155 28 61 2 118 7 127 11 17 7 138
22 188 23 22 1 23 0 5 -7z m1245 -1 c0 -5 -4 -10 -10 -10 -5 0 -10 5 -10 10 0
6 5 10 10 10 6 0 10 -4 10 -10z m-3390 -10 c0 -5 -4 -10 -9 -10 -6 0 -13 5
-16 10 -3 6 1 10 9 10 9 0 16 -4 16 -10z m1690 0 c0 -5 -2 -10 -4 -10 -3 0 -8
5 -11 10 -3 6 -1 10 4 10 6 0 11 -4 11 -10z m729 -6 c8 -8 -95 -2 -119 7 -16
5 1 6 45 2 39 -3 72 -7 74 -9z m848 -10 c-3 -3 -12 -4 -19 -1 -8 3 -5 6 6 6
11 1 17 -2 13 -5z m-852 -14 c3 -5 12 -7 20 -3 8 3 15 0 15 -6 0 -16 -33 -14
-56 4 -17 13 -17 14 -2 15 9 0 19 -4 23 -10z m780 1 c-6 -5 -23 -12 -40 -16
l-30 -6 25 15 c28 17 60 22 45 7z m-825 -41 c57 -14 67 -19 40 -19 -19 0 -53
4 -75 10 -22 6 -46 11 -52 11 -7 1 -13 5 -13 10 0 11 15 10 100 -12z m-2577
-12 c13 -21 17 -22 37 -10 20 12 22 12 17 -2 -4 -10 -1 -16 7 -16 10 0 12 -7
8 -22 l-5 -21 -18 21 c-9 12 -20 22 -23 22 -11 0 -6 -21 9 -37 8 -8 13 -19 9
-24 -3 -5 -14 1 -25 13 l-20 23 17 -32 c10 -18 22 -33 26 -33 4 0 8 -9 8 -20
0 -14 -7 -20 -21 -20 -26 0 -49 23 -49 48 0 10 -3 22 -7 26 -4 3 -8 12 -9 19
-1 7 -5 20 -9 30 -9 22 3 22 27 0 10 -9 18 -11 18 -5 0 6 -4 13 -9 16 -12 8
-21 46 -11 46 4 0 14 -10 23 -22z m2847 10 c0 -5 7 -8 15 -8 13 0 40 -68 30
-78 -8 -8 -75 23 -75 35 0 7 -9 13 -20 13 -12 0 -20 7 -20 18 0 11 -3 13 -8 5
-5 -8 -12 -8 -25 2 -10 7 -13 15 -8 16 21 7 111 4 111 -3z m778 5 c-10 -2 -26
-2 -35 0 -10 3 -2 5 17 5 19 0 27 -2 18 -5z m-1170 -10 c-10 -2 -26 -2 -35 0
-10 3 -2 5 17 5 19 0 27 -2 18 -5z m1102 -9 c0 -8 -4 -12 -10 -9 -5 3 -10 1
-10 -5 0 -6 -5 -8 -10 -5 -8 5 -7 11 1 21 15 19 29 18 29 -2z m-1280 -7 c-19
-6 -37 -14 -41 -19 -3 -4 -27 -10 -55 -13 -34 -4 -43 -3 -29 4 34 15 119 39
140 39 11 0 4 -5 -15 -11z m73 6 c-7 -2 -19 -2 -25 0 -7 3 -2 5 12 5 14 0 19
-2 13 -5z m1283 -4 c4 -8 9 -7 15 2 4 7 11 11 14 8 9 -10 -5 -37 -23 -42 -9
-3 -26 -8 -37 -12 -17 -6 -16 -3 4 15 21 18 22 23 10 31 -9 5 -10 9 -2 9 6 0
15 -5 19 -11z m-2028 -6 c-10 -2 -26 -2 -35 0 -10 3 -2 5 17 5 19 0 27 -2 18
-5z m1957 -37 c-10 -7 -25 -12 -32 -9 -23 9 -14 19 19 21 31 3 31 2 13 -12z
m142 8 c-3 -3 -12 -4 -19 -1 -8 3 -5 6 6 6 11 1 17 -2 13 -5z m-1639 -19 c-38
-14 -146 -31 -118 -18 29 13 105 31 130 31 21 1 18 -2 -12 -13z m-518 -31 c0
-20 -7 -17 -20 6 -9 16 -8 18 5 14 8 -4 15 -12 15 -20z m650 21 c0 -7 -81 -27
-87 -21 -3 3 10 9 28 15 39 11 59 13 59 6z m1101 -5 c10 -6 19 -15 19 -21 0
-6 -7 -3 -16 5 -8 9 -20 14 -25 11 -5 -4 -9 -1 -9 4 0 14 6 14 31 1z m430 -14
c-19 -7 -36 -17 -38 -23 -3 -7 -26 -9 -68 -6 -79 6 -152 -9 -201 -42 -22 -15
-47 -24 -57 -21 -11 2 -16 2 -13 -2 6 -6 -47 -32 -66 -32 -14 0 41 44 78 63
48 24 182 57 238 58 28 0 60 4 71 9 11 5 36 9 55 9 l35 -1 -34 -12z m-1968
-50 c20 6 20 6 4 -10 -9 -9 -14 -24 -10 -34 3 -9 3 -14 -2 -10 -4 4 -15 2 -23
-4 -12 -11 -14 -6 -9 32 7 57 8 59 14 37 3 -13 10 -16 26 -11z m1575 -1 c-3
-3 -9 2 -12 12 -6 14 -5 15 5 6 7 -7 10 -15 7 -18z m-1628 -28 c0 -5 -7 -6
-16 -3 -9 3 -18 6 -20 6 -2 0 -4 7 -4 15 0 13 3 13 20 3 11 -7 20 -17 20 -21z
m-1280 -8 c17 -31 7 -33 -20 -4 -19 20 -20 25 -7 25 9 0 21 -9 27 -21z m2550
-19 c0 -5 -5 -10 -11 -10 -5 0 -7 5 -4 10 3 6 8 10 11 10 2 0 4 -4 4 -10z
m-135 -30 c-4 -19 -3 -30 4 -30 6 0 11 7 11 15 0 11 12 15 52 15 48 0 50 -1
32 -15 -17 -13 -17 -14 -1 -15 11 0 17 -8 17 -25 0 -21 -5 -25 -31 -25 -17 0
-28 4 -24 10 3 6 15 10 26 10 26 0 24 13 -4 25 -31 14 -57 8 -50 -12 4 -9 -1
-21 -11 -28 -21 -16 -30 -73 -14 -92 17 -21 18 -93 2 -93 -8 0 -14 -4 -14 -9
0 -5 -16 -11 -36 -13 -41 -5 -55 12 -30 37 9 9 16 21 16 27 0 6 9 0 21 -13 19
-23 20 -23 10 -2 -14 27 -15 75 -2 54 6 -9 9 4 9 37 1 29 -4 52 -9 52 -6 0 -7
9 -4 21 6 18 4 20 -15 14 -15 -5 -20 -4 -16 4 4 6 14 11 22 11 19 0 18 20 -3
37 -16 12 -15 13 10 7 15 -4 27 -2 26 2 -2 14 0 24 7 24 3 0 3 -13 -1 -30z
m-2695 0 c0 -11 -4 -20 -10 -20 -5 0 -10 9 -10 20 0 11 5 20 10 20 6 0 10 -9
10 -20z m2385 10 c3 -5 1 -10 -4 -10 -6 0 -11 5 -11 10 0 6 2 10 4 10 3 0 8
-4 11 -10z m-335 -5 c0 -2 -10 -10 -22 -16 -21 -11 -22 -11 -9 4 13 16 31 23
31 12z m-171 -49 c-2 -2 -15 -7 -29 -10 l-25 -7 25 15 c21 12 42 14 29 2z
m1311 -1 c-7 -8 -20 -15 -29 -15 -13 1 -13 3 3 15 26 19 42 19 26 0z m-1470
-5 c0 -5 -8 -10 -17 -10 -15 0 -16 2 -3 10 19 12 20 12 20 0z m186 -15 c-11
-8 -29 -15 -40 -15 -17 1 -15 4 9 15 40 18 55 18 31 0z m104 1 c0 -3 -4 -8
-10 -11 -5 -3 -10 -1 -10 4 0 6 5 11 10 11 6 0 10 -2 10 -4z m247 -2 c-3 -3
-12 -4 -19 -1 -8 3 -5 6 6 6 11 1 17 -2 13 -5z m-751 -19 c4 -8 12 -15 20 -15
8 0 14 -6 14 -13 0 -9 -13 -11 -42 -9 -52 5 -66 16 -48 37 16 19 49 20 56 0z
m659 5 c-3 -5 -12 -10 -18 -10 -7 0 -6 4 3 10 19 12 23 12 15 0z m-455 -22 c0
-6 -6 -5 -15 2 -8 7 -15 14 -15 16 0 2 7 1 15 -2 8 -4 15 -11 15 -16z m1352 9
c-14 -17 1 -42 19 -32 10 6 11 5 4 -3 -16 -17 -55 -4 -48 16 4 10 11 20 17 24
17 12 20 9 8 -5z m-278 -62 c6 -60 6 -60 -24 -74 -17 -7 -34 -11 -37 -7 -3 3
7 11 22 18 25 11 27 16 22 58 -4 39 0 77 8 68 1 -2 5 -30 9 -63z m-1184 44 c0
-5 -12 -9 -26 -9 -14 0 -23 4 -20 8 7 11 46 12 46 1z m1529 -38 c-3 -6 -10 -7
-18 -2 -7 5 -10 14 -6 21 9 14 29 -2 24 -19z m-1616 12 c-7 -2 -21 -2 -30 0
-10 3 -4 5 12 5 17 0 24 -2 18 -5z m-15 -24 c-18 -12 -66 -11 -73 1 -4 6 11
10 40 8 28 -1 41 -4 33 -9z m272 -36 c22 -16 23 -16 16 2 -6 18 -6 18 12 2 10
-9 22 -14 25 -10 4 3 7 1 7 -6 0 -8 -7 -10 -22 -6 -18 6 -20 4 -14 -11 7 -18
6 -18 -11 -1 -10 10 -27 24 -38 32 -11 8 -15 15 -10 15 6 0 21 -8 35 -17z
m1230 8 c0 -5 -7 -11 -15 -15 -15 -5 -20 5 -8 17 9 10 23 9 23 -2z m263 -36
c4 -27 3 -35 -3 -25 -5 8 -10 28 -10 44 0 39 6 30 13 -19z m-3092 -57 c16 -21
26 -38 21 -38 -16 0 -93 97 -92 117 1 4 10 -3 20 -17 11 -14 34 -42 51 -62z
m199 22 c0 -5 -4 -10 -10 -10 -5 0 -10 5 -10 10 0 6 5 10 10 10 6 0 10 -4 10
-10z m1430 -18 c0 -8 -1 -13 -3 -11 -1 2 -9 12 -16 22 -12 15 -12 17 3 11 9
-3 16 -13 16 -22z m110 24 c0 -2 -7 -7 -16 -10 -8 -3 -12 -2 -9 4 6 10 25 14
25 6z m35 -24 c-3 -3 -11 0 -18 7 -9 10 -8 11 6 5 10 -3 15 -9 12 -12z m-51
-13 c-7 -12 -41 -16 -41 -5 0 6 10 11 23 11 12 0 20 -3 18 -6z m-1489 -9 c-3
-5 -10 -10 -16 -10 -5 0 -9 5 -9 10 0 6 7 10 16 10 8 0 12 -4 9 -10z m1327
-22 c-7 -7 -12 -8 -12 -2 0 6 3 14 7 17 3 4 9 5 12 2 2 -3 -1 -11 -7 -17z
m1258 8 c0 -3 -4 -8 -10 -11 -5 -3 -10 -1 -10 4 0 6 5 11 10 11 6 0 10 -2 10
-4z m-540 -20 c0 -8 -9 -14 -19 -13 -15 1 -17 4 -9 14 14 17 28 16 28 -1z
m-486 -2 c9 -3 16 -13 16 -20 0 -8 7 -17 15 -20 8 -4 13 -10 10 -14 -8 -12
-65 19 -65 36 0 8 -4 14 -10 14 -5 0 -10 -9 -10 -20 0 -11 -4 -20 -10 -20 -5
0 -10 7 -10 15 0 8 -4 15 -10 15 -5 0 -10 5 -10 10 0 11 59 14 84 4z m771 -52
c4 -11 8 -10 21 2 16 16 34 21 34 10 0 -10 -94 -93 -99 -88 -2 2 4 13 14 24
13 15 19 35 18 68 -1 26 1 36 3 22 3 -14 7 -31 9 -38z m-2524 -9 c13 -16 12
-17 -3 -4 -10 7 -18 15 -18 17 0 8 8 3 21 -13z m243 -35 c6 -4 8 -10 4 -13
-10 -11 -48 28 -48 49 0 19 2 18 17 -4 9 -14 21 -28 27 -32z m1511 32 c3 -5
-1 -10 -9 -10 -8 0 -18 5 -21 10 -3 6 1 10 9 10 8 0 18 -4 21 -10z m475 -20
c0 -5 -4 -10 -10 -10 -5 0 -10 5 -10 10 0 6 5 10 10 10 6 0 10 -4 10 -10z
m885 -19 c-11 -5 -40 -11 -65 -14 -41 -5 -43 -4 -26 9 11 8 40 14 65 13 33 0
40 -2 26 -8z m-295 -21 c0 -5 -5 -10 -11 -10 -5 0 -7 5 -4 10 3 6 8 10 11 10
2 0 4 -4 4 -10z m170 -5 c-7 -9 -15 -13 -19 -10 -3 3 1 10 9 15 21 14 24 12
10 -5z m-630 -31 c0 -8 -5 -12 -10 -9 -6 4 -8 11 -5 16 9 14 15 11 15 -7z
m117 -12 c2 -15 -2 -22 -13 -22 -35 0 -41 -27 -27 -128 7 -53 19 -100 26 -104
9 -6 9 -10 1 -15 -6 -5 -14 -18 -18 -30 -14 -43 -26 -23 -23 37 2 33 -1 64 -5
68 -10 10 -17 129 -9 138 3 3 6 13 6 22 0 19 36 61 49 58 5 -1 11 -12 13 -24z
m20 -14 c-3 -7 -5 -2 -5 12 0 14 2 19 5 13 2 -7 2 -19 0 -25z m293 28 c0 -3
-4 -8 -10 -11 -5 -3 -10 -1 -10 4 0 6 5 11 10 11 6 0 10 -2 10 -4z m-50 -10
c0 -3 -4 -8 -10 -11 -5 -3 -10 -1 -10 4 0 6 5 11 10 11 6 0 10 -2 10 -4z m250
-31 c0 -2 -10 -9 -22 -15 -22 -11 -22 -10 -4 4 21 17 26 19 26 11z m-230 -34
c-10 -20 -30 -29 -30 -14 0 10 33 44 37 39 3 -2 0 -14 -7 -25z m295 19 c-3 -5
-11 -10 -16 -10 -6 0 -7 5 -4 10 3 6 11 10 16 10 6 0 7 -4 4 -10z m-2637 -12
c31 -31 0 -38 -38 -8 l-25 20 26 0 c14 0 30 -5 37 -12z m-239 -52 c-9 -8 -10
-7 -5 7 3 10 7 24 7 30 1 7 3 4 6 -7 3 -10 -1 -23 -8 -30z m1847 17 c-10 -10
-19 5 -10 18 6 11 8 11 12 0 2 -7 1 -15 -2 -18z m629 -33 c-3 -5 -11 -10 -16
-10 -6 0 -7 5 -4 10 3 6 11 10 16 10 6 0 7 -4 4 -10z m-545 -15 c0 -8 -4 -15
-8 -15 -5 0 -9 7 -9 15 0 8 4 15 9 15 4 0 8 -7 8 -15z m73 8 c-7 -2 -19 -2
-25 0 -7 3 -2 5 12 5 14 0 19 -2 13 -5z m-48 -13 c3 -5 1 -10 -4 -10 -6 0 -11
5 -11 10 0 6 2 10 4 10 3 0 8 -4 11 -10z m51 -9 c-4 -5 0 -12 6 -14 8 -4 9 -6
2 -6 -6 -1 -17 6 -24 14 -10 12 -9 15 4 15 10 0 15 -4 12 -9z m-1701 -11 c3
-5 1 -10 -4 -10 -6 0 -11 5 -11 10 0 6 2 10 4 10 3 0 8 -4 11 -10z m-62 -20
c6 -22 -15 -25 -63 -10 -23 7 -12 14 17 11 6 -1 14 3 18 9 10 16 22 12 28 -10z
m1742 10 c3 -5 -1 -10 -9 -10 -9 0 -16 5 -16 10 0 6 4 10 9 10 6 0 13 -4 16
-10z m-1751 -55 c3 -8 1 -15 -3 -15 -5 0 -11 7 -15 15 -3 8 -1 15 3 15 5 0 11
-7 15 -15z m115 -11 c35 -7 42 -33 12 -51 -16 -10 -22 -7 -40 17 -31 43 -29
45 28 34z m2251 -2 c0 -5 17 -21 37 -35 21 -15 32 -27 26 -27 -7 0 -15 5 -19
11 -3 6 -15 8 -26 6 -11 -3 -21 0 -25 9 -3 9 -13 12 -24 9 -21 -7 -25 5 -7 23
14 14 38 16 38 4z m376 -28 c-15 -14 -31 -22 -35 -19 -7 8 36 45 53 45 6 0 -2
-12 -18 -26z m-2536 6 c0 -5 -7 -7 -15 -4 -8 4 -15 8 -15 10 0 2 7 4 15 4 8 0
15 -4 15 -10z m-427 -27 c-7 -2 -19 -2 -25 0 -7 3 -2 5 12 5 14 0 19 -2 13 -5z
m195 1 c27 -8 29 -24 3 -24 -10 0 -21 -7 -25 -15 -5 -13 -8 -13 -25 2 -15 13
-18 20 -9 30 12 14 22 16 56 7z m2351 -18 c-14 -13 -36 -27 -50 -31 -23 -7
-23 -7 5 24 17 17 39 31 50 31 20 0 19 -1 -5 -24z m-2331 -42 c-9 -9 -21 -13
-28 -9 -8 5 -4 11 12 19 29 16 37 10 16 -10z m1712 16 c0 -5 -5 -10 -11 -10
-5 0 -7 5 -4 10 3 6 8 10 11 10 2 0 4 -4 4 -10z m322 -62 c-6 -6 -9 2 -7 24 5
45 7 48 12 14 3 -16 0 -33 -5 -38z m-132 33 c0 -6 -4 -13 -10 -16 -5 -3 -10 1
-10 9 0 9 5 16 10 16 6 0 10 -4 10 -9z m870 -39 c0 -7 -4 -10 -10 -7 -5 3 -10
16 -10 28 0 18 2 19 10 7 5 -8 10 -21 10 -28z m-2836 22 c23 -9 20 -23 -4 -17
-11 3 -20 9 -20 14 0 11 3 11 24 3z m2136 -24 c0 -5 -5 -10 -11 -10 -5 0 -7 5
-4 10 3 6 8 10 11 10 2 0 4 -4 4 -10z m-473 -22 c-3 -8 -6 -5 -6 6 -1 11 2 17
5 13 3 -3 4 -12 1 -19z m270 -3 c-13 -28 -30 -34 -20 -7 5 14 21 31 30 32 0 0
-4 -11 -10 -25z m160 -37 c-2 -13 -4 -5 -4 17 -1 22 1 32 4 23 2 -10 2 -28 0
-40z m-557 32 c0 -5 -2 -10 -4 -10 -3 0 -8 5 -11 10 -3 6 -1 10 4 10 6 0 11
-4 11 -10z m660 0 c0 -5 -2 -10 -4 -10 -3 0 -8 5 -11 10 -3 6 -1 10 4 10 6 0
11 -4 11 -10z m-1066 -36 c3 -8 1 -24 -5 -36 -10 -19 -11 -19 -30 -2 -10 9
-19 22 -19 27 0 6 9 2 19 -7 13 -12 21 -14 26 -6 4 6 4 14 1 17 -3 4 -6 0 -6
-7 0 -10 -3 -11 -11 -3 -11 11 -5 33 11 33 4 0 11 -7 14 -16z m-68 -21 c17
-23 18 -43 2 -39 -7 1 -10 1 -5 -1 4 -3 5 -9 1 -14 -8 -14 3 -11 18 5 12 11
18 10 42 -10 17 -15 22 -24 12 -24 -8 0 -16 -4 -18 -9 -3 -10 -35 -15 -82 -13
-26 2 -28 5 -21 29 3 15 12 31 18 35 9 6 9 8 0 8 -10 0 -10 6 -1 25 13 30 17
30 34 8z m311 -2 c9 -15 8 -23 -4 -40 -10 -16 -13 -36 -10 -67 4 -30 2 -44 -6
-44 -9 0 -9 -2 -1 -8 12 -7 7 -72 -5 -72 -11 0 -11 39 0 45 5 4 6 12 2 18 -4
6 -8 22 -9 36 -2 13 -7 27 -12 30 -13 9 -23 41 -12 41 6 0 10 -4 10 -10 0 -5
5 -10 11 -10 7 0 4 11 -6 28 -10 15 -12 21 -5 15 10 -9 17 -10 27 -2 15 13 17
39 3 39 -5 0 -10 -7 -10 -17 0 -9 -3 -14 -6 -10 -7 7 5 47 14 47 4 0 12 -8 19
-19z m-77 5 c0 -3 -4 -8 -10 -11 -5 -3 -10 -1 -10 4 0 6 5 11 10 11 6 0 10 -2
10 -4z m30 0 c0 -3 -4 -8 -10 -11 -5 -3 -10 -1 -10 4 0 6 5 11 10 11 6 0 10
-2 10 -4z m190 -62 c0 -8 -2 -14 -5 -14 -6 0 -35 56 -35 67 1 14 40 -39 40
-53z m-363 19 c4 -10 14 -23 22 -30 9 -7 12 -13 7 -13 -13 0 -66 47 -59 54 11
11 24 6 30 -11z m1745 -45 c-16 -16 -21 -8 -15 27 6 29 6 29 16 7 7 -16 7 -26
-1 -34z m58 37 c0 -2 -10 -9 -22 -15 -22 -11 -22 -10 -4 4 21 17 26 19 26 11z
m-3389 -47 l23 -33 -27 24 c-15 14 -27 28 -27 33 0 15 8 8 31 -24z m3584 12
c-11 -5 -27 -9 -35 -9 -13 -1 -13 0 0 9 8 5 24 9 35 9 l20 0 -20 -9z m-920
-14 c-23 -7 -50 -18 -60 -24 -20 -11 -20 -11 0 -12 11 -1 14 -4 8 -7 -7 -2
-13 -9 -13 -14 0 -5 11 -3 25 3 18 8 22 14 13 19 -8 5 -2 10 16 15 19 5 32 2
44 -10 15 -15 15 -16 -1 -16 -9 0 -17 6 -17 13 -1 8 -5 7 -13 -4 -13 -17 -36
-27 -85 -39 -35 -9 -58 8 -24 17 11 3 18 11 16 18 -9 22 51 52 106 53 18 1 13
-3 -15 -12z m-1041 -18 c12 -13 29 -24 37 -26 20 -5 36 -22 20 -22 -7 0 -10
-4 -7 -9 4 -5 -4 -7 -16 -3 -14 3 -19 1 -14 -6 4 -8 2 -10 -7 -6 -16 6 -126
-23 -142 -37 -5 -5 -18 -9 -30 -9 -11 1 18 16 65 35 47 19 91 33 98 30 6 -2
12 0 12 4 0 17 -32 21 -53 6 -25 -18 -67 -20 -67 -4 0 6 -7 8 -16 5 -9 -4 -22
-2 -29 4 -7 6 -17 9 -21 8 -5 -2 -9 1 -9 6 0 5 18 9 40 10 22 1 54 9 70 18 41
22 45 21 69 -4z m32 7 c9 -8 11 -15 6 -15 -5 0 -15 7 -22 15 -7 8 -9 15 -6 15
4 0 14 -7 22 -15z m97 -19 c7 -17 -30 -29 -40 -14 -3 7 -1 8 6 4 6 -4 14 0 17
8 8 20 10 20 17 2z m437 -13 c0 -14 -3 -23 -7 -19 -10 10 -11 46 -1 46 4 0 8
-12 8 -27z m-2032 -67 c23 -16 40 -31 38 -33 -6 -6 -79 41 -96 62 -17 22 -13
19 58 -29z m1602 2 c0 -19 -16 -5 -17 14 -2 18 0 20 7 8 5 -8 10 -18 10 -22z
m-1680 7 c14 -8 19 -14 10 -14 -8 0 -26 6 -40 14 -14 8 -19 14 -10 14 8 0 26
-6 40 -14z m2104 -17 c5 -4 -3 -12 -19 -18 -15 -6 -30 -8 -33 -5 -3 3 0 5 6 5
18 0 14 21 -5 37 -16 11 -14 12 12 1 17 -6 34 -15 39 -20z m-1158 -19 c8 -17
13 -36 11 -42 -5 -12 -32 41 -29 56 1 4 -5 7 -14 7 -8 0 -12 5 -9 10 9 14 23
4 41 -31z m659 31 c3 -5 2 -10 -4 -10 -5 0 -13 5 -16 10 -3 6 -2 10 4 10 5 0
13 -4 16 -10z m272 -12 c-3 -8 -6 -5 -6 6 -1 11 2 17 5 13 3 -3 4 -12 1 -19z
m601 -13 c-18 -13 -35 -21 -37 -19 -8 8 44 50 57 46 8 -3 0 -13 -20 -27z
m-1608 6 c16 -31 12 -39 -25 -43 -41 -5 -40 -5 -18 33 20 34 29 36 43 10z
m935 10 c3 -5 1 -12 -5 -16 -5 -3 -10 1 -10 9 0 18 6 21 15 7z m-1360 -21 c13
-6 15 -9 5 -9 -8 0 -22 4 -30 9 -18 12 -2 12 25 0z m243 -18 c-9 -2 -24 -15
-33 -28 -9 -14 -19 -23 -22 -20 -3 3 0 13 8 22 12 15 11 16 -11 10 l-25 -6 25
11 c14 6 32 15 40 19 8 4 20 5 25 2 6 -4 2 -8 -7 -10z m992 8 c0 -5 -7 -10
-16 -10 -8 0 -12 5 -9 10 3 6 10 10 16 10 5 0 9 -4 9 -10z m207 -22 c-3 -7 -5
-2 -5 12 0 14 2 19 5 13 2 -7 2 -19 0 -25z m-600 16 c-3 -3 -12 -4 -19 -1 -8
3 -5 6 6 6 11 1 17 -2 13 -5z m449 -66 c1 -22 0 -38 -2 -35 -11 10 -32 95 -26
101 10 11 24 -24 28 -66z m84 38 c0 -6 -5 -4 -10 4 -7 11 -10 -2 -10 -42 0
-34 4 -58 11 -58 5 0 7 6 3 13 -6 8 -3 8 9 -1 9 -8 21 -11 27 -7 5 3 10 2 10
-4 0 -5 -6 -12 -12 -14 -8 -3 -6 -6 5 -6 9 -1 17 -8 17 -16 0 -11 -8 -13 -32
-8 -46 8 -51 15 -56 83 -5 73 2 98 23 80 8 -7 15 -18 15 -24z m-1597 -27 c-11
-3 -29 2 -45 14 -43 32 -33 39 17 15 36 -18 42 -24 28 -29z m1397 41 c0 -5 -5
-10 -11 -10 -5 0 -7 5 -4 10 3 6 8 10 11 10 2 0 4 -4 4 -10z m-1140 -18 c-14
-2 -31 -9 -37 -14 -16 -13 -17 -1 -1 16 7 7 23 10 37 7 l26 -5 -25 -4z m1206
-9 c-10 -10 -19 5 -10 18 6 11 8 11 12 0 2 -7 1 -15 -2 -18z m-926 -11 c0 -8
-1 -13 -3 -11 -1 2 -9 12 -16 22 -12 15 -12 17 3 11 9 -3 16 -13 16 -22z
m1755 -11 c-3 -6 -11 -8 -17 -5 -6 4 -5 9 3 15 16 10 23 4 14 -10z m-1935 6
c0 -2 -12 -14 -27 -28 l-28 -24 24 28 c23 25 31 32 31 24z m387 -29 c-3 -7 -5
-2 -5 12 0 14 2 19 5 13 2 -7 2 -19 0 -25z m1123 21 c0 -10 -24 -39 -33 -39
-3 0 0 11 6 25 12 25 27 33 27 14z m-1828 -28 c19 -16 57 -37 86 -46 29 -10
55 -21 57 -26 11 -17 -71 5 -100 27 -55 42 -90 73 -83 74 4 0 22 -13 40 -29z
m1408 19 c18 -12 2 -12 -25 0 -13 6 -15 9 -5 9 8 0 22 -4 30 -9z m165 -8 c-3
-3 -11 0 -18 7 -9 10 -8 11 6 5 10 -3 15 -9 12 -12z m67 -28 c-2 -20 4 -49 12
-65 8 -16 10 -29 6 -29 -16 0 -28 34 -30 80 -2 58 -1 65 7 56 4 -4 6 -23 5
-42z m62 31 c11 -8 18 -17 15 -19 -2 -3 -15 4 -29 14 -14 11 -20 20 -15 19 6
0 19 -6 29 -14z m-261 -10 c4 -8 2 -17 -3 -20 -6 -4 -10 3 -10 14 0 25 6 27
13 6z m-676 -11 c-3 -3 -12 -4 -19 -1 -8 3 -5 6 6 6 11 1 17 -2 13 -5z m72
-20 c11 -11 -7 -10 -34 3 l-30 14 30 -6 c16 -4 32 -9 34 -11z m1421 -9 c-7 -9
-15 -13 -19 -10 -3 3 1 10 9 15 21 14 24 12 10 -5z m-325 -15 c3 -5 1 -10 -4
-10 -6 0 -11 5 -11 10 0 6 2 10 4 10 3 0 8 -4 11 -10z m-1345 -72 c0 -6 -7 -5
-15 2 -8 7 -15 17 -15 22 0 6 7 5 15 -2 8 -7 15 -17 15 -22z m-679 5 c13 -16
12 -17 -3 -4 -10 7 -18 15 -18 17 0 8 8 3 21 -13z m2479 9 c0 -7 -26 -26 -69
-49 -28 -16 -31 -16 -31 -3 0 6 5 10 11 10 6 0 24 11 41 25 30 25 48 32 48 17z
m-1113 -16 c-4 -10 7 -13 47 -12 40 0 59 -5 81 -22 15 -12 23 -22 16 -22 -24
0 -9 -21 19 -26 30 -6 42 -35 20 -49 -5 -3 -7 -12 -3 -20 3 -11 -2 -15 -17
-15 -13 0 -29 -8 -36 -17 -11 -15 -15 -16 -23 -4 -5 8 -16 11 -24 8 -11 -4
-14 -1 -10 9 11 29 -6 13 -28 -26 -24 -42 -49 -53 -49 -21 0 20 -29 93 -30 76
-1 -5 -7 4 -14 20 -19 42 -11 44 24 4 16 -19 30 -28 30 -21 0 12 -28 62 -41
72 -3 3 -9 15 -13 28 -5 16 -3 22 7 22 8 0 20 7 27 15 16 19 24 19 17 1z m453
-17 c0 -4 -7 -6 -15 -3 -8 4 -15 10 -15 15 0 4 7 6 15 3 8 -4 15 -10 15 -15z
m-1510 -33 c0 -6 -7 -1 -15 10 -8 10 -15 23 -15 28 0 6 7 1 15 -10 8 -10 15
-23 15 -28z m110 -114 c-1 -12 -5 -9 -15 9 -8 14 -26 34 -40 43 -14 9 -25 23
-25 32 0 9 16 -1 40 -26 22 -22 40 -49 40 -58z m248 68 c7 -11 11 -20 9 -20
-2 0 -12 9 -22 20 -10 11 -14 20 -9 20 5 0 15 -9 22 -20z m298 4 c19 -15 19
-16 -1 -8 -11 3 -36 10 -55 14 l-35 8 36 1 c19 0 44 -6 55 -15z m1354 2 c0 -3
-4 -8 -10 -11 -5 -3 -10 -1 -10 4 0 6 5 11 10 11 6 0 10 -2 10 -4z m-300 -25
c0 -6 -4 -13 -10 -16 -5 -3 -10 1 -10 9 0 9 5 16 10 16 6 0 10 -4 10 -9z
m-1583 -26 c0 -8 -4 -12 -9 -9 -4 3 -8 9 -8 15 0 5 4 9 8 9 5 0 9 -7 9 -15z
m578 -15 c27 -30 12 -34 -15 -5 -13 14 -19 25 -13 25 5 0 18 -9 28 -20z m-880
-50 c2 -4 -7 -5 -20 -2 -14 2 -25 8 -25 12 0 10 38 1 45 -10z m3036 -17 c-8
-15 -10 -15 -11 -2 0 17 10 32 18 25 2 -3 -1 -13 -7 -23z m-2134 1 c-3 -3 -12
-4 -19 -1 -8 3 -5 6 6 6 11 1 17 -2 13 -5z m73 -8 c0 -2 -15 -6 -34 -8 -19 -2
-32 0 -30 4 5 8 64 12 64 4z m156 -69 c17 -8 35 -21 40 -28 5 -9 -1 -8 -19 4
-14 9 -36 17 -47 17 -22 0 -90 46 -90 61 0 4 19 -3 43 -16 23 -13 56 -30 73
-38z m-636 22 c0 -5 -9 -4 -19 3 -11 7 -17 16 -14 20 5 10 33 -10 33 -23z
m-750 11 c12 -8 11 -10 -7 -10 -12 0 -25 5 -28 10 -8 13 15 13 35 0z m425 -30
c-3 -5 1 -10 7 -13 7 -2 -11 -4 -39 -4 -57 1 -62 3 -37 22 17 12 77 8 69 -5z
m68 3 c-7 -2 -21 -2 -30 0 -10 3 -4 5 12 5 17 0 24 -2 18 -5z m73 -19 c17 -14
17 -15 1 -10 -10 3 -23 6 -28 6 -5 0 -9 5 -9 10 0 14 13 12 36 -6z m-285 -21
c13 -15 12 -15 -8 -4 -24 12 -29 21 -14 21 5 0 15 -7 22 -17z m199 13 c0 -2
-8 -10 -17 -17 -16 -13 -17 -12 -4 4 13 16 21 21 21 13z m37 -2 c-3 -3 -12 -4
-19 -1 -8 3 -5 6 6 6 11 1 17 -2 13 -5z m386 -34 c25 0 25 -1 11 -30 -19 -36
-28 -39 -20 -5 4 15 2 25 -4 25 -6 0 -8 -4 -5 -10 12 -19 -12 -10 -33 13 -25
26 -18 45 8 22 9 -8 28 -15 43 -15z m-773 -10 c0 -5 -5 -10 -11 -10 -5 0 -7 5
-4 10 3 6 8 10 11 10 2 0 4 -4 4 -10z m140 -10 c10 -6 2 -7 -25 -3 -49 7 -58
13 -19 13 16 0 36 -5 44 -10z m1170 -50 c0 -13 -1 -13 -10 0 -5 8 -10 22 -10
30 0 13 1 13 10 0 5 -8 10 -22 10 -30z m-905 11 c-6 -5 -28 -6 -50 -1 l-40 8
50 1 c29 1 45 -3 40 -8z m2079 -36 c3 -8 1 -15 -4 -15 -6 0 -10 7 -10 15 0 8
2 15 4 15 2 0 6 -7 10 -15z m-1944 -5 c-19 -13 -30 -13 -30 0 0 6 10 10 23 10
18 0 19 -2 7 -10z m820 -23 c0 -11 -1 -18 -3 -16 -1 2 -10 14 -21 26 -17 21
-17 21 3 16 13 -3 21 -13 21 -26z m-200 -39 c0 -14 -19 1 -31 25 -12 22 -12
22 10 3 11 -11 21 -23 21 -28z m1352 22 c-12 -11 -24 -20 -27 -20 -3 0 -5 9
-5 20 0 15 7 20 27 20 l27 0 -22 -20z m-1834 -15 c-3 -3 -9 2 -12 12 -6 14 -5
15 5 6 7 -7 10 -15 7 -18z m1292 -20 c-6 -15 -13 -25 -17 -22 -3 4 0 21 8 38
16 39 24 24 9 -16z m-1350 31 c0 -3 -4 -8 -10 -11 -5 -3 -10 -1 -10 4 0 6 5
11 10 11 6 0 10 -2 10 -4z m36 -71 c9 -9 13 -19 9 -23 -4 -4 -14 3 -22 16 -9
12 -26 22 -39 22 -13 0 -24 4 -24 9 0 14 57 -4 76 -24z m593 -104 c27 -40 28
-41 -55 49 -52 57 -54 60 -14 25 25 -21 56 -55 69 -74z m721 84 c0 -14 -4 -25
-9 -25 -4 0 -6 11 -3 25 2 14 6 25 8 25 2 0 4 -11 4 -25z m-1493 -11 c-3 -3
-12 -4 -19 -1 -8 3 -5 6 6 6 11 1 17 -2 13 -5z m2050 -31 c-9 -9 -19 -14 -23
-11 -10 10 6 28 24 28 15 0 15 -1 -1 -17z m-573 -17 c-3 -9 -10 -13 -16 -10
-5 3 -4 12 3 20 15 18 22 13 13 -10z m576 -36 c0 -5 -2 -10 -4 -10 -3 0 -8 5
-11 10 -3 6 -1 10 4 10 6 0 11 -4 11 -10z m-350 -31 c6 -10 10 -21 10 -25 0
-10 -30 17 -41 37 -7 15 -6 17 6 13 9 -4 20 -15 25 -25z m220 20 c0 -7 10 -9
25 -7 36 7 31 -9 -6 -17 -33 -7 -56 5 -45 24 9 14 26 14 26 0z m-1646 -14 c7
-19 5 -19 -30 0 l-29 15 26 0 c15 0 29 -7 33 -15z m1306 -47 c0 -20 -18 -4
-33 30 l-17 37 25 -30 c14 -16 25 -33 25 -37z m534 11 c-8 -14 -24 -10 -24 6
0 9 6 12 15 9 8 -4 12 -10 9 -15z m-1284 -19 c6 -11 8 -20 6 -20 -3 0 -10 9
-16 20 -6 11 -8 20 -6 20 3 0 10 -9 16 -20z m1195 -37 c1 -29 6 -58 13 -65 34
-34 -12 -88 -71 -86 -46 2 -54 12 -25 32 21 15 21 17 4 29 -12 9 -16 21 -12
40 4 22 1 27 -15 27 -10 0 -19 5 -19 12 0 6 -7 19 -16 29 -14 15 -13 17 18 15
21 -1 33 -7 33 -16 0 -8 8 -16 18 -18 16 -3 18 1 12 28 -7 31 -6 31 27 28 33
-3 33 -3 33 -55z m45 18 c0 -30 21 -81 31 -75 5 3 19 -2 31 -10 l23 -16 -33
-12 c-18 -7 -35 -20 -38 -30 -10 -33 -22 -9 -17 34 3 24 0 62 -5 86 -6 24 -6
42 -1 42 5 0 9 -8 9 -19z m-360 -41 c0 -13 -1 -13 -10 0 -5 8 -10 22 -10 30 0
13 1 13 10 0 5 -8 10 -22 10 -30z m15 -89 c-7 -7 -45 39 -44 54 0 6 11 -3 25
-19 14 -15 22 -31 19 -35z m-775 19 c25 -16 50 -30 57 -30 7 0 28 -13 46 -30
19 -16 39 -30 43 -30 5 -1 24 -13 42 -29 l32 -28 -30 0 c-20 0 -26 3 -18 9 10
6 10 10 -1 17 -8 5 -20 7 -28 4 -7 -3 -13 1 -13 8 0 17 -40 59 -57 59 -8 0
-28 7 -44 16 -19 10 -35 12 -42 6 -19 -14 -56 -21 -63 -11 -3 5 5 9 18 9 13 0
29 4 37 9 14 9 12 11 -37 37 -22 11 -24 14 -7 14 11 0 40 -14 65 -30z m934
-85 c-6 -16 -24 -21 -24 -7 0 11 11 22 21 22 5 0 6 -7 3 -15z m31 -5 c3 -5 1
-10 -4 -10 -6 0 -11 5 -11 10 0 6 2 10 4 10 3 0 8 -4 11 -10z m-710 -78 c-3
-3 -11 0 -18 7 -9 10 -8 11 6 5 10 -3 15 -9 12 -12z m102 -88 c-3 -3 -12 -4
-19 -1 -8 3 -5 6 6 6 11 1 17 -2 13 -5z"/>
<path d="M5275 7760 c-3 -5 -1 -10 4 -10 6 0 11 5 11 10 0 6 -2 10 -4 10 -3 0
-8 -4 -11 -10z"/>
<path d="M4850 3864 c0 -8 5 -12 10 -9 6 3 10 10 10 16 0 5 -4 9 -10 9 -5 0
-10 -7 -10 -16z"/>
<path d="M4878 3838 c5 -5 16 -8 23 -6 8 3 3 7 -10 11 -17 4 -21 3 -13 -5z"/>
<path d="M4940 3825 c0 -8 4 -15 9 -15 5 0 11 7 15 15 3 9 0 15 -9 15 -8 0
-15 -7 -15 -15z"/>
<path d="M4868 3789 c14 -19 52 -32 52 -18 0 5 -8 9 -18 9 -10 0 -24 6 -32 13
-12 10 -12 9 -2 -4z"/>
<path d="M5403 3722 c-8 -5 -8 -14 3 -32 l15 -25 -4 27 c-2 15 1 29 7 32 6 2
7 5 1 5 -5 0 -15 -3 -22 -7z"/>
<path d="M4659 3660 c29 -25 40 -25 37 -2 -2 11 -13 18 -32 20 l-29 2 24 -20z"/>
<path d="M4940 3630 c-8 -5 -11 -12 -7 -16 4 -4 13 -2 19 4 15 15 7 24 -12 12z"/>
<path d="M4936 3443 c-6 -14 -5 -15 5 -6 7 7 10 15 7 18 -3 3 -9 -2 -12 -12z"/>
<path d="M5091 3550 c5 -48 37 -78 54 -50 4 6 -1 7 -11 3 -13 -5 -15 -3 -9 7
6 9 4 11 -5 5 -10 -6 -12 -1 -8 18 3 17 0 32 -9 39 -13 10 -14 7 -12 -22z"/>
<path d="M5165 3510 c-3 -5 -2 -10 4 -10 5 0 13 5 16 10 3 6 2 10 -4 10 -5 0
-13 -4 -16 -10z"/>
<path d="M4816 3364 c-3 -9 -6 -17 -6 -19 0 -9 77 -41 92 -37 38 8 26 37 -17
43 -5 1 -19 8 -30 15 -25 18 -31 18 -39 -2z"/>
<path d="M4930 3316 c0 -2 9 -6 20 -9 11 -3 20 -1 20 4 0 5 -9 9 -20 9 -11 0
-20 -2 -20 -4z"/>
<path d="M4833 3291 c1 -12 7 -21 15 -21 16 0 12 32 -5 37 -7 3 -11 -4 -10
-16z"/>
<path d="M4870 3288 c0 -5 16 -8 35 -8 19 0 37 0 40 0 3 0 5 3 5 6 0 4 -18 7
-40 8 -22 1 -40 -2 -40 -6z"/>
<path d="M4877 3264 c-11 -12 13 -44 33 -44 11 0 20 -4 20 -10 0 -5 7 -7 15
-4 11 5 13 2 9 -10 -3 -9 -1 -16 5 -16 6 0 20 -9 31 -20 12 -12 25 -18 31 -15
5 4 17 1 25 -6 8 -6 17 -9 21 -5 3 3 1 6 -5 6 -7 0 -12 8 -12 18 0 26 -85 102
-114 102 -14 0 -31 2 -38 5 -8 3 -17 3 -21 -1z"/>
<path d="M4901 3124 c0 -11 3 -14 6 -6 3 7 2 16 -1 19 -3 4 -6 -2 -5 -13z"/>
<path d="M4906 3077 c3 -10 9 -15 12 -12 3 3 0 11 -7 18 -10 9 -11 8 -5 -6z"/>
<path d="M5090 3070 c0 -5 5 -10 10 -10 6 0 10 5 10 10 0 6 -4 10 -10 10 -5 0
-10 -4 -10 -10z"/>
<path d="M5370 3309 c0 -5 5 -7 10 -4 6 3 10 8 10 11 0 2 -4 4 -10 4 -5 0 -10
-5 -10 -11z"/>
<path d="M4770 2921 c0 -6 5 -13 10 -16 6 -3 10 1 10 9 0 9 -4 16 -10 16 -5 0
-10 -4 -10 -9z"/>
<path d="M3698 1893 c7 -3 16 -2 19 1 4 3 -2 6 -13 5 -11 0 -14 -3 -6 -6z"/>
<path d="M2135 8470 c-3 -5 -1 -10 4 -10 6 0 11 5 11 10 0 6 -2 10 -4 10 -3 0
-8 -4 -11 -10z"/>
<path d="M2978 8173 c7 -3 16 -2 19 1 4 3 -2 6 -13 5 -11 0 -14 -3 -6 -6z"/>
<path d="M2994 8155 c-19 -14 -18 -14 4 -15 13 0 22 6 22 15 0 19 -1 19 -26 0z"/>
<path d="M2950 8151 c0 -5 5 -13 10 -16 6 -3 10 -2 10 4 0 5 -4 13 -10 16 -5
3 -10 2 -10 -4z"/>
<path d="M3180 8055 c7 -8 17 -12 22 -9 6 4 5 10 -3 15 -22 14 -33 10 -19 -6z"/>
<path d="M720 7694 c6 -14 8 -30 4 -35 -6 -10 9 -12 19 -3 6 6 -19 64 -28 64
-2 0 0 -12 5 -26z"/>
<path d="M745 7640 c-3 -5 -1 -10 4 -10 6 0 11 5 11 10 0 6 -2 10 -4 10 -3 0
-8 -4 -11 -10z"/>
<path d="M3550 7520 c0 -5 5 -10 11 -10 5 0 7 5 4 10 -3 6 -8 10 -11 10 -2 0
-4 -4 -4 -10z"/>
<path d="M3650 7445 c0 -8 4 -15 10 -15 5 0 7 7 4 15 -4 8 -8 15 -10 15 -2 0
-4 -7 -4 -15z"/>
<path d="M636 7387 c3 -10 9 -15 12 -12 3 3 0 11 -7 18 -10 9 -11 8 -5 -6z"/>
<path d="M642 7335 c0 -11 5 -37 11 -57 9 -29 15 -35 26 -29 12 7 12 13 3 24
-7 7 -10 17 -7 20 3 4 2 4 -2 1 -4 -3 -13 10 -19 28 -8 21 -12 26 -12 13z"/>
<path d="M680 7210 c0 -6 7 -10 15 -10 8 0 15 2 15 4 0 2 -7 6 -15 10 -8 3
-15 1 -15 -4z"/>
<path d="M4037 6963 c-4 -3 -7 -11 -7 -17 0 -6 5 -5 12 2 6 6 9 14 7 17 -3 3
-9 2 -12 -2z"/>
<path d="M3955 6930 c-3 -5 -1 -10 4 -10 6 0 11 5 11 10 0 6 -2 10 -4 10 -3 0
-8 -4 -11 -10z"/>
<path d="M4060 6929 c0 -5 5 -7 10 -4 6 3 10 8 10 11 0 2 -4 4 -10 4 -5 0 -10
-5 -10 -11z"/>
<path d="M4015 6894 c22 -16 35 -18 35 -5 0 5 -12 11 -27 14 -26 5 -26 4 -8
-9z"/>
<path d="M3970 6876 c0 -9 5 -16 10 -16 6 0 10 4 10 9 0 6 -4 13 -10 16 -5 3
-10 -1 -10 -9z"/>
<path d="M4021 6864 c5 -6 6 -14 2 -16 -4 -3 -1 -3 7 0 31 9 60 10 55 2 -3 -5
-13 -6 -22 -3 -14 6 -14 2 3 -19 10 -14 23 -24 28 -21 4 3 3 9 -4 13 -9 6 -8
10 5 17 31 18 12 38 -38 39 -36 1 -44 -2 -36 -12z"/>
<path d="M766 6823 c-6 -14 -5 -15 5 -6 7 7 10 15 7 18 -3 3 -9 -2 -12 -12z"/>
<path d="M3981 6824 c0 -11 3 -14 6 -6 3 7 2 16 -1 19 -3 4 -6 -2 -5 -13z"/>
<path d="M745 6790 c3 -5 8 -10 11 -10 2 0 4 5 4 10 0 6 -5 10 -11 10 -5 0 -7
-4 -4 -10z"/>
<path d="M710 6780 c0 -5 5 -10 11 -10 5 0 7 5 4 10 -3 6 -8 10 -11 10 -2 0
-4 -4 -4 -10z"/>
<path d="M760 6675 c-11 -13 -10 -14 4 -9 9 3 16 10 16 15 0 13 -6 11 -20 -6z"/>
<path d="M4145 6660 c3 -5 8 -10 11 -10 2 0 4 5 4 10 0 6 -5 10 -11 10 -5 0
-7 -4 -4 -10z"/>
<path d="M4224 6635 c-10 -8 -14 -15 -8 -15 6 0 17 7 24 15 16 19 9 19 -16 0z"/>
<path d="M5283 6575 c0 -9 4 -14 9 -13 5 2 10 8 10 13 0 5 -5 11 -10 13 -5 1
-9 -4 -9 -13z"/>
<path d="M4298 6553 c6 -2 12 -12 12 -21 0 -15 2 -15 10 -2 9 15 -4 30 -25 29
-5 0 -4 -3 3 -6z"/>
<path d="M4890 6531 c0 -5 7 -12 16 -15 14 -5 15 -4 4 9 -14 17 -20 19 -20 6z"/>
<path d="M825 6370 c3 -5 8 -10 11 -10 2 0 4 5 4 10 0 6 -5 10 -11 10 -5 0 -7
-4 -4 -10z"/>
<path d="M4355 6340 c-3 -5 1 -10 9 -10 9 0 16 5 16 10 0 6 -4 10 -9 10 -6 0
-13 -4 -16 -10z"/>
<path d="M4570 6330 c-8 -5 -10 -10 -5 -10 6 0 17 5 25 10 8 5 11 10 5 10 -5
0 -17 -5 -25 -10z"/>
<path d="M5237 6306 c-6 -14 10 -36 27 -36 6 0 5 5 -1 11 -6 6 -9 18 -6 25 3
8 1 14 -5 14 -5 0 -12 -6 -15 -14z"/>
<path d="M940 6240 c0 -5 5 -10 11 -10 5 0 7 5 4 10 -3 6 -8 10 -11 10 -2 0
-4 -4 -4 -10z"/>
<path d="M5052 6160 c0 -14 2 -19 5 -12 2 6 2 18 0 25 -3 6 -5 1 -5 -13z"/>
<path d="M940 6119 c0 -5 5 -7 10 -4 6 3 10 8 10 11 0 2 -4 4 -10 4 -5 0 -10
-5 -10 -11z"/>
<path d="M1030 6095 c-9 -10 -9 -15 -1 -15 6 0 11 5 11 11 0 5 5 7 12 3 7 -4
8 -3 4 4 -9 15 -11 15 -26 -3z"/>
<path d="M940 6090 c0 -5 5 -10 10 -10 6 0 10 5 10 10 0 6 -4 10 -10 10 -5 0
-10 -4 -10 -10z"/>
<path d="M5082 6065 c0 -16 2 -22 5 -12 2 9 2 23 0 30 -3 6 -5 -1 -5 -18z"/>
<path d="M5233 6060 c2 -8 12 -16 23 -17 13 -2 15 -1 4 4 -8 3 -19 11 -23 17
-6 7 -7 6 -4 -4z"/>
<path d="M4930 5960 c0 -12 28 -25 36 -17 3 3 -4 10 -15 17 -15 7 -21 7 -21 0z"/>
<path d="M5270 5835 c-11 -20 -11 -28 -1 -38 10 -9 11 -8 5 6 -3 9 -1 24 6 32
7 9 11 18 8 20 -3 3 -11 -6 -18 -20z"/>
<path d="M1151 5744 c0 -11 3 -14 6 -6 3 7 2 16 -1 19 -3 4 -6 -2 -5 -13z"/>
<path d="M1070 5682 c0 -19 36 -59 45 -50 3 3 -1 11 -10 18 -8 7 -15 18 -15
26 0 7 -4 16 -10 19 -5 3 -10 -2 -10 -13z"/>
<path d="M5318 5673 c7 -3 16 -2 19 1 4 3 -2 6 -13 5 -11 0 -14 -3 -6 -6z"/>
<path d="M1127 5510 c3 -11 0 -27 -7 -35 -10 -12 -10 -19 -2 -27 7 -7 12 -18
12 -25 0 -7 9 -22 20 -33 11 -11 20 -28 20 -38 0 -10 5 -23 12 -30 8 -8 8 -15
-1 -26 -8 -10 -9 -16 -1 -21 5 -3 10 -1 10 5 0 6 4 9 9 6 4 -3 6 -17 3 -31 -2
-15 0 -25 7 -25 6 0 11 -9 11 -20 0 -17 5 -19 33 -13 17 3 33 7 34 8 2 0 -9
21 -23 46 -13 24 -31 60 -40 79 -54 125 -90 200 -96 200 -3 0 -4 -9 -1 -20z
m143 -290 c0 -5 -7 -10 -16 -10 -8 0 -12 5 -9 10 3 6 10 10 16 10 5 0 9 -4 9
-10z"/>
<path d="M5370 5241 c0 -5 5 -13 10 -16 6 -3 10 -2 10 4 0 5 -4 13 -10 16 -5
3 -10 2 -10 -4z"/>
<path d="M4719 5027 c14 -37 14 -50 -1 -41 -7 4 -5 -2 5 -14 11 -11 16 -25 13
-30 -3 -5 5 -12 19 -14 31 -6 31 2 -1 60 -32 58 -49 77 -35 39z"/>
<path d="M4666 5006 c-3 -13 -9 -32 -12 -43 -5 -14 -4 -15 5 -3 5 8 13 11 17
7 4 -3 1 -14 -6 -22 -11 -13 -11 -18 0 -28 10 -9 11 -9 6 1 -4 7 -2 19 4 27 9
11 9 19 2 28 -6 7 -9 23 -5 35 3 12 3 22 0 22 -3 0 -8 -11 -11 -24z"/>
<path d="M5390 4976 c0 -2 7 -7 16 -10 8 -3 12 -2 9 4 -6 10 -25 14 -25 6z"/>
<path d="M5370 4940 c-9 -6 -10 -10 -3 -10 6 0 15 5 18 10 8 12 4 12 -15 0z"/>
<path d="M4767 4913 c-20 -5 -18 -24 3 -31 8 -3 10 0 5 8 -5 8 -3 11 6 8 8 -3
13 -11 11 -17 -1 -7 2 -10 7 -7 10 6 3 47 -8 45 -3 -1 -14 -3 -24 -6z"/>
<path d="M4644 4885 c3 -8 0 -15 -7 -15 -7 0 -29 -11 -50 -25 -42 -29 -44 -51
-9 -88 16 -17 22 -36 23 -73 1 -44 2 -46 9 -19 4 17 11 47 14 68 5 27 12 37
25 37 28 0 40 -21 44 -74 3 -41 0 -50 -15 -54 -10 -2 -18 -7 -18 -11 0 -13 24
-31 42 -31 9 0 21 -7 26 -16 11 -19 53 -10 78 17 13 15 17 35 15 92 -2 56 1
77 13 86 9 8 16 20 16 29 0 22 -30 52 -46 45 -8 -3 -20 -1 -27 5 -11 9 -115
42 -132 42 -4 0 -5 -7 -1 -15z m86 -120 c20 -24 6 -28 -15 -5 -10 11 -13 20
-8 20 6 0 16 -7 23 -15z m44 -1 c8 -21 8 -24 -3 -24 -5 0 -11 9 -14 20 -6 24
8 27 17 4z"/>
<path d="M5380 4830 c0 -5 5 -10 10 -10 6 0 10 5 10 10 0 6 -4 10 -10 10 -5 0
-10 -4 -10 -10z"/>
<path d="M1559 4790 c-1 -11 -2 -24 -3 -30 -1 -5 3 -10 8 -9 5 0 12 -5 17 -12
13 -21 22 -3 14 29 -7 36 -34 51 -36 22z"/>
<path d="M4350 4789 c8 -6 11 -12 5 -15 -30 -13 -106 -66 -102 -71 7 -6 91 43
107 62 13 16 6 35 -13 35 -7 0 -6 -4 3 -11z"/>
<path d="M1420 4780 c0 -5 5 -10 10 -10 6 0 10 5 10 10 0 6 -4 10 -10 10 -5 0
-10 -4 -10 -10z"/>
<path d="M5228 4757 c-3 -19 -2 -25 4 -19 6 6 8 18 6 28 -3 14 -5 12 -10 -9z"/>
<path d="M4323 4720 l-42 -27 91 -28 c50 -15 98 -30 106 -33 25 -9 6 12 -55
65 l-58 50 -42 -27z m66 -14 c15 -16 19 -26 12 -31 -7 -3 -10 -1 -9 6 2 6 -3
14 -11 17 -9 3 -11 0 -6 -8 6 -10 4 -12 -9 -7 -10 4 -27 7 -37 7 -11 0 -17 5
-14 10 3 6 15 10 26 10 10 0 19 5 19 10 0 15 4 13 29 -14z"/>
<path d="M4425 4718 c21 -18 57 -50 78 -70 22 -21 45 -38 50 -38 6 0 8 2 6 4
-2 2 -37 33 -78 70 -41 36 -79 66 -84 66 -6 0 7 -15 28 -32z"/>
<path d="M1607 4683 c-4 -3 -7 -11 -7 -17 0 -6 5 -5 12 2 6 6 9 14 7 17 -3 3
-9 2 -12 -2z"/>
<path d="M1578 4638 c-6 -15 1 -38 10 -38 4 0 7 11 7 25 0 26 -10 33 -17 13z"/>
<path d="M5012 4495 c9 -9 68 -13 62 -4 -3 5 -19 9 -36 9 -17 0 -29 -2 -26 -5z"/>
<path d="M4871 4454 c0 -11 3 -14 6 -6 3 7 2 16 -1 19 -3 4 -6 -2 -5 -13z"/>
<path d="M1546 4377 c-11 -8 -16 -19 -12 -25 3 -6 -2 -16 -11 -22 -16 -10 -16
-11 2 -5 11 4 25 8 32 9 20 3 24 12 15 35 -7 19 -10 20 -26 8z"/>
<path d="M1584 4368 c-3 -4 4 -8 15 -8 12 0 21 4 21 8 0 5 -7 9 -15 9 -9 0
-18 -4 -21 -9z"/>
<path d="M4100 4374 c-5 -11 -97 -66 -252 -151 -49 -26 -88 -51 -88 -54 0 -4
7 -10 16 -13 9 -3 12 -2 9 5 -4 6 2 13 14 16 12 3 21 10 21 16 0 8 3 8 10 1
13 -13 2 -44 -15 -44 -15 0 -30 -18 -22 -26 6 -6 47 16 193 102 71 41 95 62
108 89 10 20 16 43 14 53 -2 9 -6 12 -8 6z m-57 -71 c-6 -16 -5 -17 12 -3 17
14 17 14 4 -7 -15 -25 -29 -30 -29 -12 0 6 -8 8 -17 5 -13 -4 -11 0 6 14 29
25 32 25 24 3z m-92 -76 c-8 -8 -11 -5 -11 9 0 27 14 41 18 19 2 -9 -1 -22 -7
-28z m-36 -5 c-6 -4 -22 -18 -37 -31 l-28 -24 0 27 c0 18 4 27 13 23 6 -2 21
-1 32 4 27 10 31 11 20 1z"/>
<path d="M1850 4363 c0 -15 18 -35 23 -27 3 5 -1 15 -9 22 -8 7 -14 9 -14 5z"/>
<path d="M1480 4309 c0 -5 5 -7 10 -4 6 3 10 8 10 11 0 2 -4 4 -10 4 -5 0 -10
-5 -10 -11z"/>
<path d="M3830 4269 c0 -22 4 -38 8 -35 8 5 4 76 -4 76 -2 0 -4 -18 -4 -41z"/>
<path d="M2386 4271 c-4 -5 -2 -12 3 -15 5 -4 12 -2 15 3 4 5 2 12 -3 15 -5 4
-12 2 -15 -3z"/>
<path d="M2420 4250 c0 -5 5 -10 11 -10 5 0 7 5 4 10 -3 6 -8 10 -11 10 -2 0
-4 -4 -4 -10z"/>
<path d="M2528 4230 c2 -16 6 -30 8 -30 2 0 4 14 4 30 0 17 -4 30 -8 30 -5 0
-7 -13 -4 -30z"/>
<path d="M2266 4237 c8 -22 27 -27 42 -11 10 12 10 14 -2 14 -8 0 -22 3 -30 6
-12 4 -15 2 -10 -9z"/>
<path d="M1854 4218 l-19 -23 23 19 c21 18 27 26 19 26 -2 0 -12 -10 -23 -22z"/>
<path d="M2310 4189 c0 -5 18 -9 40 -9 52 0 52 15 0 16 -22 1 -40 -2 -40 -7z"/>
<path d="M2335 4160 c-11 -5 -14 -9 -6 -9 11 -1 11 -4 1 -16 -11 -13 -10 -14
4 -9 11 4 16 1 16 -10 0 -12 6 -15 25 -10 16 4 25 2 25 -6 0 -8 10 -9 31 -5
27 6 30 5 25 -11 -7 -24 4 -40 29 -41 11 -1 31 -4 45 -8 19 -6 22 -5 14 4 -6
6 -25 13 -42 14 -18 1 -32 5 -32 8 0 15 31 30 52 25 13 -3 17 -3 11 0 -21 9
-15 22 15 32 l27 10 -27 1 c-16 1 -28 -3 -28 -9 0 -5 -7 -10 -15 -10 -8 0 -15
7 -15 16 0 12 -9 15 -37 12 -21 -1 -36 1 -35 6 4 10 -17 26 -33 26 -5 0 -3 -5
5 -10 13 -9 13 -10 0 -10 -9 0 -20 4 -25 9 -6 5 -19 5 -30 1z m55 -30 c0 -5
-2 -10 -4 -10 -3 0 -8 5 -11 10 -3 6 -1 10 4 10 6 0 11 -4 11 -10z m80 -10 c0
-5 -12 -10 -27 -9 -25 0 -26 1 -8 9 27 12 35 12 35 0z"/>
<path d="M2555 4160 c-16 -7 -17 -9 -3 -9 9 -1 20 4 23 9 7 11 7 11 -20 0z"/>
<path d="M2020 4079 c0 -5 5 -7 10 -4 6 3 10 8 10 11 0 2 -4 4 -10 4 -5 0 -10
-5 -10 -11z"/>
<path d="M2427 4073 c-4 -3 -7 -11 -7 -17 0 -6 5 -5 12 2 6 6 9 14 7 17 -3 3
-9 2 -12 -2z"/>
<path d="M2035 4023 c0 -27 -5 -43 -20 -55 l-20 -17 23 -1 c12 0 22 -4 22 -10
0 -5 7 -10 15 -10 9 0 12 -6 9 -15 -4 -10 3 -18 21 -25 35 -13 43 -6 16 16
-11 10 -18 21 -15 26 3 4 0 8 -7 8 -10 0 -10 3 0 13 11 10 14 10 18 0 3 -7 9
-13 15 -13 6 0 8 6 5 14 -9 24 5 27 21 5 10 -14 11 -23 4 -28 -7 -4 -4 -15 8
-31 11 -14 20 -20 20 -14 0 5 -5 15 -12 22 -9 9 -9 15 0 24 15 15 16 32 2 23
-5 -3 -10 0 -10 8 0 15 -50 66 -50 51 -1 -5 -7 5 -15 21 -10 22 -14 25 -14 11
-1 -18 -2 -18 -19 -2 -18 15 -19 14 -17 -21z m45 -13 c0 -5 -7 -7 -15 -4 -8 4
-15 8 -15 10 0 2 7 4 15 4 8 0 15 -4 15 -10z"/>
<path d="M2420 4030 c0 -5 5 -10 10 -10 6 0 10 5 10 10 0 6 -4 10 -10 10 -5 0
-10 -4 -10 -10z"/>
<path d="M1881 4017 c-8 -10 -6 -19 10 -35 11 -12 25 -22 32 -22 7 0 4 7 -7
15 -12 9 -17 22 -13 35 6 23 -5 26 -22 7z"/>
<path d="M2500 4010 c0 -5 4 -10 9 -10 6 0 13 5 16 10 3 6 -1 10 -9 10 -9 0
-16 -4 -16 -10z"/>
<path d="M2470 3978 c0 -4 4 -8 10 -8 5 0 2 -9 -7 -19 -9 -11 -20 -18 -25 -15
-4 3 -8 0 -8 -5 0 -15 27 -14 32 0 4 13 78 -9 78 -23 0 -4 7 -8 15 -8 27 0 15
15 -26 32 -36 15 -40 20 -29 33 7 8 11 15 9 16 -24 5 -49 4 -49 -3z"/>
<path d="M1967 3961 c-3 -13 1 -21 13 -24 13 -3 16 1 12 19 -5 29 -18 31 -25
5z"/>
<path d="M2175 3920 c3 -5 11 -10 16 -10 6 0 7 5 4 10 -3 6 -11 10 -16 10 -6
0 -7 -4 -4 -10z"/>
<path d="M2000 3901 c0 -10 19 -25 25 -20 1 2 -3 10 -11 17 -8 7 -14 8 -14 3z"/>
<path d="M4000 3852 c-56 -33 -96 -65 -98 -76 -3 -11 0 -16 7 -11 6 3 9 10 7
14 -3 4 4 12 15 19 12 8 19 9 19 1 0 -5 4 -8 9 -5 16 10 20 -21 5 -43 -16 -22
-41 -30 -27 -8 8 13 13 37 7 37 -10 0 -24 -43 -19 -60 6 -19 6 -19 25 0 10 10
27 17 37 16 10 -2 12 -1 6 1 -14 5 -17 16 -6 26 8 8 33 -25 27 -35 -3 -5 -13
-8 -23 -8 -10 0 -26 -10 -37 -21 -10 -12 -14 -20 -9 -18 54 23 95 45 95 51 0
4 -10 18 -23 32 -36 38 -34 96 2 77 10 -6 42 -11 70 -12 27 -1 48 -6 45 -11
-3 -5 -12 -7 -20 -4 -8 3 -14 -1 -14 -8 0 -8 -7 -17 -16 -20 -9 -4 -14 -9 -10
-13 3 -3 -2 -15 -11 -26 -16 -18 -14 -17 25 3 23 12 42 28 42 35 0 8 4 17 10
20 6 4 7 -1 3 -12 -6 -15 -4 -16 9 -5 14 11 14 18 -6 67 -13 33 -27 55 -36 55
-9 0 -58 -26 -110 -58z m110 23 c0 -8 5 -15 10 -15 6 0 10 -4 10 -8 0 -5 -10
-8 -22 -6 -13 1 -36 3 -53 3 l-30 1 25 20 c30 23 60 26 60 5z m-135 -55 c-3
-5 -1 -10 6 -10 7 0 10 -2 7 -5 -3 -3 -13 -2 -22 1 -14 5 -15 9 -4 15 17 11
20 11 13 -1z"/>
<path d="M2430 3888 c0 -5 9 -8 19 -8 11 0 22 3 24 8 3 4 -6 7 -19 7 -13 0
-24 -3 -24 -7z"/>
<path d="M2511 3886 c-10 -12 -8 -19 8 -35 21 -21 36 -15 21 9 -4 7 -6 19 -3
27 7 17 -11 17 -26 -1z"/>
<path d="M2051 3867 c-9 -12 -8 -18 4 -30 8 -9 15 -21 15 -27 0 -7 8 -24 19
-38 10 -15 21 -34 25 -42 3 -9 5 -6 2 7 -3 16 2 23 21 28 17 4 23 11 19 21 -3
9 -1 12 4 9 6 -3 10 -12 10 -20 0 -7 14 -23 30 -35 17 -12 30 -17 30 -11 0 6
7 8 15 5 8 -4 15 -17 15 -30 0 -16 5 -24 18 -23 10 0 12 3 4 6 -6 2 -10 9 -7
13 3 5 -10 26 -28 47 -19 21 -39 48 -46 61 -7 12 -17 22 -24 21 -28 -3 -38 2
-35 19 2 13 -3 16 -21 14 -14 -1 -28 3 -33 10 -6 10 -8 9 -8 -2 0 -12 -2 -12
-9 -2 -6 10 -10 10 -20 -1z m49 -21 c0 -3 -4 -8 -10 -11 -5 -3 -10 -1 -10 4 0
6 5 11 10 11 6 0 10 -2 10 -4z m10 -36 c0 -5 -2 -10 -4 -10 -3 0 -8 5 -11 10
-3 6 -1 10 4 10 6 0 11 -4 11 -10z m25 -30 c3 -5 1 -10 -4 -10 -6 0 -11 5 -11
10 0 6 2 10 4 10 3 0 8 -4 11 -10z"/>
<path d="M1975 3861 c-3 -5 -1 -12 5 -16 5 -3 10 1 10 9 0 18 -6 21 -15 7z"/>
<path d="M2470 3860 c0 -5 5 -10 11 -10 5 0 7 5 4 10 -3 6 -8 10 -11 10 -2 0
-4 -4 -4 -10z"/>
<path d="M2445 3850 c3 -5 8 -10 11 -10 2 0 4 5 4 10 0 6 -5 10 -11 10 -5 0
-7 -4 -4 -10z"/>
<path d="M2472 3828 c-7 -7 -12 -30 -12 -52 0 -28 3 -37 9 -27 5 8 7 19 5 26
-3 6 0 24 5 38 12 30 10 32 -7 15z"/>
<path d="M3711 3804 c0 -11 3 -14 6 -6 3 7 2 16 -1 19 -3 4 -6 -2 -5 -13z"/>
<path d="M4030 3800 c0 -5 5 -10 10 -10 6 0 10 5 10 10 0 6 -4 10 -10 10 -5 0
-10 -4 -10 -10z"/>
<path d="M2480 3788 c0 -17 21 -58 30 -58 5 0 10 3 10 8 -1 9 -39 59 -40 50z"/>
<path d="M3840 3755 c-7 -8 -16 -12 -21 -9 -5 3 -9 1 -9 -5 0 -17 18 -22 24
-6 3 8 13 15 23 15 17 -1 16 -2 -1 -15 -19 -15 -19 -15 3 -15 13 0 29 -8 36
-17 13 -17 -1 -36 -58 -77 -14 -10 -6 -9 21 4 23 12 40 25 37 30 -4 6 3 10 15
10 20 0 20 1 4 33 -18 36 -43 67 -54 67 -4 0 -13 -7 -20 -15z"/>
<path d="M4040 3760 c0 -5 4 -10 9 -10 6 0 13 5 16 10 3 6 -1 10 -9 10 -9 0
-16 -4 -16 -10z"/>
<path d="M2154 3725 c8 -9 18 -31 22 -50 7 -40 23 -45 42 -14 16 25 5 41 -41
64 -38 19 -42 19 -23 0z"/>
<path d="M2471 3714 c0 -11 3 -14 6 -6 3 7 2 16 -1 19 -3 4 -6 -2 -5 -13z"/>
<path d="M2650 3721 c0 -5 5 -13 10 -16 6 -3 10 -2 10 4 0 5 -4 13 -10 16 -5
3 -10 2 -10 -4z"/>
<path d="M3730 3694 c-30 -19 -47 -34 -38 -34 9 0 20 5 23 11 4 6 14 8 22 5 8
-3 12 -2 9 3 -7 11 22 23 35 16 5 -4 6 2 2 11 -5 14 -3 16 11 11 10 -4 15 -3
11 3 -9 14 -13 12 -75 -26z"/>
<path d="M4124 3714 c-18 -14 -18 -14 6 -3 31 14 36 19 24 19 -6 0 -19 -7 -30
-16z"/>
<path d="M4193 3708 c-2 -22 -1 -22 19 1 16 18 15 20 -1 18 -9 0 -18 -9 -18
-19z"/>
<path d="M2695 3710 c-3 -5 -1 -10 4 -10 6 0 11 5 11 10 0 6 -2 10 -4 10 -3 0
-8 -4 -11 -10z"/>
<path d="M2116 3694 c-5 -14 -4 -15 9 -4 17 14 19 20 6 20 -5 0 -12 -7 -15
-16z"/>
<path d="M2405 3700 c-3 -5 -1 -10 4 -10 6 0 11 5 11 10 0 6 -2 10 -4 10 -3 0
-8 -4 -11 -10z"/>
<path d="M3849 3682 c-15 -13 -19 -21 -10 -26 6 -4 10 -3 9 3 -2 5 6 17 17 25
11 8 17 16 14 16 -4 0 -17 -8 -30 -18z"/>
<path d="M2131 3664 c0 -11 3 -14 6 -6 3 7 2 16 -1 19 -3 4 -6 -2 -5 -13z"/>
<path d="M4115 3660 c10 -11 20 -20 23 -20 3 0 -3 9 -13 20 -10 11 -20 20 -23
20 -3 0 3 -9 13 -20z"/>
<path d="M4210 3670 c0 -5 5 -10 10 -10 6 0 10 5 10 10 0 6 -4 10 -10 10 -5 0
-10 -4 -10 -10z"/>
<path d="M2357 3645 c-10 -14 -14 -25 -10 -25 9 0 43 36 43 45 0 12 -17 2 -33
-20z"/>
<path d="M3778 3659 c-3 -8 1 -20 8 -27 15 -14 17 -7 5 22 -6 15 -9 16 -13 5z"/>
<path d="M3716 3645 c-16 -12 -22 -12 -28 -2 -5 7 -8 8 -8 1 0 -6 10 -19 23
-30 12 -10 17 -12 10 -5 -9 11 -7 18 10 32 26 22 20 25 -7 4z"/>
<path d="M4232 3648 c-7 -7 -12 -18 -12 -26 0 -8 -6 -12 -13 -9 -8 3 -14 -1
-14 -9 0 -8 7 -14 16 -14 9 0 27 -3 41 -6 24 -5 24 -4 -2 8 -27 12 -27 14 -14
41 16 30 16 33 -2 15z"/>
<path d="M3900 3630 c-24 -18 -24 -19 -3 -14 12 4 28 12 34 20 17 20 -2 17
-31 -6z"/>
<path d="M2240 3632 c0 -12 19 -26 26 -19 2 2 -2 10 -11 17 -9 8 -15 8 -15 2z"/>
<path d="M2490 3629 c0 -5 5 -7 10 -4 6 3 10 8 10 11 0 2 -4 4 -10 4 -5 0 -10
-5 -10 -11z"/>
<path d="M2797 3621 c-3 -12 1 -22 9 -25 10 -4 14 2 14 19 0 30 -16 33 -23 6z"/>
<path d="M4274 3615 c10 -8 24 -11 29 -8 6 4 2 10 -9 14 -31 12 -40 9 -20 -6z"/>
<path d="M4060 3556 c-52 -22 -88 -42 -79 -44 17 -3 176 55 184 68 13 21 -17
15 -105 -24z"/>
<path d="M4345 3590 c3 -5 8 -10 11 -10 2 0 4 5 4 10 0 6 -5 10 -11 10 -5 0
-7 -4 -4 -10z"/>
<path d="M3725 3580 c4 -6 11 -8 16 -5 14 9 11 15 -7 15 -8 0 -12 -5 -9 -10z"/>
<path d="M4290 3582 c0 -4 11 -9 26 -10 14 -1 23 2 19 8 -7 12 -45 14 -45 2z"/>
<path d="M2485 3550 c-3 -5 1 -10 9 -10 9 0 16 5 16 10 0 6 -4 10 -9 10 -6 0
-13 -4 -16 -10z"/>
<path d="M2470 3521 c0 -5 -3 -16 -6 -25 -4 -11 -1 -16 10 -16 9 0 16 7 16 15
0 8 6 15 13 15 8 0 7 4 -3 10 -19 12 -30 13 -30 1z"/>
<path d="M3870 3460 c-8 -5 -10 -10 -5 -10 6 0 17 5 25 10 8 5 11 10 5 10 -5
0 -17 -5 -25 -10z"/>
<path d="M3805 3400 c-3 -5 -15 -10 -25 -10 -10 0 -22 -5 -26 -12 -5 -8 0 -9
16 -5 13 3 31 1 39 -6 14 -10 14 -10 4 4 -10 12 -10 18 -1 27 7 7 9 12 6 12
-4 0 -10 -4 -13 -10z"/>
<path d="M3596 3319 c-8 -42 0 -50 9 -9 4 17 5 34 2 36 -2 3 -7 -10 -11 -27z"/>
<path d="M3553 3255 c0 -8 6 -16 14 -19 8 -3 13 2 13 14 0 11 -6 20 -13 20 -8
0 -14 -7 -14 -15z"/>
<path d="M2391 3206 c12 -10 59 -15 59 -6 0 5 -14 10 -32 10 -17 0 -29 -2 -27
-4z"/>
<path d="M2460 3186 c0 -2 7 -6 15 -10 8 -3 15 -1 15 4 0 6 -7 10 -15 10 -8 0
-15 -2 -15 -4z"/>
<path d="M3334 3095 c-18 -13 -18 -14 4 -8 12 3 25 9 28 14 8 14 -10 11 -32
-6z"/>
<path d="M3295 3069 c-4 -6 -5 -12 -2 -15 2 -3 7 2 10 11 7 17 1 20 -8 4z"/>
<path d="M3286 3031 c-35 -13 -2 -18 34 -5 30 11 31 13 10 13 -14 0 -34 -4
-44 -8z"/>
<path d="M3206 3021 c-4 -5 3 -7 14 -4 23 6 26 13 6 13 -8 0 -17 -4 -20 -9z"/>
<path d="M3170 3010 c-9 -6 -10 -10 -3 -10 6 0 15 5 18 10 8 12 4 12 -15 0z"/>
<path d="M3400 3000 c0 -5 5 -10 11 -10 5 0 7 5 4 10 -3 6 -8 10 -11 10 -2 0
-4 -4 -4 -10z"/>
<path d="M2306 2977 c3 -10 9 -15 12 -12 3 3 0 11 -7 18 -10 9 -11 8 -5 -6z"/>
<path d="M3320 2986 c0 -2 9 -6 20 -9 11 -3 18 -1 14 4 -5 9 -34 13 -34 5z"/>
<path d="M3410 2954 c0 -8 5 -12 10 -9 6 3 10 10 10 16 0 5 -4 9 -10 9 -5 0
-10 -7 -10 -16z"/>
<path d="M3480 2960 c0 -5 5 -10 11 -10 5 0 7 5 4 10 -3 6 -8 10 -11 10 -2 0
-4 -4 -4 -10z"/>
<path d="M2280 2914 c0 -14 4 -23 9 -20 5 3 7 15 4 26 -7 28 -13 25 -13 -6z"/>
<path d="M3401 2904 c0 -11 3 -14 6 -6 3 7 2 16 -1 19 -3 4 -6 -2 -5 -13z"/>
<path d="M3425 2834 c-18 -14 -18 -14 2 -14 23 0 39 15 26 23 -5 3 -17 -1 -28
-9z"/>
<path d="M4210 2626 c0 -2 8 -10 18 -17 15 -13 16 -12 3 4 -13 16 -21 21 -21
13z"/>
<path d="M4166 2604 c-20 -20 -21 -19 12 -20 15 -1 22 1 15 3 -7 2 -9 11 -6
19 7 18 -2 18 -21 -2z"/>
<path d="M2642 2514 c-16 -17 0 -44 25 -44 8 0 29 -9 46 -21 l32 -21 -30 26
c-16 14 -38 26 -47 26 -9 0 -20 5 -24 11 -4 8 1 9 17 4 13 -3 19 -3 13 2 -6 4
-13 13 -15 20 -3 7 -8 7 -17 -3z"/>
<path d="M3825 2490 c3 -5 8 -10 11 -10 2 0 4 5 4 10 0 6 -5 10 -11 10 -5 0
-7 -4 -4 -10z"/>
<path d="M3225 2417 c1 -40 4 -78 8 -84 4 -5 9 -48 12 -94 9 -129 13 -160 28
-209 8 -25 13 -53 11 -62 -1 -13 4 -18 20 -18 20 0 22 4 19 41 -2 22 -7 48
-12 58 -6 10 -12 42 -16 72 -4 40 -3 48 4 32 22 -49 52 -17 50 52 l-1 30 -10
-35 c-5 -19 -12 -37 -14 -40 -8 -8 -24 24 -24 48 0 12 -4 22 -9 22 -5 0 -9 15
-9 33 0 17 -8 57 -18 87 -9 30 -18 69 -19 85 -3 50 -5 55 -13 55 -5 0 -8 -33
-7 -73z"/>
<path d="M2886 2461 c-4 -5 3 -7 14 -4 23 6 26 13 6 13 -8 0 -17 -4 -20 -9z"/>
<path d="M2875 2380 c-3 -5 -1 -10 4 -10 6 0 11 5 11 10 0 6 -2 10 -4 10 -3 0
-8 -4 -11 -10z"/>
<path d="M3412 2370 c0 -14 2 -19 5 -12 2 6 2 18 0 25 -3 6 -5 1 -5 -13z"/>
<path d="M2818 2342 c-4 -13 1 -27 14 -39 20 -18 21 -17 13 7 -14 45 -22 54
-27 32z"/>
<path d="M2944 2329 c-3 -6 -21 -9 -39 -7 -19 2 -31 0 -29 -4 3 -4 18 -8 33
-8 17 0 36 -10 49 -25 23 -27 37 -31 47 -15 3 6 0 10 -8 10 -8 0 -18 7 -21 16
-9 23 -7 31 4 14 5 -8 12 -12 15 -8 7 6 -22 38 -35 38 -5 0 -12 -5 -16 -11z"/>
<path d="M3630 2235 c0 -10 72 -75 82 -75 14 0 9 7 -37 44 -25 21 -45 34 -45
31z"/>
<path d="M4170 2189 c0 -5 5 -7 10 -4 6 3 10 8 10 11 0 2 -4 4 -10 4 -5 0 -10
-5 -10 -11z"/>
<path d="M4202 2165 c-6 -14 -16 -25 -22 -25 -5 0 -10 -5 -10 -11 0 -18 44 19
47 41 4 27 -1 25 -15 -5z"/>
<path d="M4070 2175 c0 -2 10 -10 23 -16 20 -11 21 -11 8 4 -13 16 -31 23 -31
12z"/>
<path d="M2940 2160 c0 -5 4 -10 9 -10 6 0 13 5 16 10 3 6 -1 10 -9 10 -9 0
-16 -4 -16 -10z"/>
<path d="M4152 2158 c-23 -12 -25 -29 -4 -36 7 -2 10 2 6 12 -4 11 -1 16 10
16 9 0 16 5 16 10 0 12 1 12 -28 -2z"/>
<path d="M3750 2130 c0 -5 5 -10 11 -10 5 0 7 5 4 10 -3 6 -8 10 -11 10 -2 0
-4 -4 -4 -10z"/>
<path d="M3860 2009 c0 -5 5 -7 10 -4 6 3 10 8 10 11 0 2 -4 4 -10 4 -5 0 -10
-5 -10 -11z"/>
<path d="M2640 1970 c0 -5 7 -10 16 -10 8 0 12 5 9 10 -3 6 -10 10 -16 10 -5
0 -9 -4 -9 -10z"/>
<path d="M2716 1964 c-8 -22 -4 -25 11 -9 7 8 9 16 4 19 -5 3 -12 -1 -15 -10z"/>
<path d="M3253 1933 c28 -4 28 -5 26 -66 -2 -35 2 -71 9 -82 10 -18 11 -16 12
16 0 19 4 39 9 45 5 5 11 27 14 49 l5 41 -52 0 c-28 1 -38 -1 -23 -3z"/>
<path d="M2738 1923 c7 -3 16 -2 19 1 4 3 -2 6 -13 5 -11 0 -14 -3 -6 -6z"/>
<path d="M3472 1885 c0 -16 2 -22 5 -12 2 9 2 23 0 30 -3 6 -5 -1 -5 -18z"/>
<path d="M3470 1805 c0 -8 5 -15 10 -15 6 0 10 7 10 15 0 8 -4 15 -10 15 -5 0
-10 -7 -10 -15z"/>
<path d="M3460 1719 c-13 -24 -13 -24 17 -33 27 -8 37 7 23 34 -14 26 -26 25
-40 -1z"/>
</g>
</svg>
